<?xml version="1.0" encoding="UTF-8"?>
<svg width="592px" height="94px" viewBox="0 0 592 94" version="1.1" xmlns="http://www.w3.org/2000/svg" xmlns:xlink="http://www.w3.org/1999/xlink">
    <!-- Generator: Sketch 55.2 (78181) - https://sketchapp.com -->
    <title>security_bank</title>
    <desc>Created with Sketch.</desc>
    <g id="Page-1" stroke="none" stroke-width="1" fill="none" fill-rule="evenodd">
        <g id="security_bank" transform="translate(0.237500, 0.309375)" fill-rule="nonzero">
            <g id="#9fd067ff" transform="translate(3.403125, 0.000000)" fill="#9FD067">
                <path d="M29.3535,0.86934375 C40.1661563,-1.48190625 51.962625,1.14778125 60.674625,7.9880625 C55.21725,14.47875 49.9485937,21.1272188 44.4695625,27.5993438 C40.0671562,32.657625 36.0329063,38.0221875 31.6243125,43.077375 C30.21975,44.760375 28.945125,46.5454687 27.4539375,48.1573125 C24.0539063,52.3895625 20.5363125,56.5259063 17.1455625,60.7643438 C15.741,62.4009375 14.4725625,64.1489063 12.9968437,65.7267188 C6.95475,60.5725313 2.79984375,53.3393438 1.00546875,45.6328125 C-0.730125,37.8118125 -0.07425,29.4091875 3.22678125,22.077 C5.3150625,17.2940625 8.48925,13.0277813 12.3038438,9.4854375 C17.1672188,5.284125 23.04225,2.190375 29.3535,0.86934375 Z" id="Path"></path>
            </g>
            <path d="M567.424687,59.0349375 C565.107469,55.9566563 563.025375,52.705125 560.825719,49.5464063 C560.559656,49.1442188 560.293594,48.7482187 560.030625,48.3553125 C559.91925,57.1137188 559.959469,65.8783125 560.005875,74.6367188 L560.083219,74.6893125 C556.373812,74.633625 552.664406,74.658375 548.955,74.6738438 C548.982844,56.034 548.970469,37.3941563 548.961188,18.7574063 C552.658219,18.7883438 556.35525,18.7821563 560.055375,18.7543125 C560.012063,26.6402813 560.008969,34.52625 560.052281,42.4122188 C565.590094,34.7180625 571.084594,26.9929688 576.582188,19.2709688 L576.613125,19.2709688 C580.916531,19.1719688 585.226125,19.2029063 589.532625,19.2369375 C589.483125,19.5834375 589.436719,19.9268438 589.393406,20.2733438 C583.400813,28.7192813 577.265906,37.0785938 571.174313,45.4626562 C577.934156,55.1770313 584.629031,64.9378125 591.367219,74.6676562 C586.918406,74.6490938 582.469594,74.6769375 578.020781,74.6552813 C574.6455,69.634125 571.186688,64.6686562 567.765,59.6784375 C567.613406,59.4773438 567.498938,59.2607813 567.424688,59.0349375 Z M87.5685937,20.7683438 C91.3275,17.7055313 96.4724062,17.089875 101.137781,17.7705 C105.305062,18.3737813 109.252687,20.41875 112.139156,23.48775 C109.784812,26.272125 107.48925,29.1121875 105.147281,31.9058438 C102.78675,30.3280313 100.271531,28.71 97.4129062,28.2861563 C94.0995,28.2552188 91.9060312,32.3204063 93.1620937,35.2223438 C94.0530937,37.3941563 96.0795,38.8018125 98.071875,39.8784375 C101.716312,41.679 105.543281,43.3063125 108.62775,46.0164375 C111.959719,49.3205625 113.791219,54.0725625 113.463281,58.7626875 C113.119875,67.9944375 104.608969,76.2392813 95.299875,75.8835 C89.02575,75.9360937 83.6580937,71.9265938 79.5000937,67.5953438 C82.009125,64.461375 84.4408125,61.2624375 86.922,58.1068125 C88.5152812,60.055875 90.4705312,61.7450625 92.7042187,62.9175938 C94.4985937,63.7590938 96.8127187,64.17675 98.5390312,62.9578125 C100.104469,61.8038438 101.518312,60.1827188 101.750344,58.1810625 C101.948344,56.3743125 100.902656,54.6944063 99.5970937,53.5435313 C95.5566562,49.8403125 89.5393125,49.4102813 85.597875,45.5616563 C82.652625,42.2915625 81.2635312,37.756125 81.5172187,33.38775 C81.6409687,28.5893438 83.7137812,23.73525 87.5685937,20.7683438 Z M166.582969,21.1798125 C170.001562,18.9120938 174.082219,17.659125 178.184531,17.6003438 C183.508875,17.424 188.737312,19.0482188 193.464562,21.3994688 C193.408875,26.0308125 193.42125,30.66525 193.461469,35.2996875 C189.665437,32.7782813 185.516719,30.5353125 180.953437,29.8701563 C177.188344,29.3009063 173.082938,30.2909063 170.335688,33.0165 C166.613906,36.50625 165.35475,41.7934688 165.246469,46.7249063 C165.169125,51.492375 166.378781,56.5754063 169.849969,60.031125 C172.535344,62.827875 176.520094,64.0715625 180.334687,63.867375 C185.083594,63.4930313 189.470531,61.281 193.393406,58.6977188 C193.504781,63.3105 193.390312,67.926375 193.439812,72.5391563 C187.824656,74.5500938 181.897031,76.3351875 175.867312,75.722625 C171.263813,75.26475 166.883062,73.198125 163.479937,70.0889063 C158.802187,65.85975 155.556844,60.0713438 154.3905,53.868375 C153.17775,47.4859688 153.592312,40.7385 155.915719,34.6438125 C158.056594,29.2514063 161.728875,24.4065938 166.582969,21.1798125 Z M199.828406,18.2098125 C203.457375,18.2345625 207.089437,18.216 210.718406,18.2221875 C210.699844,29.6814375 210.712219,41.1375938 210.712219,52.59375 C210.743156,55.6101563 211.569187,58.7750625 213.759563,60.9623438 C217.274062,64.387125 223.774031,63.8147813 226.694531,59.8857188 C228.352781,57.7324688 228.826125,54.9357187 228.91275,52.2812813 C228.922031,40.9303125 228.900375,29.57625 228.922031,18.2252813 C232.232344,18.216 235.542656,18.2314688 238.852969,18.2129063 C239.202562,18.2005313 239.907938,18.14175 239.796562,18.7140938 C239.663531,27.94275 239.778,37.1745 239.740875,46.4031563 C239.694469,49.8465 239.842969,53.2960313 239.648062,56.7362812 C238.964344,62.0049375 236.996719,67.4839688 232.770656,70.945875 C229.138594,73.9251562 224.346375,75.376125 219.674812,75.2090625 C214.684594,75.2554688 209.347875,73.866375 205.833375,70.129125 C202.222969,66.0979688 199.881,60.8200313 199.834594,55.3626563 C199.8315,42.978375 199.843875,30.5940938 199.828406,18.2098125 Z M119.152687,18.6924375 C128.863969,18.6955313 138.578344,18.7171875 148.292719,18.6800625 C148.27725,22.39875 148.289625,26.1174375 148.286531,29.836125 C142.309406,29.761875 136.329187,29.87325 130.352062,29.7804375 C130.361344,33.548625 130.342781,37.3168125 130.361344,41.085 C136.344656,41.0880938 142.327969,41.1066563 148.311281,41.0757188 C148.261781,44.7387188 148.283437,48.4017188 148.298906,52.0647188 C142.315594,52.0059375 136.332281,52.074 130.348969,52.0306875 C130.367531,55.9009688 130.339687,59.7743438 130.367531,63.644625 C136.338469,63.5734688 142.3125,63.6539063 148.286531,63.6044063 C148.292719,67.32 148.267969,71.0355938 148.298906,74.7511875 C138.581437,74.7016875 128.860875,74.7542813 119.143406,74.7233437 C119.180531,56.046375 119.155781,37.3694063 119.152687,18.6924375 Z M376.283531,18.748125 C380.367281,18.78525 384.454125,18.8069063 388.537875,18.73575 C383.151656,28.6326563 377.725219,38.511 372.385406,48.4326563 C372.128625,50.51475 372.345188,52.6525313 372.270938,54.7562813 C372.292594,61.3892813 372.230719,68.0222813 372.301875,74.6552813 C368.654344,74.6738438 365.009906,74.658375 361.362375,74.6552813 C361.418063,66.2712188 361.362375,57.8840625 361.393313,49.4969063 C361.504687,48.5409375 360.923062,47.7520313 360.489937,46.963125 C355.38525,37.5519375 350.240344,28.1685938 345.144937,18.7543125 C349.207031,18.8192813 353.272219,18.7202813 357.334313,18.7945313 C360.595125,24.4375313 363.55275,30.2754375 366.730031,35.974125 C369.975375,30.2661563 372.997969,24.4313438 376.283531,18.748125 Z M462.620812,18.5408438 C465.470156,18.5686875 468.328781,18.4418438 471.171938,18.6058125 C478.19475,37.3291875 485.047406,56.133 491.992875,74.8935 C488.280375,74.8842188 484.570969,74.9213438 480.858469,74.8842188 C479.491031,71.181 478.1205,67.4777813 476.762344,63.768375 C470.271656,63.7745625 463.780969,63.7405313 457.290281,63.7838438 C455.959969,67.4901563 454.601813,71.1840938 453.293156,74.8965938 C449.602312,74.86875 445.908375,74.9491875 442.220625,74.8625625 C448.98975,56.0773125 455.876438,37.3322813 462.620812,18.5408438 Z M460.990406,53.4878438 C464.990625,53.5064063 468.990844,53.4816563 472.991062,53.5064063 C470.927531,48.03975 468.93825,42.5483438 466.893281,37.0755 C465.009187,42.5761875 462.982781,48.0242813 460.990406,53.4878438 Z M496.8315,18.6676875 C500.500688,18.7295625 504.169875,18.6955313 507.839063,18.6893438 C515.672438,30.6405 523.43775,42.6380625 531.314438,54.561375 C531.289688,42.607125 531.333,30.652875 531.292781,18.6955313 C534.940313,18.6924375 538.587844,18.7140938 542.235375,18.6831563 C542.223,37.3694063 542.226094,56.0556563 542.232281,74.7419062 C538.603313,74.7264375 534.97125,74.7171563 531.342281,74.7511875 C523.518188,62.7072188 515.768344,50.6199375 507.916406,38.597625 C507.975188,50.6415938 507.897844,62.6855625 507.956625,74.732625 C504.241031,74.745 500.528531,74.6985938 496.819125,74.757375 C496.853156,56.0618438 496.822219,37.3632188 496.8315,18.6676875 Z M246.791531,18.7419375 C251.147531,18.8130938 255.503531,18.7512188 259.862625,18.772875 C262.956375,18.8130938 266.127469,18.5439375 269.134594,19.4627813 C273.465844,20.5827188 277.153594,23.8497188 278.793281,28.0108125 C280.17,31.7016563 280.361813,35.7915938 279.511031,39.62475 C278.824219,42.4524375 277.790906,45.3110625 275.826375,47.5169063 C274.406344,49.1751563 272.531531,50.3322188 270.635063,51.3655313 C275.19525,59.2205625 280.086469,66.886875 284.742563,74.6893125 C280.504125,74.6274375 276.265688,74.6769375 272.030344,74.658375 C267.751688,67.419 263.2905,60.2848125 258.984,53.0578125 C258.575625,53.0485313 258.173437,53.03925 257.77125,53.0299688 C257.743406,60.2445937 257.758875,67.456125 257.761969,74.67075 C254.105156,74.6645625 250.44525,74.6305312 246.791531,74.6893125 C246.83175,56.0401875 246.828656,37.3910625 246.791531,18.7419375 Z M257.817656,28.8120938 C257.842406,33.6321563 257.833125,38.4522188 257.82075,43.2722813 C260.484469,43.324875 263.355469,43.4300625 265.719094,41.9821875 C267.538219,40.9365 268.475625,38.8636875 268.686,36.8465625 C269.066531,34.4798438 268.243594,31.85325 266.251219,30.41775 C263.844281,28.5955313 260.676281,28.7409375 257.817656,28.8120938 Z M288.909844,18.7574063 C292.575938,18.7759688 296.245125,18.7883438 299.914312,18.7605 C299.886469,37.3941563 299.871,56.0309063 299.9205,74.6676562 C296.254406,74.658375 292.588313,74.646 288.925313,74.6769375 C288.934594,56.0370938 288.965531,37.39725 288.909844,18.7574063 Z M305.931656,18.7635938 C317.502281,18.772875 329.076,18.7883438 340.646625,18.7543125 C340.655906,22.7297813 340.649719,26.7021563 340.652812,30.6745313 C336.702094,30.677625 332.751375,30.6683438 328.797563,30.6807188 C328.834688,45.3358125 328.769719,59.994 328.831594,74.6521875 C325.112906,74.6862187 321.397312,74.62125 317.681719,74.6955 C317.703375,60.0218438 317.712656,45.3481875 317.675531,30.677625 C313.765031,30.677625 309.854531,30.66525 305.944031,30.6807188 C305.93475,26.7083438 305.953313,22.7359688 305.931656,18.7635938 Z M406.438312,18.8007188 C412.26075,18.8873438 418.089375,18.7666875 423.914906,18.8409375 C427.215937,19.1131875 430.705688,19.9268438 433.189969,22.2657188 C436.989094,26.222625 438.130688,32.261625 436.670437,37.4684063 C435.912469,40.11975 433.99125,42.186375 432.097875,44.0983125 C434.780156,45.1594688 437.354156,46.7589375 439.0155,49.1751563 C442.065938,53.73225 442.434094,59.7372188 440.670656,64.845 C439.58475,67.8459375 437.400562,70.4199375 434.653313,72.034875 C431.302781,73.9746563 427.367531,74.7171562 423.528188,74.6614688 C417.810937,74.6398125 412.096781,74.7016875 406.382625,74.6305313 C406.534219,73.8942187 406.614656,73.148625 406.6425,72.3999375 C406.586813,55.6936875 406.645594,38.9874375 406.605375,22.2811875 C406.61775,21.1210313 406.698187,19.9454063 406.438312,18.8007188 Z M417.087,28.1964375 C417.077719,32.2585313 417.099375,36.320625 417.080813,40.3858125 C419.227875,40.392 421.600781,40.5683438 423.419906,39.1947188 C425.341125,37.8334688 426.423937,35.4141563 426.216656,33.078375 C425.913469,30.5445938 423.577688,28.697625 421.176938,28.2799688 C419.818781,28.1067188 418.44825,28.227375 417.087,28.1964375 Z M417.087,49.9052813 C417.093187,55.0161563 417.090094,60.1270313 417.087,65.2379063 C420.37875,65.129625 423.921094,65.7081563 426.943687,64.053 C429.208312,62.9361563 430.257094,60.2755313 430.117875,57.8562188 C430.213781,55.1955938 429.013406,52.3895625 426.625031,51.0561563 C423.713812,49.4164688 420.267375,50.0475938 417.087,49.9052813 Z" id="Combined-Shape" fill="#0168B3"></path>
            <g id="#135ea1ff" transform="translate(405.900000, 18.562500)" fill="#135EA1">
                <path d="M0.05259375,0.1670625 L0.5383125,0.23821875 C0.7981875,1.38290625 0.71775,2.55853125 0.705375,3.7186875 C0.74559375,20.4249375 0.6868125,37.1311875 0.7425,53.8374375 C0.71465625,54.586125 0.63421875,55.3317188 0.482625,56.0680312 L0.0556875,56.1794063 C0.08353125,37.508625 0.0928125,18.8378438 0.05259375,0.1670625 Z" id="Path"></path>
            </g>
            <g id="#053f76ff" transform="translate(576.365625, 18.562500)" fill="#053F76">
                <path d="M0.2475,0.70846875 C0.5011875,-0.012375 1.2931875,0.28771875 1.85315625,0.21346875 C5.96165625,0.21965625 10.0701562,0.25678125 14.1786562,0.1918125 C13.798125,0.705375 13.426875,1.2189375 13.0277812,1.71084375 C13.0710938,1.36434375 13.1175,1.0209375 13.167,0.6744375 C8.8605,0.64040625 4.55090625,0.60946875 0.2475,0.70846875 Z" id="Path"></path>
            </g>
            <g id="#1ab7eaff" transform="translate(0.000000, 27.534375)" fill="#1AB7EA">
                <path d="M35.0274375,15.543 C39.4360312,10.4878125 43.4702812,5.12325 47.8726875,0.06496875 C53.8343437,5.482125 58.1903438,12.6998438 59.882625,20.6012812 C61.664625,28.7409375 60.7395937,37.5055312 57.0518437,45.0047812 C53.8281562,51.764625 48.4079063,57.4107188 41.90175,61.0922813 C35.9524688,64.4149687 29.0905312,66.0732187 22.2935625,65.90925 C14.3271563,65.550375 6.43809375,62.8433438 0.13303125,57.9242813 C5.60278125,51.3871875 10.9859062,44.7758437 16.3999687,38.1923437 C17.8756875,36.6145312 19.144125,34.8665625 20.5486875,33.2299687 C23.9394375,28.9915313 27.4570312,24.8551875 30.8570625,20.6229375 C32.34825,19.0110937 33.622875,17.226 35.0274375,15.543 Z" id="Path"></path>
            </g>
        </g>
    </g>
</svg>