<?xml version="1.0" encoding="UTF-8" ?>
<!DOCTYPE svg PUBLIC "-//W3C//DTD SVG 1.1//EN" "http://www.w3.org/Graphics/SVG/1.1/DTD/svg11.dtd">
<svg width="457pt" height="123pt" viewBox="0 0 4285 1153" version="1.1" xmlns="http://www.w3.org/2000/svg">
<g id="#ffffffff">
</g>
<g id="#06a7e0ff">
<path fill="#06a7e0" opacity="1.00" d=" M 217.64 177.93 C 219.22 158.09 223.98 138.45 231.61 120.07 C 261.79 158.30 298.46 191.32 339.43 217.63 C 400.06 256.80 469.87 280.43 541.01 291.21 C 590.55 298.76 640.98 300.31 690.92 296.29 C 701.75 295.36 712.57 294.19 723.30 292.43 C 686.66 311.61 647.76 326.46 607.64 336.50 C 534.07 354.84 456.66 357.17 382.02 344.05 C 363.81 340.77 345.70 336.75 328.11 330.97 C 307.18 323.78 286.81 314.30 269.21 300.74 C 251.66 287.46 237.05 269.99 228.24 249.74 C 218.26 227.34 215.32 202.22 217.64 177.93 Z" />
<path fill="#06a7e0" opacity="1.00" d=" M 59.52 366.29 C 57.13 345.75 56.33 324.84 59.51 304.33 C 91.21 325.23 123.83 344.98 158.61 360.36 C 202.36 380.04 248.75 393.63 296.02 401.68 C 378.80 415.78 463.59 413.98 546.69 403.55 C 635.39 392.42 722.55 371.21 807.93 345.03 C 778.31 367.24 747.09 387.24 715.34 406.24 C 642.25 449.46 564.78 485.82 483.43 510.52 C 423.65 528.48 361.52 539.71 298.99 539.75 C 254.23 539.48 209.16 533.66 166.67 519.26 C 144.53 511.27 124.22 498.13 108.25 480.81 C 89.53 460.64 76.42 435.65 68.70 409.34 C 64.19 395.34 61.49 380.84 59.52 366.29 Z" />
<path fill="#06a7e0" opacity="1.00" d=" M 651.34 503.32 C 680.89 485.29 709.77 466.07 737.18 444.89 C 695.04 507.96 646.06 566.99 587.87 615.91 C 557.84 640.87 525.40 663.17 490.30 680.39 C 468.51 691.01 445.73 699.89 421.98 704.95 C 399.32 709.36 375.93 710.72 353.01 707.59 C 334.68 705.51 316.60 700.37 300.30 691.67 C 284.92 683.50 271.42 671.79 261.33 657.59 C 247.69 638.52 240.56 615.56 237.38 592.53 C 268.97 603.75 302.55 608.94 336.03 608.79 C 369.25 608.94 402.36 604.26 434.64 596.62 C 473.26 587.55 510.72 574.03 546.99 558.06 C 582.92 542.11 617.72 523.67 651.34 503.32 Z" />
</g>
<g id="#039482ff">
<path fill="#039482" opacity="1.00" d=" M 984.88 216.28 C 1023.11 212.43 1061.74 211.85 1099.98 215.77 C 1122.50 218.47 1145.15 222.68 1165.95 232.04 C 1175.77 236.57 1185.25 242.36 1192.55 250.46 C 1199.68 257.89 1204.18 267.77 1205.08 278.04 C 1206.16 288.15 1203.83 298.21 1200.70 307.77 C 1187.54 295.44 1170.30 288.51 1153.06 284.11 C 1139.55 280.82 1125.70 279.16 1111.83 278.62 C 1095.40 298.69 1069.20 311.11 1043.10 308.42 C 1029.24 307.08 1016.11 300.55 1006.27 290.77 C 1003.46 288.08 1000.80 285.23 998.13 282.40 C 1020.83 291.34 1047.82 289.28 1068.20 275.58 C 1032.71 270.45 996.80 268.93 960.97 268.50 C 908.53 268.32 856.08 271.50 804.04 277.97 C 787.17 279.91 770.40 282.63 753.59 285.00 C 787.57 266.31 824.12 252.70 861.13 241.33 C 901.55 229.51 942.86 220.06 984.88 216.28 Z" />
<path fill="#039482" opacity="1.00" d=" M 997.43 373.40 C 1068.10 345.27 1144.67 328.92 1220.96 334.79 C 1247.53 337.03 1274.13 341.93 1298.85 352.17 C 1311.40 357.56 1323.78 364.96 1331.45 376.59 C 1337.61 385.79 1339.57 397.31 1338.27 408.19 C 1336.03 425.11 1328.15 440.88 1317.84 454.32 C 1316.14 444.66 1312.06 435.00 1304.61 428.38 C 1295.58 419.89 1282.99 416.57 1270.95 415.45 C 1250.78 413.75 1230.55 417.06 1210.96 421.65 C 1187.37 427.13 1164.53 435.30 1141.88 443.80 C 1103.06 459.02 1065.21 476.76 1028.54 496.60 C 973.04 532.17 918.62 569.44 865.54 608.54 C 827.18 636.86 789.64 666.34 753.53 697.49 C 729.09 718.62 705.40 740.64 683.04 763.97 C 666.54 781.45 650.34 799.50 637.47 819.89 C 648.25 784.00 660.69 748.51 676.67 714.58 C 686.85 693.96 697.68 673.04 714.08 656.60 C 688.64 674.96 665.32 696.01 642.49 717.46 C 633.05 727.05 623.21 736.24 613.97 746.03 C 571.07 790.47 531.52 838.07 494.39 887.42 C 482.60 902.98 471.21 918.84 460.07 934.88 C 470.98 903.93 482.48 873.14 496.20 843.31 C 527.25 775.69 570.37 714.16 619.71 658.67 C 637.16 638.86 655.46 619.80 674.35 601.35 C 698.52 577.45 723.65 554.55 749.51 532.49 C 779.29 507.11 809.62 482.30 841.52 459.61 C 890.05 425.19 942.16 395.58 997.43 373.40 Z" />
</g>
<g id="#2574bbff">
<path fill="#2574bb" opacity="1.00" d=" M 3644.97 459.12 C 3665.11 446.01 3689.26 440.54 3713.02 439.36 C 3735.66 438.16 3758.51 440.59 3780.38 446.61 C 3790.34 449.56 3800.17 453.37 3808.85 459.19 C 3815.62 464.11 3821.38 471.40 3822.04 480.03 C 3822.34 485.40 3821.57 491.11 3818.77 495.79 C 3811.20 506.55 3803.51 517.23 3795.94 527.99 C 3781.46 515.74 3762.96 508.52 3744.04 507.61 C 3731.45 506.77 3718.25 507.89 3706.97 513.94 C 3701.34 517.04 3695.98 521.01 3692.46 526.47 C 3685.42 536.84 3683.56 549.73 3683.39 562.01 C 3683.35 572.80 3683.37 583.59 3683.39 594.38 C 3720.13 594.37 3756.88 594.38 3793.62 594.38 C 3793.62 616.50 3793.62 638.62 3793.63 660.74 C 3756.89 660.74 3720.15 660.76 3683.42 660.73 C 3683.31 740.95 3683.42 821.16 3683.37 901.37 C 3654.12 901.38 3624.87 901.38 3595.63 901.37 C 3595.61 790.25 3595.62 679.13 3595.62 568.01 C 3595.74 543.14 3599.19 517.49 3611.36 495.43 C 3619.13 480.65 3630.94 468.13 3644.97 459.12 Z" />
<path fill="#2574bb" opacity="1.00" d=" M 1760.02 446.33 C 1772.86 444.15 1786.01 443.71 1799.02 444.53 C 1806.93 445.38 1815.05 446.23 1822.32 449.73 C 1832.96 454.53 1840.95 464.21 1844.70 475.16 C 1847.28 482.83 1847.56 491.00 1847.56 499.03 C 1847.55 537.90 1847.59 576.78 1847.51 615.66 C 1855.73 607.79 1865.60 601.89 1875.72 596.80 C 1894.33 587.84 1915.54 586.59 1935.86 587.67 C 1958.45 589.57 1981.64 595.17 2000.02 609.05 C 2014.16 619.28 2025.31 633.30 2033.15 648.84 C 2041.35 664.47 2046.60 681.58 2049.12 699.05 C 2052.90 724.46 2052.64 750.33 2050.44 775.88 C 2048.63 793.60 2045.29 811.30 2038.92 827.99 C 2033.16 843.39 2025.47 858.24 2014.89 870.91 C 2001.87 885.95 1985.03 897.97 1965.86 903.69 C 1942.65 910.90 1917.49 912.64 1893.71 907.28 C 1873.49 901.93 1853.01 892.81 1839.81 875.93 C 1839.75 883.08 1837.81 890.54 1832.92 895.94 C 1828.21 900.51 1821.30 901.44 1815.02 901.38 C 1796.64 901.38 1778.26 901.38 1759.88 901.37 C 1759.86 790.92 1759.88 680.47 1759.87 570.02 C 1759.97 528.79 1759.68 487.56 1760.02 446.33 M 1869.75 652.77 C 1860.61 655.70 1853.37 663.13 1849.71 671.87 C 1847.08 678.23 1847.57 685.25 1847.55 691.98 C 1847.56 735.37 1847.55 778.76 1847.55 822.15 C 1856.81 829.98 1867.50 836.60 1879.30 839.73 C 1888.68 842.06 1898.49 842.50 1908.09 841.45 C 1918.57 840.25 1929.02 836.16 1936.58 828.62 C 1944.74 820.98 1949.43 810.50 1952.96 800.09 C 1959.72 778.46 1960.72 755.53 1960.27 733.04 C 1959.22 712.89 1956.84 691.72 1945.71 674.35 C 1937.32 660.96 1922.74 651.93 1907.10 650.01 C 1894.66 648.59 1881.75 648.92 1869.75 652.77 Z" />
<path fill="#2574bb" opacity="1.00" d=" M 3487.19 446.24 C 3506.94 443.80 3527.62 455.00 3535.59 473.37 C 3541.99 488.57 3540.75 507.39 3530.85 520.85 C 3525.16 528.01 3517.58 533.82 3508.90 536.80 C 3492.16 542.44 3472.10 539.35 3459.17 526.88 C 3452.21 520.35 3447.44 511.48 3446.04 502.03 C 3444.11 489.77 3445.90 476.46 3453.14 466.13 C 3460.65 454.73 3473.63 447.37 3487.19 446.24 Z" />
<path fill="#2574bb" opacity="1.00" d=" M 3887.25 446.40 C 3903.85 444.06 3921.57 450.76 3931.70 464.27 C 3938.14 472.33 3941.02 482.76 3940.96 492.97 C 3941.08 503.66 3937.89 514.62 3930.79 522.77 C 3919.42 536.64 3900.00 542.22 3882.73 538.35 C 3865.13 534.90 3850.10 520.00 3847.63 502.06 C 3845.76 490.37 3847.32 477.77 3853.69 467.62 C 3860.93 455.97 3873.57 447.89 3887.25 446.40 Z" />
<path fill="#2574bb" opacity="1.00" d=" M 1286.23 590.40 C 1311.78 585.55 1338.33 586.57 1363.62 592.42 C 1382.02 596.73 1400.10 604.07 1414.60 616.44 C 1419.81 620.92 1424.04 626.89 1425.20 633.79 C 1427.08 643.81 1423.74 653.83 1419.76 662.91 C 1415.88 671.35 1411.08 679.40 1405.16 686.57 C 1398.56 679.72 1390.75 674.20 1382.70 669.22 C 1374.57 664.24 1365.97 659.85 1356.73 657.36 C 1342.23 653.23 1326.82 652.93 1311.96 655.14 C 1296.26 657.62 1280.63 664.95 1271.06 678.04 C 1258.73 694.71 1253.23 715.54 1252.02 736.01 C 1251.02 754.40 1252.27 773.08 1256.97 790.94 C 1261.56 807.89 1271.16 824.10 1286.01 833.96 C 1295.16 840.32 1306.02 843.86 1317.04 845.13 C 1328.02 846.32 1339.22 846.21 1350.06 843.95 C 1369.49 839.71 1388.00 829.97 1401.28 814.97 C 1407.50 822.05 1412.22 830.28 1416.37 838.70 C 1419.93 846.32 1423.17 854.44 1423.11 862.99 C 1422.89 869.80 1421.00 877.04 1416.08 882.01 C 1408.32 890.21 1397.92 895.25 1387.70 899.70 C 1370.78 907.11 1352.44 910.91 1334.03 911.80 C 1310.20 913.44 1286.13 910.95 1263.11 904.69 C 1245.06 899.97 1228.46 890.71 1213.99 879.05 C 1198.60 866.35 1186.99 849.59 1178.30 831.75 C 1169.17 812.69 1165.09 791.62 1163.51 770.66 C 1161.70 744.70 1162.41 718.22 1169.17 692.96 C 1174.26 673.71 1184.15 655.97 1196.59 640.52 C 1207.70 626.48 1222.05 615.30 1237.70 606.74 C 1252.65 598.25 1269.37 593.39 1286.23 590.40 Z" />
<path fill="#2574bb" opacity="1.00" d=" M 1524.40 600.41 C 1546.15 591.05 1570.00 586.75 1593.65 587.42 C 1615.43 587.86 1637.68 591.57 1657.06 601.97 C 1674.79 610.89 1690.00 624.74 1700.36 641.69 C 1716.94 668.20 1721.64 700.28 1721.26 731.05 C 1720.93 742.00 1720.79 753.00 1719.28 763.87 C 1655.87 763.88 1592.46 763.87 1529.05 763.88 C 1530.49 786.25 1538.05 808.92 1553.47 825.59 C 1564.33 837.47 1580.20 843.41 1595.88 845.42 C 1608.95 846.92 1622.34 847.06 1635.28 844.37 C 1650.76 840.73 1665.75 834.23 1678.21 824.22 C 1683.22 820.23 1687.94 815.89 1692.77 811.69 C 1698.78 819.39 1703.96 827.70 1708.73 836.23 C 1712.40 843.06 1715.88 850.21 1717.09 857.95 C 1718.47 866.85 1714.17 875.73 1707.71 881.68 C 1695.91 892.90 1680.53 899.36 1665.20 904.16 C 1640.58 911.75 1614.48 913.13 1588.90 911.74 C 1564.97 909.88 1540.79 905.52 1519.09 894.87 C 1502.92 886.63 1488.13 875.39 1476.70 861.23 C 1466.37 848.42 1458.42 833.79 1452.62 818.43 C 1444.80 796.88 1441.90 773.85 1441.40 751.02 C 1440.73 726.36 1443.08 701.19 1452.03 678.02 C 1458.95 660.87 1468.33 644.53 1481.09 631.04 C 1493.28 618.07 1508.11 607.59 1524.40 600.41 M 1566.25 649.29 C 1555.92 652.82 1547.01 659.94 1540.74 668.81 C 1531.37 682.43 1528.33 699.35 1528.35 715.62 C 1566.19 715.63 1604.03 715.61 1641.87 715.63 C 1641.52 701.45 1639.99 687.00 1634.21 673.91 C 1631.59 668.43 1628.87 662.86 1624.46 658.57 C 1617.71 651.83 1608.40 648.29 1599.12 646.86 C 1588.17 645.34 1576.76 645.61 1566.25 649.29 Z" />
<path fill="#2574bb" opacity="1.00" d=" M 2664.95 591.79 C 2685.08 586.30 2706.54 585.98 2726.98 589.92 C 2746.51 593.71 2765.14 602.69 2779.46 616.62 C 2794.98 631.15 2804.74 650.68 2811.48 670.59 C 2818.06 691.04 2820.36 712.60 2820.90 734.00 C 2821.22 758.89 2820.03 784.02 2814.29 808.33 C 2810.03 825.49 2803.50 842.20 2794.25 857.30 C 2783.46 875.09 2767.61 889.79 2748.99 899.07 C 2729.68 907.96 2708.17 911.69 2686.98 910.89 C 2668.28 910.22 2649.88 904.52 2633.69 895.22 C 2626.95 891.46 2621.39 886.01 2616.45 880.17 C 2616.69 934.11 2616.49 988.04 2616.57 1041.98 C 2587.32 1042.02 2558.07 1041.99 2528.81 1042.00 C 2528.76 893.43 2528.86 744.87 2528.75 596.31 C 2544.61 593.31 2561.05 592.72 2577.01 595.39 C 2587.46 597.45 2598.42 601.06 2605.61 609.36 C 2609.51 613.54 2611.56 618.99 2613.19 624.38 C 2618.14 619.97 2622.57 614.95 2628.09 611.18 C 2639.38 603.08 2651.38 595.41 2664.95 591.79 M 2638.87 656.74 C 2629.68 659.70 2622.53 667.34 2619.07 676.22 C 2616.85 681.87 2617.18 688.03 2617.17 693.98 C 2617.22 736.92 2617.11 779.86 2617.22 822.79 C 2626.93 830.79 2638.13 837.51 2650.50 840.36 C 2666.27 843.52 2683.76 842.35 2697.61 833.53 C 2707.89 826.94 2714.89 816.33 2719.44 805.18 C 2728.26 783.33 2729.73 759.34 2729.22 736.02 C 2728.24 716.35 2725.76 695.85 2715.46 678.63 C 2707.35 664.73 2692.29 655.64 2676.43 653.80 C 2663.92 652.43 2650.88 652.66 2638.87 656.74 Z" />
<path fill="#2574bb" opacity="1.00" d=" M 2941.33 591.51 C 2968.48 586.61 2996.40 586.04 3023.77 589.43 C 3045.73 592.31 3068.28 598.92 3085.06 614.04 C 3098.86 626.10 3107.30 643.26 3111.11 660.99 C 3117.14 686.53 3115.38 712.94 3115.68 738.96 C 3115.74 770.98 3115.47 803.01 3115.84 835.03 C 3116.62 857.52 3118.85 881.08 3130.55 900.85 C 3120.03 904.57 3109.25 907.80 3098.06 908.61 C 3084.37 909.55 3069.76 909.32 3057.33 902.80 C 3046.57 897.20 3039.85 885.99 3037.71 874.29 C 3015.67 896.31 2984.82 908.49 2953.84 909.36 C 2929.60 910.91 2904.14 906.88 2883.43 893.57 C 2870.14 885.33 2859.98 872.71 2853.32 858.68 C 2847.56 846.30 2845.29 832.58 2844.96 819.01 C 2844.26 800.12 2847.77 780.37 2858.70 764.59 C 2868.74 750.70 2881.99 739.10 2897.19 731.15 C 2916.06 721.07 2936.90 715.04 2958.03 712.06 C 2982.45 708.32 3007.15 706.22 3031.86 706.50 C 3031.82 695.95 3032.49 685.09 3028.99 674.95 C 3026.49 667.04 3020.90 660.11 3013.49 656.33 C 3003.21 651.01 2991.42 649.65 2980.01 649.29 C 2967.60 649.12 2955.10 649.95 2943.03 652.95 C 2932.63 655.25 2922.89 659.66 2913.29 664.15 C 2903.28 668.41 2893.87 673.90 2884.15 678.77 C 2876.59 669.68 2871.01 659.10 2867.05 648.00 C 2864.79 641.62 2862.67 634.30 2865.85 627.84 C 2870.07 619.35 2878.41 613.98 2886.41 609.45 C 2903.48 600.28 2922.38 595.13 2941.33 591.51 M 3001.09 753.79 C 2986.59 755.62 2971.74 757.33 2958.40 763.71 C 2945.22 769.83 2932.88 780.47 2929.08 795.00 C 2925.73 808.82 2927.29 824.46 2935.69 836.26 C 2940.52 844.10 2949.28 848.63 2958.12 850.33 C 2976.51 853.75 2996.06 850.57 3012.43 841.52 C 3019.22 838.03 3025.28 833.02 3029.75 826.81 C 3032.03 823.67 3033.25 819.81 3033.14 815.93 C 3033.10 794.54 3033.13 773.15 3033.12 751.76 C 3022.39 751.39 3011.73 752.74 3001.09 753.79 Z" />
<path fill="#2574bb" opacity="1.00" d=" M 3293.01 588.83 C 3316.01 585.82 3339.57 587.39 3362.11 592.78 C 3380.82 597.40 3399.32 605.12 3413.60 618.36 C 3421.77 625.63 3424.29 637.53 3421.79 647.92 C 3418.46 662.12 3411.19 675.20 3402.13 686.54 C 3397.10 681.57 3391.65 677.04 3385.74 673.17 C 3375.82 666.52 3365.25 660.51 3353.67 657.36 C 3339.16 653.23 3323.75 652.93 3308.89 655.15 C 3294.81 657.39 3280.90 663.43 3271.19 674.11 C 3258.72 688.57 3252.40 707.36 3249.87 726.04 C 3247.98 741.62 3248.27 757.44 3250.35 772.99 C 3252.41 789.23 3257.23 805.56 3267.17 818.80 C 3277.58 833.25 3294.34 842.65 3311.94 844.84 C 3343.22 849.68 3376.98 838.77 3398.20 814.98 C 3404.61 822.21 3409.40 830.73 3413.63 839.38 C 3417.01 846.81 3420.16 854.68 3420.11 862.98 C 3419.96 870.55 3417.35 878.43 3411.54 883.54 C 3402.58 891.99 3391.11 897.10 3379.84 901.67 C 3363.74 908.26 3346.36 911.09 3329.05 911.91 C 3303.22 913.48 3277.12 910.18 3252.43 902.45 C 3234.92 896.33 3218.74 886.49 3205.12 873.92 C 3192.02 861.39 3181.91 846.01 3174.26 829.65 C 3165.84 811.21 3162.01 791.02 3160.47 770.91 C 3158.63 744.63 3159.32 717.80 3166.31 692.24 C 3171.48 673.04 3181.47 655.37 3193.97 640.00 C 3205.01 626.19 3219.21 615.16 3234.68 606.72 C 3252.53 596.56 3272.82 591.68 3293.01 588.83 Z" />
<path fill="#2574bb" opacity="1.00" d=" M 4100.93 591.77 C 4124.52 586.39 4149.09 586.07 4172.95 589.94 C 4193.40 593.47 4213.89 599.80 4230.81 612.20 C 4236.56 616.35 4242.24 621.23 4245.01 627.96 C 4248.86 636.66 4247.50 646.67 4244.39 655.38 C 4240.41 666.71 4234.33 677.24 4226.81 686.57 C 4218.32 677.95 4208.13 671.28 4197.66 665.35 C 4179.11 654.81 4157.00 651.94 4136.05 654.80 C 4120.94 656.75 4105.75 662.90 4095.54 674.55 C 4083.17 689.02 4076.95 707.75 4074.53 726.40 C 4072.53 742.77 4073.04 759.40 4075.42 775.71 C 4077.63 791.58 4082.81 807.41 4092.85 820.12 C 4103.23 833.71 4119.27 842.59 4136.18 844.78 C 4167.59 849.76 4201.58 838.89 4222.89 814.97 C 4230.11 823.30 4235.49 833.05 4239.97 843.07 C 4243.77 851.88 4246.34 861.90 4243.50 871.37 C 4242.14 877.20 4238.34 882.09 4233.76 885.79 C 4224.48 893.27 4213.45 898.23 4202.39 902.45 C 4182.92 910.14 4161.76 912.12 4141.00 912.27 C 4127.49 912.42 4114.04 910.86 4100.79 908.40 C 4080.69 904.85 4061.01 897.69 4044.44 885.60 C 4028.77 875.14 4016.15 860.53 4006.70 844.33 C 3995.72 826.34 3989.34 805.87 3986.64 785.05 C 3983.78 762.46 3983.37 739.48 3986.13 716.86 C 3988.69 695.67 3995.16 674.76 4006.72 656.69 C 4016.97 640.19 4030.21 625.27 4046.57 614.63 C 4062.75 603.17 4081.51 595.60 4100.93 591.77 Z" />
<path fill="#2574bb" opacity="1.00" d=" M 2096.02 595.66 C 2104.06 595.49 2112.00 593.91 2120.05 593.81 C 2134.84 593.45 2150.22 595.31 2163.32 602.66 C 2169.64 605.66 2174.77 610.91 2178.04 617.06 C 2182.19 624.99 2183.55 634.10 2183.64 642.96 C 2183.84 688.63 2183.47 734.30 2183.83 779.96 C 2184.38 791.84 2184.14 804.14 2188.54 815.39 C 2190.64 821.08 2194.38 826.23 2199.45 829.62 C 2206.57 834.68 2215.47 836.26 2224.03 836.68 C 2241.48 837.53 2259.73 834.31 2274.38 824.34 C 2281.68 819.30 2287.74 811.24 2287.54 802.01 C 2287.55 733.23 2287.61 664.44 2287.50 595.65 C 2306.72 593.72 2326.84 591.69 2345.39 598.51 C 2356.89 602.65 2366.49 611.58 2371.17 622.90 C 2374.74 631.10 2375.37 640.18 2375.32 649.01 C 2375.30 733.13 2375.34 817.25 2375.25 901.37 C 2356.16 901.38 2337.07 901.39 2317.99 901.37 C 2312.02 901.22 2305.61 900.92 2300.53 897.44 C 2297.02 895.00 2295.21 890.91 2294.24 886.90 C 2292.52 880.47 2292.11 873.78 2292.10 867.15 C 2284.02 877.47 2273.55 885.67 2262.25 892.18 C 2250.34 899.71 2236.52 903.57 2222.69 905.54 C 2206.22 907.65 2189.48 907.68 2173.02 905.65 C 2158.35 903.70 2143.49 899.56 2131.48 890.59 C 2116.73 879.47 2106.44 862.94 2102.05 845.07 C 2097.20 824.76 2096.43 803.78 2096.12 782.99 C 2095.86 720.55 2096.05 658.10 2096.02 595.66 Z" />
<path fill="#2574bb" opacity="1.00" d=" M 3451.16 596.05 C 3463.29 593.93 3475.72 593.39 3488.03 594.02 C 3498.63 594.79 3509.64 596.39 3518.77 602.26 C 3527.60 607.54 3533.97 616.48 3536.62 626.38 C 3538.80 634.05 3538.88 642.08 3538.88 649.99 C 3538.78 735.17 3539.05 820.35 3538.75 905.53 C 3525.03 908.23 3510.89 908.08 3496.98 907.37 C 3488.48 906.38 3479.66 905.25 3472.19 900.78 C 3462.29 895.15 3455.73 884.83 3453.21 873.90 C 3451.29 866.11 3451.09 858.05 3451.12 850.08 C 3451.15 765.40 3451.08 680.72 3451.16 596.05 Z" />
<path fill="#2574bb" opacity="1.00" d=" M 3852.69 596.01 C 3865.00 593.96 3877.57 593.34 3890.03 594.05 C 3899.61 594.81 3909.47 596.17 3918.01 600.89 C 3928.06 606.14 3935.45 615.92 3938.28 626.85 C 3940.56 635.37 3940.38 644.27 3940.38 653.02 C 3940.38 737.14 3940.37 821.25 3940.39 905.37 C 3931.15 907.79 3921.49 907.48 3912.04 907.84 C 3900.58 907.72 3888.79 907.21 3878.03 902.95 C 3869.27 899.31 3862.18 892.23 3858.23 883.66 C 3853.46 873.85 3852.66 862.73 3852.69 851.99 C 3852.69 766.66 3852.67 681.33 3852.69 596.01 Z" />
</g>
</svg>
