<?xml version="1.0" encoding="UTF-8"?>
<svg width="416px" height="100px" viewBox="0 0 416 100" version="1.1" xmlns="http://www.w3.org/2000/svg" xmlns:xlink="http://www.w3.org/1999/xlink">
    <!-- Generator: Sketch 55.2 (78181) - https://sketchapp.com -->
    <title>unionbank</title>
    <desc>Created with Sketch.</desc>
    <defs>
        <polygon id="path-1" points="0 99.4517526 415.151546 99.4517526 415.151546 0.000206185567 0 0.000206185567"></polygon>
        <polygon id="path-3" points="0 99.4517526 415.151546 99.4517526 415.151546 0.000206185567 0 0.000206185567"></polygon>
        <polygon id="path-5" points="0 99.4517526 415.151546 99.4517526 415.151546 0.000206185567 0 0.000206185567"></polygon>
        <polygon id="path-7" points="0 99.4517526 415.151546 99.4517526 415.151546 0.000206185567 0 0.000206185567"></polygon>
        <polygon id="path-9" points="0 99.4517526 415.151546 99.4517526 415.151546 0.000206185567 0 0.000206185567"></polygon>
        <polygon id="path-11" points="0 99.4517526 415.151546 99.4517526 415.151546 0.000206185567 0 0.000206185567"></polygon>
        <polygon id="path-13" points="0 99.4517526 415.151546 99.4517526 415.151546 0.000206185567 0 0.000206185567"></polygon>
        <polygon id="path-15" points="0 99.4517526 415.151546 99.4517526 415.151546 0.000206185567 0 0.000206185567"></polygon>
        <polygon id="path-17" points="0 99.4517526 415.151546 99.4517526 415.151546 0.000206185567 0 0.000206185567"></polygon>
    </defs>
    <g id="Page-1" stroke="none" stroke-width="1" fill="none" fill-rule="evenodd">
        <g id="unionbank">
            <g id="UB-logo-Copy">
                <path d="M112.783814,62.4640206 L112.783814,41.0712371 L123.358041,41.0712371 L123.358041,62.2454639 C123.358041,67.7434021 126.110619,70.3568041 130.318866,70.3568041 C134.581753,70.3568041 137.333299,67.8537113 137.333299,62.5176289 L137.333299,41.0712371 L147.908557,41.0712371 L147.908557,62.1908247 C147.908557,74.4392784 140.948763,79.8825773 130.210619,79.8825773 C119.528144,79.8825773 112.783814,74.3856701 112.783814,62.4640206" id="Fill-1" fill="#262626" fill-rule="nonzero"></path>
                <path d="M154.320928,49.7259794 L164.572474,49.7259794 L164.572474,53.8630928 C166.462165,51.4125773 169.160103,49.0723711 173.313711,49.0723711 C179.518866,49.0723711 183.241546,53.2094845 183.241546,59.9053608 L183.241546,79.1754639 L173.044639,79.1754639 L173.044639,63.2259794 C173.044639,59.9589691 171.371443,58.217732 168.888969,58.217732 C166.407526,58.217732 164.572474,59.9589691 164.572474,63.2259794 L164.572474,79.1754639 L154.320928,79.1754639 L154.320928,49.7259794 Z" id="Fill-3" fill="#262626" fill-rule="nonzero"></path>
                <g id="Fill-5-Clipped">
                    <mask id="mask-2" fill="white">
                        <use xlink:href="#path-1"></use>
                    </mask>
                    <g id="path-1"></g>
                    <polygon id="Fill-5" fill="#4C4C4E" fill-rule="nonzero" mask="url(#mask-2)" points="189.601031 46.6723711 199.798969 46.6723711 199.798969 39.4373196 189.601031 39.4373196"></polygon>
                </g>
                <g id="Fill-7-Clipped">
                    <mask id="mask-4" fill="white">
                        <use xlink:href="#path-3"></use>
                    </mask>
                    <g id="path-1"></g>
                    <polygon id="Fill-7" fill="#262626" fill-rule="nonzero" mask="url(#mask-4)" points="189.601031 79.1754639 199.798969 79.1754639 199.798969 49.7259794 189.601031 49.7259794"></polygon>
                </g>
                <g id="Fill-8-Clipped">
                    <mask id="mask-6" fill="white">
                        <use xlink:href="#path-5"></use>
                    </mask>
                    <g id="path-1"></g>
                    <path d="M227.528351,64.5862887 L227.528351,64.4780412 C227.528351,60.8306186 224.885052,57.7821649 221.270619,57.7821649 C217.546907,57.7821649 215.173711,60.7749485 215.173711,64.3697938 L215.173711,64.4780412 C215.173711,68.0697938 217.763402,71.1182474 221.377835,71.1182474 C225.101546,71.1182474 227.528351,68.124433 227.528351,64.5862887 M205.245876,64.5862887 L205.245876,64.4780412 C205.245876,56.0945361 212.043814,49.0718557 221.377835,49.0718557 C230.712887,49.0718557 237.457216,55.9852577 237.457216,64.3697938 L237.457216,64.4780412 C237.457216,72.8615464 230.658247,79.8831959 221.270619,79.8831959 C211.989175,79.8831959 205.245876,72.9697938 205.245876,64.5862887" id="Fill-8" fill="#262626" fill-rule="nonzero" mask="url(#mask-6)"></path>
                </g>
                <g id="Fill-9-Clipped">
                    <mask id="mask-8" fill="white">
                        <use xlink:href="#path-7"></use>
                    </mask>
                    <g id="path-1"></g>
                    <path d="M242.574433,49.7259794 L252.825979,49.7259794 L252.825979,53.8630928 C254.714639,51.4125773 257.413608,49.0723711 261.567216,49.0723711 C267.772371,49.0723711 271.496082,53.2094845 271.496082,59.9053608 L271.496082,79.1754639 L261.298144,79.1754639 L261.298144,63.2259794 C261.298144,59.9589691 259.624948,58.217732 257.143505,58.217732 C254.661031,58.217732 252.825979,59.9589691 252.825979,63.2259794 L252.825979,79.1754639 L242.574433,79.1754639 L242.574433,49.7259794 Z" id="Fill-9" fill="#262626" fill-rule="nonzero" mask="url(#mask-8)"></path>
                </g>
                <g id="Fill-10-Clipped">
                    <mask id="mask-10" fill="white">
                        <use xlink:href="#path-9"></use>
                    </mask>
                    <g id="path-1"></g>
                    <path d="M294.786289,63.661134 L288.375979,63.661134 L288.375979,70.6838144 L294.893505,70.6838144 C298.131649,70.6838144 299.913093,69.4312371 299.913093,67.1992784 L299.913093,67.0910309 C299.913093,65.0209278 298.293505,63.661134 294.786289,63.661134 Z M298.401753,52.8291753 C298.401753,50.7054639 296.728557,49.5631959 293.652268,49.5631959 L288.375979,49.5631959 L288.375979,56.2580412 L293.384227,56.2580412 C296.567732,56.2580412 298.401753,55.1693814 298.401753,52.9374227 L298.401753,52.8291753 Z M278.180103,41.0714433 L296.157423,41.0714433 C300.146082,41.0714433 303.330619,42.2992784 305.612062,44.4054639 C308.222371,46.8157732 309.506907,51.6075258 308.030619,55.4260825 C307.314124,57.2786598 305.790412,58.4601031 303.98732,59.2528866 C308.566701,60.6487629 311.34299,63.3889691 311.34299,68.561134 L311.34299,68.6693814 C311.34299,75.2013402 306.055361,79.175567 297.044021,79.175567 L278.180103,79.175567 L278.180103,41.0714433 Z" id="Fill-10" fill="#262626" fill-rule="nonzero" mask="url(#mask-10)"></path>
                </g>
                <g id="Fill-11-Clipped">
                    <mask id="mask-12" fill="white">
                        <use xlink:href="#path-11"></use>
                    </mask>
                    <g id="path-1"></g>
                    <path d="M334.123711,68.5051546 L334.123711,67.1453608 C333.04433,66.7103093 331.587629,66.3824742 330.07732,66.3824742 C327.109278,66.3824742 325.382474,67.7989691 325.382474,70.0298969 L325.382474,70.1391753 C325.382474,72.1536082 326.892784,73.3505155 328.996907,73.3505155 C332.019588,73.3505155 334.123711,71.4453608 334.123711,68.5051546 M315.562887,70.7381443 L315.562887,70.628866 C315.562887,64.4773196 320.148454,61.3742268 327.002062,61.3742268 C329.698969,61.3742268 332.342268,61.8649485 334.016495,62.5175258 L334.016495,62.028866 C334.016495,58.9257732 332.126804,57.1835052 328.187629,57.1835052 C325.113402,57.1835052 322.739175,57.8371134 320.095876,58.8164948 L317.991753,51.5773196 C321.281443,50.2154639 324.789691,49.2907216 329.807216,49.2907216 C335.041237,49.2907216 338.603093,50.542268 340.92268,52.8824742 C343.134021,55.0608247 344.051546,58.1092784 344.051546,62.2453608 L344.051546,79.1752577 L333.961856,79.1752577 L333.961856,76.0721649 C331.91134,78.3041237 329.160825,79.828866 325.328866,79.828866 C319.771134,79.828866 315.562887,76.5618557 315.562887,70.7381443" id="Fill-11" fill="#262626" fill-rule="nonzero" mask="url(#mask-12)"></path>
                </g>
                <g id="Fill-12-Clipped">
                    <mask id="mask-14" fill="white">
                        <use xlink:href="#path-13"></use>
                    </mask>
                    <g id="path-1"></g>
                    <path d="M350.087938,49.7259794 L360.339485,49.7259794 L360.339485,53.8630928 C362.228144,51.4125773 364.927113,49.0723711 369.080722,49.0723711 C375.285876,49.0723711 379.008557,53.2094845 379.008557,59.9053608 L379.008557,79.1754639 L368.811649,79.1754639 L368.811649,63.2259794 C368.811649,59.9589691 367.138454,58.217732 364.65701,58.217732 C362.174536,58.217732 360.339485,59.9589691 360.339485,63.2259794 L360.339485,79.1754639 L350.087938,79.1754639 L350.087938,49.7259794 Z" id="Fill-12" fill="#262626" fill-rule="nonzero" mask="url(#mask-14)"></path>
                </g>
                <g id="Fill-13-Clipped">
                    <mask id="mask-16" fill="white">
                        <use xlink:href="#path-15"></use>
                    </mask>
                    <g id="path-1"></g>
                    <polygon id="Fill-13" fill="#262626" fill-rule="nonzero" mask="url(#mask-16)" points="385.098247 39.4368041 395.349794 39.4368041 395.349794 59.5780412 403.281753 49.7254639 414.881753 49.7254639 404.738454 61.4831959 415.151856 79.1749485 403.820928 79.1749485 397.994124 69.1048454 395.349794 72.2079381 395.349794 79.1749485 385.098247 79.1749485"></polygon>
                </g>
                <g id="Fill-14-Clipped">
                    <mask id="mask-18" fill="white">
                        <use xlink:href="#path-17"></use>
                    </mask>
                    <g id="path-1"></g>
                    <path d="M64.3835052,52.3530928 C60.2020619,51.8108247 58.3804124,51.592268 58.3804124,51.592268 L58.3804124,36.7036082 C59.4134021,36.9592784 66.214433,38.6128866 66.214433,38.6128866 C70.3804124,39.4365979 72.5010309,42.4664948 72.5010309,46.0974227 C72.5010309,49.7293814 69.2680412,52.9871134 64.3835052,52.3530928 M81.1639175,58.5087629 C81.1639175,58.5087629 85.9907216,53.7097938 85.9907216,44.6716495 C85.9907216,37.1273196 80.9061856,28.7664948 71.9484536,25.6190722 L42.5020619,15.1726804 L42.4072165,66.2634021 C42.4072165,66.2634021 42.4164948,73.6623711 34.1628866,75.2262887 C28.6371134,76.2737113 23.2515464,71.2716495 23.2515464,65.0551546 C23.2587629,65.0561856 23.2814433,24.7902062 23.2587629,8.28814433 L0,-0.000515463918 L0,67.2592784 C0,91.2850515 21.7969072,101.447938 35.1876289,99.1304124 C51.1721649,96.364433 58.3804124,84.0149485 58.3804124,70.6489691 L58.3804124,65.9036082 L69.657732,66.2891753 C73.3876289,66.2891753 76.1608247,69.5417526 76.1608247,72.9510309 C76.1608247,75.9747423 74.0494845,79.2293814 69.7041237,79.6056701 L63.5072165,80.078866 C62.5134021,84.1582474 60.3608247,89.7891753 55.5268041,95.4159794 L73.6845361,92.2046392 C80.9969072,90.8819588 89.5,84.5335052 89.5,74.0458763 C89.5,69.5778351 87.9896907,63.0376289 81.1639175,58.5087629" id="Fill-14" fill="#FF8000" fill-rule="nonzero" mask="url(#mask-18)"></path>
                </g>
            </g>
        </g>
    </g>
</svg>