<?xml version="1.0" encoding="UTF-8" standalone="no"?>
<svg
   xmlns:dc="http://purl.org/dc/elements/1.1/"
   xmlns:cc="http://creativecommons.org/ns#"
   xmlns:rdf="http://www.w3.org/1999/02/22-rdf-syntax-ns#"
   xmlns:svg="http://www.w3.org/2000/svg"
   xmlns="http://www.w3.org/2000/svg"
   xmlns:sodipodi="http://sodipodi.sourceforge.net/DTD/sodipodi-0.dtd"
   xmlns:inkscape="http://www.inkscape.org/namespaces/inkscape"
   width="360pt"
   version="1.1"
   height="439.238pt"
   viewBox="0 0 360 439.238"
   id="svg3006"
   inkscape:version="0.48.4 r9939"
   sodipodi:docname="Logo of Petron.svg">
  <metadata
     id="metadata3025">
    <rdf:RDF>
      <cc:Work
         rdf:about="">
        <dc:format>image/svg+xml</dc:format>
        <dc:type
           rdf:resource="http://purl.org/dc/dcmitype/StillImage" />
        <dc:title>Petron Logo</dc:title>
      </cc:Work>
    </rdf:RDF>
  </metadata>
  <sodipodi:namedview
     pagecolor="#ffffff"
     bordercolor="#666666"
     borderopacity="1"
     objecttolerance="10"
     gridtolerance="10"
     guidetolerance="10"
     inkscape:pageopacity="0"
     inkscape:pageshadow="2"
     inkscape:window-width="640"
     inkscape:window-height="480"
     id="namedview3023"
     showgrid="false"
     inkscape:zoom="0.42983532"
     inkscape:cx="225"
     inkscape:cy="274.52374"
     inkscape:window-x="0"
     inkscape:window-y="0"
     inkscape:window-maximized="0"
     inkscape:current-layer="svg3006" />
  <title
     id="title3008">Petron Logo</title>
  <defs
     id="defs3010">
    <clipPath
       id="Clip0">
      <path
         d="M0 0 L360 0 L360 439.238 L0 439.238 L0 0 Z"
         transform="translate(0, 0)"
         id="path3013" />
    </clipPath>
  </defs>
  <g
     id="Layer 1">
    <g
       id="Group1"
       clip-path="url(#Clip0)">
      <path
         style="fill:#00246b; fill-rule:nonzero;stroke:none;"
         d="M0 0 L358.429 0 L358.429 350.555 L0 350.555 L0 0 Z"
         transform="translate(1.5713, 0)"
         id="path3017" />
      <path
         style="fill:#e3001f; fill-rule:nonzero;stroke:none;"
         d="M87.8079 165.54 C110.863 146.825 119.886 122.014 117.477 101.591 C109.459 34.3715 27.3794 7.9874 0 1.0113 L0 291.615 C4.4948 269.099 13.3148 250.419 17.0616 243.035 C30.5278 216.565 81.4098 170.862 87.8079 165.54 Z M275.88 31.3838 C268.46 27.1729 241.026 8.7942 188.949 0 L51.59 0 C76.2417 5.5801 168.333 29.4517 187.838 78.5238 C191.58 87.9213 205.174 126.573 155.138 168.472 C148.142 174.271 119.582 193.019 110.862 198.324 C102.214 203.581 51.253 237.215 25.3017 281.962 C19.149 292.495 6.2754 326.621 1.193 350.555 L46.2227 350.555 C49.6525 338.708 59.8476 315.301 89.7532 292.572 C96.925 287.076 151.301 253.618 172.003 243.454 C192.673 233.434 248.429 205.472 268.668 191.105 C288.9 176.681 324.975 151.631 325.397 106.924 C325.477 101.124 326.387 60.2147 275.88 31.3838 Z"
         transform="translate(1.5791, 0)"
         id="path3019" />
      <path
         style="fill:#00246b; fill-rule:nonzero;stroke:none;"
         d="M232.104 30.9402 C232.104 13.3494 215.223 12.6954 215.223 12.6954 L188.977 12.6954 C176.938 12.6954 178.207 24.3985 178.207 24.3985 L178.207 76.6521 L194.665 76.9394 L194.665 28.0445 C194.665 28.0445 203.72 28.2038 208.195 28.0445 C212.71 27.9326 213.74 29.6402 213.899 30.9402 C214.019 32.2569 214.457 37.4742 212.319 39.4048 C210.126 41.3272 203.281 42.7232 201.941 43.3377 C200.68 43.92 198.781 45.9144 198.478 48.6986 C198.135 51.4268 199.348 53.9637 199.348 53.9637 L214.171 77.2666 L233.979 77.2666 L217.84 51.0441 C223.831 48.6986 232.104 42.4442 232.104 30.9402 Z M120.433 27.933 L138.781 27.933 L138.781 76.9399 L155.734 76.9399 L155.734 28.3002 L172.974 28.3002 L172.974 12.6 L120.433 12.6 L120.433 27.933 Z M65.211 47.5919 C65.211 77.7793 75.0716 76.7821 75.0716 76.7821 L115.535 76.7821 L115.726 61.992 L88.849 61.992 C83.7831 61.992 83.7831 58.4419 83.7831 58.4419 L83.7831 51.8519 L112.447 51.8519 L112.447 38.5376 L83.7831 38.5376 L83.7831 33.982 C83.7831 27.3765 89.0165 28.7486 89.0165 28.7486 L116.212 28.7486 L116.212 13.2325 L76.4598 13.2325 C63.7035 13.2325 65.211 42.5021 65.211 47.5919 Z M342.789 13.0898 L342.789 46.7398 L326.156 17.3421 C326.156 17.3421 323.1 12.6993 314.995 12.6993 C306.786 12.6993 304.568 13.0898 304.568 13.0898 L304.568 76.9433 L321.457 76.9433 L321.457 43.9638 L322.613 43.9638 L336.854 70.6567 C336.854 70.6567 340.619 76.7836 343.97 76.7836 L358.625 76.7836 L358.625 13.0898 L342.789 13.0898 Z M267.215 12.3911 C235.136 12.3911 234.945 39.9141 234.945 46.097 C234.945 71.8409 253.964 78.8291 267.055 78.8291 C297.458 78.8291 297.96 52.1762 297.96 44.5652 C297.96 17.3455 277.458 12.3911 267.215 12.3911 Z M266.736 63.7434 C260.529 63.7434 251.522 59.9304 251.522 45.8735 C251.522 42.4992 251.61 27.4773 266.816 27.4773 C271.666 27.4773 281.383 30.1816 281.383 45.0438 C281.383 49.1924 281.144 63.7434 266.736 63.7434 Z M33.1713 2.0339 L13.0913 2.0339 C0.1992 2.0339 0 12.5888 0 12.5888 L0 76.9443 L20.2554 76.9443 L20.2554 65.0654 C20.2554 55.5004 32.1099 54.6868 35.8358 54.6868 C60.654 54.6868 61.5075 32.6045 61.5075 28.0411 C61.5075 0 33.1713 2.0339 33.1713 2.0339 Z M31.807 37.9655 C23.526 37.9655 20.6303 41.9621 20.6064 42.0021 L19.8405 43.0952 L19.8405 19.2975 L36.2024 19.2975 C40.367 20.973 42.3931 24.1482 42.3931 28.7515 C42.3931 33.0432 41.1884 37.9655 31.807 37.9655 Z"
         transform="translate(0, 360.409)"
         id="path3021" />
    </g>
  </g>
</svg>
