<?xml version="1.0" encoding="UTF-8" standalone="no"?>
<!-- Created with Inkscape (http://www.inkscape.org/) -->
<svg xmlns:dc="http://purl.org/dc/elements/1.1/" xmlns:cc="http://creativecommons.org/ns#" xmlns:rdf="http://www.w3.org/1999/02/22-rdf-syntax-ns#" xmlns:svg="http://www.w3.org/2000/svg" xmlns="http://www.w3.org/2000/svg" xmlns:xlink="http://www.w3.org/1999/xlink" xmlns:sodipodi="http://sodipodi.sourceforge.net/DTD/sodipodi-0.dtd" xmlns:inkscape="http://www.inkscape.org/namespaces/inkscape" width="447.2135955" height="223.60679775" viewBox="0 0 400.0 200.0" id="svg2" sodipodi:version="0.32" inkscape:version="0.46" version="1.0" sodipodi:docname="GMA_Network_Logo_Vector.svg" inkscape:output_extension="org.inkscape.output.svg.inkscape">
  <defs id="defs4">
    <linearGradient id="linearGradient3247">
      <stop style="stop-color:#cf4044;stop-opacity:1;" offset="0" id="stop3249"/>
      <stop id="stop3255" offset="0.32535246" style="stop-color:#fcee31;stop-opacity:1;"/>
      <stop style="stop-color:#2b9a5d;stop-opacity:1;" offset="0.54169935" id="stop3257"/>
      <stop id="stop3259" offset="0.74538851" style="stop-color:#009fdb;stop-opacity:1;"/>
      <stop style="stop-color:#cd4247;stop-opacity:1;" offset="1" id="stop3251"/>
    </linearGradient>
    <inkscape:perspective sodipodi:type="inkscape:persp3d" inkscape:vp_x="0 : 526.18109 : 1" inkscape:vp_y="0 : 1000 : 0" inkscape:vp_z="744.09448 : 526.18109 : 1" inkscape:persp3d-origin="372.04724 : 350.78739 : 1" id="perspective10"/>
    <inkscape:perspective id="perspective2447" inkscape:persp3d-origin="372.04724 : 350.78739 : 1" inkscape:vp_z="744.09448 : 526.18109 : 1" inkscape:vp_y="0 : 1000 : 0" inkscape:vp_x="0 : 526.18109 : 1" sodipodi:type="inkscape:persp3d"/>
    <linearGradient inkscape:collect="always" xlink:href="#linearGradient3247" id="linearGradient3267" x1="299.60965" y1="30.772476" x2="368.8179" y2="139.77248" gradientUnits="userSpaceOnUse" gradientTransform="matrix(0.649969, 0, 0, 0.649969, 126.524, 15.338)"/>
  </defs>
  <sodipodi:namedview id="base" pagecolor="#ffffff" bordercolor="#666666" borderopacity="1.0" gridtolerance="10000" guidetolerance="10" objecttolerance="10" inkscape:pageopacity="0.0" inkscape:pageshadow="2" inkscape:zoom="1" inkscape:cx="300.11558" inkscape:cy="67.66568" inkscape:document-units="px" inkscape:current-layer="layer1" showgrid="false" inkscape:window-width="1596" inkscape:window-height="850" inkscape:window-x="0" inkscape:window-y="14"/>
  <metadata id="metadata7">
    <rdf:RDF>
      <cc:Work rdf:about="">
        <dc:format>image/svg+xml</dc:format>
        <dc:type rdf:resource="http://purl.org/dc/dcmitype/StillImage"/>
      </cc:Work>
    </rdf:RDF>
  </metadata>
  <g inkscape:label="Layer 1" inkscape:groupmode="layer" id="layer1">
    <path style="fill:url(#linearGradient3267);fill-opacity:1;fill-rule:evenodd;stroke:none;stroke-width:1px;stroke-linecap:butt;stroke-linejoin:miter;stroke-opacity:1" d="M 330.93909,52.548724 C 303.9654,46.374022 301.20303,57.423488 301.20303,57.423488 C 296.00328,72.372764 321.18956,86.672072 321.18956,86.672072 C 354.50045,105.84614 358.23777,97.071569 358.23777,97.071569 C 370.91216,82.447277 369.77471,41.986735 369.77471,41.986735 C 367.66232,25.250045 362.62506,27.524934 362.62506,27.524934 C 352.71304,27.037458 347.67578,43.611656 347.67578,43.611656 C 341.33859,59.86087 342.31354,62.13576 342.31354,62.13576 C 341.66357,30.774777 351.4131,19.887804 351.4131,19.887804 C 361.97509,10.138276 371.88711,18.100391 371.88711,18.100391 C 391.06118,38.411908 389.27377,74.485162 389.27377,74.485162 C 389.11128,91.871821 383.74904,102.27132 383.74904,102.27132 C 376.59938,114.13324 368.14979,115.1082 368.14979,115.1082 C 344.42594,118.68302 311.44004,92.034313 311.44004,92.034313 C 250.01801,38.411908 283.65388,34.674589 283.65388,34.674589 C 307.05275,34.512096 331.42657,52.873708 330.93909,52.548724 z" id="path2475"/>
    <path style="font-size:220.01174927px;font-style:normal;font-variant:normal;font-weight:bold;font-stretch:normal;text-align:start;line-height:100%;writing-mode:lr-tb;text-anchor:start;fill:#1a75bb;fill-opacity:1;stroke:none;stroke-width:1px;stroke-linecap:butt;stroke-linejoin:miter;stroke-opacity:1;font-family:Levenim MT;-inkscape-font-specification:Levenim MT Bold" d="M 64.939464,84.864347 C 47.487432,84.864451 33.317086,90.723066 22.427459,102.43381 C 13.249699,112.27647 8.6562427,123.84055 8.65625,137.14619 C 8.6562427,146.85211 11.158115,155.89799 16.1512,164.28238 C 21.239361,172.89465 28.159773,179.45305 36.90957,183.96424 C 45.326425,188.29315 54.856241,190.46393 65.508187,190.46393 C 85.813275,190.46393 100.85127,182.38844 110.59975,166.21197 C 115.64027,157.87315 118.0143,149.52707 117.7291,141.18818 L 117.58692,136.94308 L 64.797283,136.94308 L 64.797283,154.91877 L 95.183313,154.91877 C 89.571959,166.4018 79.947998,172.14295 66.300336,172.14294 C 55.8386,172.14295 47.001519,168.87391 39.773494,162.31216 C 32.402733,155.65934 28.70369,147.32863 28.703717,137.34931 C 28.70369,127.68906 32.274892,119.62894 39.407887,113.15829 C 46.398147,106.77892 54.95278,103.59166 65.081645,103.59157 C 76.922291,103.59165 87.286059,108.09675 96.178577,117.11904 L 110.23415,103.79468 C 98.060457,91.172578 82.962006,84.864451 64.939464,84.864347 z M 132.04872,87.403287 L 113.93084,187.9453 L 133.40959,187.9453 L 144.8856,124.43118 L 166.92359,187.9453 L 184.55399,187.9453 L 206.87635,124.43118 L 218.14924,187.9453 L 237.40456,187.9453 L 219.71322,87.403287 L 200.45791,87.403287 L 175.84035,157.51864 L 151.5884,87.403287 L 132.04872,87.403287 z M 280.62746,87.403287 L 240.16692,187.9453 L 260.92529,187.9453 L 269.49675,167.22755 L 312.29312,167.22755 L 320.49897,187.9453 L 341.25734,187.9453 L 300.87805,87.403287 L 280.62746,87.403287 z M 290.88478,114.052 L 304.79817,148.56127 L 276.91046,148.56127 L 290.88478,114.052 z" id="text3274"/>
  </g>
</svg>