<?xml version="1.0" encoding="UTF-8"?>
<svg width="100%" height="100%" viewBox="0 0 1205 208" version="1.1" xmlns="http://www.w3.org/2000/svg" xmlns:xlink="http://www.w3.org/1999/xlink">
    <g stroke="none" stroke-width="1" fill="none" fill-rule="evenodd">
        <g transform="translate(-256.000000, -359.000000)" fill="#24B47E">
            <g transform="translate(256.000000, 359.000000)">
                <path d="M208,104.160188 C208,158.944641 165.733828,203.853946 112.082512,208 C106.850991,191.679623 104.028228,174.285041 104.028228,156.212014 C104.028228,142.085277 103.990591,144.422144 103.990591,130.299176 C104.028228,151.53828 114.227811,170.402827 129.997648,182.237927 C142.925902,173.286219 153.708857,161.48881 161.480865,147.731449 C186.67873,103.085984 142.925902,41.0647821 103.990591,13.0223793 C65.1305528,40.9705536 21.3024518,103.048292 46.5003167,147.712603 C57.4902741,167.199058 74.5773998,182.765607 95.1459332,191.849234 L92.360807,207.641932 C40.4031485,201.875147 0,157.738516 0,104.160188 C0,46.6242638 46.5567719,0 103.990591,0 C161.42441,0 208,46.6242638 208,104.160188" id="Fill-17"></path>
                <path d="M285.94,105.5 C285.94,77.186 308.71,54.416 336.826,54.416 C364.942,54.416 387.91,77.186 387.91,105.5 C387.91,133.814 364.942,156.584 336.826,156.584 C323.56,156.584 312.868,151.04 305.542,142.328 L305.542,194.6 L285.94,194.6 L285.94,105.5 Z M336.826,137.774 C354.844,137.774 368.506,123.518 368.506,105.5 C368.506,87.482 355.042,73.226 336.826,73.226 C318.808,73.226 305.146,87.482 305.146,105.5 C305.146,123.518 319.006,137.774 336.826,137.774 Z M448.894,156.584 C420.778,156.584 397.81,133.814 397.81,105.5 C397.81,77.186 420.778,54.416 448.894,54.416 C477.01,54.416 499.78,77.186 499.78,105.5 L499.78,155 L480.376,155 L480.376,139.358 C475.624,149.06 462.952,156.584 448.894,156.584 Z M449.092,137.774 C467.11,137.774 480.574,123.518 480.574,105.5 C480.574,87.482 467.308,73.226 449.092,73.226 C430.876,73.226 417.214,87.482 417.214,105.5 C417.214,123.518 431.074,137.774 449.092,137.774 Z M557.2,194.6 C536.806,194.6 521.758,182.126 515.026,163.91 L536.806,163.91 C540.964,170.84 547.3,175.79 557.2,175.79 C572.446,175.79 581.158,165.692 581.158,152.426 L581.158,147.08 C575.614,153.02 566.902,156.584 557.2,156.584 C531.856,156.584 513.64,141.338 513.64,108.074 L513.64,56 L533.044,56 L533.044,108.074 C533.044,128.27 541.756,137.774 557.2,137.774 C572.446,137.774 581.356,128.468 581.356,109.262 L581.356,56 L600.76,56 L600.76,150.05 C600.76,175.394 582.544,194.6 557.2,194.6 Z M724.114,54.416 C748.864,54.416 767.08,69.662 767.08,102.926 L767.08,155 L747.676,155 L747.676,102.926 C747.676,82.73 739.162,73.226 724.114,73.226 C709.264,73.226 700.552,82.73 700.552,102.926 L700.552,155 L681.148,155 L681.148,102.926 C681.148,82.73 672.634,73.226 657.586,73.226 C642.736,73.226 634.024,82.73 634.024,102.926 L634.024,155 L614.62,155 L614.62,102.926 C614.62,69.662 632.836,54.416 657.586,54.416 C671.842,54.416 684.316,60.356 690.85,72.83 C697.384,60.356 709.858,54.416 724.114,54.416 Z M829.054,54.416 C857.368,54.416 880.138,77.186 880.138,105.5 C880.138,133.814 857.368,156.584 829.054,156.584 C800.74,156.584 777.97,133.814 777.97,105.5 C777.97,77.186 800.74,54.416 829.054,54.416 Z M829.252,73.226 C811.036,73.226 797.374,87.482 797.374,105.5 C797.374,123.518 811.234,137.774 829.252,137.774 C847.27,137.774 860.734,123.518 860.734,105.5 C860.734,87.482 847.468,73.226 829.252,73.226 Z M978.148,155 L958.744,155 L958.744,102.926 C958.744,82.73 950.032,73.226 934.588,73.226 C919.144,73.226 910.432,82.73 910.432,102.926 L910.432,155 L891.028,155 L891.028,102.926 C891.028,69.662 909.244,54.416 934.588,54.416 C959.932,54.416 978.148,69.662 978.148,102.926 L978.148,155 Z M1040.122,194.6 C1019.332,194.6 1001.314,182.126 993.394,163.91 L1016.758,163.91 C1022.698,171.434 1030.618,175.79 1040.122,175.79 C1057.15,175.79 1071.406,164.702 1071.406,148.07 L1071.406,143.516 C1063.684,151.436 1052.596,156.584 1040.122,156.584 C1011.808,156.584 989.038,133.814 989.038,105.5 C989.038,77.186 1011.808,54.416 1040.122,54.416 C1068.436,54.416 1091.206,77.186 1091.206,105.5 L1091.206,143.516 C1091.206,171.83 1068.436,194.6 1040.122,194.6 Z M1040.32,137.774 C1058.338,137.774 1071.802,123.518 1071.802,105.5 C1071.802,87.482 1058.536,73.226 1040.32,73.226 C1022.104,73.226 1008.442,87.482 1008.442,105.5 C1008.442,123.518 1022.302,137.774 1040.32,137.774 Z M1153.18,54.416 C1181.494,54.416 1204.264,77.186 1204.264,105.5 C1204.264,133.814 1181.494,156.584 1153.18,156.584 C1124.866,156.584 1102.096,133.814 1102.096,105.5 C1102.096,77.186 1124.866,54.416 1153.18,54.416 Z M1153.378,73.226 C1135.162,73.226 1121.5,87.482 1121.5,105.5 C1121.5,123.518 1135.36,137.774 1153.378,137.774 C1171.396,137.774 1184.86,123.518 1184.86,105.5 C1184.86,87.482 1171.594,73.226 1153.378,73.226 Z" id="paymongo" fill-rule="nonzero"></path>
            </g>
        </g>
    </g>
</svg>
