<?xml version="1.0" encoding="UTF-8"?>
<svg width="434px" height="130px" viewBox="0 0 434 130" version="1.1" xmlns="http://www.w3.org/2000/svg" xmlns:xlink="http://www.w3.org/1999/xlink">
    <!-- Generator: Sketch 55.2 (78181) - https://sketchapp.com -->
    <title>pnb</title>
    <desc>Created with Sketch.</desc>
    <g id="Page-1" stroke="none" stroke-width="1" fill="none" fill-rule="evenodd">
        <g id="pnb" fill-rule="nonzero">
            <g id="#ffffffff" transform="translate(6.000000, 6.000000)" fill="#FFFFFF">
                <path d="M7.24372549,0.807843137 C7.67058824,0.721372549 8.10568627,0.660980392 8.54215686,0.656862745 C42.0803922,0.656862745 75.6172549,0.656862745 109.15549,0.656862745 C111.494314,0.729607843 113.763137,1.89490196 115.220784,3.72039216 C116.386078,5.14921569 117.031176,6.98156863 117.04902,8.82215686 C117.04902,41.0770588 117.04902,73.3305882 117.04902,105.58549 C117.033922,106.859216 117.079216,108.134314 117.025686,109.406667 C116.847255,112.195686 115.116471,114.799412 112.647255,116.093725 C111.45451,116.726471 110.103922,117.053374 108.754706,117.050392 C76.0839216,117.046275 43.4145098,117.050392 10.7437255,117.04902 C9.36705882,117.036667 7.95607843,117.146471 6.62196078,116.727843 C3.78901961,115.94549 1.4954902,113.529804 0.854509804,110.662549 C0.584117647,109.631765 0.667843137,108.561176 0.656862745,107.508431 C0.656862745,74.5205882 0.656862745,41.5341176 0.656862745,8.54764706 C0.725490196,4.85686275 3.62568627,1.4872549 7.24372549,0.807843137 L7.24372549,0.807843137 Z M58.8488235,3.68333333 C58.3533333,4.48627451 57.7631373,5.22607843 57.097451,5.8945098 C54.1945098,8.77960784 50.4405882,10.714902 46.5013725,11.7484314 C41.3172549,13.1141176 35.8421569,13.0001961 30.594902,12.0613725 C29.995098,14.1160784 28.9533333,16.05 27.4682353,17.6009804 C24.8343137,20.3858824 21.2341176,22.0343137 17.5913725,23.0513725 C14.4235294,23.9092157 11.1417647,24.3621569 7.86,24.3690196 C8.74254902,25.5452941 9.43843137,26.8478431 10.0258824,28.1929412 C12.0256863,32.7566667 12.9192157,37.7609804 12.9068627,42.7309804 C12.9054902,58.1021569 12.9068627,73.4733333 12.9068627,88.8431373 C12.8835294,91.7433333 12.8766667,94.73 13.8909804,97.4901961 C14.6060784,99.49 15.9731373,101.249608 17.7505882,102.414902 C19.6501961,103.711961 21.8984314,104.33098 24.1192157,104.819608 C34.0756863,107.194118 44.0376471,109.550784 54.0009804,111.896471 C54.6735294,112.061176 55.3694118,112.172353 55.9952941,112.485294 C57.1482353,113.038431 58.0801961,113.959412 58.8529412,114.964118 C59.8178431,113.643725 61.1505882,112.482549 62.7798039,112.111961 C73.5309804,109.578235 84.2807843,107.036275 95.025098,104.472353 C97.0701961,103.967255 99.0864706,103.172549 100.730784,101.828824 C102.189804,100.656667 103.276863,99.0466667 103.871176,97.2760784 C104.621961,95.1445098 104.756471,92.8619608 104.800392,90.6219608 C104.79902,75.1588235 104.79902,59.6970588 104.79902,44.2352941 C104.811373,42.9121569 104.761961,41.5876471 104.852549,40.2672549 C105.044706,36.9552941 105.659608,33.6611765 106.746667,30.524902 C107.515294,28.3603922 108.45,26.2260784 109.821176,24.3690196 C105.622549,24.3401961 101.404706,23.6621569 97.4641176,22.1907843 C94.9619608,21.2327451 92.5476471,19.9137255 90.6356863,18.0127451 C88.9447059,16.3986275 87.7341176,14.3137255 87.1054902,12.0668627 C83.794902,12.6419608 80.4170588,12.9205882 77.0584314,12.69 C71.8688235,12.3605882 66.6531373,10.772549 62.502549,7.56764706 C61.0998039,6.46960784 59.7711765,5.22196078 58.8488235,3.68333333 Z" id="Shape"></path>
                <path d="M58.8447059,12.6845098 C61.3001961,14.634902 64.1592157,16.0101961 67.0758824,17.127451 C72.2298039,19.0682353 77.9629412,19.6886275 83.3392157,18.3352941 C83.88,19.6529412 84.4454902,20.9788235 85.2827451,22.14 C86.7541176,24.2372549 88.8445098,25.8417647 91.1352941,26.954902 C92.9484314,27.8196078 94.8878431,28.3809804 96.8135294,28.9354902 C98.0803922,29.2731373 99.3513725,29.614902 100.649804,29.8056863 C99.5462745,32.1321569 98.9066667,34.6576471 98.6458824,37.2147059 C98.2478431,40.1217647 98.4166667,43.0590196 98.3823529,45.9839216 C90.4256863,45.9852941 82.4676471,45.9839216 74.5109804,45.9852941 C73.6133333,41.7056863 70.8723529,37.862549 67.1239216,35.6129412 C64.7809804,34.1854902 62.0633333,33.3880392 59.3209804,33.3098039 C55.9980392,33.2027451 52.6503922,34.1717647 49.8998039,36.0411765 C46.4903922,38.3278431 44.0211765,41.965098 43.1770588,45.9852941 C35.2258824,45.9839216 27.2747059,45.9852941 19.3235294,45.9852941 C19.3207843,44.2572549 19.3290196,42.5305882 19.3194118,40.8039216 C19.1656863,37.0541176 18.7003922,33.2233333 17.0409804,29.8084314 C19.5143137,29.3911765 21.9286275,28.677451 24.2990196,27.8703922 C27.6260784,26.7517647 30.7609804,24.7176471 32.6839216,21.7268627 C33.3756863,20.6713725 33.8711765,19.5033333 34.3447059,18.3380392 C36.2813725,18.78 38.2578431,19.0915686 40.2494118,19.0503922 C45.1617647,19.1107843 49.9917647,17.6723529 54.3605882,15.4968627 C55.9376471,14.6994118 57.4666667,13.794902 58.8447059,12.6845098 L58.8447059,12.6845098 Z M57.3143137,22.7192157 C55.6809804,22.7219608 54.0476471,22.7178431 52.4143137,22.7219608 C53.7319608,23.6841176 55.0523529,24.6435294 56.3727451,25.6001961 C55.88,27.1635294 55.3556863,28.7158824 54.857451,30.2764706 C56.1970588,29.3362745 57.5105882,28.3590196 58.8392157,27.4023529 C60.1829412,28.3603922 61.5143137,29.334902 62.8498039,30.3039216 C62.3254902,28.7419608 61.8313725,27.1703922 61.3084314,25.6084314 C62.6315686,24.644902 63.957451,23.6854902 65.2792157,22.7178431 C63.6458824,22.7233333 62.0139216,22.7178431 60.3819608,22.7219608 C59.8590196,21.16 59.3607843,19.5911765 58.8515686,18.0264706 C58.3190196,19.5843137 57.8317647,21.1572549 57.3143137,22.7192157 L57.3143137,22.7192157 Z M35.8394118,25.962549 C35.3233333,27.5217647 34.8168627,29.0823529 34.3158824,30.6470588 C32.682549,30.6498039 31.0478431,30.6415686 29.4131373,30.6498039 C30.7211765,31.6284314 32.0566667,32.57 33.3688235,33.5431373 C32.8719608,35.1064706 32.3352941,36.6560784 31.8562745,38.224902 C33.1821569,37.2572549 34.5094118,36.2923529 35.8435294,35.3370588 C37.1735294,36.2978431 38.492549,37.2737255 39.8335294,38.2180392 C39.3229412,36.6588235 38.8068627,35.0996078 38.3086275,33.5362745 C39.6345098,32.5782353 40.954902,31.6133333 42.2780392,30.6511765 C40.6419608,30.6415686 39.0058824,30.6498039 37.3698039,30.6456863 C36.8468627,29.0892157 36.3582353,27.5203922 35.8394118,25.962549 L35.8394118,25.962549 Z M80.3264706,30.6470588 C78.684902,30.6470588 77.0447059,30.6470588 75.4031373,30.6470588 C76.7290196,31.6133333 78.0590196,32.5727451 79.384902,33.5376471 C78.882549,35.1023529 78.3513725,36.657451 77.8668627,38.2262745 C79.1913725,37.26 80.5213725,36.2978431 81.8513725,35.3370588 C83.1841176,36.2964706 84.5113725,37.2668627 85.8441176,38.2262745 C85.3431373,36.6629412 84.8243137,35.1037255 84.3205882,33.5403922 C85.6437255,32.5768627 86.9696078,31.6147059 88.2941176,30.6511765 C86.6566667,30.6415686 85.0192157,30.6498039 83.3817647,30.6470588 C82.8629412,29.0864706 82.3743137,27.5176471 81.8486275,25.9611765 C81.3407843,27.5231373 80.8301961,29.0837255 80.3264706,30.6470588 Z" id="Shape"></path>
            </g>
            <g id="#120980ff" fill="#120980">
                <path d="M13.9601961,0 L115.712745,0 C120.232549,0.264901961 124.557451,2.70941176 127.096667,6.45921569 C128.758824,8.86254902 129.674314,11.7682353 129.705882,14.6903922 C129.70451,47.2623529 129.705882,79.8356863 129.705882,112.407647 C129.689412,114.097255 129.795098,115.803333 129.468431,117.473725 C128.683333,121.930392 125.732353,125.931373 121.712157,128.006667 C119.78098,129.036078 117.616471,129.587843 115.436863,129.705882 L14.2552941,129.705882 C11.4470588,129.567255 8.67176471,128.657255 6.37137255,127.032157 C2.66823529,124.487451 0.262156863,120.194118 0,115.71 L0,13.9821569 C0.233333333,10.0896078 2.05470588,6.32333333 4.98647059,3.74705882 C7.44470588,1.5345098 10.6633333,0.215490196 13.9601961,0 L13.9601961,0 Z M13.2437255,6.80784314 C9.62568627,7.4872549 6.7254902,10.8568627 6.65686275,14.5476471 C6.65686275,47.5341176 6.65686275,80.5205882 6.65686275,113.508431 C6.66784314,114.561176 6.58411765,115.631765 6.8545098,116.662549 C7.4954902,119.529804 9.78901961,121.94549 12.6219608,122.727843 C13.9560784,123.146471 15.3670588,123.036667 16.7437255,123.04902 C49.4145098,123.050392 82.0839216,123.046275 114.754706,123.050392 C116.103922,123.053374 117.45451,122.726471 118.647255,122.093725 C121.116471,120.799412 122.847255,118.195686 123.025686,115.406667 C123.079216,114.134314 123.033922,112.859216 123.04902,111.58549 C123.04902,79.3305882 123.04902,47.0770588 123.04902,14.8221569 C123.031176,12.9815686 122.386078,11.1492157 121.220784,9.72039216 C119.763137,7.89490196 117.494314,6.72960784 115.15549,6.65686275 C81.6172549,6.65686275 48.0803922,6.65686275 14.5421569,6.65686275 C14.1056863,6.66098039 13.6705882,6.72137255 13.2437255,6.80784314 Z" id="Shape"></path>
                <path d="M64.8488235,9.68333333 C65.7711765,11.2219608 67.0998039,12.4696078 68.502549,13.5676471 C72.6531373,16.772549 77.8688235,18.3605882 83.0584314,18.69 C86.4170588,18.9205882 89.794902,18.6419608 93.1054902,18.0668627 C93.7341176,20.3137255 94.9447059,22.3986275 96.6356863,24.0127451 C98.5476471,25.9137255 100.961961,27.2327451 103.464118,28.1907843 C107.404706,29.6621569 111.622549,30.3401961 115.821176,30.3690196 C114.45,32.2260784 113.515294,34.3603922 112.746667,36.524902 C111.659608,39.6611765 111.044706,42.9552941 110.852549,46.2672549 C110.761961,47.5876471 110.811373,48.9121569 110.79902,50.2352941 C110.79902,65.6970588 110.79902,81.1588235 110.800392,96.6219608 C110.756471,98.8619608 110.621961,101.14451 109.871176,103.276078 C109.276863,105.046667 108.189804,106.656667 106.730784,107.828824 C105.086471,109.172549 103.070196,109.967255 101.025098,110.472353 C90.2807843,113.036275 79.5309804,115.578235 68.7798039,118.111961 C67.1505882,118.482549 65.8178431,119.643725 64.8529412,120.964118 C64.0801961,119.959412 63.1482353,119.038431 61.9952941,118.485294 C61.3694118,118.172353 60.6735294,118.061176 60.0009804,117.896471 C50.0376471,115.550784 40.0756863,113.194118 30.1192157,110.819608 C27.8984314,110.33098 25.6501961,109.711961 23.7505882,108.414902 C21.9731373,107.249608 20.6060784,105.49 19.8909804,103.490196 C18.8766667,100.73 18.8835294,97.7433333 18.9068627,94.8431373 C18.9068627,79.4733333 18.9054902,64.1021569 18.9068627,48.7309804 C18.9192157,43.7609804 18.0256863,38.7566667 16.0258824,34.1929412 C15.4384314,32.8478431 14.742549,31.5452941 13.86,30.3690196 C17.1417647,30.3621569 20.4235294,29.9092157 23.5913725,29.0513725 C27.2341176,28.0343137 30.8343137,26.3858824 33.4682353,23.6009804 C34.9533333,22.05 35.995098,20.1160784 36.594902,18.0613725 C41.8421569,19.0001961 47.3172549,19.1141176 52.5013725,17.7484314 C56.4405882,16.714902 60.1945098,14.7796078 63.097451,11.8945098 C63.7631373,11.2260784 64.3533333,10.4862745 64.8488235,9.68333333 L64.8488235,9.68333333 Z M64.8447059,18.6845098 C63.4666667,19.794902 61.9376471,20.6994118 60.3605882,21.4968627 C55.9917647,23.6723529 51.1617647,25.1107843 46.2494118,25.0503922 C44.2578431,25.0915686 42.2813725,24.78 40.3447059,24.3380392 C39.8711765,25.5033333 39.3756863,26.6713725 38.6839216,27.7268627 C36.7609804,30.7176471 33.6260784,32.7517647 30.2990196,33.8703922 C27.9286275,34.677451 25.5143137,35.3911765 23.0409804,35.8084314 C24.7003922,39.2233333 25.1656863,43.0541176 25.3194118,46.8039216 C25.3290196,48.5305882 25.3207843,50.2572549 25.3235294,51.9852941 C33.2747059,51.9852941 41.2258824,51.9839216 49.1770588,51.9852941 C50.0211765,47.965098 52.4903922,44.3278431 55.8998039,42.0411765 C58.6503922,40.1717647 61.9980392,39.2027451 65.3209804,39.3098039 C68.0633333,39.3880392 70.7809804,40.1854902 73.1239216,41.6129412 C76.8723529,43.862549 79.6133333,47.7056863 80.5109804,51.9852941 C88.4676471,51.9839216 96.4256863,51.9852941 104.382353,51.9839216 C104.416667,49.0590196 104.247843,46.1217647 104.645882,43.2147059 C104.906667,40.6576471 105.546275,38.1321569 106.649804,35.8056863 C105.351373,35.614902 104.080392,35.2731373 102.813529,34.9354902 C100.887843,34.3809804 98.9484314,33.8196078 97.1352941,32.954902 C94.8445098,31.8417647 92.7541176,30.2372549 91.2827451,28.14 C90.4454902,26.9788235 89.88,25.6529412 89.3392157,24.3352941 C83.9629412,25.6886275 78.2298039,25.0682353 73.0758824,23.127451 C70.1592157,22.0101961 67.3001961,20.634902 64.8447059,18.6845098 L64.8447059,18.6845098 Z M64.8515686,40.6109804 C63.9703922,41.494902 63.085098,42.3747059 62.2052941,43.2613725 C62.5731373,44.6435294 62.9368627,46.0284314 63.2923529,47.4147059 C62.245098,47.6233333 61.2390196,48.0337255 60.3482353,48.6239216 C59.6235294,47.3858824 58.9029412,46.1464706 58.1713725,44.9139216 C56.9333333,44.9207843 55.6952941,44.9139216 54.4572549,44.9166667 C54.4627451,46.1698039 54.4407843,47.4229412 54.4682353,48.6760784 C55.7035294,49.3801961 56.925098,50.1076471 58.1521569,50.8268627 C57.5578431,51.7162745 57.1529412,52.7237255 56.937451,53.7696078 C55.6952941,53.4388235 54.4490196,53.1217647 53.2082353,52.7896078 C53.0339216,52.7717647 52.8060784,52.6111765 52.6715686,52.795098 C51.8219608,53.6337255 50.9833333,54.4847059 50.1378431,55.327451 C50.9984314,56.2113725 51.8892157,57.065098 52.7443137,57.9545098 C54.1470588,57.61 55.5415686,57.2339216 56.9388235,56.8660784 C57.1419608,57.917451 57.5578431,58.9221569 58.1480392,59.8156863 C56.9168627,60.5376471 55.6843137,61.2568627 54.4545098,61.9801961 C54.4586275,63.2237255 54.4545098,64.4672549 54.4558824,65.7107843 C55.6994118,65.7094118 56.9415686,65.7094118 58.1837255,65.7107843 C58.8988235,64.4796078 59.6290196,63.2580392 60.3358824,62.0227451 C61.2445098,62.5923529 62.2409804,63.0247059 63.2964706,63.2292157 C62.9258824,64.6182353 62.5703922,66.01 62.202549,67.3990196 C63.0782353,68.2747059 63.9539216,69.1503922 64.8296078,70.027451 C65.7245098,69.16 66.5933333,68.2664706 67.4786275,67.3907843 C67.1217647,66.0031373 66.7607843,64.6168627 66.3943137,63.2319608 C67.4401961,63.0109804 68.444902,62.6060784 69.3398039,62.0186275 C70.0672549,63.2456863 70.7796078,64.4837255 71.5084314,65.7107843 C72.7547059,65.7094118 74.0009804,65.7094118 75.2486275,65.7107843 C75.2527451,64.47 75.2486275,63.2292157 75.25,61.9898039 C74.0119608,61.2623529 72.7698039,60.5417647 71.5345098,59.8088235 C72.1398039,58.9262745 72.5337255,57.9147059 72.7533333,56.8701961 C74.1368627,57.2366667 75.5245098,57.5880392 76.9066667,57.96 C77.7905882,57.0801961 78.6717647,56.1962745 79.5543137,55.3137255 C78.68,54.4352941 77.8001961,53.5637255 76.9286275,52.6839216 C75.5354902,53.032549 74.1478431,53.41 72.757451,53.7682353 C72.5433333,52.7168627 72.1164706,51.7217647 71.5413725,50.8172549 C72.7821569,50.0980392 74.0215686,49.377451 75.2527451,48.6431373 C75.2458824,47.4009804 75.2527451,46.1601961 75.2486275,44.9180392 C74.005098,44.9152941 72.7629412,44.9194118 71.5194118,44.9152941 C70.7837255,46.145098 70.0727451,47.3886275 69.3398039,48.6198039 C68.4435294,48.0378431 67.4429412,47.6233333 66.3956863,47.4105882 C66.7552941,46.0188235 67.1327451,44.6311765 67.48,43.2366667 C66.6015686,42.3637255 65.7286275,41.4852941 64.8515686,40.6109804 L64.8515686,40.6109804 Z M25.324902,58.644902 C25.3207843,70.8454902 25.324902,83.0460784 25.3235294,95.2480392 C25.3152941,97.3864706 25.3180392,99.6868627 26.4709804,101.571373 C27.4839216,103.197843 29.3533333,103.962353 31.1143137,104.477059 C33.8498039,105.241569 36.6264706,105.842745 39.3839216,106.516667 C45.9378431,108.073137 52.5041176,109.580196 59.0552941,111.150392 C59.8513725,111.342549 60.6392157,111.577255 61.4531373,111.688431 C61.4572549,98.1166667 61.4558824,84.544902 61.4545098,70.9731373 C59.5727451,70.5586275 57.7623529,69.8133333 56.1482353,68.7605882 C52.6098039,66.4862745 50.0390196,62.7666667 49.1784314,58.6476471 C41.2272549,58.6366667 33.2760784,58.6435294 25.324902,58.644902 L25.324902,58.644902 Z M80.5164706,58.6407843 C80.1321569,60.3839216 79.4815686,62.0707843 78.5496078,63.5929412 C76.3109804,67.3358824 72.477451,70.0658824 68.2156863,70.9786275 C68.2170588,84.5490196 68.2143137,98.1180392 68.2170588,111.688431 C69.6445098,111.453725 71.0321569,111.02549 72.4458824,110.720784 C80.7498039,108.738824 89.0756863,106.855686 97.3645098,104.813333 C99.26,104.3 101.307843,103.757843 102.69,102.267255 C104.052941,100.742353 104.327451,98.5915686 104.349412,96.6247059 C104.360392,94.1088235 104.313725,91.5929412 104.383725,89.0784314 C104.38098,78.932549 104.385098,68.7880392 104.382353,58.6435294 C96.4270588,58.6394118 88.4717647,58.6435294 80.5164706,58.6407843 Z" id="Shape"></path>
                <path d="M166.970075,11.0160784 C175.045294,11.0133333 183.12,11.0160784 191.193333,11.0147059 C194.67,11.0339216 198.148039,10.9721569 201.623333,11.0558824 C208.134706,11.2645098 214.688627,12.25 220.777255,14.6396078 C225.401373,16.4637255 229.759216,19.1498039 233.106863,22.8611765 C236.274706,26.3433333 238.446078,30.6847059 239.48098,35.2676471 C240.344314,39.0517647 240.476078,42.9758824 240.127451,46.8327451 C239.622353,52.2501961 237.780392,57.594902 234.504118,61.9664706 C231.679412,65.8137255 227.819804,68.8113725 223.596471,70.9854902 C218.393137,73.6496078 212.650392,75.1141176 206.873333,75.8456863 C203.634118,76.2437255 200.368824,76.4454902 197.104902,76.4166667 C193.54451,76.4166667 189.98549,76.4166667 186.426471,76.4166667 C186.423725,86.4033333 186.429216,96.39 186.423725,106.376667 C186.425098,108.427255 185.796471,110.523137 184.436275,112.087843 C183.608627,113.034902 182.579216,113.837843 181.387843,114.267451 C176.581176,116.010588 171.78,117.770196 166.971961,119.510588 C166.967843,83.3466667 166.971961,47.1813725 166.970075,11.0160784 L166.970075,11.0160784 Z M186.425098,27.315098 C186.426471,38.2721569 186.423725,49.2292157 186.427843,60.1862745 C189.481765,60.2 192.537059,60.1505882 195.59098,60.2219608 C198.838431,60.2439216 202.102353,60.1739216 205.312745,59.6303922 C207.937059,59.1994118 210.536667,58.4733333 212.909804,57.2545098 C215.234902,56.0521569 217.281373,54.2541176 218.619608,51.9921569 C219.900196,49.8482353 220.482157,47.3556863 220.638627,44.8823529 C220.808824,41.8627451 220.515098,38.7223529 219.142549,35.9854902 C217.995098,33.6562745 216.050196,31.7841176 213.807451,30.5117647 C211.74451,29.3382353 209.460588,28.6052941 207.145098,28.124902 C203.981373,27.4770588 200.739412,27.3 197.516667,27.3480392 C193.820392,27.2821569 190.122745,27.3260784 186.425098,27.315098 Z" id="Shape"></path>
                <path d="M252.308824,11.0147059 C256.184902,11.0147059 260.06098,11.0147059 263.938431,11.0147059 C264.969216,11.0517647 266.027451,10.8980392 267.033529,11.1972549 C268.493922,11.6076471 269.693529,12.5972549 270.779216,13.6170588 C271.447647,14.2415686 272.018627,14.9594118 272.541569,15.707451 C289.614706,38.9845098 306.671373,62.272549 323.751373,85.5441176 C323.748627,60.7009804 323.75,35.8578431 323.751373,11.0147059 C329.823529,11.0147059 335.897059,11.0147059 341.970588,11.0147059 C341.970588,46.9068627 341.970588,82.7976471 341.970588,118.689804 C339.613922,118.692549 337.258627,118.689804 334.903333,118.691176 C332.981765,118.654118 331.017647,118.85451 329.148235,118.306863 C327.287059,117.826471 325.641373,116.668039 324.471961,115.156863 C306.514902,90.6458824 288.552353,66.1403922 270.598039,41.6294118 C270.598039,67.3166667 270.598039,93.002549 270.598039,118.688431 C264.502549,118.693922 258.405686,118.689804 252.308824,118.691176 C252.308824,82.7990196 252.308824,46.9068627 252.308824,11.0147059 Z" id="Path"></path>
                <path d="M360.261176,11.0147059 C369.057843,11.0133333 377.85451,11.0147059 386.652549,11.0147059 C389.672157,11.0108669 392.695882,10.9776471 395.711373,11.2137255 C401.723137,11.6488235 407.766471,12.7454902 413.296471,15.2215686 C417.530784,17.1143137 421.408235,19.9403922 424.184902,23.6860784 C426.947843,27.3617647 428.600392,31.8170588 429.11098,36.3752941 C429.502157,39.8135294 429.331961,43.3409804 428.383529,46.6790196 C427.288235,50.6058824 425.243137,54.3405882 422.18098,57.0733333 C420.300588,58.7711765 418.126471,60.1039216 415.897451,61.2898039 C420.849608,63.1990196 425.527255,66.1458824 428.833725,70.3582353 C431.985098,74.3880392 433.621176,79.4431373 434,84.5092157 L434,89.6315686 C433.809216,92.034902 433.42902,94.4313725 432.727647,96.7427451 C431.419608,101.158235 428.972353,105.247059 425.612353,108.406667 C421.991569,111.825686 417.488235,114.208431 412.766667,115.719608 C406.996471,117.578039 400.928431,118.313725 394.891961,118.581373 C391.187451,118.743333 387.478824,118.677451 383.771569,118.691176 C375.934314,118.691176 368.097059,118.693251 360.259804,118.689804 C360.259804,82.7990196 360.259804,46.9068627 360.261176,11.0147059 L360.261176,11.0147059 Z M379.339608,26.7990196 C379.336863,36.0513725 379.338235,45.305098 379.338235,54.5588235 C382.14098,54.5492157 384.942353,54.5629412 387.745098,54.5931373 C391.533333,54.6178431 395.361373,54.3570588 399.019216,53.312549 C401.366275,52.6358824 403.662549,51.6380392 405.559412,50.0760784 C407.357451,48.634902 408.734118,46.6598039 409.384706,44.4431373 C410.076471,42.0590196 410.113529,39.5047059 409.638627,37.0766667 C409.196667,34.7762745 407.968235,32.6337255 406.167451,31.1294118 C404.359804,29.5688235 402.104706,28.6354902 399.824902,28.0041176 C396.562353,27.1243137 393.168039,26.8676471 389.799804,26.8319608 C386.312157,26.8539216 382.825882,26.7715686 379.339608,26.7990196 L379.339608,26.7990196 Z M379.338235,70 C379.338235,81.0037255 379.338235,92.0060784 379.338235,103.009804 C383.009804,102.982353 386.68,103.057843 390.352941,103.044118 C393.651176,103.066078 396.961765,102.893137 400.213333,102.313922 C403.039412,101.797843 405.85451,100.978431 408.333333,99.4933333 C410.419608,98.2141176 412.247843,96.4421569 413.380196,94.2543137 C414.519412,92.077451 414.944902,89.5945098 414.958627,87.1568627 C414.94902,84.35 414.404118,81.4964706 413.039804,79.0217647 C411.853922,76.8696078 410.061373,75.067451 407.943529,73.8294118 C405.537451,72.3964706 402.840392,71.5221569 400.111765,70.9498039 C396.994706,70.3019608 393.806275,70.0658824 390.628824,70.0329412 C386.863922,70.0329412 383.100392,70.0480392 379.338235,70 Z" id="Shape"></path>
                <path d="M40.1429412,66.9556863 C40.4737255,66.554902 40.9376471,66.2543137 41.4647059,66.2117647 C42.2360784,66.1582353 43.0115686,66.2076471 43.7843137,66.1870588 C44.3388235,66.1801961 44.9770588,66.1719608 45.3984314,66.5947059 C45.9337255,67.1615686 46.0682353,67.9672549 46.2,68.7056863 C46.4429412,70.2539216 46.6529412,71.8076471 46.8615686,73.3613725 C50.3533333,73.3641176 53.845098,73.3641176 57.3382353,73.3613725 C57.1076471,74.76 56.8427451,76.1531373 56.6245098,77.5545098 C54.1662745,77.6464706 51.7052941,77.684902 49.2456863,77.7658824 C49.2182353,77.9635294 49.1921569,78.1611765 49.1660784,78.3601961 C51.5392157,78.6758824 53.9109804,78.9970588 56.2813725,79.3278431 C55.8778431,80.5109804 55.5154902,81.7064706 55.1023529,82.8868627 C53.114902,82.4517647 51.1301961,82.0043137 49.1372549,81.5911765 C49.0837255,81.7352941 49.0301961,81.8807843 48.9780392,82.0276471 C50.7335294,82.9554902 52.4890196,83.8819608 54.2445098,84.8111765 C53.4566667,85.8268627 52.6633333,86.8370588 51.8727451,87.85 C50.6717647,86.967451 49.474902,86.0807843 48.2739216,85.1996078 C48.2217647,85.345098 47.9856863,85.5084314 48.1256863,85.6662745 C48.9217647,86.8178431 49.7288235,87.9611765 50.5331373,89.1072549 C50.1954902,89.3323529 49.8578431,89.5588235 49.5215686,89.7880392 C50.1996078,90.7584314 50.874902,91.7315686 51.5556863,92.7005882 C51.9523529,92.0088235 52.332549,91.307451 52.7305882,90.6170588 C53.4676471,90.6115686 54.2033333,90.6664706 54.9403922,90.6623529 C55.0872549,91.4570588 55.2313725,92.2517647 55.3823529,93.0464706 C55.4029412,93.2015686 55.4509804,93.3731373 55.3631373,93.52 C55.0543137,94.1390196 54.7221569,94.7456863 54.3927451,95.3537255 C54.2884314,94.764902 54.2005882,94.1733333 54.1003922,93.5845098 C53.872549,93.5639216 53.6460784,93.5460784 53.4196078,93.5282353 C52.8856863,94.3723529 52.3311765,95.2041176 51.8027451,96.0537255 C51.94,96.3309804 52.0772549,96.6082353 52.2131373,96.8882353 C52.5905882,96.9115686 52.9694118,96.9321569 53.3496078,96.9458824 C53.0270588,97.3329412 52.7017647,97.7186275 52.3778431,98.1043137 C52.0539216,98.1029412 51.73,98.1015686 51.4060784,98.0988235 C50.9092157,97.3864706 50.4054902,96.6796078 49.9154902,95.9645098 C50.1227451,95.4731373 50.3409804,94.9845098 50.5276471,94.484902 C49.6643137,93.2756863 48.8256863,92.05 47.9719608,90.8339216 C47.3996078,91.2086275 46.8313725,91.587451 46.2658824,91.9703922 C47.5080392,94.6578431 48.7652941,97.3370588 49.9909804,100.031373 C49.0892157,100.599608 48.1805882,101.156863 47.2788235,101.723725 C46.3962745,99.3368627 45.5603922,96.9321569 44.6517647,94.5562745 C45.037451,97.2711765 45.4094118,99.987451 45.7882353,102.702353 C44.9098039,103.270588 44.0464706,103.863529 43.1447059,104.394706 C42.3060784,103.801765 41.4221569,103.278824 40.572549,102.703725 C40.9390196,99.9998039 41.3452941,97.3027451 41.6843137,94.5960784 C40.8031373,96.9664706 39.9521569,99.3464706 39.0860784,101.722353 C38.1747059,101.158235 37.2647059,100.594118 36.3601961,100.023137 C37.6133333,97.3384314 38.8527451,94.6496078 40.094902,91.9607843 C39.5335294,91.5833333 38.9680392,91.2113725 38.4080392,90.8311765 C37.5268627,92.034902 36.7019608,93.2798039 35.8345098,94.4945098 C36.0294118,94.99 36.2407843,95.48 36.4480392,95.9713725 C35.9539216,96.6864706 35.4460784,97.3905882 34.9492157,98.1043137 C34.622549,98.1043137 34.2972549,98.1015686 33.9705882,98.097451 C33.6535294,97.7103922 33.3309804,97.3315686 33.0111765,96.9472549 C33.39,96.9307843 33.7688235,96.9115686 34.1490196,96.8937255 C34.2876471,96.6109804 34.424902,96.3282353 34.5621569,96.0468627 C34.0186275,95.2096078 33.4833333,94.3696078 32.942549,93.5323529 C32.7147059,93.5460784 32.4868627,93.562549 32.2603922,93.5790196 C32.1601961,94.1623529 32.087451,94.7498039 31.9529412,95.3262745 C31.5960784,94.6839216 31.2611765,94.0292157 30.9207843,93.3772549 C31.095098,92.47 31.2433333,91.5572549 31.4341176,90.6541176 C32.1684314,90.6719608 32.9013725,90.6101961 33.6343137,90.6184314 C34.0241176,91.3047059 34.4029412,91.995098 34.7913725,92.6813725 C35.5105882,91.7452941 36.1556863,90.7543137 36.8337255,89.7880392 C36.5015686,89.5588235 36.1680392,89.3309804 35.8345098,89.1045098 C36.652549,87.9090196 37.5131373,86.7423529 38.317451,85.5372549 C38.2598039,85.4576471 38.1458824,85.2970588 38.0882353,85.2160784 C36.8694118,86.0670588 35.6958824,86.9811765 34.4866667,87.8445098 C33.6960784,86.8329412 32.9027451,85.8241176 32.114902,84.8111765 C33.8703922,83.887451 35.6203922,82.9527451 37.38,82.0345098 C37.3237255,81.8821569 37.2688235,81.7311765 37.2139216,81.5815686 C35.225098,82.0139216 33.2390196,82.4572549 31.2488235,82.8827451 C30.8658824,81.6941176 30.465098,80.5109804 30.0862745,79.3209804 C32.4566667,79.0066667 34.8256863,78.6717647 37.1960784,78.3588235 C37.1672549,78.1584314 37.1384314,77.9594118 37.1096078,77.7603922 C34.6568627,77.7041176 32.2041176,77.6190196 29.7513725,77.5737255 C29.5043137,76.1709804 29.2654902,74.7682353 29.022549,73.3641176 C32.5952941,73.3613725 36.1666667,73.3627451 39.7380392,73.3641176 C39.8986275,72.6805882 40.0482353,71.9956863 40.207451,71.3135294 C39.6296078,71.2009804 39.0545098,71.0733333 38.4807843,70.937451 C38.2845098,70.6437255 38.0841176,70.3541176 37.8823529,70.0658824 C38.6070588,70.0686275 39.3317647,70.0713725 40.055098,70.0645098 C39.845098,69.7858824 39.6556863,69.3864706 39.2480392,69.3988235 C38.3394118,69.3576471 37.4294118,69.3919608 36.5194118,69.3878431 C36.6909804,68.7413725 36.6923529,67.8931373 37.3937255,67.5664706 C38.262549,67.1972549 39.2370588,67.2027451 40.1429412,66.9556863 Z" id="Path"></path>
                <path d="M82.0852941,66.4327451 C84.6080392,66.4217647 87.1307843,66.3627451 89.6535294,66.4107843 C89.9719608,66.6001961 90.2245098,66.8788235 90.5058824,67.1176471 C91.0768627,67.1341176 91.6519608,67.075098 92.2201961,67.1492157 C92.8158824,67.4086275 93.1233333,68.0345098 93.3731373,68.5972549 C94.0333333,68.5917647 94.6962745,68.5807843 95.3537255,68.6521569 C95.8519608,68.8264706 96.1566667,69.4303922 95.9960784,69.9354902 C95.8135294,70.56 95.5801961,71.1694118 95.3647059,71.7843137 C94.3627451,71.8062745 93.3580392,71.7390196 92.3588235,71.8172549 C91.8701961,71.8652941 91.715098,72.3992157 91.6107843,72.7986275 C91.5517647,73.0511765 91.4062745,73.4094118 91.6890196,73.5837255 C92.7554902,73.6331373 93.8247059,73.585098 94.892549,73.6043137 C94.6441176,74.5829412 94.3627451,75.5519608 94.1047059,76.5278431 C93.7739216,76.3480392 93.4554902,76.0831373 93.0629412,76.0762745 C92.4370588,76.0515686 91.812549,76.0872549 91.1880392,76.1160784 C91.1605882,76.4166667 91.1303922,76.7158824 91.1001961,77.0178431 C91.517451,77.4309804 91.9621569,77.8180392 92.3629412,78.2490196 C92.5633333,78.4521569 92.7417647,78.6964706 93.0176471,78.8062745 C93.644902,79.0794118 94.2570588,79.3868627 94.8527451,79.7258824 C95.5788235,79.3017647 96.3090196,78.8845098 97.0364706,78.4631373 C97.0227451,77.7205882 97.0803922,76.9807843 97.0762745,76.2396078 C97.8105882,75.825098 98.5339216,75.3913725 99.2709804,74.9837255 C99.2709804,76.7254902 99.2311765,78.4658824 99.1927451,80.2076471 C97.8627451,81.2507843 96.5396078,82.3007843 95.1972549,83.3288235 C94.4547059,82.9966667 93.7080392,82.6754902 92.9613725,82.3570588 C92.9119608,83.105098 92.9270588,83.8558824 92.8803922,84.6052941 C94.7964706,84.867451 96.7166667,85.1117647 98.6313725,85.3876471 C99.0101961,85.8103922 99.3986275,86.2262745 99.7705882,86.6558824 C99.4809804,87.1335294 99.1845098,87.6070588 98.8935294,88.0833333 C97.6431373,88.0764706 96.3954902,88.1423529 95.145098,88.1176471 C95.2123529,87.8705882 95.2768627,87.6235294 95.3441176,87.3778431 C94.1623529,87.3435294 92.9805882,87.3709804 91.7988235,87.3627451 C91.2072549,88.3056863 90.6005882,89.2390196 90.0007843,90.1764706 C90.8435294,90.1847059 91.6862745,90.1627451 92.5290196,90.1819608 C93.2139216,90.1915686 93.7615686,90.9670588 93.5556863,91.6162745 C93.3182353,92.3986275 93.0643137,93.1741176 92.82,93.9537255 C93.4403922,93.955098 94.0594118,93.912549 94.6798039,93.9084314 C95.1039216,93.3868627 95.5266667,92.862549 95.9590196,92.3464706 C96.6782353,92.275098 97.3960784,92.1941176 98.1152941,92.1186275 C97.3947059,93.7107843 96.6288235,95.2823529 95.8958824,96.8676471 C93.5158824,96.8676471 91.1372549,96.8690196 88.7572549,96.8662745 C88.9507843,96.1607843 89.1484314,95.4401961 89.1456863,94.7045098 C89.1305882,94.2680392 88.6611765,94.064902 88.2823529,94.0621569 C87.192549,94.0607843 86.1027451,93.967451 85.0143137,94.0498039 C84.0137255,95.382549 82.9843137,96.6933333 81.985098,98.0247059 C82.4311765,98.9003922 82.8813725,99.7733333 83.3343137,100.644902 C84.322549,100.703922 85.3107843,100.73 86.2990196,100.787647 C86.632549,101.688039 86.9660784,102.588431 87.3064706,103.486078 C85.0335294,103.490196 82.7605882,103.497059 80.4876471,103.483333 C79.1686275,101.674314 77.8221569,99.8845098 76.4784314,98.0933333 C77.6272549,97.4660784 78.2229412,96.1772549 78.6319608,94.9941176 C78.0678431,93.3703922 77.2978431,91.7439216 77.3019608,89.9911765 C75.7935294,89.8333333 74.2041176,89.2568627 73.2941176,87.9790196 C72.2715686,86.5886275 72.3045098,84.6972549 72.8178431,83.1188235 C73.3435294,81.5060784 74.6488235,80.3284314 75.3735294,78.8241176 C75.7894118,77.937451 75.8305882,76.8119608 75.2596078,75.9856863 C74.9754902,75.5670588 74.4923529,75.362549 74.0105882,75.2815686 C74.017451,74.6186275 74.0133333,73.9570588 74.0147059,73.2954902 C74.7256863,73.29 75.4366667,73.2996078 76.1490196,73.2886275 C77.2896078,74.2082353 77.894902,75.6947059 77.8386275,77.1468627 C77.7878431,79.0698039 76.8737255,80.8431373 75.7962745,82.39 C75.1415686,83.2972549 74.7696078,84.4735294 75.0358824,85.5852941 C75.2005882,86.3703922 75.7482353,87.0772549 76.5003922,87.3792157 C76.9601961,87.5892157 77.4762745,87.5754902 77.9717647,87.57 C78.5770588,86.6572549 79.5090196,86.0107843 80.527451,85.6347059 C81.1080392,84.392549 81.7284314,83.1709804 82.3172549,81.9343137 C82.2801961,81.5733333 82.2458824,81.2123529 82.2101961,80.8527451 C81.7366667,81.4539216 81.2727451,82.0619608 80.7992157,82.6631373 C80.4684314,81.954902 80.1554902,81.2384314 79.8288235,80.5288235 C80.4231373,79.7464706 81.0147059,78.9627451 81.6213725,78.1886275 C81.6062745,77.9360784 81.592549,77.6835294 81.5801961,77.4323529 C80.8637255,78.0513725 80.1458824,78.6676471 79.4362745,79.2935294 C79.2221569,78.2998039 78.9147059,77.3239216 78.8021569,76.3096078 C79.7368627,75.46 80.5823529,74.5170588 81.5211765,73.6701961 C81.5541176,73.4231373 81.5870588,73.177451 81.6227451,72.9331373 C80.6207843,73.4327451 79.6339216,73.962549 78.6333333,74.4662745 C78.664902,73.445098 78.9915686,72.4678431 79.3347059,71.5180392 C79.4101961,71.2901961 79.5186275,71.0705882 79.7052941,70.9141176 C80.8088235,69.8929412 81.8903922,68.8484314 82.9994118,67.8341176 C82.7029412,67.3605882 82.3886275,66.9007843 82.0852941,66.4327451 Z" id="Path"></path>
            </g>
            <g id="#ffb200ff" transform="translate(35.411765, 24.019608)" fill="#FFB200">
                <path d="M27.902549,4.69960784 C28.42,3.13764706 28.9072549,1.56470588 29.4398039,0.0068627451 C29.9490196,1.57156863 30.4472549,3.14039216 30.9701961,4.70235294 C32.6021569,4.69823529 34.2341176,4.70372549 35.867451,4.69823529 C34.5456863,5.66588235 33.2198039,6.62529412 31.8966667,7.58882353 C32.4196078,9.15078431 32.9137255,10.7223529 33.4380392,12.2843137 C32.102549,11.3152941 30.7711765,10.3407843 29.427451,9.3827451 C28.0988235,10.3394118 26.7852941,11.3166667 25.4456863,12.2568627 C25.9439216,10.6962745 26.4682353,9.14392157 26.9609804,7.58058824 C25.6405882,6.62392157 24.3201961,5.6645098 23.002549,4.70235294 C24.6358824,4.69823529 26.2692157,4.70235294 27.902549,4.69960784 Z" id="Path"></path>
                <path d="M6.42764706,7.94294118 C6.94647059,9.50078431 7.43509804,11.0696078 7.95803922,12.6260784 C9.59411765,12.6301961 11.2301961,12.6219608 12.8662745,12.6315686 C11.5431373,13.5937255 10.2227451,14.5586275 8.89686275,15.5166667 C9.39509804,17.08 9.91117647,18.6392157 10.4217647,20.1984314 C9.08078431,19.2541176 7.76176471,18.2782353 6.43176471,17.317451 C5.09764706,18.2727451 3.77039216,19.2376471 2.4445098,20.2052941 C2.92352941,18.6364706 3.46019608,17.0868627 3.95705882,15.5235294 C2.64490196,14.5503922 1.30941176,13.6088235 0.00137254902,12.6301961 C1.63607843,12.6219608 3.27078431,12.6301961 4.90411765,12.627451 C5.40509804,11.0627451 5.91156863,9.50215686 6.42764706,7.94294118 Z" id="Path"></path>
                <path d="M50.9147059,12.627451 C51.4184314,11.0641176 51.9290196,9.50352941 52.4368627,7.94156863 C52.962549,9.49803922 53.4511765,11.0668627 53.97,12.627451 C55.607451,12.6301961 57.244902,12.6219608 58.8823529,12.6315686 C57.5578431,13.595098 56.2319608,14.5572549 54.9088235,15.5207843 C55.412549,17.0841176 55.9313725,18.6433333 56.4323529,20.2066667 C55.0996078,19.2472549 53.7723529,18.2768627 52.4396078,17.317451 C51.1096078,18.2782353 49.7796078,19.2403922 48.455098,20.2066667 C48.9396078,18.6378431 49.4707843,17.0827451 49.9731373,15.5180392 C48.6472549,14.5531373 47.3172549,13.5937255 45.9913725,12.627451 C47.6329412,12.627451 49.2731373,12.627451 50.9147059,12.627451 Z" id="Path"></path>
                <path d="M29.4398039,16.5913725 C30.3168627,17.4656863 31.1898039,18.3441176 32.0682353,19.2170588 C31.7209804,20.6115686 31.3435294,21.9992157 30.9839216,23.3909804 C32.0311765,23.6037255 33.0317647,24.0182353 33.9280392,24.6001961 C34.6609804,23.3690196 35.3719608,22.1254902 36.1076471,20.8956863 C37.3511765,20.8998039 38.5933333,20.8956863 39.8368627,20.8984314 C39.8409804,22.1405882 39.8341176,23.3813725 39.8409804,24.6235294 C38.6098039,25.3578431 37.3703922,26.0784314 36.1296078,26.7976471 C36.7047059,27.7021569 37.1315686,28.6972549 37.3456863,29.7486275 C38.7360784,29.3903922 40.1237255,29.0129412 41.5168627,28.6643137 C42.3884314,29.5441176 43.2682353,30.4156863 44.142549,31.2941176 C43.26,32.1766667 42.3788235,33.0605882 41.494902,33.9403922 C40.1127451,33.5684314 38.725098,33.2170588 37.3415686,32.8505882 C37.1219608,33.895098 36.7280392,34.9066667 36.1227451,35.7892157 C37.3580392,36.5221569 38.6001961,37.2427451 39.8382353,37.9701961 C39.8368627,39.2096078 39.8409804,40.4503922 39.8368627,41.6911765 C38.5892157,41.6898039 37.3429412,41.6898039 36.0966667,41.6911765 C35.3678431,40.4641176 34.6554902,39.2260784 33.9280392,37.9990196 C33.0331373,38.5864706 32.0284314,38.9913725 30.982549,39.2123529 C31.3490196,40.5972549 31.71,41.9835294 32.0668627,43.3711765 C31.1815686,44.2468627 30.3127451,45.1403922 29.4178431,46.0078431 C28.5421569,45.1307843 27.6664706,44.255098 26.7907843,43.3794118 C27.1586275,41.9903922 27.5141176,40.5986275 27.8847059,39.2096078 C26.8292157,39.005098 25.8327451,38.5727451 24.9241176,38.0031373 C24.2172549,39.2384314 23.4870588,40.46 22.7719608,41.6911765 C21.5298039,41.6898039 20.2876471,41.6898039 19.0441176,41.6911765 C19.0427451,40.4476471 19.0468627,39.2041176 19.0427451,37.9605882 C20.272549,37.2372549 21.505098,36.5180392 22.7362745,35.7960784 C22.1460784,34.902549 21.7301961,33.8978431 21.5270588,32.8464706 C20.1298039,33.2143137 18.7352941,33.5903922 17.332549,33.934902 C16.477451,33.0454902 15.5866667,32.1917647 14.7260784,31.3078431 C15.5715686,30.465098 16.4101961,29.6141176 17.2598039,28.7754902 C17.3943137,28.5915686 17.6221569,28.7521569 17.7964706,28.77 C19.0372549,29.1021569 20.2835294,29.4192157 21.5256863,29.75 C21.7411765,28.7041176 22.1460784,27.6966667 22.7403922,26.8072549 C21.5133333,26.0880392 20.2917647,25.3605882 19.0564706,24.6564706 C19.0290196,23.4033333 19.0509804,22.1501961 19.0454902,20.8970588 C20.2835294,20.8943137 21.5215686,20.9011765 22.7596078,20.8943137 C23.4911765,22.1268627 24.2117647,23.3662745 24.9364706,24.6043137 C25.8272549,24.0141176 26.8333333,23.6037255 27.8805882,23.395098 C27.525098,22.0088235 27.1613725,20.6239216 26.7935294,19.2417647 C27.6733333,18.355098 28.5586275,17.4752941 29.4398039,16.5913725 Z" id="Path"></path>
            </g>
            <g id="#01a0c7ff" transform="translate(25.254902, 58.607843)" fill="#01A0C7">
                <path d="M0.07,0.0370588235 C8.02117647,0.0356862745 15.9723529,0.0288235294 23.9235294,0.0398039216 C24.7841176,4.15882353 27.354902,7.87843137 30.8933333,10.1527451 C32.507451,11.2054902 34.3178431,11.9507843 36.1996078,12.3652941 C36.2009804,25.9370588 36.2023529,39.5088235 36.1982353,53.0805882 C35.3843137,52.9694118 34.5964706,52.7347059 33.8003922,52.542549 C27.2492157,50.9723529 20.6829412,49.4652941 14.1290196,47.9088235 C11.3715686,47.234902 8.59490196,46.6337255 5.85941176,45.8692157 C4.09843137,45.3545098 2.22901961,44.59 1.21607843,42.9635294 C0.0631372549,41.0790196 0.0603921569,38.7786275 0.068627451,36.6401961 C0.07,24.4382353 0.0658823529,12.2376471 0.07,0.0370588235 L0.07,0.0370588235 Z M14.8880392,8.34784314 C13.9821569,8.59490196 13.0076471,8.58941176 12.1388235,8.95862745 C11.437451,9.28529412 11.4360784,10.1335294 11.2645098,10.78 C12.1745098,10.7841176 13.0845098,10.7498039 13.9931373,10.7909804 C14.4007843,10.7786275 14.5901961,11.1780392 14.8001961,11.4566667 C14.0768627,11.4635294 13.3521569,11.4607843 12.627451,11.4580392 C12.8292157,11.7462745 13.0296078,12.0358824 13.2258824,12.3296078 C13.7996078,12.4654902 14.3747059,12.5931373 14.952549,12.7056863 C14.7933333,13.3878431 14.6437255,14.0727451 14.4831373,14.7562745 C10.9117647,14.754902 7.34039216,14.7535294 3.76764706,14.7562745 C4.01058824,16.1603922 4.24941176,17.5631373 4.49647059,18.9658824 C6.94921569,19.0111765 9.40196078,19.0962745 11.8547059,19.152549 C11.8835294,19.3515686 11.9123529,19.5505882 11.9411765,19.7509804 C9.57078431,20.0639216 7.20176471,20.3988235 4.83137255,20.7131373 C5.21019608,21.9031373 5.61098039,23.0862745 5.99392157,24.274902 C7.98411765,23.8494118 9.97019608,23.4060784 11.9590196,22.9737255 C12.0139216,23.1233333 12.0688235,23.2743137 12.125098,23.4266667 C10.3654902,24.344902 8.6154902,25.2796078 6.86,26.2033333 C7.64784314,27.2162745 8.44117647,28.225098 9.23176471,29.2366667 C10.4409804,28.3733333 11.6145098,27.4592157 12.8333333,26.6082353 C12.8909804,26.6892157 13.004902,26.8498039 13.062549,26.9294118 C12.2582353,28.1345098 11.3976471,29.3011765 10.5796078,30.4966667 C10.9131373,30.7231373 11.2466667,30.9509804 11.5788235,31.1801961 C10.9007843,32.1464706 10.2556863,33.137451 9.53647059,34.0735294 C9.14803922,33.3872549 8.76921569,32.6968627 8.37941176,32.0105882 C7.64647059,32.0023529 6.91352941,32.0641176 6.17921569,32.0462745 C5.98843137,32.9494118 5.84019608,33.8621569 5.66588235,34.7694118 C6.00627451,35.4213725 6.34117647,36.0760784 6.69803922,36.7184314 C6.83254902,36.1419608 6.90529412,35.5545098 7.0054902,34.9711765 C7.23196078,34.9547059 7.45980392,34.9382353 7.68764706,34.9245098 C8.22843137,35.7617647 8.76372549,36.6017647 9.3072549,37.4390196 C9.17,37.7203922 9.0327451,38.0031373 8.89411765,38.2858824 C8.51392157,38.3037255 8.13509804,38.3229412 7.75627451,38.3394118 C8.07607843,38.7237255 8.39862745,39.102549 8.71568627,39.4896078 C9.04235294,39.4937255 9.36764706,39.4964706 9.69431373,39.4964706 C10.1911765,38.7827451 10.6990196,38.0786275 11.1931373,37.3635294 C10.9858824,36.8721569 10.7745098,36.3821569 10.5796078,35.8866667 C11.4470588,34.6719608 12.2719608,33.4270588 13.1531373,32.2233333 C13.7131373,32.6035294 14.2786275,32.9754902 14.84,33.3529412 C13.5978431,36.0417647 12.3584314,38.7305882 11.1052941,41.4152941 C12.0098039,41.9862745 12.9198039,42.5503922 13.8311765,43.1145098 C14.6972549,40.7386275 15.5482353,38.3586275 16.4294118,35.9882353 C16.0903922,38.694902 15.6841176,41.3919608 15.3176471,44.0958824 C16.1672549,44.6709804 17.0511765,45.1939216 17.8898039,45.7868627 C18.7915686,45.2556863 19.654902,44.6627451 20.5333333,44.0945098 C20.1545098,41.3796078 19.782549,38.6633333 19.3968627,35.9484314 C20.3054902,38.3243137 21.1413725,40.7290196 22.0239216,43.1158824 C22.9256863,42.5490196 23.8343137,41.9917647 24.7360784,41.4235294 C23.5103922,38.7292157 22.2531373,36.05 21.0109804,33.362549 C21.5764706,32.9796078 22.1447059,32.6007843 22.7170588,32.2260784 C23.5707843,33.4421569 24.4094118,34.6678431 25.2727451,35.8770588 C25.0860784,36.3766667 24.8678431,36.8652941 24.6605882,37.3566667 C25.1505882,38.0717647 25.6543137,38.7786275 26.1511765,39.4909804 C26.475098,39.4937255 26.7990196,39.495098 27.1229412,39.4964706 C27.4468627,39.1107843 27.7721569,38.725098 28.0947059,38.3380392 C27.7145098,38.3243137 27.3356863,38.3037255 26.9582353,38.2803922 C26.8223529,38.0003922 26.685098,37.7231373 26.5478431,37.4458824 C27.0762745,36.5962745 27.6307843,35.7645098 28.1647059,34.9203922 C28.3911765,34.9382353 28.6176471,34.9560784 28.8454902,34.9766667 C28.9456863,35.5654902 29.0335294,36.1570588 29.1378431,36.7458824 C29.4672549,36.1378431 29.7994118,35.5311765 30.1082353,34.9121569 C30.1960784,34.7652941 30.1480392,34.5937255 30.127451,34.4386275 C29.9764706,33.6439216 29.8323529,32.8492157 29.6854902,32.0545098 C28.9484314,32.0586275 28.2127451,32.0037255 27.4756863,32.0092157 C27.0776471,32.6996078 26.697451,33.4009804 26.3007843,34.0927451 C25.62,33.1237255 24.9447059,32.1505882 24.2666667,31.1801961 C24.6029412,30.9509804 24.9405882,30.7245098 25.2782353,30.4994118 C24.4739216,29.3533333 23.6668627,28.21 22.8707843,27.0584314 C22.7307843,26.9005882 22.9668627,26.7372549 23.0190196,26.5917647 C24.22,27.4729412 25.4168627,28.3596078 26.6178431,29.2421569 C27.4084314,28.2292157 28.2017647,27.2190196 28.9896078,26.2033333 C27.2341176,25.2741176 25.4786275,24.3476471 23.7231373,23.4198039 C23.7752941,23.2729412 23.8288235,23.127451 23.8823529,22.9833333 C25.8752941,23.3964706 27.86,23.8439216 29.847451,24.2790196 C30.2605882,23.0986275 30.6229412,21.9031373 31.0264706,20.72 C28.6560784,20.3892157 26.2843137,20.0680392 23.9111765,19.7523529 C23.9372549,19.5533333 23.9633333,19.3556863 23.9907843,19.1580392 C26.4503922,19.0770588 28.9113725,19.0386275 31.3696078,18.9466667 C31.5878431,17.5452941 31.8527451,16.1521569 32.0833333,14.7535294 C28.5901961,14.7562745 25.0984314,14.7562745 21.6066667,14.7535294 C21.3980392,13.1998039 21.1880392,11.6460784 20.945098,10.0978431 C20.8133333,9.35941176 20.6788235,8.55372549 20.1435294,7.98686275 C19.7221569,7.56411765 19.0839216,7.57235294 18.5294118,7.57921569 C17.7566667,7.59980392 16.9811765,7.55039216 16.2098039,7.60392157 C15.6827451,7.64647059 15.2188235,7.94705882 14.8880392,8.34784314 Z" id="Shape"></path>
            </g>
            <g id="#fe0000ff" transform="translate(68.215686, 58.607843)" fill="#FE0000">
                <path d="M12.3007843,0.0329411765 C20.2560784,0.0356862745 28.2113725,0.0315686275 36.1666667,0.0356862745 C36.1694118,10.1801961 36.1652941,20.3247059 36.1680392,30.4705882 C36.0980392,32.985098 36.1447059,35.5009804 36.1337255,38.0168627 C36.1117647,39.9837255 35.8372549,42.1345098 34.4743137,43.6594118 C33.0921569,45.15 31.0443137,45.6921569 29.1488235,46.2054902 C20.86,48.2478431 12.5341176,50.1309804 4.23019608,52.1129412 C2.81647059,52.4176471 1.42882353,52.8458824 0.00137254902,53.0805882 C-0.00137254902,39.5101961 0.00137254902,25.9411765 0,12.3707843 C4.26176471,11.4580392 8.09529412,8.72803922 10.3339216,4.98509804 C11.2658824,3.46294118 11.9164706,1.77607843 12.3007843,0.0329411765 L12.3007843,0.0329411765 Z M13.8696078,7.82490196 C14.1729412,8.29294118 14.4872549,8.7527451 14.7837255,9.22627451 C13.6747059,10.2405882 12.5931373,11.285098 11.4896078,12.3062745 C11.3029412,12.4627451 11.1945098,12.6823529 11.1190196,12.9101961 C10.7758824,13.86 10.4492157,14.8372549 10.4176471,15.8584314 C11.4182353,15.3547059 12.405098,14.824902 13.4070588,14.3252941 C13.3713725,14.5696078 13.3384314,14.8152941 13.3054902,15.0623529 C12.3666667,15.9092157 11.5211765,16.8521569 10.5864706,17.7017647 C10.6990196,18.7160784 11.0064706,19.6919608 11.2205882,20.6856863 C11.9301961,20.0598039 12.6480392,19.4435294 13.3645098,18.8245098 C13.3768627,19.0756863 13.3905882,19.3282353 13.4056863,19.5807843 C12.7990196,20.354902 12.207451,21.1386275 11.6131373,21.9209804 C11.9398039,22.6305882 12.2527451,23.3470588 12.5835294,24.0552941 C13.0570588,23.4541176 13.5209804,22.8460784 13.9945098,22.244902 C14.0301961,22.6045098 14.0645098,22.9654902 14.1015686,23.3264706 C13.5127451,24.5631373 12.8923529,25.7847059 12.3117647,27.0268627 C11.2933333,27.4029412 10.3613725,28.0494118 9.75607843,28.9621569 C9.26058824,28.9676471 8.7445098,28.9813725 8.28470588,28.7713725 C7.53254902,28.4694118 6.98490196,27.762549 6.82019608,26.977451 C6.55392157,25.8656863 6.92588235,24.6894118 7.58058824,23.7821569 C8.65803922,22.2352941 9.57215686,20.4619608 9.62294118,18.5390196 C9.67921569,17.0868627 9.07392157,15.6003922 7.93333333,14.6807843 C7.22098039,14.6917647 6.51,14.6821569 5.79901961,14.6876471 C5.79764706,15.3492157 5.80176471,16.0107843 5.79490196,16.6737255 C6.27666667,16.7547059 6.75980392,16.9592157 7.04392157,17.3778431 C7.61490196,18.2041176 7.57372549,19.3296078 7.15784314,20.2162745 C6.43313725,21.7205882 5.12784314,22.8982353 4.60215686,24.5109804 C4.08882353,26.0894118 4.05588235,27.9807843 5.07843137,29.3711765 C5.98843137,30.6490196 7.57784314,31.2254902 9.08627451,31.3833333 C9.08215686,33.1360784 9.85215686,34.762549 10.4162745,36.3862745 C10.0072549,37.5694118 9.41156863,38.8582353 8.2627451,39.4854902 C9.60647059,41.2766667 10.9529412,43.0664706 12.2719608,44.8754902 C14.544902,44.8892157 16.8178431,44.8823529 19.0907843,44.8782353 C18.7503922,43.9805882 18.4168627,43.0801961 18.0833333,42.1798039 C17.095098,42.1221569 16.1068627,42.0960784 15.1186275,42.0370588 C14.6656863,41.1654902 14.2154902,40.292549 13.7694118,39.4168627 C14.7686275,38.0854902 15.7980392,36.7747059 16.7986275,35.4419608 C17.8870588,35.3596078 18.9768627,35.4529412 20.0666667,35.4543137 C20.4454902,35.4570588 20.914902,35.6601961 20.93,36.0966667 C20.9327451,36.8323529 20.735098,37.5529412 20.5415686,38.2584314 C22.9215686,38.2611765 25.3001961,38.2598039 27.6801961,38.2598039 C28.4131373,36.6745098 29.1790196,35.1029412 29.8996078,33.5107843 C29.1803922,33.5862745 28.462549,33.6672549 27.7433333,33.7386275 C27.3109804,34.2547059 26.8882353,34.7790196 26.4641176,35.3005882 C25.8437255,35.3047059 25.2247059,35.3472549 24.6043137,35.3458824 C24.8486275,34.5662745 25.102549,33.7907843 25.34,33.0084314 C25.5458824,32.3592157 24.9982353,31.5837255 24.3133333,31.5741176 C23.4705882,31.554902 22.6278431,31.5768627 21.785098,31.5686275 C22.384902,30.6311765 22.9915686,29.6978431 23.5831373,28.754902 C24.764902,28.7631373 25.9466667,28.7356863 27.1284314,28.77 C27.0611765,29.0156863 26.9966667,29.2627451 26.9294118,29.5098039 C28.1798039,29.5345098 29.427451,29.4686275 30.6778431,29.4754902 C30.9688235,28.9992157 31.2652941,28.5256863 31.554902,28.0480392 C31.1829412,27.6184314 30.7945098,27.202549 30.4156863,26.7798039 C28.5009804,26.5039216 26.5807843,26.2596078 24.6647059,25.997451 C24.7113725,25.2480392 24.6962745,24.4972549 24.7456863,23.7492157 C25.4923529,24.0676471 26.2390196,24.3888235 26.9815686,24.7209804 C28.3239216,23.6929412 29.6470588,22.6429412 30.9770588,21.5998039 C31.0154902,19.8580392 31.0552941,18.1176471 31.0552941,16.3758824 C30.3182353,16.7835294 29.594902,17.2172549 28.8605882,17.6317647 C28.8647059,18.3729412 28.8070588,19.1127451 28.8207843,19.8552941 C28.0933333,20.2766667 27.3631373,20.6939216 26.6370588,21.1180392 C26.0413725,20.7790196 25.4292157,20.4715686 24.8019608,20.1984314 C24.5260784,20.0886275 24.3476471,19.8443137 24.1472549,19.6411765 C23.7464706,19.2101961 23.3017647,18.8231373 22.8845098,18.41 C22.9147059,18.1080392 22.944902,17.8088235 22.9723529,17.5082353 C23.5968627,17.4794118 24.2213725,17.4437255 24.8472549,17.4684314 C25.2398039,17.4752941 25.5582353,17.7401961 25.8890196,17.92 C26.1470588,16.9441176 26.4284314,15.975098 26.6768627,14.9964706 C25.6090196,14.9772549 24.5398039,15.0252941 23.4733333,14.9758824 C23.1905882,14.8015686 23.3360784,14.4433333 23.395098,14.1907843 C23.4994118,13.7913725 23.6545098,13.257451 24.1431373,13.2094118 C25.1423529,13.1311765 26.1470588,13.1984314 27.1490196,13.1764706 C27.3645098,12.5615686 27.5978431,11.9521569 27.7803922,11.3276471 C27.9409804,10.822549 27.6362745,10.2186275 27.1380392,10.0443137 C26.4805882,9.97294118 25.8176471,9.98392157 25.157451,9.98941176 C24.9076471,9.42666667 24.6001961,8.80078431 24.0045098,8.54137255 C23.4362745,8.4672549 22.8611765,8.52627451 22.2901961,8.50980392 C22.0088235,8.27098039 21.7562745,7.99235294 21.4378431,7.80294118 C18.915098,7.75490196 16.3923529,7.81392157 13.8696078,7.82490196 Z" id="Shape"></path>
            </g>
        </g>
    </g>
</svg>