<?xml version="1.0" encoding="UTF-8" standalone="no"?>
<!-- Created with Inkscape (http://www.inkscape.org/) -->

<svg
   xmlns:dc="http://purl.org/dc/elements/1.1/"
   xmlns:cc="http://creativecommons.org/ns#"
   xmlns:rdf="http://www.w3.org/1999/02/22-rdf-syntax-ns#"
   xmlns:svg="http://www.w3.org/2000/svg"
   xmlns="http://www.w3.org/2000/svg"
   xmlns:sodipodi="http://sodipodi.sourceforge.net/DTD/sodipodi-0.dtd"
   xmlns:inkscape="http://www.inkscape.org/namespaces/inkscape"
   width="79.958321mm"
   height="22.656103mm"
   viewBox="0 0 79.95832 22.656103"
   version="1.1"
   id="svg9407"
   inkscape:version="0.92.3 (2405546, 2018-03-11)"
   sodipodi:docname="PLDT logo (2016).svg">
  <defs
     id="defs9401" />
  <sodipodi:namedview
     id="base"
     pagecolor="#ffffff"
     bordercolor="#666666"
     borderopacity="1.0"
     inkscape:pageopacity="0.0"
     inkscape:pageshadow="2"
     inkscape:zoom="2.8284271"
     inkscape:cx="153.13793"
     inkscape:cy="-13.009067"
     inkscape:document-units="mm"
     inkscape:current-layer="layer1"
     showgrid="false"
     fit-margin-top="0"
     fit-margin-left="0"
     fit-margin-right="0"
     fit-margin-bottom="0"
     inkscape:window-width="1920"
     inkscape:window-height="1001"
     inkscape:window-x="-9"
     inkscape:window-y="-9"
     inkscape:window-maximized="1" />
  <metadata
     id="metadata9404">
    <rdf:RDF>
      <cc:Work
         rdf:about="">
        <dc:format>image/svg+xml</dc:format>
        <dc:type
           rdf:resource="http://purl.org/dc/dcmitype/StillImage" />
        <dc:title></dc:title>
      </cc:Work>
    </rdf:RDF>
  </metadata>
  <g
     inkscape:label="Layer 1"
     inkscape:groupmode="layer"
     id="layer1"
     transform="translate(194.96158,-72.121633)">
    <path
       style="fill:#939495;fill-opacity:1;fill-rule:nonzero;stroke:none;stroke-width:0.16364598"
       d="m -186.82009,86.917924 c -1.0662,2.37734 -1.74413,4.852099 -1.93793,7.37484 0.1938,0 0.33878,0.04854 0.53258,0.09719 1.50223,0.242499 3.00421,0.387783 4.45803,0.387783 1.74444,-0.04844 3.39258,-0.24254 5.0402,-0.630765 2.23004,-0.53363 4.31355,-1.358594 6.20256,-2.474481 -2.27663,0 -4.55455,-0.290759 -6.83234,-0.969957 -0.67841,-0.242495 -1.35672,-0.485462 -2.03512,-0.727961 -0.33922,-0.145573 -0.67834,-0.290816 -1.01756,-0.436384 -1.59921,-0.727656 -3.05361,-1.601479 -4.41042,-2.620265 z"
       id="path8108"
       inkscape:connector-curvature="0" />
    <path
       style="fill:#ce2035;fill-opacity:1;fill-rule:nonzero;stroke:none;stroke-width:0.16364598"
       d="m -183.76741,72.121633 c 1.50221,2.086047 2.52066,4.366217 3.05368,6.742085 0.19381,0.728646 0.28996,1.505482 0.38678,2.232483 0.19398,1.989446 0.097,3.978398 -0.29058,5.967514 2.47126,-0.291131 4.89518,-0.969719 7.07532,-1.988511 -0.4841,-1.455648 -1.06549,-2.863061 -1.84074,-4.26959 -0.72616,-1.359041 -1.64713,-2.668496 -2.71349,-3.881807 -0.0491,-0.04748 -0.0982,-0.09668 -0.14579,-0.145791 -1.59937,-1.891199 -3.48995,-3.443072 -5.52518,-4.656383 z"
       id="path8114"
       inkscape:connector-curvature="0" />
    <path
       style="fill:#951b28;fill-opacity:1;fill-rule:nonzero;stroke:none;stroke-width:0.16364598"
       d="m -183.76741,82.017564 c -1.93842,0.679518 -3.77936,1.650582 -5.3784,2.862263 -0.48461,0.340574 -0.96915,0.728804 -1.40534,1.165335 -1.84144,1.649516 -3.34433,3.687394 -4.41043,6.016109 1.89,1.018949 3.97433,1.746326 6.20356,2.231493 0.1938,-2.522741 0.87173,-4.9975 1.93793,-7.37484 0.82381,-1.697823 1.84109,-3.348106 3.05268,-4.90036 z m -4.4739,4.641504 c 0.26124,0.05913 0.52489,0.113151 0.79144,0.16166 0.12111,0.02432 0.23024,0.03748 0.33323,0.04961 -0.10299,-0.01214 -0.21212,-0.02427 -0.33323,-0.0486 -0.26655,-0.04849 -0.5302,-0.103528 -0.79144,-0.162655 z"
       id="path8120"
       inkscape:connector-curvature="0" />
    <path
       style="fill:#e42f31;fill-opacity:1;fill-rule:nonzero;stroke:none;stroke-width:0.16364598"
       d="m -183.76741,72.121633 c -1.98699,1.213311 -3.87638,2.765184 -5.47559,4.656383 -0.0483,0.0491 -0.0972,0.09831 -0.14579,0.145791 1.84143,1.164187 3.53816,2.619677 5.0888,4.366786 0.1938,0.242332 0.38718,0.484633 0.53258,0.726971 1.30842,1.552254 2.32606,3.250249 3.14988,5.046151 0.38762,-1.989116 0.48456,-3.978068 0.29058,-5.967514 -0.0969,-0.727001 -0.19297,-1.504157 -0.38678,-2.232803 -0.53302,-2.375868 -1.55147,-4.655718 -3.05368,-6.741765 z"
       id="path8126"
       inkscape:connector-curvature="0"
       sodipodi:nodetypes="ccccccccc" />
    <path
       style="fill:#b3b5b5;fill-opacity:1;fill-rule:nonzero;stroke:none;stroke-width:0.16364598"
       d="m -173.54221,85.075204 c -2.18014,1.018792 -4.60406,1.69738 -7.07532,1.988511 -1.98684,0.194031 -4.07033,0.193813 -6.20256,-0.145791 1.35681,1.018787 2.81121,1.89261 4.41042,2.620266 0.33922,0.145573 0.67834,0.290816 1.01756,0.436384 0.6784,0.242499 1.35671,0.485466 2.03512,0.727961 2.27779,0.679198 4.55571,0.969957 6.83234,0.969957 0,-2.231777 -0.33882,-4.46261 -1.01756,-6.597288 z"
       id="path8132"
       inkscape:connector-curvature="0" />
    <path
       style="fill:#5c0e1f;fill-opacity:1;fill-rule:nonzero;stroke:none;stroke-width:0.16364598"
       d="m -189.38879,76.923807 c -1.1146,1.309917 -2.08305,2.716625 -2.8583,4.124794 -0.62999,1.211675 -1.16348,2.424514 -1.55113,3.637829 -0.5331,1.600886 -0.8723,3.250844 -1.06616,4.900361 1.01765,-1.455486 2.22924,-2.717326 3.53766,-3.833212 0.58159,-0.436856 1.16313,-0.873473 1.79313,-1.26154 1.74461,-1.115069 3.73077,-1.940683 5.76618,-2.474475 -0.14547,-0.242338 -0.33878,-0.484639 -0.53258,-0.726971 -1.55064,-1.747109 -3.24737,-3.202599 -5.0888,-4.366786 z"
       id="path8138"
       inkscape:connector-curvature="0" />
    <path
       d="m -130.21852,78.137113 c -1.89066,-1.648861 -4.70049,-2.086046 -6.39653,-2.086046 -5.71941,0 -5.71941,0 -5.71941,0 -0.0474,0 -0.0965,0 -0.0965,0 0,15.573306 0,15.573306 0,15.573306 0,0 0.0491,0 0.0965,0 5.71941,0 5.71941,0 5.71941,0 1.69604,0 4.50587,-0.436695 6.39653,-2.086211 2.32571,-2.08621 2.27665,-5.676699 2.27665,-5.676699 0,-0.04748 0.0491,-3.638302 -2.27665,-5.72435 z m -2.42384,9.023709 c -0.96823,0.970324 -2.66427,1.455484 -4.31286,1.455484 -0.87174,0 -1.88904,0 -1.88904,0 0,-9.557337 0,-9.557337 0,-9.557337 0,0 1.0173,0 1.88904,0 1.64859,0 3.34463,0.484672 4.31286,1.503132 1.16285,1.213314 1.06635,3.251877 1.06635,3.251877 0,0 0.0965,2.085556 -1.06635,3.346844 z m -24.85992,-9.945565 c -1.5979,-1.16419 -4.11824,-1.16419 -5.57221,-1.16419 -5.04068,0 -5.04068,0 -5.04068,0 0,15.573306 0,15.573306 0,15.573306 3.53764,0 3.53764,0 3.53764,0 0,-4.317985 0,-4.317985 0,-4.317985 1.50304,0 1.50304,0 1.50304,0 1.45397,0 3.97431,0 5.57221,-1.212823 2.03622,-1.50346 2.03622,-4.414757 2.03622,-4.414757 0,0 0,-2.911295 -2.03622,-4.463551 z m -2.47128,6.500477 c -0.67872,0.533791 -1.74346,0.533791 -2.4222,0.533791 -0.62967,0 -2.18177,0 -2.18177,0 0,-5.190556 0,-5.190556 0,-5.190556 0,0 1.5521,0 2.18177,0 0.67874,0 1.74348,0.04913 2.4222,0.581276 0.92082,0.679523 0.82432,2.038563 0.82432,2.038563 0,0 0.0965,1.309921 -0.82432,2.036926 z m 32.17725,-7.713789 c 0,3.057024 0,3.057024 0,3.057024 0,0 2.03623,0 4.50749,0 0,12.565404 0,12.565404 0,12.565404 3.58507,0 3.58507,0 3.58507,0 0,-12.565404 0,-12.565404 0,-12.565404 1.30842,0 1.30842,0 1.30842,0 2.76238,0 3.39207,-3.057024 3.39207,-3.057024 z m -22.82369,0.04911 c -3.4902,0 -3.4902,0 -3.4902,0 0,15.573306 0,15.573306 0,15.573306 10.3234,0 10.3234,0 10.3234,0 0,-3.153631 0,-3.153631 0,-3.153631 -6.8332,0 -6.8332,0 -6.8332,0 z"
       style="fill:#d12030;fill-opacity:1;fill-rule:evenodd;stroke:none;stroke-width:0.16364598"
       id="path8144"
       inkscape:connector-curvature="0" />
  </g>
</svg>
