<?xml version="1.0" encoding="UTF-8"?>
<svg width="1012px" height="217px" viewBox="0 0 1012 217" version="1.1" xmlns="http://www.w3.org/2000/svg" xmlns:xlink="http://www.w3.org/1999/xlink">
    <!-- Generator: Sketch 55.2 (78181) - https://sketchapp.com -->
    <title>Ayala_Land_logo</title>
    <desc>Created with Sketch.</desc>
    <g id="Page-1" stroke="none" stroke-width="1" fill="none" fill-rule="evenodd">
        <g id="Ayala_Land_logo">
            <path d="M972.088987,164.875618 C951.990456,164.875618 943.244489,150.023558 943.244489,131.688639 C943.244489,113.353721 951.014368,98.4850224 972.088987,98.4850224 C978.239448,98.4850224 983.962871,100.542571 988.726844,104.06425 L988.726844,157.89881 C983.962871,161.42049 978.239448,164.875618 972.088987,164.875618 L972.088987,164.875618 Z M988.726844,44.8002033 L988.726844,91.4416628 C981.777766,86.5445869 973.542027,82.8620745 964.674049,82.8620745 C935.751907,82.8620745 923.445439,104.718673 923.445439,131.688639 C923.445439,158.647514 934.027116,180.498566 964.674049,180.498566 C973.542027,180.498566 981.777766,174.974798 988.726844,170.077722 L988.726844,179.001159 L1011.03821,179.001159 L1011.03821,44.8002033 L988.726844,44.8002033 L988.726844,44.8002033 Z" id="path3148" fill="#00714B" fill-rule="nonzero"></path>
            <polyline id="path3150" fill="#00714B" fill-rule="nonzero" points="645.144003 44.8002033 645.144003 179.001159 722.704147 179.001159 722.704147 157.765707 669.446366 157.765707 669.446366 44.8002033 645.144003 44.8002033"></polyline>
            <path d="M252.939796,44.8002033 L288.921935,44.8002033 L341.153715,179.001159 L312.691887,179.001159 L300.801365,145.531336 L249.17964,145.531336 L235.736252,178.701678 L209.14341,178.701678 L258.885057,59.508069 L252.939796,44.8002033 Z M252.607039,129.581177 L297.024572,129.581177 L275.439725,72.0197376 L252.607039,129.581177 L252.607039,129.581177 Z" id="path3160" fill="#00714B"></path>
            <path d="M398.177197,84.5258602 L374.678997,153.767076 L351.180797,84.8419795 L325.808064,84.8419795 L363.226605,179.017797 C363.226605,179.017797 361.640463,184.036884 359.43872,187.431007 C357.686199,190.137431 352.029327,197.646651 342.412646,198.256706 C337.482294,198.534003 335.302735,198.145787 334.43202,198.034868 L328.314835,214.561806 C328.314835,214.561806 368.417617,226.158392 384.079386,184.169987 C389.508874,169.634045 422.30209,84.5424981 422.30209,84.5424981 L398.177197,84.5424981" id="path3162" fill="#00714B" fill-rule="nonzero"></path>
            <path d="M439.172877,86.4780355 C439.172877,86.4780355 447.591633,82.1466467 463.624981,82.1466467 C495.137083,82.1466467 497.050436,106.903778 497.050436,106.903778 L497.050436,166.02363 C497.050436,174.686408 500.760678,179.023343 500.760678,179.023343 L478.593507,179.023343 C478.593507,179.023343 477.728338,178.319007 477.27357,177.365103 C476.230931,175.179998 476.375126,171.020534 475.3824,172.212913 C464.861729,184.907598 420.294455,186.449373 420.294455,151.17157 C420.294455,115.882675 474.456226,121.456357 474.456226,121.456357 C474.456226,121.456357 474.567145,114.668111 474.456226,111.856314 C473.835079,96.0669871 455.156312,99.22818 453.098764,99.4777478 C441.391258,100.908604 427.720485,106.288177 427.720485,106.288177 L439.172877,86.4780355 L439.172877,86.4780355 Z M476.31412,135.07167 C476.31412,135.07167 449.382975,129.503534 442.883119,145.287315 C440.526089,151.010737 442.82766,166.245469 460.835367,165.402484 C474.151199,164.781337 476.31412,160.455494 476.31412,160.455494 L476.31412,135.07167 L476.31412,135.07167 Z" id="path3164" fill="#00714B"></path>
            <path d="M566.119727,86.4780355 C566.119727,86.4780355 574.538483,82.1466467 590.566285,82.1466467 C622.083933,82.1466467 624.002832,106.903778 624.002832,106.903778 L624.002832,166.02363 C624.002832,174.686408 627.71862,179.023343 627.71862,179.023343 L605.545903,179.023343 C605.545903,179.023343 604.675188,178.319007 604.214874,177.365103 C603.183327,175.179998 603.321976,171.020534 602.334796,172.212913 C591.814124,184.907598 547.241305,186.449373 547.241305,151.17157 C547.241305,115.882675 601.403076,121.456357 601.403076,121.456357 C601.403076,121.456357 601.513995,114.668111 601.403076,111.856314 C600.787475,96.0669871 582.108708,99.22818 580.051159,99.4777478 C568.338108,100.908604 554.667335,106.288177 554.667335,106.288177 L566.119727,86.4780355 L566.119727,86.4780355 Z M603.26097,135.07167 C603.26097,135.07167 576.335371,129.503534 569.835515,145.287315 C567.478485,151.010737 569.724596,166.245469 587.782217,165.402484 C601.098049,164.781337 603.26097,160.455494 603.26097,160.455494 L603.26097,135.07167 L603.26097,135.07167 Z" id="path3166" fill="#00714B"></path>
            <path d="M752.7743,86.4780355 C752.7743,86.4780355 761.193056,82.1466467 777.226404,82.1466467 C808.738506,82.1466467 810.651859,106.903778 810.651859,106.903778 L810.651859,166.02363 C810.651859,174.686408 814.362102,179.023343 814.362102,179.023343 L792.19493,179.023343 C792.19493,179.023343 791.329761,178.319007 790.874993,177.365103 C789.832354,175.179998 789.976549,171.020534 788.989369,172.212913 C778.463152,184.907598 733.895878,186.449373 733.895878,151.17157 C733.895878,115.882675 788.063195,121.456357 788.063195,121.456357 C788.063195,121.456357 788.174114,114.668111 788.063195,111.856314 C787.436503,96.0669871 768.757735,99.22818 766.700187,99.4777478 C754.998227,100.908604 741.321909,106.288177 741.321909,106.288177 L752.7743,86.4780355 L752.7743,86.4780355 Z M789.915543,135.07167 C789.915543,135.07167 762.984399,129.503534 756.490088,145.287315 C754.127513,151.010737 756.434629,166.245469 774.442336,165.402484 C787.747076,164.781337 789.915543,160.455494 789.915543,160.455494 L789.915543,135.07167 L789.915543,135.07167 Z" id="path3168" fill="#00714B"></path>
            <polyline id="path3170" fill="#00714B" fill-rule="nonzero" points="512.834217 44.8002033 512.834217 179.001159 535.145583 179.001159 535.145583 44.8002033 512.834217 44.8002033"></polyline>
            <polyline id="path3172" fill="#909193" fill-rule="nonzero" points="158.791709 0 134.350696 0 36.6421074 179.017797 158.791709 179.017797 146.851273 157.100193 73.1289281 157.100193 158.791709 0"></polyline>
            <polyline id="path3174" fill="#00714B" fill-rule="nonzero" points="0 179.017797 24.4354662 179.017797 97.714135 44.7669276 103.814683 55.9420217 116.032416 33.5585579 97.7196809 0 97.7196809 0 79.4014002 33.5585579 61.0831195 0 36.6476533 0 67.1725752 55.9420217 61.0720276 67.1171157 24.4410121 0 0 0 48.8542945 89.5116714 0 179.017797"></polyline>
            <polyline id="path3176" fill="#00714B" fill-rule="nonzero" points="146.56843 89.5116714 195.42827 0 170.987258 0 92.3179233 144.12821 116.758935 144.12821 134.350696 111.895135 170.992804 179.017797 195.42827 179.017797 146.56843 89.5116714"></polyline>
            <path d="M848.652725,179.017797 L848.652725,107.086795 C848.652725,107.086795 861.674621,94.9522507 877.336391,101.130442 C887.801603,105.267722 889.226913,114.451819 889.226913,118.206429 L889.226913,179.017797 L909.979867,179.017797 L909.979867,117.468817 C909.979867,117.468817 909.924407,75.3251252 869.405679,84.5258602 C863.421596,85.8846186 854.753273,90.7927864 848.347698,98.9453364 C848.12586,99.1671745 848.347698,84.6922388 848.347698,84.6922388 L827.60029,84.6922388 L827.60029,179.017797 L848.652725,179.017797" id="path3178" fill="#00714B" fill-rule="nonzero"></path>
        </g>
    </g>
</svg>