<?xml version="1.0" encoding="UTF-8" standalone="no"?>
<svg
   xmlns:dc="http://purl.org/dc/elements/1.1/"
   xmlns:cc="http://creativecommons.org/ns#"
   xmlns:rdf="http://www.w3.org/1999/02/22-rdf-syntax-ns#"
   xmlns:svg="http://www.w3.org/2000/svg"
   xmlns="http://www.w3.org/2000/svg"
   xmlns:sodipodi="http://sodipodi.sourceforge.net/DTD/sodipodi-0.dtd"
   xmlns:inkscape="http://www.inkscape.org/namespaces/inkscape"
   width="160pt"
   height="156.44249pt"
   viewBox="0 0 160 156.44249"
   version="1.1"
   id="svg2"
   inkscape:version="0.91 r13725"
   sodipodi:docname="MASTERBRAND-LOGO.svg">
  <metadata
     id="metadata58">
    <rdf:RDF>
      <cc:Work
         rdf:about="">
        <dc:format>image/svg+xml</dc:format>
        <dc:type
           rdf:resource="http://purl.org/dc/dcmitype/StillImage" />
        <dc:title></dc:title>
      </cc:Work>
    </rdf:RDF>
  </metadata>
  <defs
     id="defs56" />
  <sodipodi:namedview
     pagecolor="#ffffff"
     bordercolor="#666666"
     borderopacity="1"
     objecttolerance="10"
     gridtolerance="10"
     guidetolerance="10"
     inkscape:pageopacity="0"
     inkscape:pageshadow="2"
     inkscape:window-width="1280"
     inkscape:window-height="744"
     id="namedview54"
     showgrid="false"
     fit-margin-top="0"
     fit-margin-left="0"
     fit-margin-right="0"
     fit-margin-bottom="0"
     inkscape:zoom="1.8963364"
     inkscape:cx="-54.194255"
     inkscape:cy="107.95161"
     inkscape:window-x="-4"
     inkscape:window-y="-4"
     inkscape:window-maximized="1"
     inkscape:current-layer="svg2" />
  <g
     id="g4197"
     transform="matrix(0.32403135,0,0,0.32403135,0,-2.7217858)">
    <g
       id="#231f20ff">
      <path
         id="path5"
         d="m 272.82,20.87 c 13.25,-7.9 28.57,-13.36 44.19,-12.35 11.85,0.71 23.38,6.44 30.72,15.83 8.44,10.38 12.52,24.51 9.45,37.69 -3.53,16.65 -16.48,29.52 -30.68,37.95 2.16,7.93 4.35,15.87 6.9,23.7 3.27,0.04 6.53,0.07 9.8,0.06 -0.28,-14.74 4.73,-29.78 14.87,-40.63 2.89,-2.95 6.22,-5.63 10.13,-7.07 4.06,-1.49 9.63,-0.02 11.23,4.32 1.67,6.19 -1.76,12.13 -4.94,17.18 -5.83,8.78 -14.49,16.52 -15.59,27.62 26.42,3.31 52.05,15.01 70.64,34.28 19.26,19.33 31.31,45.89 31.88,73.29 9.86,0.5 19.77,5.22 24.98,13.85 6.66,11.1 8.32,24.61 6.92,37.31 -2.1,16.21 -9.54,31.23 -18.85,44.48 -11.23,15.87 -25.16,29.69 -40.24,41.89 -2.65,2.3 -6.09,3.9 -7.73,7.17 -4.65,8.1 -11.33,15.09 -19.55,19.6 -13.86,7.56 -30.37,10.27 -45.9,7.34 -3.52,-0.52 -6.87,-1.75 -10.34,-2.41 -24.63,-2.33 -49.36,-4.19 -73.75,-8.46 -17.95,-3.34 -35.85,-8.48 -51.66,-17.82 -13.28,-7.78 -24.91,-19.43 -29.98,-34.22 -3.43,-10.04 -4.66,-21.35 -1.18,-31.53 2.78,-8.07 8.66,-14.65 15.41,-19.69 -5.84,-13.98 -8.49,-29.13 -8.71,-44.23 0.58,-23.82 8.42,-47.47 22.12,-66.95 -2.45,-2.51 -4.76,-5.13 -7,-7.81 -10.14,5.51 -22.18,7.37 -33.49,4.97 -12.22,-2.34 -24.27,-9.08 -30.38,-20.28 -5.99,-11.15 -6.6,-25.32 -0.86,-36.7 5.04,-10.17 14.07,-17.68 23.69,-23.34 15.73,-9.2 33.53,-14.14 51.35,-17.3 7.55,-24.2 25.01,-44.7 46.55,-57.74 m 1.65,5.62 c -24.3,14.72 -40.43,40 -48.94,66.65 -0.94,2.41 -1.5,6.38 -4.88,6.3 -0.1,-5.18 2.14,-9.97 3.29,-14.93 -16.03,3.38 -32.09,7.87 -46.37,16.12 -8.65,5.03 -16.77,11.77 -21.27,20.9 -5.89,11.94 -4.12,27.36 4.77,37.37 6.05,6.77 14.73,10.71 23.57,12.26 9.03,1.37 18.87,1.06 26.85,-3.88 -7.4,-6.52 -14.74,-13.12 -22.58,-19.11 -1.05,-0.68 -1.81,-1.64 -1.85,-2.93 15.1,4.66 26.75,16.09 37.59,27.07 0.68,0.53 1.77,2.38 2.68,1.19 12.1,-14.99 28.25,-26.31 45.57,-34.5 -5.03,-9.53 -8.73,-20.06 -8.3,-30.98 0.23,-6.81 1.04,-13.96 4.54,-19.94 2.56,-4.23 7.98,-6.9 12.78,-4.97 2.95,1.14 4.58,4.17 5.38,7.07 3.41,13.77 -2.51,28.14 1.94,41.79 12.3,-3.75 24.84,-7.26 37.78,-7.72 -3.8,-14.22 -8.04,-28.43 -9.5,-43.13 -0.3,-4.43 -0.51,-8.96 0.42,-13.34 0.37,-0.16 1.1,-0.47 1.47,-0.63 1.38,9.04 3.49,17.93 5.49,26.84 13.19,-7.41 24.3,-20.19 27.08,-35.38 3.47,-19.43 -10.58,-40.32 -30.15,-43.84 -16.59,-2.6 -33.26,3.33 -47.36,11.72 M 368.4,80.6 c -4.33,1.45 -7.7,4.83 -10.39,8.41 -5.19,7.48 -9.48,15.83 -10.75,24.94 -1.63,8.69 -0.66,17.56 -1.06,26.32 -3.6,-2.45 -2.17,-7.77 -2.93,-11.53 -17.72,-0.81 -35.34,2.61 -52.09,8.22 1.25,4.84 5.28,8.53 5.89,13.53 -1.24,-0.53 -2.36,-1.29 -3.2,-2.35 -5.26,-5.96 -9.23,-13.27 -10.41,-21.2 -1.39,-7.62 0.44,-15.28 0.31,-22.93 -0.12,-5.05 0.51,-10.81 -2.7,-15.08 -2.59,-1.81 -6.36,-0.46 -8.02,2.01 -3.11,4.7 -3.9,10.52 -3.92,16.05 -0.29,14.03 4.76,27.76 12.73,39.18 1.69,3.21 4.98,5.68 5.47,9.43 -5.53,-2.28 -7.88,-8.5 -12.08,-12.09 -7.01,3.27 -13.71,7.21 -20.05,11.65 -21.25,14.73 -37.09,36.89 -44.33,61.7 -7.35,23.09 -5.65,48.55 3.08,71.02 13.72,-6.98 30.38,-6.66 44.3,-0.42 0.35,0.69 0.69,1.39 1.02,2.09 -7.41,-1.07 -14.81,-2.44 -22.33,-2.33 -10.07,-0.24 -20.26,3.19 -27.87,9.83 -6.09,5.3 -10.26,12.83 -11.21,20.87 -1.4,14.83 4.3,29.96 14.65,40.6 12.96,13.49 30.72,21.31 48.65,25.69 25.26,6.17 51.18,8.92 77.04,11.09 -2.46,-1.83 -5.07,-3.62 -6.82,-6.18 l 0.37,-1.44 c 4.89,1.13 9.31,3.81 14.07,5.42 15.6,6.89 33.9,8.91 50.04,2.67 14.22,-5.12 25.87,-16.66 30.91,-30.93 1.11,-1.9 0.96,-5.14 3.4,-5.83 0.09,2.34 0.11,4.69 0.13,7.04 13.6,-10.52 26.14,-22.5 36.49,-36.27 9.31,-12.4 17,-26.42 20.03,-41.76 2.35,-11.61 1.48,-23.93 -2.97,-34.94 -2.76,-6.65 -8.2,-12.18 -14.99,-14.68 -8.53,-3.31 -18.22,-1.77 -26.24,2.22 l -0.02,-1.56 c 3.92,-3.25 8.81,-4.91 13.72,-5.98 -0.65,-31.62 -16.79,-62.4 -42.35,-81 -16.45,-11.91 -35.9,-20.08 -56.21,-21.91 -0.31,3.83 -0.32,7.69 -0.72,11.52 -1.93,-1.21 -2.16,-3.56 -2.27,-5.61 -0.32,-6.71 -0.08,-13.68 2.66,-19.93 4.05,-9.59 11.72,-17.01 16.47,-26.21 1.25,-2.55 2.47,-5.94 0.48,-8.45 -1.42,-1.76 -4.05,-1.32 -5.98,-0.89 z"
         inkscape:connector-curvature="0"
         style="opacity:1;fill:#231f20" />
      <path
         id="path7"
         d="m 384.06,183.8 c 8.06,-2.53 16.91,-0.14 23.77,4.42 8,5.36 13.43,13.67 17.48,22.24 4.62,9.61 6.86,20.28 7.13,30.91 1.65,-0.01 3.83,0.25 2.7,2.5 -12.13,6.78 -24.99,12.15 -37.23,18.71 -4.27,2.08 -8.27,4.74 -12.74,6.39 -7.66,-9.47 -12.59,-20.85 -15.91,-32.49 -2.88,-10.83 -4.98,-22.4 -2.33,-33.49 2.04,-8.69 8.37,-16.65 17.13,-19.19 m -11.05,14.98 c -4.13,9.53 -3.6,20.57 -0.95,30.42 0.95,-6.14 3.49,-12.61 9.13,-15.87 7.22,-4.66 17.34,-3.95 23.7,1.9 -2.13,5.34 -4.67,10.51 -6.76,15.86 4.51,-2.73 8.9,-5.66 13.23,-8.66 4.67,7.52 7.52,16.31 7.47,25.21 3.27,-1.39 6.51,-2.83 9.7,-4.4 -0.72,-16.48 -5.87,-33.3 -17.01,-45.77 -5.41,-6.06 -13.16,-10.92 -21.58,-10.14 -7.25,0.16 -14.12,4.73 -16.93,11.45 z"
         inkscape:connector-curvature="0"
         style="opacity:1;fill:#231f20" />
      <path
         id="path9"
         d="m 294.15,203.09 c 12.19,-0.55 23.21,7.09 30.43,16.36 9.38,12.1 12.43,27.74 13.52,42.67 0.39,6.84 0.26,13.71 -0.58,20.51 -7.53,-0.04 -15.06,0.02 -22.59,0.16 -14.46,0.57 -28.83,2.46 -43.12,4.73 -0.33,-0.66 -1,-1.99 -1.34,-2.66 1.19,-0.58 2.38,-1.15 3.58,-1.71 -6.73,-12.67 -11.36,-26.75 -11.38,-41.2 0.01,-10.86 3.44,-22.18 11.48,-29.82 5.45,-5 12.39,-9.1 20,-9.04 m -5.33,5.87 c -7.8,2.11 -13.79,8.37 -17.36,15.4 -4.58,9.24 -5.44,20.25 -2.59,30.13 0.8,-9.77 7.6,-19.36 17.3,-21.92 7.14,-2.02 14.7,0.75 20.39,5.12 -2.59,6.11 -5.46,12.14 -7.52,18.45 4.96,-3.1 9.75,-6.48 14.92,-9.24 5.54,9.55 6.23,21.03 4.6,31.74 4.94,-0.04 9.88,-0.09 14.82,-0.19 0.76,-13.63 -0.29,-27.52 -4.51,-40.55 -3.59,-10.98 -10.73,-21.25 -21.08,-26.76 -5.74,-3.14 -12.67,-3.83 -18.97,-2.18 z"
         inkscape:connector-curvature="0"
         style="opacity:1;fill:#231f20" />
      <path
         id="path11"
         d="m 436.93,279.66 c 2.74,-0.44 5.21,-2.35 8.07,-1.98 -3.62,4.79 -10.34,5.68 -13.63,10.77 -9.53,12.41 -17.2,26.22 -22.98,40.74 -3.92,9.01 -9.19,18.39 -18.27,23.02 -9.31,4.14 -20.36,3.5 -29.54,-0.72 -8.63,-3.75 -16.14,-9.58 -24.7,-13.46 -10.96,-5.04 -22.2,-9.51 -33.73,-13.07 -2.65,-0.67 -5.45,-1.93 -8.17,-0.85 -5.21,1.63 -10.79,2.04 -16.15,0.99 0.2,-0.33 0.61,-0.98 0.81,-1.3 6.57,-0.94 13.27,-3.24 17.81,-8.32 1.53,-1.37 2.48,-3.93 4.88,-3.86 0.42,2.73 -0.77,5.22 -2,7.56 6.93,2.76 14.39,3.74 21.74,4.79 20.64,2.48 42.05,2.42 62.03,-3.91 15.26,-4.9 29.97,-13.21 40.03,-25.92 2.11,-2.84 4.33,-5.69 5.52,-9.06 -2.95,-0.5 -6.55,-1.49 -7.4,-4.78 5.23,0.13 10.55,0.85 15.68,-0.64 m -56.21,53.52 c 1.32,1.96 2.75,3.85 3.87,5.94 -10.27,-7.22 -24.66,-5.67 -34.82,0.94 8.31,6.32 18.66,10.94 29.29,10.14 10.33,-0.92 19.06,-8.79 22.8,-18.2 -3.43,-1.41 -7,-2.93 -10.78,-2.62 -3.78,0.11 -7.23,1.83 -10.36,3.8 z"
         inkscape:connector-curvature="0"
         style="opacity:1;fill:#231f20" />
      <path
         id="path13"
         d="m 382.52,284.06 c 2.51,1.84 4.42,4.66 4.34,7.88 0.33,4.21 -2.82,7.81 -6.28,9.76 -5.33,2.63 -11.72,2.74 -17.37,1.19 -4.24,-1.44 -9.31,-3.99 -10.06,-8.89 6.1,3.99 13.73,5.62 20.86,3.81 3.82,-0.86 7.65,-3.03 9.34,-6.71 0.97,-2.39 -0.06,-4.78 -0.83,-7.04 z"
         inkscape:connector-curvature="0"
         style="opacity:1;fill:#231f20" />
    </g>
    <g
       id="#ffffffff">
      <path
         id="path16"
         d="m 274.47,26.49 c 14.1,-8.39 30.77,-14.32 47.36,-11.72 19.57,3.52 33.62,24.41 30.15,43.84 -2.78,15.19 -13.89,27.97 -27.08,35.38 -2,-8.91 -4.11,-17.8 -5.49,-26.84 -0.37,0.16 -1.1,0.47 -1.47,0.63 -0.93,4.38 -0.72,8.91 -0.42,13.34 1.46,14.7 5.7,28.91 9.5,43.13 -12.94,0.46 -25.48,3.97 -37.78,7.72 -4.45,-13.65 1.47,-28.02 -1.94,-41.79 -0.8,-2.9 -2.43,-5.93 -5.38,-7.07 -4.8,-1.93 -10.22,0.74 -12.78,4.97 -3.5,5.98 -4.31,13.13 -4.54,19.94 -0.43,10.92 3.27,21.45 8.3,30.98 -17.32,8.19 -33.47,19.51 -45.57,34.5 -0.91,1.19 -2,-0.66 -2.68,-1.19 -10.84,-10.98 -22.49,-22.41 -37.59,-27.07 0.04,1.29 0.8,2.25 1.85,2.93 7.84,5.99 15.18,12.59 22.58,19.11 -7.98,4.94 -17.82,5.25 -26.85,3.88 -8.84,-1.55 -17.52,-5.49 -23.57,-12.26 -8.89,-10.01 -10.66,-25.43 -4.77,-37.37 4.5,-9.13 12.62,-15.87 21.27,-20.9 14.28,-8.25 30.34,-12.74 46.37,-16.12 -1.15,4.96 -3.39,9.75 -3.29,14.93 3.38,0.08 3.94,-3.89 4.88,-6.3 8.51,-26.65 24.64,-51.93 48.94,-66.65 z"
         inkscape:connector-curvature="0"
         style="opacity:1;fill:#ffffff" />
      <path
         id="path18"
         d="m 369.59,168.54 c 8.49,-3.85 18.37,-5.04 27.38,-2.35 10.3,2.96 18.76,10.18 25.64,18.16 13.32,14.84 19.6,35.01 19.99,54.71 l 0.02,1.56 c 8.02,-3.99 17.71,-5.53 26.24,-2.22 6.79,2.5 12.23,8.03 14.99,14.68 4.45,11.01 5.32,23.33 2.97,34.94 -3.03,15.34 -10.72,29.36 -20.03,41.76 -10.35,13.77 -22.89,25.75 -36.49,36.27 -0.02,-2.35 -0.04,-4.7 -0.13,-7.04 -2.44,0.69 -2.29,3.93 -3.4,5.83 -5.04,14.27 -16.69,25.81 -30.91,30.93 -16.14,6.24 -34.44,4.22 -50.04,-2.67 -4.76,-1.61 -9.18,-4.29 -14.07,-5.42 l -0.37,1.44 c 1.75,2.56 4.36,4.35 6.82,6.18 -25.86,-2.17 -51.78,-4.92 -77.04,-11.09 -17.93,-4.38 -35.69,-12.2 -48.65,-25.69 -10.35,-10.64 -16.05,-25.77 -14.65,-40.6 0.95,-8.04 5.12,-15.57 11.21,-20.87 7.61,-6.64 17.8,-10.07 27.87,-9.83 7.52,-0.11 14.92,1.26 22.33,2.33 -0.33,-0.7 -0.67,-1.4 -1.02,-2.09 -10.41,-19.8 -15.92,-43.29 -10.47,-65.39 3.13,-13.2 11.29,-25.4 23.2,-32.18 12.18,-7.08 27.63,-8.9 40.83,-3.57 15.46,6.11 28.03,18.42 35.97,32.87 0.08,-7.87 -0.58,-15.9 1.65,-23.56 2.96,-11.08 9.55,-21.95 20.16,-27.09 m 14.47,15.26 c -8.76,2.54 -15.09,10.5 -17.13,19.19 -2.65,11.09 -0.55,22.66 2.33,33.49 3.32,11.64 8.25,23.02 15.91,32.49 4.47,-1.65 8.47,-4.31 12.74,-6.39 12.24,-6.56 25.1,-11.93 37.23,-18.71 1.13,-2.25 -1.05,-2.51 -2.7,-2.5 -0.27,-10.63 -2.51,-21.3 -7.13,-30.91 -4.05,-8.57 -9.48,-16.88 -17.48,-22.24 -6.86,-4.56 -15.71,-6.95 -23.77,-4.42 m -89.91,19.29 c -7.61,-0.06 -14.55,4.04 -20,9.04 -8.04,7.64 -11.47,18.96 -11.48,29.82 0.02,14.45 4.65,28.53 11.38,41.2 -1.2,0.56 -2.39,1.13 -3.58,1.71 0.34,0.67 1.01,2 1.34,2.66 14.29,-2.27 28.66,-4.16 43.12,-4.73 7.53,-0.14 15.06,-0.2 22.59,-0.16 0.84,-6.8 0.97,-13.67 0.58,-20.51 -1.09,-14.93 -4.14,-30.57 -13.52,-42.67 -7.22,-9.27 -18.24,-16.91 -30.43,-16.36 m 142.78,76.57 c -5.13,1.49 -10.45,0.77 -15.68,0.64 0.85,3.29 4.45,4.28 7.4,4.78 -1.19,3.37 -3.41,6.22 -5.52,9.06 -10.06,12.71 -24.77,21.02 -40.03,25.92 -19.98,6.33 -41.39,6.39 -62.03,3.91 -7.35,-1.05 -14.81,-2.03 -21.74,-4.79 1.23,-2.34 2.42,-4.83 2,-7.56 -2.4,-0.07 -3.35,2.49 -4.88,3.86 -4.54,5.08 -11.24,7.38 -17.81,8.32 -0.2,0.32 -0.61,0.97 -0.81,1.3 5.36,1.05 10.94,0.64 16.15,-0.99 2.72,-1.08 5.52,0.18 8.17,0.85 11.53,3.56 22.77,8.03 33.73,13.07 8.56,3.88 16.07,9.71 24.7,13.46 9.18,4.22 20.23,4.86 29.54,0.72 9.08,-4.63 14.35,-14.01 18.27,-23.02 5.78,-14.52 13.45,-28.33 22.98,-40.74 3.29,-5.09 10.01,-5.98 13.63,-10.77 -2.86,-0.37 -5.33,1.54 -8.07,1.98 m -54.41,4.4 c 0.77,2.26 1.8,4.65 0.83,7.04 -1.69,3.68 -5.52,5.85 -9.34,6.71 -7.13,1.81 -14.76,0.18 -20.86,-3.81 0.75,4.9 5.82,7.45 10.06,8.89 5.65,1.55 12.04,1.44 17.37,-1.19 3.46,-1.95 6.61,-5.55 6.28,-9.76 0.08,-3.22 -1.83,-6.04 -4.34,-7.88 m 0.46,80.59 c -9.91,2.16 -19.76,-1.38 -28.78,-5.16 7.05,8.97 19.84,11.56 30.59,9.31 9.47,-1.86 18.32,-8.65 20.72,-18.28 -5.88,6.81 -13.43,12.66 -22.53,14.13 z"
         inkscape:connector-curvature="0"
         style="opacity:1;fill:#ffffff" />
      <path
         id="path20"
         d="m 373.01,198.78 c 2.81,-6.72 9.68,-11.29 16.93,-11.45 8.42,-0.78 16.17,4.08 21.58,10.14 11.14,12.47 16.29,29.29 17.01,45.77 -3.19,1.57 -6.43,3.01 -9.7,4.4 0.05,-8.9 -2.8,-17.69 -7.47,-25.21 -4.33,3 -8.72,5.93 -13.23,8.66 2.09,-5.35 4.63,-10.52 6.76,-15.86 -6.36,-5.85 -16.48,-6.56 -23.7,-1.9 -5.64,3.26 -8.18,9.73 -9.13,15.87 -2.65,-9.85 -3.18,-20.89 0.95,-30.42 z"
         inkscape:connector-curvature="0"
         style="opacity:1;fill:#ffffff" />
      <path
         id="path22"
         d="m 288.82,208.96 c 6.3,-1.65 13.23,-0.96 18.97,2.18 10.35,5.51 17.49,15.78 21.08,26.76 4.22,13.03 5.27,26.92 4.51,40.55 -4.94,0.1 -9.88,0.15 -14.82,0.19 1.63,-10.71 0.94,-22.19 -4.6,-31.74 -5.17,2.76 -9.96,6.14 -14.92,9.24 2.06,-6.31 4.93,-12.34 7.52,-18.45 -5.69,-4.37 -13.25,-7.14 -20.39,-5.12 -9.7,2.56 -16.5,12.15 -17.3,21.92 -2.85,-9.88 -1.99,-20.89 2.59,-30.13 3.57,-7.03 9.56,-13.29 17.36,-15.4 z"
         inkscape:connector-curvature="0"
         style="opacity:1;fill:#ffffff" />
    </g>
    <g
       id="#e5173fff">
      <path
         id="path25"
         d="m 368.4,80.6 c 1.93,-0.43 4.56,-0.87 5.98,0.89 1.99,2.51 0.77,5.9 -0.48,8.45 -4.75,9.2 -12.42,16.62 -16.47,26.21 -2.74,6.25 -2.98,13.22 -2.66,19.93 0.11,2.05 0.34,4.4 2.27,5.61 0.4,-3.83 0.41,-7.69 0.72,-11.52 20.31,1.83 39.76,10 56.21,21.91 25.56,18.6 41.7,49.38 42.35,81 -4.91,1.07 -9.8,2.73 -13.72,5.98 -0.39,-19.7 -6.67,-39.87 -19.99,-54.71 -6.88,-7.98 -15.34,-15.2 -25.64,-18.16 -9.01,-2.69 -18.89,-1.5 -27.38,2.35 -10.61,5.14 -17.2,16.01 -20.16,27.09 -2.23,7.66 -1.57,15.69 -1.65,23.56 -7.94,-14.45 -20.51,-26.76 -35.97,-32.87 -13.2,-5.33 -28.65,-3.51 -40.83,3.57 -11.91,6.78 -20.07,18.98 -23.2,32.18 -5.45,22.1 0.06,45.59 10.47,65.39 -13.92,-6.24 -30.58,-6.56 -44.3,0.42 -8.73,-22.47 -10.43,-47.93 -3.08,-71.02 7.24,-24.81 23.08,-46.97 44.33,-61.7 6.34,-4.44 13.04,-8.38 20.05,-11.65 4.2,3.59 6.55,9.81 12.08,12.09 -0.49,-3.75 -3.78,-6.22 -5.47,-9.43 -7.97,-11.42 -13.02,-25.15 -12.73,-39.18 0.02,-5.53 0.81,-11.35 3.92,-16.05 1.66,-2.47 5.43,-3.82 8.02,-2.01 3.21,4.27 2.58,10.03 2.7,15.08 0.13,7.65 -1.7,15.31 -0.31,22.93 1.18,7.93 5.15,15.24 10.41,21.2 0.84,1.06 1.96,1.82 3.2,2.35 -0.61,-5 -4.64,-8.69 -5.89,-13.53 16.75,-5.61 34.37,-9.03 52.09,-8.22 0.76,3.76 -0.67,9.08 2.93,11.53 0.4,-8.76 -0.57,-17.63 1.06,-26.32 1.27,-9.11 5.56,-17.46 10.75,-24.94 2.69,-3.58 6.06,-6.96 10.39,-8.41 z"
         inkscape:connector-curvature="0"
         style="opacity:1;fill:#e5173f" />
      <path
         id="path27"
         d="m 380.72,333.18 c 3.13,-1.97 6.58,-3.69 10.36,-3.8 3.78,-0.31 7.35,1.21 10.78,2.62 -3.74,9.41 -12.47,17.28 -22.8,18.2 -10.63,0.8 -20.98,-3.82 -29.29,-10.14 10.16,-6.61 24.55,-8.16 34.82,-0.94 -1.12,-2.09 -2.55,-3.98 -3.87,-5.94 z"
         inkscape:connector-curvature="0"
         style="opacity:1;fill:#e5173f" />
      <path
         id="path29"
         d="m 212.62,391.07 c 5.04,-0.88 10.5,1.79 12.88,6.33 3.33,6.02 0.78,14.57 -5.7,17.28 -7.17,3.65 -16.89,-1.55 -17.55,-9.62 -1.12,-6.52 3.86,-13.12 10.37,-13.99 z"
         inkscape:connector-curvature="0"
         style="opacity:1;fill:#e5173f" />
      <path
         id="path31"
         d="m 43.94,400.93 c 3.63,-3.8 9.98,-4.28 14.25,-1.3 3.04,2.04 4.55,5.78 4.51,9.37 0.04,14.98 0.04,29.97 0.06,44.96 0.35,8.22 -0.04,17.01 -4.83,24.05 -7.79,12.28 -24.6,15.75 -37.81,11.39 C 10.47,486.36 2.51,478.27 0,468.43 l 0,-3.96 c 0.91,-6.82 9.05,-10.13 14.93,-7.31 4.93,2.34 6.27,8.31 10.47,11.48 4,2.97 10.55,2.49 13.49,-1.75 1.96,-2.55 1.95,-5.89 1.95,-8.95 -0.08,-15.65 0.04,-31.3 -0.09,-46.95 -0.08,-3.56 0.55,-7.45 3.19,-10.06 z"
         inkscape:connector-curvature="0"
         style="opacity:1;fill:#e5173f" />
      <path
         id="path33"
         d="m 235.21,407.9 c -0.02,-6.8 7.54,-11.8 13.87,-9.78 4.87,1.12 8.27,5.96 8.3,10.86 0.1,6.73 -0.02,13.46 0.05,20.2 13.25,-4.98 29.52,0.37 37.14,12.31 6.87,10.33 6.71,24.69 -0.18,34.96 -4.03,6.32 -10.42,11 -17.55,13.23 -7.34,2.22 -15.36,1.7 -22.57,-0.76 -7.7,-2.66 -14.12,-8.81 -16.89,-16.5 -1.81,-4.58 -2.29,-9.55 -2.21,-14.43 0.06,-16.7 -0.12,-33.4 0.04,-50.09 m 30.47,39.12 c -5.77,0.75 -10.49,6.19 -10.22,12.03 -0.02,6.46 6.08,12.17 12.54,11.6 5.7,-0.12 10.63,-4.96 11.24,-10.57 1.04,-7.37 -6.25,-14.39 -13.56,-13.06 z"
         inkscape:connector-curvature="0"
         style="opacity:1;fill:#e5173f" />
      <path
         id="path35"
         d="m 180.45,403.66 c 3.58,-0.83 7.61,0 10.23,2.67 2.69,2.42 3.52,6.19 3.49,9.69 -0.05,20.68 0.03,41.36 -0.04,62.05 0.18,5.4 -3.72,10.83 -9.26,11.47 -6.31,1.21 -12.65,-4.17 -12.48,-10.58 -0.04,-21.63 -0.03,-43.26 0,-64.89 -0.07,-4.77 3.39,-9.33 8.06,-10.41 z"
         inkscape:connector-curvature="0"
         style="opacity:1;fill:#e5173f" />
      <path
         id="path37"
         d="m 146.42,404.75 c 6.46,-4.03 16,0.81 16.2,8.51 0.12,21.92 0.05,43.84 0.04,65.75 0.12,5.67 -4.96,10.83 -10.67,10.61 -5.75,0.35 -11.06,-4.85 -10.85,-10.6 -0.03,-14.34 -0.44,-28.69 0.01,-43.03 0,-7.68 -0.42,-15.36 0.07,-23.03 0.12,-3.42 2.34,-6.49 5.2,-8.21 z"
         inkscape:connector-curvature="0"
         style="opacity:1;fill:#e5173f" />
      <path
         id="path39"
         d="m 438.57,423.77 c 5.29,-0.78 9.9,5.3 7.5,10.18 -1.87,4.72 -8.75,5.94 -12.06,2.06 -4,-4.06 -1.26,-11.89 4.56,-12.24 m -0.48,1.24 c -3.03,0.77 -5.4,3.79 -4.73,7 0.51,4.96 7.61,7.05 10.65,3 4,-4.04 -0.57,-11.49 -5.92,-10 z"
         inkscape:connector-curvature="0"
         style="opacity:1;fill:#e5173f" />
      <path
         id="path41"
         d="m 98.59,426.07 c 16.28,-2 32.63,10.3 35.23,26.5 3.55,16.54 -8.16,34.32 -24.69,37.72 -13.66,3.43 -29.04,-3.31 -35.78,-15.68 -5.96,-10.37 -5.55,-24.08 1.15,-34.01 5.27,-8.17 14.42,-13.65 24.09,-14.53 m 1.39,20.78 c -5.33,0.82 -10,5.65 -9.88,11.18 -0.58,5.82 4.13,11.26 9.79,12.18 6.71,1.24 13.57,-4.44 13.63,-11.26 0.53,-7.14 -6.54,-13.35 -13.54,-12.1 z"
         inkscape:connector-curvature="0"
         style="opacity:1;fill:#e5173f" />
      <path
         id="path43"
         d="m 312.15,436.18 c 9.03,-10.56 25.46,-13.19 37.65,-6.8 7.87,4.02 13.42,12.01 14.81,20.7 0.56,3.55 1.31,7.45 -0.34,10.83 -1.65,3.39 -5.75,4.46 -9.22,4.6 -9.94,0.2 -19.9,-0.15 -29.84,0.18 4.28,8.06 14.98,8.22 22.62,5.7 3.62,-1.19 8.15,-2.24 11.43,0.32 3.17,2.55 3.11,7.54 1.02,10.76 -2.59,3.9 -7.14,5.8 -11.41,7.21 -11.69,3.18 -25.34,1.29 -34.41,-7.2 -12.79,-11.62 -13.63,-33.4 -2.31,-46.3 m 12.76,15.38 c 7.1,0.06 14.21,0.06 21.31,0 -0.71,-3.53 -2.79,-6.95 -6.31,-8.21 -6.13,-2.8 -14.47,1.19 -15,8.21 z"
         inkscape:connector-curvature="0"
         style="opacity:1;fill:#e5173f" />
      <path
         id="path45"
         d="m 210.47,426.73 c 6.54,-2.67 14.65,2.03 14.88,9.23 0.14,14.33 0.05,28.67 0.04,43.01 0.08,5.59 -4.78,10.72 -10.43,10.67 -5.9,0.47 -11.24,-4.74 -11.25,-10.6 -0.07,-14.01 -0.03,-28.03 -0.02,-42.04 -0.05,-4.36 2.64,-8.72 6.78,-10.27 z"
         inkscape:connector-curvature="0"
         style="opacity:1;fill:#e5173f" />
      <path
         id="path47"
         d="m 386.39,429.38 c 9.84,-5.05 22.42,-4.59 31.66,1.61 9.06,5.92 13.65,17.37 12.46,27.96 -0.74,4.44 -5.56,6.5 -9.63,6.54 -9.97,0.2 -19.94,-0.05 -29.91,0.12 1.48,3.8 5.32,6.04 9.16,6.8 4.96,0.81 10.08,0.21 14.8,-1.48 3.46,-1.01 8.02,-1.54 10.64,1.51 2.89,3.22 1.99,8.33 -0.74,11.37 -3.04,3.31 -7.4,5.02 -11.64,6.2 -11.03,2.6 -23.67,0.84 -32.35,-6.84 -9.91,-8.38 -13.44,-22.9 -9.6,-35.14 2.29,-7.91 7.8,-14.88 15.15,-18.65 m 3.95,22.19 c 7.16,0.04 14.33,0.05 21.5,0 -0.83,-5.15 -5.5,-9.37 -10.81,-9.06 -5.26,-0.21 -10,3.87 -10.69,9.06 z"
         inkscape:connector-curvature="0"
         style="opacity:1;fill:#e5173f" />
      <path
         id="path49"
         d="m 436.5,427.36 c 1.88,0.07 3.85,-0.24 5.64,0.5 0.4,2.54 0.16,5.16 0.04,7.73 -0.6,-1.25 -1.14,-2.51 -1.62,-3.79 -0.68,-0.04 -2.04,-0.12 -2.73,-0.17 -0.02,0.79 -0.08,2.35 -0.11,3.14 -0.3,-0.02 -0.91,-0.07 -1.21,-0.09 -0.02,-2.44 -0.02,-4.88 -0.01,-7.32 m 1.53,1.48 c -1.22,1.6 1.73,2.61 2.68,1.44 1.21,-1.61 -1.75,-2.67 -2.68,-1.44 z"
         inkscape:connector-curvature="0"
         style="opacity:1;fill:#e5173f" />
    </g>
    <g
       id="#221e1fff">
      <path
         id="path52"
         d="m 382.98,364.65 c 9.1,-1.47 16.65,-7.32 22.53,-14.13 -2.4,9.63 -11.25,16.42 -20.72,18.28 -10.75,2.25 -23.54,-0.34 -30.59,-9.31 9.02,3.78 18.87,7.32 28.78,5.16 z"
         inkscape:connector-curvature="0"
         style="opacity:1;fill:#221e1f" />
    </g>
  </g>
</svg>
