<?xml version="1.0" encoding="UTF-8" ?>
<!DOCTYPE svg PUBLIC "-//W3C//DTD SVG 1.1//EN" "http://www.w3.org/Graphics/SVG/1.1/DTD/svg11.dtd">
<svg width="333pt" height="168pt" viewBox="0 0 3678 1861" version="1.1" xmlns="http://www.w3.org/2000/svg">
<g id="#ffffffff">
</g>
<g id="#ec078dff">
<path fill="#ec078d" opacity="1.00" d=" M 1506.03 10.46 C 1512.38 11.36 1518.51 8.70 1524.86 9.43 C 1529.58 9.85 1534.32 9.66 1539.03 9.15 C 1548.02 8.76 1557.05 8.87 1566.02 9.63 C 1572.45 9.49 1578.92 8.88 1585.25 10.43 C 1591.77 10.08 1598.15 11.61 1604.67 11.66 C 1622.08 13.83 1639.53 15.92 1656.75 19.39 C 1686.16 25.02 1715.09 32.93 1743.48 42.41 C 1757.29 47.60 1771.28 52.40 1784.80 58.35 C 1795.89 63.16 1807.10 67.76 1817.77 73.48 C 1821.33 75.18 1825.27 76.08 1828.51 78.44 C 1832.63 81.31 1837.37 83.02 1841.81 85.30 C 1846.81 88.31 1852.00 90.99 1856.99 94.02 C 1861.79 95.88 1865.67 99.32 1870.02 101.98 C 1874.89 104.36 1878.77 108.30 1883.61 110.78 C 1889.88 114.95 1896.23 119.04 1901.93 124.01 C 1906.98 128.45 1913.33 131.12 1918.08 135.94 C 1923.42 140.65 1929.61 144.28 1935.02 148.91 C 1947.04 158.62 1959.22 168.14 1970.78 178.38 C 1976.12 181.78 1979.69 187.18 1985.03 190.59 C 1987.98 192.21 1988.89 195.81 1991.79 197.47 C 1996.03 200.04 1998.86 204.21 2002.40 207.60 C 2005.80 211.12 2009.92 214.02 2012.60 218.20 C 2014.67 221.43 2017.89 223.62 2020.35 226.51 C 2025.43 232.87 2030.81 239.00 2035.45 245.71 C 2037.57 248.73 2038.70 252.33 2040.88 255.33 C 2042.72 257.82 2043.51 260.85 2044.72 263.66 C 2050.37 274.93 2051.27 287.77 2052.67 300.09 C 2052.84 303.84 2051.70 307.47 2051.53 311.20 C 2051.33 318.05 2049.75 324.77 2048.18 331.41 C 2045.49 338.96 2043.44 346.75 2039.93 353.98 C 2038.13 358.71 2035.10 362.81 2032.81 367.29 C 2030.49 371.60 2027.54 375.58 2023.98 378.94 C 2021.06 381.74 2019.04 385.32 2015.97 387.97 C 2012.11 391.37 2009.01 395.58 2004.81 398.58 C 2002.00 400.54 1999.98 403.38 1997.22 405.37 C 1991.95 408.85 1987.02 412.81 1981.56 415.99 C 1976.47 418.84 1972.04 422.92 1966.42 424.73 C 1961.61 426.24 1957.45 429.38 1952.41 430.18 C 1945.40 432.04 1938.18 432.77 1931.01 433.65 C 1924.69 434.33 1918.52 432.71 1912.27 432.28 C 1903.78 431.20 1895.72 428.21 1887.65 425.51 C 1878.66 421.62 1870.00 416.98 1861.59 411.99 C 1855.19 406.61 1848.31 401.83 1842.00 396.35 C 1838.34 393.49 1836.26 389.21 1833.04 385.94 C 1828.50 381.11 1825.00 375.36 1819.98 370.99 C 1817.06 368.51 1815.50 364.87 1812.70 362.30 C 1810.41 360.14 1807.44 358.69 1805.79 355.91 C 1804.39 353.61 1802.10 352.18 1799.96 350.66 C 1792.77 344.13 1785.65 337.41 1777.67 331.83 C 1772.47 328.72 1768.46 323.99 1763.04 321.25 C 1758.34 318.89 1754.48 315.20 1749.78 312.87 C 1738.96 305.26 1726.67 300.16 1715.02 294.00 C 1708.28 291.03 1701.59 287.96 1694.67 285.47 C 1690.05 283.30 1684.95 282.45 1680.37 280.20 C 1648.12 269.67 1614.58 262.81 1580.73 260.51 C 1575.62 260.93 1570.67 259.17 1565.58 259.42 C 1551.98 259.91 1538.36 259.79 1524.77 259.40 C 1519.69 259.66 1514.70 260.94 1509.59 260.52 C 1492.88 262.09 1476.13 263.96 1459.71 267.55 C 1452.79 269.49 1445.78 271.14 1439.01 273.56 C 1428.21 277.78 1417.17 281.42 1406.62 286.25 C 1399.66 288.97 1393.09 292.54 1386.19 295.35 C 1380.99 297.92 1375.91 300.76 1370.57 303.03 C 1367.33 304.35 1364.76 306.83 1361.61 308.30 C 1352.40 313.16 1343.43 318.44 1334.72 324.15 C 1327.28 327.91 1320.78 333.19 1314.04 338.04 C 1310.07 341.34 1305.38 343.62 1301.54 347.08 C 1291.34 354.82 1281.28 362.79 1272.03 371.63 C 1268.47 373.32 1267.34 377.44 1264.01 379.37 C 1259.68 382.59 1256.02 386.64 1252.65 390.83 C 1251.08 392.61 1248.83 393.71 1247.58 395.77 C 1245.52 399.07 1242.25 401.31 1239.91 404.36 C 1234.20 412.20 1227.21 419.01 1221.64 426.97 C 1216.74 434.31 1211.05 441.15 1206.71 448.86 C 1204.78 453.11 1201.39 456.48 1199.62 460.81 C 1193.14 471.35 1187.49 482.40 1182.52 493.73 C 1164.36 533.25 1153.91 576.13 1150.18 619.41 C 1148.84 624.90 1150.12 630.56 1149.07 636.08 C 1148.09 641.33 1148.34 646.69 1148.33 652.00 C 1148.27 657.32 1149.95 662.51 1149.52 667.85 C 1149.13 672.31 1150.51 676.66 1150.51 681.12 C 1152.64 701.47 1155.90 721.75 1161.16 741.55 C 1163.71 753.28 1168.00 764.52 1171.59 775.95 C 1178.50 794.01 1186.01 811.95 1195.92 828.60 C 1202.12 841.08 1210.19 852.50 1218.02 863.99 C 1222.26 868.58 1225.21 874.15 1229.33 878.84 C 1234.54 885.17 1239.40 891.80 1245.31 897.50 C 1251.32 904.52 1257.79 911.10 1264.41 917.55 C 1269.27 923.17 1275.73 927.00 1280.88 932.33 C 1286.33 936.98 1291.65 941.82 1297.55 945.92 C 1301.92 949.51 1306.31 953.10 1311.05 956.22 C 1314.86 958.76 1318.34 961.82 1322.40 964.01 C 1326.33 966.09 1329.58 969.20 1333.35 971.53 C 1339.24 974.90 1344.79 978.81 1350.88 981.84 C 1355.44 985.28 1361.04 986.86 1365.57 990.36 C 1382.47 998.71 1399.28 1007.31 1416.92 1014.05 C 1430.97 1019.72 1445.23 1024.96 1459.92 1028.70 C 1474.20 1031.69 1488.70 1033.56 1503.22 1034.93 C 1508.07 1035.94 1513.08 1034.90 1517.92 1036.06 C 1522.88 1037.13 1527.95 1036.29 1532.97 1036.31 C 1541.31 1036.26 1549.66 1036.30 1558.01 1036.29 C 1563.62 1036.21 1569.32 1037.23 1574.87 1035.91 C 1577.93 1035.21 1581.08 1035.51 1584.20 1035.46 C 1603.90 1033.34 1623.65 1030.98 1642.95 1026.32 C 1669.75 1020.33 1695.95 1011.42 1720.59 999.28 C 1724.22 998.18 1727.51 996.31 1730.66 994.20 C 1741.16 988.95 1751.32 982.96 1760.90 976.14 C 1773.99 967.07 1787.09 957.82 1798.53 946.68 C 1801.10 945.16 1803.10 943.03 1804.58 940.44 C 1808.59 936.85 1812.35 932.97 1816.58 929.62 C 1821.02 923.61 1826.70 918.67 1831.09 912.62 C 1840.59 899.28 1853.98 889.42 1867.54 880.57 C 1870.94 877.95 1875.09 876.67 1878.81 874.61 C 1887.18 870.22 1896.24 867.29 1905.42 865.13 C 1910.94 863.63 1916.70 863.69 1922.30 862.58 C 1929.11 861.36 1935.89 863.22 1942.66 863.88 C 1950.34 864.73 1957.77 867.23 1964.65 870.71 C 1971.28 874.75 1978.69 877.42 1985.04 881.97 C 1988.95 885.09 1993.54 887.29 1997.12 890.87 C 2005.02 897.76 2013.16 904.41 2020.06 912.36 C 2023.39 916.87 2027.41 920.84 2030.61 925.47 C 2035.69 933.98 2041.02 942.46 2043.98 952.01 C 2045.63 957.80 2048.24 963.30 2049.30 969.25 C 2050.08 973.84 2051.39 978.38 2051.45 983.08 C 2051.44 987.09 2052.59 990.99 2052.69 994.99 C 2051.52 1008.26 2049.96 1021.85 2044.22 1034.05 C 2040.22 1044.73 2032.61 1053.44 2026.01 1062.56 C 2021.89 1066.63 2019.42 1072.11 2014.60 1075.47 C 2011.13 1080.63 2006.16 1084.44 2001.91 1088.90 C 1997.45 1093.19 1993.71 1098.24 1988.46 1101.61 C 1984.25 1107.09 1978.10 1110.51 1973.35 1115.44 C 1969.36 1118.77 1965.35 1122.08 1961.74 1125.82 C 1952.10 1132.71 1943.42 1140.84 1933.92 1147.93 C 1927.39 1152.57 1921.71 1158.26 1915.07 1162.75 C 1907.84 1168.59 1899.90 1173.41 1892.44 1178.94 C 1881.31 1187.75 1868.86 1194.63 1856.88 1202.17 C 1849.92 1205.78 1843.53 1210.44 1836.16 1213.23 C 1832.06 1214.60 1829.07 1218.08 1824.84 1219.13 C 1820.05 1220.41 1816.32 1223.83 1811.79 1225.67 C 1740.45 1259.47 1662.89 1280.85 1584.05 1286.01 C 1577.62 1287.36 1571.09 1285.86 1564.63 1286.63 C 1557.10 1287.01 1549.56 1287.77 1542.03 1287.10 C 1536.19 1287.04 1530.39 1286.01 1524.55 1286.46 C 1521.23 1286.66 1517.88 1286.88 1514.61 1286.23 C 1506.34 1284.37 1497.77 1286.89 1489.53 1284.65 C 1481.41 1284.68 1473.36 1283.61 1465.31 1282.62 C 1430.31 1278.33 1395.75 1270.70 1362.05 1260.35 C 1357.97 1258.75 1353.74 1257.65 1349.51 1256.56 C 1342.50 1254.69 1336.04 1251.29 1329.05 1249.37 C 1302.30 1239.68 1276.25 1228.10 1250.77 1215.48 C 1246.96 1213.70 1243.67 1211.00 1239.89 1209.20 C 1236.93 1207.68 1233.68 1206.76 1230.89 1204.94 C 1225.80 1201.29 1219.89 1199.05 1214.77 1195.44 C 1204.74 1190.86 1196.29 1183.59 1186.49 1178.60 C 1175.85 1170.34 1163.98 1163.82 1153.53 1155.31 C 1141.86 1147.43 1131.07 1138.29 1120.61 1128.91 C 1116.10 1126.06 1113.34 1121.31 1109.07 1118.22 C 1103.26 1114.37 1099.22 1108.54 1094.08 1103.92 C 1089.59 1098.90 1083.86 1095.01 1080.09 1089.38 C 1077.24 1085.10 1072.61 1082.44 1069.72 1078.21 C 1067.53 1074.99 1064.37 1072.64 1061.95 1069.64 C 1051.96 1056.86 1040.74 1045.07 1031.33 1031.85 C 1027.16 1027.12 1024.23 1021.51 1020.50 1016.47 C 1017.19 1011.14 1013.09 1006.38 1009.69 1001.12 C 1004.89 993.70 1000.63 985.92 995.40 978.79 C 992.35 974.73 990.82 969.82 987.97 965.64 C 984.71 960.44 981.97 954.93 978.89 949.62 C 974.45 941.39 971.14 932.57 966.23 924.60 C 955.71 903.72 946.98 881.97 938.95 860.03 C 935.24 847.73 930.54 835.74 927.24 823.32 C 916.98 786.67 908.22 749.45 904.17 711.56 C 903.54 707.49 903.54 703.36 902.81 699.32 C 902.04 694.94 902.98 690.45 901.94 686.11 C 900.71 680.46 902.04 674.69 901.68 668.99 C 900.60 657.06 900.89 645.05 901.21 633.09 C 902.53 624.58 900.20 615.93 902.30 607.49 C 902.79 589.63 905.88 571.93 908.33 554.24 C 913.95 522.07 921.88 490.33 931.27 459.06 C 934.17 450.93 936.71 442.67 939.51 434.51 C 943.46 424.72 946.59 414.61 951.10 405.05 C 954.44 396.41 958.48 388.07 962.19 379.59 C 964.65 374.82 967.14 370.06 969.16 365.07 C 970.63 361.30 973.18 358.10 974.88 354.44 C 976.43 351.32 977.55 347.96 979.59 345.10 C 981.94 341.87 983.35 338.09 985.53 334.75 C 988.94 328.62 992.77 322.75 996.26 316.67 C 998.59 312.97 1000.18 308.83 1002.92 305.39 C 1005.64 302.04 1007.57 298.17 1009.99 294.62 C 1012.79 290.34 1016.20 286.49 1018.82 282.09 C 1021.92 276.87 1026.14 272.44 1029.33 267.28 C 1032.12 262.69 1036.21 259.12 1039.11 254.62 C 1044.72 245.49 1053.00 238.44 1059.03 229.61 C 1064.30 224.03 1069.13 218.05 1074.49 212.56 C 1077.19 209.92 1080.14 207.50 1082.33 204.39 C 1085.93 199.05 1091.23 195.25 1095.60 190.60 C 1099.49 186.90 1102.59 182.29 1107.23 179.43 C 1110.39 177.55 1111.79 173.84 1114.93 171.90 C 1122.22 166.68 1127.94 159.64 1135.16 154.33 C 1141.06 149.43 1147.76 145.58 1153.50 140.46 C 1158.27 137.21 1162.73 133.51 1167.80 130.71 C 1173.49 126.32 1179.12 121.79 1185.51 118.43 C 1190.96 115.66 1195.66 111.70 1201.03 108.79 C 1206.33 105.59 1211.75 102.58 1216.88 99.10 C 1222.60 95.42 1228.97 92.94 1234.65 89.22 C 1239.95 86.18 1245.92 84.42 1250.96 80.89 C 1254.33 78.55 1258.02 76.69 1261.94 75.44 C 1284.63 64.00 1308.20 54.35 1332.05 45.61 C 1344.63 41.84 1356.87 37.00 1369.54 33.51 C 1406.87 22.57 1445.23 14.99 1483.96 11.46 C 1491.37 11.98 1498.60 9.43 1506.03 10.46 Z" />
<path fill="#ec078d" opacity="1.00" d=" M 3006.47 10.56 C 3018.84 10.13 3031.30 9.80 3043.62 11.39 C 3050.00 12.19 3056.49 10.75 3062.85 12.11 C 3084.68 13.41 3106.47 16.01 3128.05 19.61 C 3143.67 22.51 3159.35 25.28 3174.69 29.48 C 3188.80 32.67 3202.59 37.08 3216.49 41.07 C 3222.47 43.40 3228.81 44.76 3234.64 47.51 C 3237.89 48.93 3241.45 49.50 3244.68 51.04 C 3258.63 56.62 3272.78 61.81 3286.21 68.61 C 3293.38 71.20 3299.90 75.19 3306.77 78.44 C 3318.79 84.10 3330.21 90.90 3341.80 97.37 C 3346.17 99.32 3350.22 101.88 3354.07 104.74 C 3360.80 108.67 3367.20 113.14 3373.84 117.24 C 3379.15 120.14 3383.29 124.76 3388.77 127.41 C 3395.11 132.26 3401.28 137.38 3407.95 141.81 C 3410.98 143.81 3413.35 146.65 3416.49 148.53 C 3420.32 150.90 3423.24 154.41 3426.83 157.12 C 3431.51 160.74 3435.71 164.92 3440.41 168.53 C 3444.96 172.14 3448.78 176.61 3453.68 179.81 C 3456.44 181.53 3457.00 185.25 3459.90 186.85 C 3462.97 188.76 3465.63 191.24 3468.10 193.90 C 3472.27 198.40 3477.19 202.25 3480.64 207.41 C 3482.02 209.52 3483.88 211.28 3485.95 212.76 C 3489.95 215.58 3492.05 220.23 3495.77 223.37 C 3499.21 226.28 3501.14 230.51 3504.48 233.54 C 3506.73 235.67 3508.97 237.87 3510.64 240.52 C 3513.50 245.11 3517.95 248.42 3520.62 253.16 C 3525.77 259.46 3530.31 266.23 3535.49 272.50 C 3539.34 276.77 3541.72 282.09 3545.36 286.52 C 3553.42 296.78 3559.08 308.64 3566.86 319.09 C 3572.94 330.72 3579.75 341.96 3585.82 353.60 C 3590.13 363.10 3595.63 372.04 3599.38 381.79 C 3605.91 394.40 3610.76 407.80 3615.99 421.00 C 3618.42 426.19 3619.53 431.87 3622.07 437.02 C 3632.37 467.46 3640.72 498.59 3646.65 530.19 C 3648.67 538.98 3649.34 547.99 3651.10 556.83 C 3652.77 572.37 3655.29 587.87 3655.70 603.50 C 3657.57 610.61 3655.68 617.94 3656.84 625.12 C 3658.42 635.35 3657.41 645.71 3657.75 656.01 C 3658.10 664.01 3655.66 671.87 3656.49 679.88 C 3657.13 685.65 3654.91 691.26 3655.54 697.05 C 3653.37 718.95 3651.05 740.91 3646.90 762.56 C 3636.91 816.67 3620.07 869.53 3596.42 919.23 C 3593.69 923.93 3591.89 929.09 3589.00 933.71 C 3586.03 939.74 3583.39 945.95 3579.60 951.53 C 3576.83 957.69 3573.63 963.66 3569.85 969.26 C 3566.10 974.76 3563.51 980.95 3559.49 986.26 C 3556.22 991.41 3553.12 996.66 3549.47 1001.54 C 3545.84 1008.08 3540.65 1013.53 3536.72 1019.87 C 3533.74 1024.72 3530.37 1029.35 3526.49 1033.52 C 3516.95 1046.31 3506.53 1058.46 3495.89 1070.36 C 3492.93 1073.83 3490.79 1078.20 3486.79 1080.60 C 3483.72 1082.28 3482.65 1085.88 3480.10 1088.09 C 3474.20 1093.53 3468.47 1099.14 3463.07 1105.07 C 3459.73 1108.82 3454.98 1110.95 3451.87 1114.94 C 3448.32 1119.45 3443.30 1122.35 3439.35 1126.44 C 3422.38 1141.04 3405.02 1155.24 3386.69 1168.12 C 3381.43 1172.00 3375.62 1175.04 3370.33 1178.87 C 3361.00 1186.01 3350.33 1191.06 3340.54 1197.50 C 3334.75 1201.11 3328.65 1204.19 3322.74 1207.59 C 3316.46 1210.76 3309.99 1213.55 3303.78 1216.84 C 3301.29 1218.19 3299.28 1220.37 3296.54 1221.23 C 3291.80 1222.67 3287.62 1225.42 3283.02 1227.20 C 3270.68 1232.80 3258.16 1238.00 3245.50 1242.84 C 3234.01 1247.42 3222.03 1250.59 3210.44 1254.89 C 3165.50 1268.77 3119.01 1277.74 3072.14 1281.54 C 3066.74 1281.01 3061.52 1283.09 3056.14 1282.55 C 3049.38 1281.88 3042.76 1283.99 3036.01 1283.73 C 3026.00 1283.51 3015.99 1283.51 3005.99 1283.74 C 2999.22 1284.03 2992.61 1281.86 2985.86 1282.55 C 2980.46 1283.07 2975.25 1281.11 2969.87 1281.48 C 2932.99 1278.55 2896.40 1272.33 2860.55 1263.14 C 2847.66 1259.37 2834.57 1256.26 2821.95 1251.60 C 2798.06 1243.96 2774.70 1234.65 2751.99 1224.00 C 2744.54 1220.59 2737.59 1216.26 2730.15 1212.85 C 2716.98 1207.02 2704.77 1199.33 2692.42 1192.00 C 2687.23 1189.49 2682.77 1185.77 2677.59 1183.26 C 2673.47 1180.87 2670.20 1177.27 2665.95 1175.11 C 2660.99 1172.53 2656.89 1168.70 2652.31 1165.57 C 2646.25 1160.96 2639.34 1157.49 2633.95 1152.04 C 2620.65 1141.59 2607.14 1131.36 2595.01 1119.57 C 2591.52 1116.51 2587.51 1113.99 2585.01 1109.98 C 2578.24 1105.53 2573.55 1098.78 2567.51 1093.48 C 2564.48 1090.81 2561.61 1087.94 2559.33 1084.61 C 2556.27 1080.19 2551.60 1077.27 2548.37 1073.02 C 2546.18 1070.10 2543.05 1068.06 2541.04 1065.00 C 2538.39 1061.00 2534.63 1057.94 2531.92 1054.00 C 2527.32 1047.52 2521.27 1042.19 2517.07 1035.42 C 2512.02 1029.85 2508.33 1023.28 2503.60 1017.46 C 2499.03 1010.93 2494.21 1004.58 2489.71 998.00 C 2486.52 993.77 2484.69 988.74 2481.55 984.50 C 2473.14 972.19 2466.30 958.94 2458.99 945.98 C 2453.66 935.06 2448.07 924.26 2442.76 913.33 C 2435.86 898.09 2429.62 882.56 2423.61 866.94 C 2422.75 863.68 2421.54 860.54 2420.12 857.48 C 2403.09 807.70 2391.67 755.92 2387.20 703.46 C 2386.16 697.81 2386.83 692.02 2385.75 686.38 C 2384.87 681.40 2385.86 676.36 2385.51 671.35 C 2383.71 655.19 2383.71 638.80 2385.51 622.64 C 2385.90 617.65 2384.76 612.61 2385.81 607.67 C 2387.12 602.28 2385.97 596.69 2387.11 591.28 C 2390.94 547.67 2399.15 504.42 2411.82 462.52 C 2414.30 455.97 2415.55 449.05 2418.06 442.51 C 2423.94 426.65 2429.55 410.67 2436.50 395.23 C 2442.26 380.98 2449.36 367.35 2456.19 353.59 C 2458.02 348.49 2461.98 344.54 2463.72 339.40 C 2467.23 332.74 2471.47 326.49 2475.29 320.00 C 2478.42 315.52 2480.25 310.24 2483.74 305.99 C 2486.33 302.72 2488.06 298.90 2490.42 295.47 C 2501.77 279.28 2513.14 263.07 2525.70 247.78 C 2528.87 242.69 2533.69 238.92 2536.75 233.75 C 2539.72 228.98 2544.88 226.21 2548.07 221.62 C 2551.19 216.97 2555.80 213.66 2559.66 209.66 C 2562.91 206.53 2565.08 202.48 2568.39 199.39 C 2571.29 196.62 2574.00 193.64 2576.94 190.90 C 2578.87 189.01 2581.69 188.07 2583.11 185.65 C 2585.39 181.50 2590.07 179.67 2593.04 176.08 C 2597.82 172.91 2601.32 168.36 2605.45 164.47 C 2613.06 159.24 2619.86 152.97 2627.20 147.37 C 2631.94 142.67 2637.92 139.59 2643.00 135.30 C 2646.37 132.53 2650.16 130.29 2653.51 127.47 C 2656.60 124.83 2660.46 123.32 2663.54 120.64 C 2668.15 116.90 2673.40 114.11 2678.38 110.92 C 2683.51 106.66 2689.75 104.16 2695.27 100.48 C 2702.67 96.30 2709.54 91.13 2717.44 87.89 C 2727.71 81.50 2738.97 76.94 2749.56 71.12 C 2768.72 62.48 2788.04 54.10 2807.97 47.32 C 2814.02 44.78 2820.26 42.67 2826.58 40.87 C 2832.19 39.68 2837.41 37.21 2843.01 35.91 C 2883.12 24.21 2924.44 16.70 2966.05 13.02 C 2970.92 12.17 2975.91 12.81 2980.78 11.87 C 2986.31 10.77 2991.93 12.01 2997.52 11.47 C 3000.48 11.20 3003.46 10.84 3006.47 10.56 M 2973.43 262.16 C 2962.41 263.28 2951.54 265.45 2940.68 267.55 C 2925.56 270.66 2910.80 275.20 2896.01 279.52 C 2889.82 282.38 2883.23 284.16 2876.96 286.81 C 2867.18 290.93 2857.41 295.08 2848.02 300.04 C 2842.41 303.06 2836.41 305.33 2831.01 308.73 C 2823.76 313.01 2816.27 316.94 2809.53 322.00 C 2805.52 325.03 2801.02 327.30 2797.00 330.28 C 2793.40 333.76 2788.51 335.43 2785.03 339.04 C 2779.27 344.67 2772.13 348.62 2766.43 354.31 C 2762.69 356.90 2759.70 360.30 2756.46 363.43 C 2749.26 368.83 2742.83 375.27 2737.43 382.45 C 2734.30 385.70 2730.89 388.69 2728.31 392.42 C 2722.77 397.95 2718.93 404.87 2713.52 410.51 C 2709.73 414.22 2707.52 419.10 2704.40 423.31 C 2699.91 429.69 2695.67 436.22 2691.23 442.63 C 2688.96 446.84 2686.52 450.95 2683.98 455.00 C 2679.66 461.47 2676.90 468.78 2673.25 475.62 C 2664.98 491.09 2659.11 507.67 2652.86 524.00 C 2650.35 533.77 2646.90 543.29 2644.75 553.16 C 2639.17 574.94 2635.64 597.26 2634.39 619.71 C 2634.03 622.66 2633.29 625.59 2633.39 628.59 C 2633.86 640.86 2633.85 653.15 2633.40 665.41 C 2633.29 668.70 2634.23 671.89 2634.49 675.15 C 2635.61 695.94 2638.71 716.63 2643.73 736.84 C 2647.44 751.40 2650.95 766.10 2656.67 780.03 C 2660.46 791.10 2665.03 801.90 2670.18 812.41 C 2672.51 818.40 2675.52 824.09 2678.84 829.59 C 2682.48 837.63 2687.89 844.67 2692.10 852.41 C 2695.05 857.89 2698.54 863.05 2702.32 868.01 C 2705.62 873.48 2709.77 878.35 2713.68 883.40 C 2717.55 887.89 2720.24 893.34 2724.79 897.25 C 2729.03 902.80 2733.94 907.79 2738.56 913.03 C 2747.82 920.38 2755.07 929.86 2764.01 937.57 C 2769.30 942.75 2775.71 946.58 2781.03 951.73 C 2790.73 958.96 2800.24 966.46 2810.39 973.09 C 2815.16 975.39 2819.24 978.85 2823.99 981.22 C 2831.60 985.22 2838.61 990.42 2846.83 993.16 C 2857.95 999.77 2870.01 1004.60 2882.06 1009.28 C 2915.61 1022.26 2951.04 1030.30 2986.86 1033.48 C 2992.60 1033.12 2998.19 1035.17 3003.96 1034.45 C 3011.47 1033.56 3018.97 1035.69 3026.48 1034.61 C 3032.28 1033.78 3038.12 1034.76 3043.95 1034.47 C 3047.80 1033.92 3051.64 1033.22 3055.57 1033.42 C 3096.69 1029.89 3137.14 1019.46 3175.06 1003.22 C 3180.88 1000.84 3186.18 997.34 3192.21 995.39 C 3205.20 988.98 3217.55 981.34 3230.04 974.00 C 3241.65 965.97 3253.34 958.07 3264.50 949.41 C 3269.48 944.69 3275.41 941.06 3280.09 936.00 C 3287.69 927.96 3295.49 920.10 3303.45 912.40 C 3308.17 907.64 3313.60 903.47 3317.07 897.62 C 3324.32 888.58 3331.98 879.80 3338.28 870.04 C 3340.66 867.01 3343.13 864.02 3345.17 860.72 C 3351.14 850.45 3357.71 840.54 3363.21 829.99 C 3367.54 824.34 3369.13 817.34 3372.46 811.16 C 3378.21 799.82 3382.53 787.83 3387.05 775.96 C 3397.64 745.31 3404.70 713.37 3407.27 681.03 C 3407.09 675.29 3408.97 669.72 3408.51 663.99 C 3408.09 655.33 3408.36 646.66 3408.28 638.00 C 3408.18 632.64 3409.15 627.24 3408.04 621.94 C 3407.05 617.69 3407.76 613.30 3407.02 609.02 C 3402.55 563.76 3390.32 519.20 3370.32 478.33 C 3368.22 472.05 3364.11 466.81 3361.36 460.85 C 3358.43 454.73 3354.03 449.48 3351.12 443.35 C 3340.68 427.34 3330.67 410.80 3317.20 397.09 C 3315.30 394.73 3314.01 391.89 3311.64 389.95 C 3307.04 385.96 3303.87 380.67 3299.65 376.33 C 3295.14 372.29 3291.46 367.34 3286.37 363.99 C 3281.89 360.72 3278.98 355.69 3274.08 352.96 C 3269.50 350.33 3266.39 345.95 3262.20 342.85 C 3257.02 338.78 3251.73 334.86 3246.39 331.03 C 3240.95 328.13 3236.30 324.06 3230.97 321.01 C 3219.48 313.25 3207.21 306.78 3195.01 300.24 C 3193.13 298.87 3190.93 298.14 3188.80 297.38 C 3174.21 290.01 3158.80 284.39 3143.49 278.70 C 3118.76 271.22 3093.58 264.74 3067.82 262.06 C 3058.64 260.81 3049.39 260.65 3040.24 259.40 C 3027.14 259.89 3014.02 259.77 3000.94 259.42 C 2991.81 260.79 2982.56 260.78 2973.43 262.16 Z" />
<path fill="#ec078d" opacity="1.00" d=" M 413.96 22.41 C 422.67 23.19 431.28 21.11 439.99 21.23 C 446.80 21.07 453.57 22.01 460.36 22.51 C 465.36 22.89 470.40 21.80 475.37 22.79 C 480.13 23.84 485.05 23.10 489.83 24.04 C 519.80 27.10 549.71 32.13 578.50 41.19 C 583.40 43.31 588.88 43.62 593.65 46.06 C 597.09 47.77 600.92 48.43 604.47 49.84 C 617.44 55.19 630.73 59.97 642.79 67.22 C 650.30 70.59 657.66 74.28 664.63 78.68 C 670.56 81.08 674.79 86.08 680.32 89.17 C 685.87 92.34 690.48 96.86 695.82 100.35 C 703.87 105.46 710.40 112.50 717.83 118.41 C 721.05 120.83 723.49 124.12 726.81 126.42 C 732.28 130.63 736.92 135.81 742.07 140.36 C 743.74 143.42 747.25 144.69 749.06 147.63 C 751.10 150.85 754.42 152.92 756.69 155.95 C 760.61 161.67 766.31 165.87 770.36 171.50 C 774.02 176.80 778.96 181.10 782.48 186.51 C 785.15 190.71 788.87 194.09 791.67 198.20 C 795.66 204.15 799.72 210.06 803.79 215.96 C 806.52 221.23 810.67 225.60 813.21 230.99 C 816.89 236.06 819.13 241.96 822.70 247.10 C 832.93 265.30 841.25 284.51 848.66 304.01 C 851.17 311.70 853.64 319.41 856.34 327.04 C 864.13 352.92 869.22 379.59 871.85 406.48 C 873.00 411.60 872.03 416.87 872.98 422.00 C 873.45 424.72 873.70 427.49 873.57 430.27 C 873.15 441.31 873.18 452.37 873.61 463.41 C 873.87 468.40 872.17 473.27 872.52 478.27 C 872.76 482.64 871.39 486.88 871.47 491.25 C 869.97 504.74 869.40 518.39 866.57 531.71 C 863.89 545.71 860.40 559.59 855.58 573.01 C 850.76 588.70 844.07 603.72 837.24 618.61 C 833.34 625.82 830.31 633.47 825.87 640.38 C 823.55 644.93 820.67 649.15 818.21 653.62 C 815.71 659.76 810.99 664.59 807.90 670.41 C 804.73 676.72 800.43 682.36 796.39 688.12 C 792.80 692.44 790.21 697.46 786.64 701.78 C 783.62 705.56 780.87 709.54 777.90 713.36 C 774.61 717.51 772.06 722.23 768.30 726.01 C 762.28 733.66 755.80 740.95 749.70 748.53 C 746.44 752.95 742.01 756.37 739.14 761.09 C 737.43 764.25 733.94 765.70 731.93 768.60 C 728.18 773.75 722.53 777.15 718.88 782.39 C 715.15 788.06 709.43 791.94 704.90 796.91 C 699.47 801.89 695.18 808.15 688.94 812.21 C 683.91 815.86 680.61 821.34 675.61 825.02 C 673.17 826.78 671.48 829.35 669.07 831.14 C 662.75 835.74 657.16 841.24 651.21 846.28 C 647.62 848.78 644.99 852.38 641.40 854.87 C 637.83 857.38 635.45 861.21 631.80 863.60 C 628.42 865.85 626.16 869.37 622.79 871.62 C 619.45 873.89 617.15 877.34 613.81 879.61 C 610.89 881.59 608.77 884.47 606.03 886.66 C 601.91 889.66 598.41 893.39 594.73 896.89 C 591.23 900.73 586.77 903.48 582.95 906.96 C 579.63 910.52 575.68 913.39 572.43 917.02 C 564.68 922.76 557.82 929.58 550.62 935.97 C 546.83 938.50 544.12 942.27 540.38 944.86 C 537.09 947.17 534.83 950.60 531.61 953.01 C 529.03 954.94 527.22 957.71 524.55 959.55 C 518.03 963.91 513.09 970.17 507.14 975.20 C 502.05 978.34 498.04 982.81 493.73 986.89 C 489.57 991.43 484.07 994.46 479.92 999.00 C 477.12 1002.15 472.97 1003.86 470.83 1007.64 C 515.55 1008.04 560.27 1007.15 605.00 1007.29 C 614.99 1007.40 625.01 1006.89 634.97 1007.93 C 650.98 1008.12 667.00 1007.94 683.01 1007.98 C 688.35 1008.03 693.65 1008.90 699.00 1008.74 C 740.33 1008.58 781.67 1008.80 823.00 1008.29 C 837.00 1008.35 851.01 1008.20 865.01 1008.34 C 876.98 1009.57 889.02 1008.71 901.03 1009.06 C 908.98 1009.28 916.62 1011.76 924.06 1014.41 C 943.00 1020.92 959.55 1033.42 972.05 1048.94 C 976.19 1053.00 978.64 1058.30 981.82 1063.07 C 986.18 1070.19 989.14 1078.03 991.59 1085.99 C 994.83 1094.06 996.10 1102.71 997.64 1111.23 C 998.53 1115.68 998.23 1120.27 999.14 1124.73 C 1000.09 1129.43 999.49 1134.24 999.58 1139.00 C 999.54 1143.43 999.98 1147.91 999.21 1152.32 C 997.91 1159.88 997.29 1167.59 995.02 1174.95 C 992.59 1182.66 989.73 1190.27 985.80 1197.35 C 980.61 1205.78 974.52 1213.64 968.08 1221.12 C 962.96 1224.54 958.97 1229.35 953.73 1232.61 C 947.79 1236.60 941.85 1240.65 935.43 1243.85 C 923.14 1249.69 910.19 1254.17 896.79 1256.63 C 889.96 1258.22 882.93 1257.44 876.00 1257.58 C 820.67 1257.73 765.33 1257.72 710.00 1257.71 C 697.01 1257.51 683.99 1258.25 671.04 1257.03 C 629.69 1256.95 588.35 1257.03 547.00 1257.00 C 534.34 1256.84 521.66 1257.48 509.03 1256.31 C 459.02 1256.27 409.01 1256.32 358.99 1256.28 C 334.67 1256.88 310.33 1256.46 286.00 1256.59 C 229.99 1256.53 173.98 1256.67 117.98 1256.76 C 111.74 1256.89 105.74 1255.00 99.68 1253.80 C 91.61 1251.80 83.70 1249.12 76.11 1245.71 C 69.58 1243.33 64.05 1239.05 57.96 1235.81 C 53.67 1233.49 50.12 1230.11 46.37 1227.05 C 32.50 1214.90 21.20 1199.33 15.88 1181.53 C 12.23 1171.40 10.34 1160.74 9.44 1150.05 C 9.85 1142.05 9.73 1134.04 9.37 1126.05 C 11.35 1106.06 14.99 1085.68 24.65 1067.82 C 26.12 1064.90 27.19 1061.76 29.15 1059.11 C 33.42 1053.16 36.93 1046.34 43.03 1042.00 C 47.13 1038.83 50.00 1034.36 54.17 1031.26 C 61.63 1026.04 67.85 1019.34 75.04 1013.77 C 81.73 1007.49 88.91 1001.75 95.82 995.72 C 99.92 992.89 102.57 988.46 106.75 985.75 C 111.64 982.76 115.53 978.50 120.01 974.99 C 123.03 971.43 126.80 968.75 130.63 966.16 C 139.73 957.92 149.47 950.40 158.40 941.98 C 161.74 938.34 166.29 936.17 169.63 932.53 C 193.40 912.42 217.18 892.27 240.55 871.69 C 245.17 867.65 249.29 862.99 254.46 859.61 C 256.89 858.02 258.53 855.51 261.00 853.98 C 266.82 850.35 270.84 844.54 276.48 840.66 C 289.58 829.10 303.37 818.28 316.09 806.24 C 321.76 800.67 328.67 796.48 333.98 790.52 C 336.14 788.07 339.46 786.96 341.38 784.24 C 343.67 781.16 347.51 779.87 350.05 777.06 C 354.55 772.40 359.43 768.12 364.44 764.02 C 367.29 760.95 370.83 758.68 374.02 756.00 C 377.83 752.02 382.21 748.65 385.97 744.63 C 389.96 741.78 393.72 738.68 397.05 735.08 C 401.91 731.65 405.65 726.95 410.52 723.53 C 414.33 719.25 419.33 716.32 423.07 711.99 C 425.97 708.85 429.95 706.92 432.57 703.50 C 435.33 699.86 439.58 697.89 442.60 694.54 C 446.95 689.87 452.13 686.09 456.53 681.47 C 459.38 678.62 463.06 676.72 465.62 673.55 C 469.09 669.31 473.98 666.63 477.64 662.60 C 480.25 659.86 482.64 656.86 485.78 654.71 C 492.86 649.86 497.28 642.04 504.55 637.43 C 514.85 628.49 522.92 617.08 534.10 609.17 C 537.23 606.28 540.07 603.09 543.18 600.19 C 546.54 597.14 548.51 592.91 551.89 589.88 C 556.22 585.89 560.47 581.81 564.60 577.61 C 567.86 574.43 569.56 570.02 572.98 566.98 C 576.53 563.84 578.52 559.43 581.76 556.01 C 586.76 549.40 590.69 542.06 595.01 535.01 C 599.39 525.91 604.32 517.05 607.90 507.58 C 612.88 495.38 616.01 482.51 618.55 469.61 C 619.60 462.22 620.83 454.83 620.54 447.34 C 621.66 440.04 620.15 432.74 620.46 425.42 C 619.21 411.18 616.00 397.18 611.88 383.51 C 608.47 374.74 605.38 365.81 601.05 357.44 C 598.79 354.10 596.74 350.64 594.91 347.05 C 589.07 338.37 582.45 330.25 575.58 322.37 C 569.71 316.92 564.62 310.60 558.09 305.90 C 550.14 299.68 542.24 293.20 533.18 288.64 C 529.84 287.26 526.84 285.26 523.70 283.53 C 518.19 281.04 512.81 278.20 507.05 276.33 C 500.74 274.58 494.74 271.86 488.31 270.52 C 479.09 268.53 469.77 266.68 460.33 266.38 C 451.09 264.78 441.59 264.78 432.33 266.21 C 421.90 266.88 411.44 267.97 401.25 270.40 C 387.76 273.48 375.00 279.12 362.88 285.70 C 354.55 290.99 345.54 295.37 338.39 302.30 C 331.07 307.60 325.63 314.87 319.25 321.15 C 316.94 323.77 315.15 326.79 313.05 329.56 C 305.77 337.95 300.85 348.03 295.92 357.89 C 283.31 383.20 276.98 411.20 274.09 439.21 C 272.71 445.05 274.34 451.09 272.94 456.93 C 271.51 478.61 266.73 500.12 258.67 520.31 C 255.64 525.94 254.33 532.41 250.33 537.51 C 247.61 543.11 243.99 548.19 240.44 553.28 C 234.73 559.15 230.18 566.20 223.40 570.97 C 219.41 573.72 216.13 577.41 211.84 579.72 C 207.36 582.13 203.31 585.31 198.53 587.13 C 184.82 593.58 169.76 596.80 154.70 597.85 C 143.36 600.11 131.89 597.79 120.52 597.20 C 113.57 595.97 106.55 594.88 99.94 592.32 C 94.70 590.93 89.98 588.19 84.78 586.72 C 84.68 586.45 84.49 585.90 84.39 585.62 C 80.79 585.14 78.33 582.23 75.28 580.57 C 68.61 576.75 62.98 571.48 56.97 566.76 C 53.34 562.83 50.40 558.28 46.63 554.45 C 38.90 543.61 32.57 531.68 28.62 518.94 C 24.69 506.90 22.39 494.37 21.05 481.80 C 19.92 476.51 20.97 471.10 20.30 465.77 C 19.52 457.89 20.10 449.97 20.58 442.10 C 20.25 436.93 20.39 431.76 21.36 426.66 C 21.49 418.81 23.04 411.09 23.70 403.28 C 26.03 389.36 28.08 375.37 31.55 361.68 C 33.65 350.62 37.08 339.89 40.00 329.04 C 42.68 320.67 45.78 312.44 48.26 304.00 C 54.14 288.39 60.18 272.78 67.55 257.79 C 70.46 249.60 74.61 241.94 79.20 234.59 C 83.17 225.55 89.50 217.82 93.87 209.00 C 95.93 204.65 99.45 201.26 101.88 197.14 C 107.34 188.27 113.82 180.09 119.57 171.42 C 123.83 165.13 129.70 160.13 133.75 153.71 C 135.90 150.91 139.07 149.07 140.91 145.99 C 142.83 142.64 146.74 141.27 148.83 138.09 C 152.35 132.70 157.24 128.39 162.15 124.30 C 164.44 122.21 165.90 119.31 168.54 117.58 C 173.42 114.52 177.11 110.01 181.98 106.93 C 187.18 101.53 193.46 97.42 199.46 92.97 C 203.42 90.46 206.80 87.15 210.92 84.87 C 214.03 83.10 216.48 80.41 219.59 78.64 C 226.61 75.12 233.23 70.88 240.05 67.01 C 253.82 60.10 267.53 52.99 282.04 47.72 C 308.43 37.11 336.62 32.05 364.57 27.47 C 376.26 25.89 387.98 24.15 399.75 23.45 C 404.53 23.56 409.16 21.84 413.96 22.41 Z" />
<path fill="#ec078d" opacity="1.00" d=" M 1722.01 581.97 C 1730.37 579.07 1739.32 580.18 1748.00 580.00 C 1759.32 580.15 1770.68 579.52 1781.99 580.64 C 1824.32 580.89 1866.66 580.47 1909.00 580.59 C 1934.66 580.15 1960.33 580.35 1986.00 580.26 C 1991.00 580.11 1995.96 580.86 2000.96 581.00 C 2021.65 581.07 2042.34 580.88 2063.03 581.07 C 2073.32 582.13 2083.67 581.58 2094.00 581.71 C 2117.67 581.79 2141.33 581.58 2165.00 581.59 C 2203.02 581.70 2241.02 581.04 2279.04 581.31 C 2298.04 582.76 2317.11 581.60 2336.15 582.05 C 2336.49 646.70 2336.20 711.35 2336.29 776.00 C 2336.31 909.67 2336.27 1043.35 2336.31 1177.02 C 2337.14 1197.12 2331.11 1216.75 2323.72 1235.21 C 2323.45 1235.33 2322.90 1235.59 2322.63 1235.71 C 2319.72 1242.62 2315.42 1248.84 2310.45 1254.41 C 2304.60 1262.75 2296.44 1268.97 2288.34 1274.95 C 2276.48 1282.61 2263.38 1288.44 2249.58 1291.49 C 2242.33 1293.23 2234.95 1294.37 2227.56 1295.27 C 2217.48 1295.69 2207.34 1298.19 2197.32 1295.80 C 2179.35 1295.08 2161.42 1290.37 2145.80 1281.35 C 2138.20 1277.62 2132.20 1271.54 2125.48 1266.56 C 2121.23 1263.24 2118.68 1258.37 2114.93 1254.57 C 2103.32 1239.70 2095.57 1222.05 2091.47 1203.68 C 2090.34 1197.84 2088.71 1192.01 2089.25 1186.00 C 2089.35 1091.67 2089.27 997.33 2089.29 903.00 C 2089.40 879.73 2089.07 856.46 2089.47 833.20 C 2059.67 833.73 2029.85 832.95 2000.05 833.39 C 1991.06 834.38 1982.01 833.91 1973.00 834.00 C 1943.00 834.00 1913.00 834.00 1883.00 834.00 C 1873.00 833.91 1862.98 834.39 1853.01 833.35 C 1837.68 833.21 1822.34 833.21 1807.01 833.60 C 1795.00 833.32 1782.97 834.31 1771.00 833.16 C 1765.02 832.98 1759.07 832.05 1753.09 832.34 C 1747.06 832.54 1740.96 833.22 1735.00 831.98 C 1730.50 831.04 1725.85 831.96 1721.38 830.87 C 1707.62 828.56 1693.73 824.85 1681.89 817.25 C 1669.40 810.54 1659.48 800.12 1650.73 789.16 C 1647.25 784.13 1644.66 778.59 1641.35 773.47 C 1633.96 757.22 1629.46 739.60 1628.11 721.80 C 1626.69 715.60 1627.87 709.27 1627.75 703.01 C 1627.92 697.12 1626.73 691.16 1628.15 685.35 C 1629.42 676.01 1631.09 666.58 1634.93 657.91 C 1638.93 647.02 1645.27 637.20 1652.25 628.00 C 1654.59 625.12 1656.95 622.18 1660.06 620.07 C 1663.69 617.66 1665.18 613.16 1668.97 610.93 C 1675.69 606.63 1681.32 600.69 1688.58 597.23 C 1692.65 595.33 1696.26 592.59 1700.36 590.74 C 1707.43 587.46 1714.71 584.66 1722.01 581.97 Z" />
<path fill="#ec078d" opacity="1.00" d=" M 2815.21 1363.41 C 2820.24 1360.52 2826.19 1358.28 2832.05 1359.69 C 2836.82 1361.02 2839.30 1365.68 2841.42 1369.78 C 2845.36 1378.20 2845.25 1387.82 2843.98 1396.84 C 2842.56 1407.08 2841.57 1417.37 2840.60 1427.66 C 2840.83 1433.84 2839.19 1439.90 2839.42 1446.09 C 2839.70 1450.13 2836.54 1453.05 2835.08 1456.53 C 2833.21 1460.20 2832.84 1464.67 2834.44 1468.52 C 2836.43 1473.74 2839.45 1479.00 2838.51 1484.81 C 2837.44 1490.79 2836.78 1496.84 2835.81 1502.84 C 2833.85 1511.13 2841.38 1518.61 2839.01 1526.88 C 2837.69 1534.59 2835.79 1543.08 2839.41 1550.45 C 2841.24 1554.65 2841.52 1559.27 2841.74 1563.79 C 2845.52 1591.08 2851.73 1617.96 2855.68 1645.23 C 2857.37 1652.64 2854.97 1660.75 2858.83 1667.68 C 2859.89 1670.23 2862.53 1671.72 2863.59 1674.26 C 2866.62 1684.80 2869.97 1695.27 2872.61 1705.93 C 2873.28 1710.34 2875.21 1715.22 2879.97 1716.53 C 2887.24 1712.13 2892.51 1705.36 2897.72 1698.80 C 2902.97 1690.13 2909.16 1681.97 2913.15 1672.58 C 2916.95 1666.14 2920.43 1659.47 2925.08 1653.59 C 2928.70 1648.02 2933.25 1643.13 2936.46 1637.29 C 2939.71 1633.31 2941.43 1628.42 2944.41 1624.27 C 2953.30 1608.20 2961.04 1591.55 2969.39 1575.21 C 2972.73 1568.87 2975.77 1562.38 2978.53 1555.77 C 2983.63 1546.30 2987.89 1536.42 2992.26 1526.60 C 2993.56 1522.82 2995.64 1519.28 2996.47 1515.35 C 2997.18 1511.63 2993.97 1508.73 2993.64 1505.27 C 2995.58 1497.68 2997.58 1490.10 2999.42 1482.49 C 3001.32 1473.71 3003.27 1464.75 3007.59 1456.79 C 3009.72 1452.96 3012.28 1449.37 3015.00 1445.94 C 3019.68 1440.49 3027.17 1439.55 3033.53 1437.11 C 3041.47 1434.17 3049.64 1431.95 3057.84 1429.86 C 3060.49 1429.21 3063.80 1428.88 3065.54 1431.51 C 3069.59 1434.78 3068.51 1440.39 3068.35 1444.94 C 3065.40 1462.24 3061.29 1479.33 3059.01 1496.74 C 3058.33 1504.21 3053.39 1510.19 3048.67 1515.60 C 3048.05 1519.18 3048.83 1522.94 3047.55 1526.44 C 3043.54 1538.77 3038.06 1550.55 3032.45 1562.22 C 3029.03 1568.51 3026.29 1575.17 3022.57 1581.31 C 3018.87 1586.76 3016.98 1593.18 3013.34 1598.67 C 3009.87 1605.12 3006.09 1611.39 3002.79 1617.93 C 2997.13 1627.07 2992.72 1636.90 2986.99 1645.99 C 2984.17 1652.78 2979.31 1658.45 2976.41 1665.21 C 2975.43 1667.54 2973.84 1669.53 2972.64 1671.75 C 2970.34 1676.83 2966.40 1680.98 2964.46 1686.26 C 2956.82 1698.79 2948.39 1710.83 2940.39 1723.14 C 2936.48 1728.27 2932.90 1733.62 2929.32 1738.99 C 2927.96 1741.24 2924.53 1743.05 2925.68 1746.07 C 2927.23 1750.01 2930.47 1753.14 2931.47 1757.36 C 2932.23 1759.05 2930.55 1760.42 2929.84 1761.81 C 2927.15 1766.08 2923.00 1769.09 2919.20 1772.28 C 2914.83 1775.09 2912.10 1779.70 2907.81 1782.58 C 2903.49 1785.50 2900.75 1790.41 2895.94 1792.65 C 2891.35 1794.59 2886.55 1795.98 2881.95 1797.87 C 2879.08 1798.88 2878.07 1802.02 2876.07 1804.02 C 2873.99 1806.11 2871.96 1808.39 2869.34 1809.78 C 2862.74 1812.42 2855.90 1814.56 2848.86 1815.63 C 2843.92 1816.37 2839.20 1814.44 2834.62 1812.93 C 2830.48 1811.60 2827.96 1807.85 2825.02 1804.94 C 2821.85 1801.78 2819.17 1797.67 2819.26 1793.05 C 2819.06 1790.61 2820.94 1788.81 2822.19 1786.94 C 2826.35 1780.69 2833.67 1777.53 2837.99 1771.42 C 2839.36 1769.09 2836.73 1767.17 2835.61 1765.43 C 2832.61 1762.09 2831.77 1757.61 2830.52 1753.46 C 2829.48 1749.37 2826.32 1746.27 2825.03 1742.28 C 2823.27 1737.11 2818.92 1733.51 2816.42 1728.77 C 2806.14 1709.59 2800.00 1688.45 2795.97 1667.15 C 2793.42 1661.40 2789.21 1656.32 2788.04 1649.98 C 2784.67 1633.49 2781.62 1616.92 2778.87 1600.31 C 2777.67 1593.72 2777.64 1586.82 2774.80 1580.64 C 2773.17 1576.60 2770.87 1572.79 2770.16 1568.44 C 2768.32 1561.69 2770.59 1554.79 2770.46 1547.97 C 2770.12 1544.72 2767.73 1541.78 2768.59 1538.43 C 2769.38 1534.58 2770.60 1530.85 2771.62 1527.07 C 2768.31 1522.12 2764.62 1517.12 2763.62 1511.11 C 2762.99 1507.18 2761.65 1503.10 2762.91 1499.17 C 2763.54 1496.42 2765.08 1494.03 2766.68 1491.76 C 2765.29 1487.77 2763.70 1483.82 2763.05 1479.63 C 2762.34 1476.18 2762.62 1472.43 2760.72 1469.34 C 2758.78 1465.64 2755.81 1462.23 2755.40 1457.94 C 2755.94 1453.51 2757.44 1449.26 2758.03 1444.84 C 2758.76 1441.69 2757.33 1438.66 2756.48 1435.71 C 2756.16 1435.64 2755.52 1435.50 2755.20 1435.43 C 2757.68 1428.36 2758.56 1420.87 2760.93 1413.77 C 2763.47 1405.93 2764.61 1397.56 2768.42 1390.17 C 2772.20 1384.92 2776.34 1379.65 2782.03 1376.33 C 2788.67 1371.40 2796.62 1368.66 2804.63 1366.90 C 2808.34 1366.41 2811.97 1365.34 2815.21 1363.41 Z" />
<path fill="#ec078d" opacity="1.00" d=" M 2593.59 1373.15 C 2599.21 1370.51 2605.24 1367.30 2611.65 1368.58 C 2615.16 1369.26 2618.97 1369.51 2622.03 1371.61 C 2625.26 1373.43 2627.28 1377.08 2627.47 1380.76 C 2626.62 1387.63 2622.65 1393.50 2618.76 1399.03 C 2614.67 1406.35 2608.09 1413.66 2609.70 1422.68 C 2613.41 1427.53 2619.87 1428.34 2625.02 1431.01 C 2636.73 1435.84 2648.28 1441.06 2660.06 1445.71 C 2661.95 1446.56 2663.91 1447.53 2665.13 1449.30 C 2669.48 1455.43 2670.93 1462.97 2672.31 1470.21 C 2674.12 1482.53 2676.87 1494.70 2678.53 1507.05 C 2678.81 1517.16 2674.99 1526.81 2673.58 1536.73 C 2673.33 1539.64 2674.36 1542.45 2674.93 1545.28 C 2676.90 1554.90 2680.10 1564.28 2681.53 1574.01 C 2680.80 1584.22 2678.97 1594.35 2677.57 1604.51 C 2677.30 1607.39 2676.01 1610.46 2677.26 1613.29 C 2681.13 1614.89 2685.55 1614.63 2689.37 1616.49 C 2691.70 1617.47 2693.37 1619.87 2693.46 1622.43 C 2693.66 1625.80 2693.71 1629.44 2691.96 1632.46 C 2690.46 1635.36 2687.27 1636.66 2684.55 1638.14 C 2680.62 1639.96 2677.06 1642.47 2673.35 1644.68 C 2674.81 1648.92 2675.94 1653.27 2677.19 1657.58 C 2677.93 1660.31 2678.84 1663.12 2678.43 1666.00 C 2676.19 1679.74 2673.77 1693.44 2671.59 1707.19 C 2671.57 1716.83 2669.87 1726.39 2667.95 1735.82 C 2666.68 1742.19 2663.18 1747.76 2661.35 1753.95 C 2660.48 1756.84 2658.75 1759.88 2659.86 1762.98 C 2660.77 1766.36 2662.98 1769.59 2662.40 1773.25 C 2660.68 1780.97 2657.58 1788.29 2655.64 1795.95 C 2653.29 1802.98 2651.97 1810.99 2646.05 1816.08 C 2640.78 1821.83 2632.94 1825.36 2625.08 1824.50 C 2620.87 1825.22 2617.89 1821.45 2616.27 1818.09 C 2613.08 1808.74 2618.96 1799.52 2617.46 1790.09 C 2616.55 1784.26 2615.71 1778.33 2616.70 1772.47 C 2617.34 1769.07 2617.41 1765.62 2617.62 1762.20 C 2618.45 1755.32 2619.35 1748.44 2619.75 1741.51 C 2620.75 1736.47 2620.61 1731.32 2620.32 1726.22 C 2620.17 1723.43 2618.53 1721.06 2617.71 1718.47 C 2616.49 1715.13 2617.56 1711.56 2618.13 1708.21 C 2619.31 1702.80 2617.80 1697.14 2619.32 1691.79 C 2620.34 1688.36 2624.28 1685.90 2623.49 1682.00 C 2621.95 1674.16 2620.33 1666.32 2619.28 1658.41 C 2617.03 1655.71 2613.05 1655.96 2610.01 1656.88 C 2604.57 1658.69 2599.55 1661.81 2593.79 1662.62 C 2586.85 1664.02 2579.81 1664.63 2572.80 1665.52 C 2567.97 1666.02 2563.09 1664.66 2558.32 1665.60 C 2553.14 1667.23 2548.29 1669.83 2542.98 1671.04 C 2525.01 1674.50 2507.60 1680.29 2490.05 1685.35 C 2482.13 1688.87 2473.65 1690.87 2465.25 1692.85 C 2461.18 1693.98 2456.86 1692.89 2452.85 1694.21 C 2447.42 1695.69 2445.03 1701.60 2443.49 1706.48 C 2442.28 1711.11 2439.02 1714.76 2437.22 1719.12 C 2434.82 1725.09 2431.05 1730.37 2427.99 1736.00 C 2424.74 1741.56 2423.03 1747.79 2420.49 1753.67 C 2418.41 1758.47 2417.89 1763.91 2414.87 1768.30 C 2412.40 1773.29 2409.08 1777.81 2406.95 1782.97 C 2405.78 1785.61 2403.84 1788.02 2403.60 1790.99 C 2403.16 1799.83 2401.19 1808.69 2397.23 1816.64 C 2395.10 1820.26 2398.28 1824.11 2397.64 1827.93 C 2397.03 1831.43 2396.10 1835.12 2393.90 1837.99 C 2391.17 1840.25 2387.66 1839.09 2384.57 1838.61 C 2381.43 1839.88 2379.41 1843.18 2375.92 1843.72 C 2370.72 1844.70 2365.45 1846.26 2360.13 1845.64 C 2355.72 1844.88 2351.14 1842.57 2349.07 1838.44 C 2347.57 1833.64 2348.36 1828.51 2348.84 1823.62 C 2332.76 1818.30 2317.08 1811.91 2300.99 1806.70 C 2290.47 1802.54 2279.47 1799.26 2269.86 1793.13 C 2263.04 1790.27 2256.60 1786.64 2250.49 1782.49 C 2244.87 1779.46 2239.98 1775.28 2234.22 1772.52 C 2231.01 1770.97 2227.87 1769.27 2224.65 1767.79 C 2221.48 1766.31 2218.95 1763.66 2215.53 1762.77 C 2211.91 1761.75 2208.69 1759.83 2205.38 1758.14 C 2184.70 1749.49 2165.49 1737.77 2146.61 1725.81 C 2141.06 1723.43 2136.41 1719.47 2130.97 1716.90 C 2124.42 1713.89 2118.10 1709.84 2110.75 1709.20 C 2107.41 1713.93 2106.36 1719.69 2104.72 1725.13 C 2101.88 1735.50 2098.73 1745.80 2096.46 1756.32 C 2095.52 1761.66 2093.98 1766.86 2092.70 1772.13 C 2090.62 1781.95 2088.37 1791.74 2086.18 1801.54 C 2085.25 1805.04 2086.09 1809.43 2083.04 1812.05 C 2079.94 1815.03 2075.23 1815.05 2071.25 1814.51 C 2066.96 1813.78 2062.57 1813.23 2058.54 1811.53 C 2054.34 1809.83 2051.33 1806.25 2048.44 1802.94 C 2045.04 1798.01 2045.21 1791.72 2045.30 1786.00 C 2045.09 1780.86 2046.59 1775.87 2046.56 1770.74 C 2047.77 1755.23 2051.43 1740.04 2055.75 1725.12 C 2057.49 1718.61 2058.95 1712.00 2059.69 1705.29 C 2060.15 1701.48 2061.23 1697.60 2060.21 1693.80 C 2059.31 1688.89 2056.92 1684.45 2054.23 1680.32 C 2051.87 1677.01 2048.13 1675.16 2044.95 1672.80 C 2040.70 1670.19 2036.87 1666.99 2032.92 1663.98 C 2030.49 1662.21 2029.05 1659.20 2029.39 1656.21 C 2029.81 1652.43 2030.97 1648.69 2032.87 1645.40 C 2037.36 1638.82 2045.13 1636.29 2051.77 1632.55 C 2055.87 1630.37 2060.16 1628.56 2064.28 1626.42 C 2068.29 1624.24 2067.59 1618.88 2067.97 1615.05 C 2067.58 1607.05 2069.16 1599.12 2068.51 1591.14 C 2067.60 1582.35 2070.57 1573.73 2069.60 1564.93 C 2068.67 1555.95 2070.66 1547.01 2069.87 1538.03 C 2069.39 1532.90 2069.71 1527.72 2068.56 1522.68 C 2067.55 1518.42 2069.93 1514.34 2069.61 1510.12 C 2068.28 1505.62 2066.23 1501.37 2064.53 1497.00 C 2062.48 1491.39 2063.24 1485.25 2064.20 1479.50 C 2064.94 1472.33 2064.78 1465.10 2064.33 1457.92 C 2063.28 1451.31 2063.25 1444.56 2063.62 1437.90 C 2065.48 1427.99 2071.55 1419.51 2078.44 1412.43 C 2083.05 1409.26 2086.81 1405.01 2091.65 1402.16 C 2096.71 1399.02 2102.07 1396.38 2107.49 1393.89 C 2119.53 1388.48 2132.86 1386.23 2146.00 1386.27 C 2151.85 1386.00 2157.55 1387.83 2163.40 1387.53 C 2170.84 1387.03 2178.25 1388.14 2185.69 1388.48 C 2197.31 1390.01 2208.19 1395.57 2220.07 1395.54 C 2228.33 1396.50 2236.65 1397.93 2244.35 1401.24 C 2256.55 1406.36 2269.84 1408.13 2282.00 1413.36 C 2288.54 1416.15 2295.47 1417.85 2302.00 1420.70 C 2313.74 1424.24 2324.55 1430.18 2335.26 1436.05 C 2344.32 1442.89 2354.42 1448.43 2362.55 1456.46 C 2364.11 1458.24 2365.24 1460.36 2366.94 1462.06 C 2373.40 1468.48 2378.30 1476.58 2380.20 1485.55 C 2380.95 1495.78 2380.41 1506.15 2377.68 1516.09 C 2375.97 1521.85 2372.36 1526.90 2367.99 1530.96 C 2363.39 1535.67 2358.57 1540.20 2353.06 1543.81 C 2349.33 1546.19 2346.22 1549.46 2342.23 1551.42 C 2337.97 1553.48 2334.53 1556.87 2330.25 1558.89 C 2328.19 1559.85 2326.13 1560.81 2324.29 1562.13 C 2320.17 1565.06 2315.22 1566.42 2310.85 1568.87 C 2303.64 1573.21 2295.82 1576.39 2287.96 1579.30 C 2283.03 1581.57 2277.32 1581.54 2272.67 1584.47 C 2268.82 1586.78 2265.49 1589.89 2261.39 1591.79 C 2244.60 1600.37 2226.73 1606.51 2209.23 1613.44 C 2194.59 1618.98 2179.86 1624.27 2164.92 1628.94 C 2159.15 1630.14 2153.79 1632.67 2148.73 1635.61 C 2146.57 1636.76 2145.83 1639.73 2146.94 1641.87 C 2148.42 1646.05 2151.12 1649.64 2154.50 1652.50 C 2164.28 1663.39 2177.04 1670.81 2188.71 1679.42 C 2192.90 1682.62 2197.89 1684.52 2202.10 1687.71 C 2207.10 1691.46 2213.17 1693.47 2218.07 1697.39 C 2222.12 1700.61 2227.21 1702.03 2231.40 1705.03 C 2237.79 1709.47 2244.67 1713.12 2251.37 1717.04 C 2256.58 1720.79 2262.09 1724.10 2267.58 1727.44 C 2272.59 1730.31 2276.79 1734.40 2281.98 1737.02 C 2287.68 1740.62 2293.65 1743.80 2299.12 1747.78 C 2302.43 1750.21 2306.51 1751.25 2309.89 1753.59 C 2315.60 1757.72 2322.68 1759.34 2328.54 1763.25 C 2331.84 1765.53 2335.88 1766.37 2339.20 1768.66 C 2346.23 1773.38 2353.58 1777.62 2361.07 1781.57 C 2363.09 1774.05 2366.42 1766.94 2368.82 1759.52 C 2370.48 1754.93 2371.06 1749.98 2373.24 1745.57 C 2375.91 1739.97 2378.36 1734.26 2380.51 1728.44 C 2382.65 1722.95 2385.47 1717.61 2386.48 1711.76 C 2385.80 1710.78 2384.98 1709.94 2384.24 1709.10 C 2379.31 1710.77 2373.95 1711.11 2368.83 1710.38 C 2365.34 1708.90 2364.09 1704.67 2364.49 1701.16 C 2364.30 1697.55 2366.24 1694.40 2367.09 1691.02 C 2366.91 1687.51 2365.27 1684.13 2365.75 1680.58 C 2366.50 1674.61 2366.67 1668.27 2369.98 1663.03 C 2373.23 1656.76 2378.62 1651.47 2385.52 1649.52 C 2390.23 1648.35 2394.40 1645.71 2399.14 1644.68 C 2404.65 1643.21 2410.08 1641.03 2414.56 1637.43 C 2416.54 1635.99 2418.06 1634.02 2418.73 1631.65 C 2418.93 1631.59 2419.33 1631.46 2419.53 1631.40 C 2419.02 1626.07 2422.49 1621.77 2424.91 1617.37 C 2428.48 1611.88 2432.76 1606.77 2435.61 1600.84 C 2446.01 1575.76 2455.85 1550.46 2465.38 1525.03 C 2469.46 1513.78 2474.61 1502.93 2480.54 1492.55 C 2483.90 1485.36 2487.29 1478.18 2491.57 1471.49 C 2493.80 1468.25 2496.80 1465.63 2499.00 1462.35 C 2502.35 1457.39 2508.14 1454.57 2510.83 1449.09 C 2506.58 1444.11 2503.07 1438.49 2498.13 1434.13 C 2500.41 1431.32 2503.01 1428.75 2506.05 1426.76 C 2508.89 1424.86 2510.58 1421.63 2513.46 1419.84 C 2520.79 1418.44 2528.35 1418.05 2535.55 1415.95 C 2540.95 1414.21 2543.14 1408.59 2546.50 1404.55 C 2549.86 1399.50 2554.65 1395.61 2559.37 1391.92 C 2564.82 1389.53 2570.29 1387.13 2575.32 1383.88 C 2581.17 1379.90 2587.52 1376.76 2593.59 1373.15 M 2126.79 1448.63 C 2117.62 1450.54 2107.52 1453.29 2101.78 1461.32 C 2097.83 1467.95 2097.63 1476.19 2099.14 1483.60 C 2099.77 1486.65 2099.83 1490.31 2102.51 1492.43 C 2104.16 1494.36 2106.86 1493.28 2108.65 1492.15 C 2113.07 1489.17 2117.74 1486.60 2122.43 1484.08 C 2127.77 1481.80 2133.74 1480.72 2139.53 1481.53 C 2142.44 1482.65 2144.26 1485.41 2146.55 1487.44 C 2150.00 1490.52 2152.41 1494.59 2154.51 1498.67 C 2155.40 1504.51 2153.50 1510.34 2151.99 1515.94 C 2149.84 1521.86 2148.72 1528.11 2146.34 1533.96 C 2143.93 1541.38 2141.93 1548.93 2139.82 1556.44 C 2137.20 1563.98 2136.64 1572.02 2134.58 1579.72 C 2133.19 1587.66 2130.65 1595.32 2128.15 1602.97 C 2129.12 1604.17 2129.83 1605.78 2131.22 1606.61 C 2135.49 1606.91 2139.25 1604.49 2143.11 1603.03 C 2166.12 1594.15 2189.04 1585.04 2211.98 1575.98 C 2216.08 1574.43 2220.51 1573.86 2224.54 1572.06 C 2228.02 1570.42 2230.23 1567.00 2233.60 1565.16 C 2241.93 1560.91 2250.49 1557.08 2258.69 1552.56 C 2263.83 1550.11 2268.51 1546.78 2273.80 1544.62 C 2279.80 1542.31 2284.43 1537.74 2290.05 1534.76 C 2295.75 1529.18 2302.24 1524.08 2306.21 1517.03 C 2308.75 1512.64 2308.79 1507.33 2308.12 1502.45 C 2307.57 1498.91 2305.21 1496.10 2303.21 1493.29 C 2300.28 1489.18 2295.42 1487.31 2291.52 1484.33 C 2287.42 1481.17 2282.50 1479.45 2277.99 1477.01 C 2271.15 1473.89 2264.23 1470.88 2257.04 1468.68 C 2234.57 1461.08 2211.65 1454.54 2188.23 1450.60 C 2178.25 1449.18 2168.26 1447.16 2158.15 1447.49 C 2153.44 1447.20 2148.72 1446.66 2144.02 1447.12 C 2138.27 1447.76 2132.40 1447.03 2126.79 1448.63 M 2565.67 1488.73 C 2560.90 1489.98 2556.40 1492.43 2553.47 1496.49 C 2550.89 1499.91 2547.64 1502.94 2546.00 1506.98 C 2544.58 1510.45 2542.34 1513.51 2540.96 1517.00 C 2538.30 1522.90 2536.64 1529.34 2532.56 1534.51 C 2528.16 1541.63 2523.10 1548.31 2517.48 1554.51 C 2514.93 1557.01 2514.94 1560.78 2513.92 1563.98 C 2511.15 1572.88 2507.89 1581.77 2502.62 1589.52 C 2496.39 1603.33 2486.70 1615.09 2478.77 1627.88 C 2477.42 1630.03 2476.79 1633.00 2478.34 1635.23 C 2480.80 1637.03 2484.09 1636.53 2486.99 1636.73 C 2492.73 1637.04 2498.28 1634.80 2504.04 1635.34 C 2508.50 1635.67 2513.01 1635.79 2517.41 1634.73 C 2528.15 1633.69 2538.60 1630.83 2549.35 1629.80 C 2553.86 1629.58 2558.34 1627.75 2562.86 1628.91 C 2566.49 1629.41 2570.16 1630.82 2573.87 1630.01 C 2585.26 1628.02 2596.56 1625.55 2607.98 1623.72 C 2610.76 1623.25 2613.92 1623.20 2616.17 1621.22 C 2618.13 1619.80 2617.58 1617.10 2617.74 1615.02 C 2617.81 1611.10 2616.43 1607.32 2616.64 1603.41 C 2617.46 1595.76 2617.87 1588.03 2619.95 1580.59 C 2621.41 1576.42 2619.07 1572.43 2617.82 1568.57 C 2616.29 1564.58 2616.09 1560.16 2617.00 1556.01 C 2617.61 1553.16 2617.76 1550.19 2616.95 1547.38 C 2615.45 1541.71 2614.70 1535.89 2614.09 1530.08 C 2613.66 1525.70 2610.76 1522.19 2607.93 1519.08 C 2604.69 1515.93 2602.71 1511.78 2599.35 1508.77 C 2596.24 1504.56 2593.27 1500.12 2588.94 1497.06 C 2584.94 1494.36 2581.29 1490.79 2576.43 1489.78 C 2572.91 1489.02 2569.24 1487.57 2565.67 1488.73 Z" />
<path fill="#ec078d" opacity="1.00" d=" M 1905.41 1375.51 C 1910.63 1375.72 1915.73 1374.31 1920.95 1374.29 C 1928.54 1374.27 1936.17 1374.09 1943.67 1375.46 C 1950.63 1376.64 1957.72 1376.05 1964.65 1377.45 C 1969.43 1377.99 1974.11 1379.09 1978.80 1380.17 C 1984.37 1381.62 1989.60 1377.63 1995.21 1378.58 C 2000.31 1379.47 2004.61 1382.61 2009.46 1384.25 C 2012.25 1385.30 2014.46 1382.54 2017.06 1381.98 C 2020.32 1381.24 2024.34 1380.67 2027.05 1383.16 C 2029.95 1385.74 2033.28 1388.74 2033.66 1392.87 C 2034.84 1402.51 2032.76 1412.21 2033.77 1421.87 C 2034.27 1425.30 2035.54 1429.06 2033.81 1432.36 C 2033.00 1433.96 2031.72 1435.93 2029.64 1435.49 C 2024.09 1435.14 2018.55 1435.41 2013.02 1435.60 C 1999.55 1434.30 1986.10 1432.32 1972.97 1429.00 C 1967.44 1427.41 1961.79 1429.30 1956.26 1429.77 C 1948.38 1431.10 1939.62 1430.16 1932.68 1434.78 C 1935.90 1438.72 1939.97 1441.82 1944.46 1444.21 C 1951.08 1449.89 1955.10 1457.86 1958.81 1465.61 C 1961.03 1470.05 1960.26 1475.10 1960.46 1479.89 C 1960.84 1486.42 1959.02 1492.79 1958.07 1499.21 C 1955.84 1509.25 1952.27 1518.95 1950.02 1529.00 C 1949.44 1531.42 1948.77 1533.83 1948.04 1536.22 C 1945.91 1542.81 1945.72 1549.80 1945.37 1556.66 C 1943.54 1565.89 1938.94 1574.30 1936.65 1583.39 C 1936.59 1592.21 1933.49 1600.57 1930.61 1608.79 C 1928.22 1614.06 1925.23 1619.22 1924.55 1625.07 C 1924.04 1628.99 1925.82 1632.88 1924.72 1636.79 C 1922.50 1646.94 1921.26 1657.27 1919.19 1667.45 C 1917.27 1679.41 1914.73 1691.28 1913.15 1703.29 C 1910.44 1706.69 1907.87 1710.70 1908.72 1715.31 C 1909.98 1721.06 1910.24 1727.03 1908.92 1732.81 C 1905.21 1748.17 1906.82 1764.07 1906.69 1779.71 C 1906.74 1783.49 1909.33 1786.72 1909.37 1790.49 C 1908.67 1794.39 1906.63 1798.17 1903.69 1800.83 C 1897.43 1804.21 1890.14 1805.79 1884.74 1810.65 C 1881.15 1814.04 1875.94 1812.70 1871.53 1812.51 C 1868.70 1812.49 1865.79 1810.89 1864.71 1808.23 C 1863.67 1802.00 1865.37 1795.79 1866.35 1789.68 C 1867.06 1785.61 1864.07 1782.27 1862.88 1778.61 C 1861.15 1775.04 1861.54 1771.04 1861.28 1767.22 C 1860.28 1759.63 1859.82 1751.98 1858.83 1744.40 C 1858.26 1738.00 1857.11 1731.65 1857.53 1725.21 C 1856.64 1714.42 1859.11 1703.75 1858.75 1692.98 C 1858.77 1688.34 1858.21 1683.72 1858.40 1679.10 C 1859.63 1670.16 1859.85 1661.11 1861.27 1652.19 C 1863.56 1638.14 1865.68 1624.06 1866.98 1609.89 C 1867.86 1605.34 1867.19 1600.73 1867.40 1596.16 C 1868.69 1582.04 1870.85 1568.00 1873.72 1554.12 C 1874.70 1550.04 1875.01 1545.75 1874.15 1541.63 C 1873.81 1539.60 1873.01 1537.46 1873.90 1535.48 C 1875.86 1530.76 1878.19 1526.20 1880.13 1521.48 C 1881.60 1517.39 1879.11 1513.71 1877.78 1510.06 C 1878.64 1506.95 1880.28 1504.11 1881.05 1500.97 C 1883.68 1490.72 1885.88 1480.36 1887.66 1469.93 C 1888.99 1464.38 1888.30 1458.64 1888.42 1453.01 C 1888.50 1448.49 1888.26 1443.95 1887.12 1439.57 C 1881.66 1437.56 1875.84 1436.56 1870.05 1436.40 C 1867.82 1438.43 1864.82 1439.11 1861.95 1439.65 C 1834.52 1444.57 1807.43 1451.14 1780.15 1456.78 C 1773.93 1457.89 1767.79 1460.38 1761.38 1459.50 C 1758.57 1459.33 1757.68 1455.96 1757.49 1453.65 C 1757.69 1448.63 1760.22 1444.07 1762.71 1439.83 C 1766.95 1432.60 1765.68 1423.82 1767.61 1415.93 C 1768.88 1411.11 1769.48 1405.81 1772.86 1401.89 C 1775.82 1397.64 1780.37 1394.97 1784.63 1392.19 C 1790.32 1388.58 1797.17 1387.90 1803.57 1386.22 C 1811.96 1383.99 1820.61 1383.19 1829.20 1382.04 C 1835.60 1380.65 1842.14 1381.98 1848.62 1381.58 C 1853.38 1381.28 1858.24 1381.77 1862.93 1380.69 C 1871.01 1378.75 1879.31 1377.97 1887.52 1376.76 C 1893.51 1376.62 1899.40 1375.12 1905.41 1375.51 Z" />
<path fill="#ec078d" opacity="1.00" d=" M 3331.90 1377.31 C 3339.79 1375.29 3347.90 1376.98 3355.79 1378.14 C 3362.65 1379.45 3369.68 1377.88 3376.57 1378.93 C 3382.97 1380.72 3389.49 1382.91 3394.69 1387.20 C 3396.97 1389.95 3399.43 1392.59 3401.57 1395.47 C 3404.81 1400.05 3402.82 1405.88 3403.38 1411.05 C 3404.05 1418.70 3402.34 1426.36 3399.82 1433.55 C 3398.47 1437.75 3395.21 1440.93 3391.98 1443.76 C 3389.45 1445.92 3386.03 1446.55 3382.83 1446.58 C 3375.99 1447.13 3369.65 1443.98 3363.77 1440.91 C 3357.33 1436.70 3349.52 1435.69 3342.09 1434.64 C 3336.31 1434.91 3330.73 1432.74 3324.97 1433.52 C 3317.31 1434.43 3309.68 1432.43 3302.05 1433.39 C 3289.93 1435.14 3277.84 1437.28 3265.73 1438.95 C 3262.66 1440.66 3260.37 1443.84 3256.76 1444.47 C 3252.80 1444.38 3249.17 1442.59 3245.46 1441.46 C 3243.73 1440.96 3241.77 1440.07 3240.21 1441.36 C 3233.54 1444.71 3228.28 1450.09 3223.52 1455.73 C 3219.63 1460.53 3217.00 1466.18 3213.22 1471.06 C 3209.25 1476.74 3208.30 1483.85 3208.39 1490.61 C 3204.23 1503.62 3199.64 1516.53 3195.46 1529.55 C 3193.16 1535.56 3192.02 1541.93 3189.70 1547.94 C 3186.89 1555.59 3184.85 1563.51 3181.67 1571.03 C 3180.12 1575.11 3179.00 1579.35 3177.53 1583.46 C 3176.06 1587.66 3175.43 1592.65 3177.73 1596.68 C 3179.73 1598.94 3183.31 1598.80 3186.00 1597.95 C 3196.85 1593.64 3204.50 1584.04 3215.18 1579.40 C 3221.30 1577.05 3227.79 1575.90 3234.14 1574.33 C 3241.98 1572.28 3249.74 1569.95 3257.55 1567.80 C 3271.65 1565.94 3285.84 1564.93 3299.98 1563.46 C 3305.70 1564.00 3311.35 1561.26 3317.01 1562.94 C 3320.92 1563.99 3324.96 1564.91 3329.06 1564.47 C 3334.43 1563.81 3339.68 1562.01 3345.15 1562.12 C 3351.74 1563.11 3358.36 1565.87 3362.64 1571.19 C 3364.55 1574.05 3366.44 1576.95 3368.35 1579.84 C 3370.70 1583.41 3369.61 1587.86 3369.54 1591.87 C 3369.44 1596.12 3368.54 1600.30 3367.56 1604.42 C 3366.50 1609.33 3362.65 1612.91 3359.45 1616.52 C 3357.35 1618.91 3354.02 1619.56 3351.00 1619.51 C 3346.89 1619.66 3343.27 1617.47 3339.40 1616.51 C 3334.66 1615.31 3330.05 1613.25 3325.06 1613.44 C 3320.98 1613.07 3317.07 1614.61 3313.04 1614.55 C 3306.97 1614.09 3301.09 1616.12 3295.03 1615.54 C 3289.23 1617.04 3283.23 1615.91 3277.45 1617.27 C 3273.66 1617.90 3269.78 1617.04 3266.06 1618.01 C 3261.48 1619.12 3256.74 1618.02 3252.17 1619.08 C 3247.54 1620.03 3242.78 1619.04 3238.18 1620.08 C 3233.98 1621.02 3229.69 1620.17 3225.48 1620.67 C 3210.78 1623.22 3195.85 1626.01 3182.41 1632.80 C 3177.97 1635.12 3173.04 1636.80 3169.51 1640.50 C 3165.51 1644.82 3160.31 1648.37 3158.38 1654.18 C 3154.23 1661.60 3154.62 1670.31 3152.10 1678.24 C 3150.60 1683.92 3148.81 1689.52 3147.34 1695.21 C 3146.69 1697.70 3145.90 1700.40 3146.93 1702.92 C 3147.92 1705.71 3148.95 1708.65 3148.19 1711.65 C 3145.84 1721.95 3143.10 1732.23 3142.29 1742.80 C 3141.38 1748.41 3140.46 1754.49 3143.07 1759.81 C 3149.07 1757.15 3155.64 1759.44 3161.85 1757.92 C 3166.93 1756.66 3172.18 1758.04 3177.34 1757.34 C 3182.23 1756.73 3187.24 1755.57 3192.14 1756.91 C 3197.47 1758.40 3203.00 1756.67 3208.38 1757.78 C 3212.57 1758.77 3216.72 1756.95 3220.96 1757.42 C 3226.64 1757.93 3232.21 1756.32 3237.89 1756.16 C 3247.72 1753.96 3256.97 1749.53 3267.05 1748.34 C 3274.79 1746.46 3282.81 1748.69 3290.58 1746.85 C 3312.25 1744.93 3332.69 1737.04 3353.46 1731.13 C 3365.25 1727.79 3377.13 1724.31 3387.93 1718.39 C 3389.16 1720.98 3390.22 1723.66 3391.42 1726.29 C 3392.77 1729.30 3395.23 1731.69 3396.51 1734.77 C 3398.41 1738.77 3400.09 1742.99 3403.03 1746.39 C 3400.52 1749.35 3396.65 1750.33 3393.56 1752.47 C 3390.10 1754.77 3386.36 1756.58 3382.75 1758.61 C 3377.06 1761.78 3370.46 1762.51 3364.45 1764.85 C 3356.84 1767.68 3348.85 1769.45 3341.48 1772.89 C 3338.11 1774.24 3334.49 1774.89 3331.21 1776.45 C 3326.00 1778.98 3320.58 1781.02 3315.35 1783.50 C 3308.48 1786.68 3300.79 1786.51 3293.54 1788.19 C 3277.63 1791.69 3262.08 1796.62 3246.49 1801.28 C 3232.34 1805.01 3218.28 1809.11 3203.94 1812.07 C 3194.23 1813.90 3184.75 1809.77 3175.11 1809.44 C 3171.23 1809.35 3168.10 1812.03 3164.49 1812.99 C 3156.73 1816.03 3148.25 1814.60 3140.24 1813.70 C 3135.05 1812.90 3129.80 1814.23 3124.65 1813.24 C 3120.35 1812.46 3115.86 1812.22 3111.91 1810.25 C 3110.11 1809.31 3108.30 1807.77 3108.31 1805.61 C 3108.18 1801.22 3109.52 1796.96 3110.61 1792.76 C 3107.06 1790.99 3102.94 1791.88 3099.20 1791.00 C 3094.83 1790.44 3089.79 1789.52 3087.60 1785.17 C 3085.47 1780.10 3084.88 1774.38 3085.99 1768.99 C 3087.09 1763.80 3086.04 1758.52 3086.54 1753.30 C 3088.56 1744.83 3086.00 1735.59 3090.17 1727.58 C 3091.37 1724.74 3094.22 1721.47 3092.17 1718.38 C 3090.70 1715.85 3089.87 1712.96 3090.29 1710.03 C 3092.53 1690.81 3095.26 1671.61 3098.45 1652.51 C 3099.89 1638.86 3105.68 1626.14 3107.42 1612.54 C 3107.58 1609.07 3107.33 1605.58 3107.51 1602.12 C 3107.94 1595.00 3104.98 1587.94 3106.89 1580.87 C 3116.34 1548.12 3125.82 1515.38 3135.58 1482.72 C 3137.37 1473.74 3143.24 1466.37 3149.04 1459.59 C 3153.69 1451.64 3163.78 1449.18 3168.43 1441.27 C 3170.99 1437.80 3173.40 1434.17 3176.34 1431.01 C 3181.35 1427.09 3187.45 1425.01 3192.98 1421.97 C 3203.99 1417.78 3212.58 1409.30 3222.98 1403.97 C 3229.04 1400.73 3235.51 1398.26 3241.29 1394.48 C 3244.71 1392.69 3247.99 1390.64 3251.35 1388.70 C 3260.16 1384.26 3270.03 1382.20 3279.81 1381.49 C 3286.58 1382.26 3293.19 1379.88 3299.96 1380.44 C 3305.37 1380.95 3310.66 1379.36 3316.08 1379.29 C 3321.32 1378.39 3326.74 1378.83 3331.90 1377.31 Z" />
<path fill="#ec078d" opacity="1.00" d=" M 3514.18 1389.03 C 3523.83 1382.10 3535.74 1379.61 3547.20 1377.47 C 3551.60 1376.69 3556.01 1378.23 3560.04 1379.92 C 3565.11 1382.18 3567.32 1387.81 3568.40 1392.90 C 3569.35 1398.93 3568.78 1405.12 3568.04 1411.15 C 3565.66 1419.04 3563.81 1427.07 3561.35 1434.94 C 3559.69 1443.55 3559.82 1452.50 3557.60 1461.02 C 3555.71 1465.27 3551.80 1468.47 3550.79 1473.18 C 3549.07 1481.98 3547.54 1490.82 3545.88 1499.64 C 3544.87 1507.47 3544.84 1515.48 3542.78 1523.16 C 3541.00 1531.38 3536.70 1538.70 3533.87 1546.56 C 3532.02 1552.58 3529.19 1558.40 3528.69 1564.75 C 3528.73 1578.04 3522.38 1590.03 3518.55 1602.45 C 3515.89 1611.20 3511.62 1619.46 3509.84 1628.47 C 3506.97 1649.51 3499.54 1669.51 3495.41 1690.27 C 3492.32 1704.80 3488.48 1719.33 3488.29 1734.27 C 3488.03 1740.44 3488.31 1746.92 3491.64 1752.36 C 3492.76 1755.31 3496.10 1756.40 3499.01 1756.54 C 3504.36 1756.70 3509.80 1757.06 3515.12 1756.04 C 3519.85 1755.07 3524.74 1755.82 3529.50 1754.84 C 3546.62 1752.90 3563.62 1749.86 3580.26 1745.38 C 3589.37 1743.43 3598.17 1740.30 3607.31 1738.44 C 3610.37 1737.61 3614.01 1737.05 3615.90 1734.17 C 3617.69 1731.77 3618.82 1728.47 3621.97 1727.52 C 3625.81 1726.22 3628.98 1723.70 3632.24 1721.36 C 3633.45 1720.56 3635.98 1719.37 3636.77 1721.24 C 3641.02 1730.06 3646.58 1738.18 3650.97 1746.92 C 3647.92 1748.41 3646.31 1751.46 3644.26 1753.97 C 3639.85 1759.01 3637.12 1765.25 3632.40 1770.04 C 3627.36 1775.68 3620.94 1780.11 3613.94 1782.96 C 3606.35 1785.66 3598.68 1788.09 3590.95 1790.32 C 3584.19 1793.19 3576.83 1794.18 3570.09 1797.04 C 3565.05 1799.42 3559.52 1800.41 3554.50 1802.83 C 3547.89 1805.14 3541.07 1806.98 3534.16 1808.11 C 3527.03 1808.65 3519.98 1809.75 3512.87 1810.35 C 3504.15 1810.68 3495.71 1813.44 3487.00 1813.62 C 3481.98 1813.50 3476.97 1813.11 3471.98 1813.27 C 3467.12 1813.24 3462.04 1814.32 3457.46 1812.25 C 3449.38 1808.36 3441.57 1803.84 3433.20 1800.60 C 3429.98 1799.08 3427.92 1795.91 3427.09 1792.56 C 3425.61 1787.04 3424.32 1781.36 3424.50 1775.62 C 3424.62 1770.37 3423.03 1765.25 3423.26 1760.02 C 3424.15 1751.18 3425.84 1742.43 3428.28 1733.88 C 3432.60 1716.85 3439.82 1700.64 3442.73 1683.24 C 3444.28 1678.62 3442.40 1674.02 3441.64 1669.48 C 3440.69 1664.77 3442.43 1660.16 3442.85 1655.51 C 3446.68 1633.77 3454.06 1612.75 3456.44 1590.75 C 3456.31 1587.25 3457.07 1583.38 3455.35 1580.18 C 3452.76 1577.87 3449.25 1576.76 3447.00 1574.03 C 3444.56 1572.10 3445.36 1568.69 3445.34 1566.02 C 3446.28 1557.96 3447.25 1549.84 3449.68 1542.06 C 3452.40 1533.68 3455.27 1525.34 3457.97 1516.96 C 3459.37 1510.53 3462.21 1504.54 3463.75 1498.15 C 3466.21 1489.65 3468.41 1481.07 3470.88 1472.57 C 3472.70 1466.66 3473.22 1460.40 3475.46 1454.63 C 3480.56 1443.19 3486.26 1432.01 3492.94 1421.41 C 3496.73 1414.23 3500.68 1407.13 3503.92 1399.67 C 3505.81 1394.91 3509.91 1391.60 3514.18 1389.03 Z" />
</g>
</svg>
