<?xml version="1.0" encoding="UTF-8"?>
<svg width="84px" height="81px" viewBox="0 0 84 81" version="1.1" xmlns="http://www.w3.org/2000/svg" xmlns:xlink="http://www.w3.org/1999/xlink">
    <title>PHLogos Logo</title>
    <g stroke="none" stroke-width="1" fill="none" fill-rule="evenodd">
        <g transform="translate(1.000000, 1.000000)">
            <path d="M24.175,60.13 L19,60.13 L19,29.665 L24.04,29.665 L24.04,32.635 C24.6100028,31.644995 25.5099938,30.8200033 26.74,30.16 C27.9700061,29.4999967 29.3949919,29.17 31.015,29.17 C34.1650157,29.17 36.639991,30.2424893 38.44,32.3875 C40.240009,34.5325107 41.14,37.2699833 41.14,40.6 C41.14,43.9300166 40.1950094,46.6824891 38.305,48.8575 C36.4149905,51.0325109 33.9250154,52.12 30.835,52.12 C29.3349925,52.12 28,51.8350028 26.83,51.265 C25.6599941,50.6949971 24.775003,49.9750043 24.175,49.105 L24.175,60.13 Z M35.92,40.6 C35.92,38.5599898 35.3800054,36.9175062 34.3,35.6725 C33.2199946,34.4274938 31.7950088,33.805 30.025,33.805 C28.2849913,33.805 26.8675055,34.4274938 25.7725,35.6725 C24.6774945,36.9175062 24.13,38.5599898 24.13,40.6 C24.13,42.6700103 24.6774945,44.3349937 25.7725,45.595 C26.8675055,46.8550063 28.2849913,47.485 30.025,47.485 C31.7650087,47.485 33.1824945,46.8550063 34.2775,45.595 C35.3725055,44.3349937 35.92,42.6700103 35.92,40.6 Z M48.407692,38.71 L48.407692,51.58 L43.187692,51.58 L43.187692,19 L48.407692,19 L48.407692,31.78 C49.817699,29.9499908 51.9026782,29.035 54.662692,29.035 C57.2427049,29.035 59.2226851,29.8449919 60.602692,31.465 C61.9826989,33.0850081 62.672692,35.1699872 62.672692,37.72 L62.672692,51.58 L57.452692,51.58 L57.452692,38.62 C57.452692,37.1499927 57.0926956,35.9725044 56.372692,35.0875 C55.6526884,34.2024956 54.5126998,33.76 52.952692,33.76 C51.5726851,33.76 50.485196,34.2249954 49.690192,35.155 C48.895188,36.0850046 48.4676923,37.2699928 48.407692,38.71 Z" id="ph" fill="#E9794A" fill-rule="nonzero"></path>
            <path d="M82,40 C82,61 64,79 41,79 C18,79 0,61 0,40 C0,18 18,0 41,0 C64,0 82,18 82,40 Z" id="Path" stroke="#E9794A" stroke-width="2"></path>
        </g>
    </g>
</svg>
