<?xml version="1.0" encoding="UTF-8" standalone="no"?>
<svg
   xmlns:dc="http://purl.org/dc/elements/1.1/"
   xmlns:cc="http://creativecommons.org/ns#"
   xmlns:rdf="http://www.w3.org/1999/02/22-rdf-syntax-ns#"
   xmlns:svg="http://www.w3.org/2000/svg"
   xmlns="http://www.w3.org/2000/svg"
   xmlns:sodipodi="http://sodipodi.sourceforge.net/DTD/sodipodi-0.dtd"
   xmlns:inkscape="http://www.inkscape.org/namespaces/inkscape"
   width="346.303622941"
   height="288.763944052"
   viewBox="0 0 325 271"
   version="1.1"
   id="svg2"
   inkscape:version="0.48.2 r9819"
   sodipodi:docname="Meralco.svg">
  <metadata
     id="metadata26">
    <rdf:RDF>
      <cc:Work
         rdf:about="">
        <dc:format>image/svg+xml</dc:format>
        <dc:type
           rdf:resource="http://purl.org/dc/dcmitype/StillImage" />
      </cc:Work>
    </rdf:RDF>
  </metadata>
  <defs
     id="defs24" />
  <sodipodi:namedview
     pagecolor="#ffffff"
     bordercolor="#666666"
     borderopacity="1"
     objecttolerance="10"
     gridtolerance="10"
     guidetolerance="10"
     inkscape:pageopacity="0"
     inkscape:pageshadow="2"
     inkscape:window-width="1280"
     inkscape:window-height="744"
     id="namedview22"
     showgrid="false"
     inkscape:zoom="1.3933579"
     inkscape:cx="203.125"
     inkscape:cy="169.375"
     inkscape:window-x="-4"
     inkscape:window-y="-4"
     inkscape:window-maximized="1"
     inkscape:current-layer="svg2" />
  <g
     id="#ef924fff"
     style="fill:#fc7019;fill-opacity:1">
    <path
       fill="#ef924f"
       opacity="1.00"
       d=" M 101.34 29.42 C 117.66 15.49 138.56 6.87 160.05 5.98 C 184.33 4.50 208.30 14.11 227.05 29.19 C 224.86 32.88 221.81 35.93 219.21 39.32 C 210.49 49.97 201.85 60.68 193.08 71.29 C 199.01 71.58 204.95 71.55 210.89 71.77 C 195.96 88.18 180.84 104.42 165.89 120.81 C 163.41 123.25 161.45 126.37 158.34 128.06 C 163.29 112.85 168.89 97.85 173.88 82.65 C 168.18 82.60 162.48 82.71 156.78 82.57 C 166.13 65.37 176.04 48.46 185.69 31.42 C 173.74 31.29 161.78 31.37 149.83 31.38 C 125.85 68.89 102.07 106.53 78.00 143.98 C 57.74 106.59 68.80 56.26 101.34 29.42 Z"
       id="path5"
       style="fill:#fc7019;fill-opacity:1" />
    <path
       fill="#ef924f"
       opacity="1.00"
       d=" M 218.29 174.76 C 229.55 137.99 240.78 101.22 252.04 64.46 C 258.26 74.05 260.18 85.80 261.09 97.01 C 262.45 118.20 255.87 139.48 243.77 156.83 C 236.42 167.18 228.46 177.71 217.32 184.22 C 199.65 194.75 178.48 198.53 158.13 196.92 C 137.83 195.51 117.70 188.21 102.15 174.90 C 102.53 173.76 102.97 172.65 103.58 171.62 C 113.65 154.97 123.56 138.20 133.59 121.52 C 134.10 120.86 134.64 120.23 135.23 119.64 C 137.63 137.15 139.93 154.66 142.08 172.20 C 145.47 169.96 148.08 166.80 151.09 164.11 C 166.46 149.87 181.45 135.22 196.91 121.07 C 192.23 139.07 186.81 156.89 181.60 174.75 C 190.71 175.38 199.86 175.08 209.00 175.09 C 212.10 175.22 215.20 175.08 218.29 174.76 Z"
       id="path7"
       style="fill:#fc7019;fill-opacity:1" />
  </g>
  <g
     id="#3b3738ff"
     style="fill:#010203;fill-opacity:1">
    <path
       fill="#3b3738"
       opacity="1.00"
       d=" M 295.64 217.23 C 303.08 216.16 310.78 218.56 315.98 224.05 C 326.93 234.59 325.73 254.56 313.66 263.75 C 306.13 269.90 294.69 270.38 286.47 265.34 C 274.00 257.76 271.09 239.42 278.96 227.56 C 282.82 222.09 288.79 217.67 295.64 217.23 M 297.01 227.67 C 291.62 228.56 287.05 232.86 285.57 238.09 C 282.45 246.96 289.53 257.74 298.94 258.32 C 306.98 258.32 313.47 250.81 313.40 242.97 C 313.99 234.36 305.71 226.12 297.01 227.67 Z"
       id="path10"
       style="fill:#010203;fill-opacity:1" />
    <path
       fill="#3b3738"
       opacity="1.00"
       d=" M 3.86 266.47 C 14.90 249.86 26.67 233.72 37.92 217.25 C 42.16 217.19 46.40 217.21 50.64 217.21 C 50.65 224.71 50.57 232.20 50.69 239.69 C 55.87 232.31 60.76 224.72 65.78 217.22 C 69.72 217.21 73.66 217.21 77.60 217.21 C 77.60 233.66 77.59 250.10 77.60 266.55 C 73.28 266.55 68.95 266.56 64.63 266.54 C 64.55 258.29 64.76 250.04 64.51 241.80 C 58.89 249.89 53.71 258.29 48.32 266.54 C 44.13 266.56 39.94 266.60 35.75 266.45 C 35.77 258.47 35.90 250.49 35.67 242.51 C 30.44 250.57 24.91 258.44 19.66 266.49 C 14.39 266.58 9.13 266.60 3.86 266.47 Z"
       id="path12"
       style="fill:#010203;fill-opacity:1" />
    <path
       fill="#3b3738"
       opacity="1.00"
       d=" M 84.66 217.45 C 93.64 217.38 102.63 217.43 111.62 217.42 C 111.62 221.12 111.62 224.82 111.61 228.53 C 106.77 228.54 101.93 228.55 97.09 228.50 C 96.86 230.89 96.80 233.30 96.82 235.71 C 101.73 235.81 106.64 235.77 111.56 235.76 C 111.66 239.59 111.68 243.41 111.49 247.24 C 106.58 247.22 101.65 247.01 96.75 247.41 C 96.82 250.12 96.84 252.83 96.84 255.54 C 101.76 255.64 106.68 255.59 111.60 255.59 C 111.63 259.33 111.63 263.06 111.62 266.79 C 102.62 266.78 93.63 266.84 84.65 266.75 C 84.67 250.32 84.65 233.88 84.66 217.45 Z"
       id="path14"
       style="fill:#010203;fill-opacity:1" />
    <path
       fill="#3b3738"
       opacity="1.00"
       d=" M 118.56 217.43 C 125.09 217.50 131.62 217.22 138.14 217.57 C 143.09 217.80 147.40 221.09 149.62 225.43 C 152.66 230.05 152.03 235.86 151.31 241.06 C 150.66 245.12 147.73 248.55 144.01 250.20 C 146.14 255.69 149.08 260.83 151.91 265.97 C 157.78 249.79 163.52 233.55 169.50 217.41 C 173.46 217.45 177.42 217.44 181.37 217.43 C 187.28 233.86 193.26 250.26 198.94 266.77 C 194.94 266.84 190.94 266.84 186.94 266.75 C 185.86 263.99 184.67 261.27 183.40 258.59 C 177.90 258.65 172.40 258.60 166.90 258.63 C 165.74 261.31 164.61 264.00 163.55 266.72 C 155.27 266.92 146.99 266.77 138.71 266.75 C 136.13 262.38 133.98 257.75 130.93 253.67 C 130.76 258.04 130.85 262.42 130.82 266.79 C 126.74 266.79 122.65 266.80 118.56 266.77 C 118.56 250.32 118.55 233.88 118.56 217.43 M 130.64 228.41 C 130.60 233.10 130.61 237.79 130.64 242.48 C 133.66 242.41 136.98 242.47 139.51 240.55 C 142.45 238.43 142.29 233.63 139.69 231.29 C 137.31 228.93 133.78 228.74 130.64 228.41 M 175.19 232.77 C 173.46 237.57 171.75 242.38 170.17 247.23 C 173.49 247.26 176.82 247.26 180.15 247.24 C 178.90 242.29 177.32 237.40 175.19 232.77 Z"
       id="path16"
       style="fill:#010203;fill-opacity:1" />
    <path
       fill="#3b3738"
       opacity="1.00"
       d=" M 200.19 217.42 C 204.26 217.41 208.34 217.41 212.41 217.43 C 212.41 230.10 212.40 242.78 212.42 255.45 C 217.01 255.45 221.60 255.41 226.20 255.52 C 226.19 259.25 226.19 262.98 226.21 266.71 C 217.54 266.92 208.87 266.76 200.20 266.81 C 200.18 250.34 200.19 233.88 200.19 217.42 Z"
       id="path18"
       style="fill:#010203;fill-opacity:1" />
    <path
       fill="#3b3738"
       opacity="1.00"
       d=" M 235.37 222.37 C 240.92 217.01 249.26 216.29 256.49 217.76 C 263.92 219.67 269.41 226.04 271.83 233.11 C 268.17 233.14 264.51 233.14 260.85 233.13 C 257.16 228.71 251.05 225.75 245.39 228.19 C 235.99 231.82 233.25 244.97 239.18 252.70 C 242.45 257.43 249.09 259.86 254.49 257.49 C 256.75 256.68 258.41 254.91 260.05 253.24 C 263.91 253.13 267.78 253.15 271.65 253.24 C 269.19 258.72 265.54 264.19 259.81 266.63 C 251.80 270.23 241.46 269.25 234.93 263.11 C 223.20 252.96 223.33 232.24 235.37 222.37 Z"
       id="path20"
       style="fill:#010203;fill-opacity:1" />
  </g>
</svg>
