<?xml version="1.0" encoding="UTF-8"?>
<svg width="81px" height="80px" viewBox="0 0 81 80" version="1.1" xmlns="http://www.w3.org/2000/svg" xmlns:xlink="http://www.w3.org/1999/xlink">
    <!-- Generator: Sketch 55.2 (78181) - https://sketchapp.com -->
    <title>SM_Investments_Corporation_logo</title>
    <desc>Created with Sketch.</desc>
    <g id="Page-1" stroke="none" stroke-width="1" fill="none" fill-rule="evenodd">
        <g id="SM_Investments_Corporation_logo" transform="translate(-1.000000, 0.000000)" fill="#1E358C" fill-rule="nonzero">
            <path d="M6.59897628,19.8519245 C-4.7343612,38.5915114 1.58335011,62.7894318 20.7135587,73.8935938 C39.8385591,84.9873433 64.5260682,78.7998481 75.8646026,60.0550606 C87.1927356,41.310258 80.8646042,17.1123414 61.7396,6.01337995 C42.6145996,-5.09078587 17.9218936,1.10712953 6.59897628,19.8519245 M31.4166902,75.7217137 C11.2656424,70.4040087 -0.67706832,50.0915109 4.73959978,30.3415089 C10.1510597,10.5915069 30.880224,-1.11682779 51.0364799,4.19046455 C71.1927358,9.49775689 83.1458554,29.8050503 77.7239753,49.5654725 C72.3073072,69.3206751 51.5729347,81.0185934 31.4166902,75.7217137" id="path338"></path>
            <path d="M38.2708525,49.9092167 L38.1822982,49.9455002 C38.2136683,50.0704514 38.2500273,50.195516 38.2708525,50.3257131 L38.2708525,49.9092167 Z" id="path340"></path>
            <path d="M38.2708525,23.9456748 C37.4948096,16.008175 32.4479305,10.534213 25.1979346,10.534213 C18.3489765,10.534213 13.1146026,15.2894222 13.1146026,23.9873403 C13.1146026,29.4144247 16.1302273,35.2425511 19.2916852,40.4977654 C17.5364763,39.6123392 15.2343923,38.2060978 13.270852,35.9821367 C10.5937671,41.0758857 9.19793458,45.6488045 9.19793458,51.0446322 C9.19793458,51.617552 9.22930466,52.1852597 9.26562592,52.7425511 C9.96354219,61.4561013 15.9531262,67.7842215 24.3020843,67.7842215 C30.5729143,67.7842215 36.8697967,64.0133941 38.2708374,56.362341 L38.2708374,66.0081798 L43.0416787,66.0081798 L43.0416787,12.8154642 L38.2708374,12.8154642 L38.2708525,23.9456748 Z M20.593759,48.6123398 C20.593759,46.7321381 20.7656595,45.34151 21.2968948,43.7581788 C23.5104357,47.3154704 25.4896006,50.4665119 26.1771005,52.8623395 C26.3437777,53.4404712 26.43751,53.982138 26.43751,54.4665109 C26.43751,55.4925507 25.8125121,56.4821407 24.6927212,56.4821407 C23.5208446,56.4821407 22.2448042,55.3154722 21.4323039,53.3102589 C20.9218863,52.0498468 20.593759,50.4612999 20.593759,48.6123398 L20.593759,48.6123398 Z M38.270845,50.325887 C38.2500576,50.1956067 38.2135095,50.0706555 38.1822906,49.9456703 C36.0104114,40.1540022 24.9166582,28.7790067 24.9166582,22.1800494 C24.9166582,21.1748424 25.4062431,20.8623397 25.8593669,20.8623397 C28.0260379,20.8623397 29.4843725,28.4769242 30.2604116,32.935259 C31.1301982,31.1540091 32.2864502,29.8102585 33.4479029,28.8102559 C33.145843,22.3727562 29.5989565,15.8362972 24.9426991,15.8362972 C21.7708249,15.8362972 19.7864481,18.0498419 19.7864481,21.7737993 C19.7864481,31.0029678 31.0937446,43.0238052 33.0208238,51.5238046 C33.2031104,52.315472 33.3072742,53.0758866 33.3072742,53.8050595 C33.3072742,59.2060993 29.5728853,62.6956731 24.619765,62.6956731 C19.9010131,62.6956731 15.7239319,59.159218 14.5468471,53.2946305 C14.3385195,52.2321372 14.2187085,51.0810971 14.2187085,49.8675512 C14.2187085,46.7425507 15.4009977,43.1227646 16.8489159,40.7321377 C15.6041246,44.2998456 15.5155816,47.3779649 15.5155816,48.773805 C15.5155816,50.4508835 15.7135155,51.9873372 16.0624566,53.3675527 C17.3905827,58.5394321 20.9374579,61.5290046 24.7916239,61.5290046 C28.1666288,61.5290046 31.7030839,59.0290057 31.7030839,54.2529638 C31.7030839,53.523806 31.5885642,52.7373391 31.3957705,51.9144301 C29.4009848,43.5498437 18.2499377,31.2269238 18.2499377,22.5081729 C18.2499377,17.7425474 20.9738963,14.6331752 25.025981,14.6331752 C30.2707713,14.6331752 34.1405732,20.1071334 35.1093191,27.5915093 C36.6249437,26.6488006 37.9009842,26.2477587 38.270845,26.1487993 L38.270845,50.325887 Z" id="path342"></path>
            <polygon id="path344" points="62.7135616 12.810256 62.7135616 66.0081798 67.4844029 66.0081798 67.4844029 12.810256"></polygon>
            <path d="M52.8750274,36.1383899 C51.5729347,36.1383899 48.3698113,22.0810901 47.5104374,12.8154642 L44.0521052,12.8154642 C45.0312637,28.6696348 48.2916923,39.5394321 50.9271079,43.4612969 C51.6406525,44.5238053 52.3125203,45.0862973 52.8750274,45.0862973 C54.0260675,45.0862973 55.6041867,42.7946298 57.1250271,38.5602585 C59.1094001,33.0394228 61.0000258,24.2165082 61.6979345,12.8154642 L58.2395985,12.8154642 C57.3802284,22.0810901 54.171893,36.1383899 52.8750274,36.1383899" id="path346"></path>
            <path d="M60.7396012,29.4352575 C60.343775,32.0081748 59.8489857,34.3675489 59.2864786,36.4612977 C57.5104406,43.0915117 55.0573192,47.1227636 52.8750274,47.1227636 C51.8021064,47.1227636 50.6562669,46.14359 49.5625191,44.3623363 C47.7395978,41.3727638 46.041694,36.133178 45.0104385,29.4352575 C44.8959188,29.0237992 44.5625191,28.9456764 44.5625191,29.7269237 L44.5625191,66.0081798 L49.234401,66.0081798 L49.234401,51.15922 C50.4010657,53.5654715 51.6093996,55.0758842 52.8750274,55.0758842 C54.1406514,55.0758842 55.3489854,53.5654715 56.5208544,51.15922 L56.5208544,66.0081798 L61.1875206,66.0081798 L61.1875206,29.7269237 C61.1875206,28.9456764 60.8437725,29.0237992 60.7396012,29.4352575" id="path348"></path>
        </g>
    </g>
</svg>