<?xml version="1.0" encoding="UTF-8"?>
<svg width="680px" height="126px" viewBox="0 0 680 126" version="1.1" xmlns="http://www.w3.org/2000/svg" xmlns:xlink="http://www.w3.org/1999/xlink">
    <!-- Generator: Sketch 55.2 (78181) - https://sketchapp.com -->
    <title>metrobank</title>
    <desc>Created with Sketch.</desc>
    <g id="Page-1" stroke="none" stroke-width="1" fill="none" fill-rule="evenodd">
        <g id="metrobank" fill="#023184" fill-rule="nonzero">
            <path d="M60.53,0.68 C62.66,-0.43 64.86,1.2 66.63,2.28 C84.38,14.25 102.48,25.68 120.24,37.62 C123.9,39.73 125.4,44.93 123.32,48.63 C122.32,51.1 119.84,52.37 117.77,53.82 C100.23,65.2 82.8,76.77 65.29,88.22 C63.6,89.68 61.26,89.85 59.48,88.41 C41.3,76.65 23.28,64.63 5.1,52.86 C2.75,51.34 0.28,49.2 0.32,46.15 C-0.56,42.09 2.24,38.53 5.56,36.62 C23.95,24.74 42.05,12.39 60.53,0.68 Z M90.02,38.7 C93.33,38.96 96.64,38.91 99.95,38.73 C93.55,34.05 86.86,29.69 81,24.31 C84.03,29.1 87.17,33.81 90.02,38.7 Z M24.37,38.76 C27.6,38.83 30.85,39.08 34.07,38.75 C37.26,34.28 39.89,29.43 43.16,25.01 C36.94,29.65 30.77,34.37 24.37,38.76 Z M68.31,25.71 C68.2,30.09 68.24,34.48 68.31,38.87 C71.18,38.87 74.05,38.87 76.92,38.85 C74.05,34.47 71.14,30.12 68.31,25.71 Z M47.28,38.86 C50.27,38.85 53.26,38.87 56.25,38.83 C56.19,34.31 56.21,29.78 56.22,25.26 C53.55,29.99 50.41,34.43 47.28,38.86 Z M47.27,50.8 C50.34,55.36 53.45,59.89 56.29,64.6 C56.24,59.98 56.22,55.37 56.29,50.76 C53.29,50.78 50.28,50.8 47.27,50.8 Z M24.39,50.8 C30.64,55.58 37.05,60.14 43.33,64.88 C39.95,60.38 37.08,55.55 34.05,50.81 C30.83,50.82 27.61,50.82 24.39,50.8 Z M68.29,64.14 C71.1,59.63 74.15,55.27 77.06,50.82 C74.15,50.83 71.24,50.81 68.34,50.73 C68.21,55.2 68.23,59.67 68.29,64.14 Z M81.2,65.36 C87.09,59.89 93.9,55.57 100.31,50.77 C97.11,50.79 93.9,50.83 90.7,50.77 C87.29,55.47 84.24,60.42 81.2,65.36 Z" id="Combined-Shape"></path>
            <path d="M150,41.44 C155.5,41.36 160.99,41.45 166.49,41.36 C173.52,60.97 180.69,80.55 186.77,100.48 C187.76,95.22 189.74,90.24 191.38,85.17 C196.63,70.53 202.09,55.96 207.49,41.37 C212.91,41.38 218.34,41.49 223.76,41.33 C225.41,63.1 226.5,84.92 227.97,106.71 C228.48,112.38 228.64,118.08 228.85,123.77 C224.12,123.71 219.4,123.73 214.67,123.74 C214.18,110.76 213.32,97.8 212.66,84.82 C212.37,78.32 212.52,71.78 211.41,65.34 C210.39,70.54 208.46,75.48 206.77,80.48 C201.62,94.79 196.28,109.04 191.13,123.36 C187.6,123.25 184.07,123.24 180.54,123.4 C175.07,108.32 170.03,93.09 164.86,77.9 C163.6,74.27 162.69,70.53 161.8,66.79 C160.39,85.76 159.61,104.77 158.29,123.75 C153.64,123.74 149,123.77 144.36,123.64 C146.37,96.25 148.26,68.85 150,41.44 Z" id="path4150"></path>
            <path d="M443.34,41.39 C448.07,41.38 452.8,41.4 457.53,41.39 C457.51,51 457.49,60.62 457.55,70.24 C466.41,61.53 481.99,61.46 490.93,70.1 C497.16,76.3 499.83,85.34 499.6,93.98 C499.67,103.49 496.44,113.76 488.57,119.66 C479.21,127.19 464.16,127.05 455.78,118.04 C455.71,119.95 455.65,121.86 455.61,123.78 C451.29,123.72 446.97,123.75 442.66,123.68 C443.63,116.5 443.33,109.25 443.39,102.03 C443.35,81.81 443.45,61.6 443.34,41.39 Z M466.37,76.62 C461.77,78.58 458.41,83.07 457.67,87.99 C457.29,91.97 457.53,95.97 457.52,99.97 C457.35,107.02 463.92,113.23 470.93,112.87 C476.68,113.31 481.79,109.05 483.71,103.86 C486.17,97.02 486.15,89.01 482.56,82.56 C479.78,76.83 472.19,73.89 466.37,76.62 Z" id="Combined-Shape"></path>
            <path d="M627.76,41.45 C632.49,41.37 637.22,41.41 641.96,41.4 C641.95,56.29 641.57,71.21 642.17,86.09 C648.17,78.85 654.21,71.63 660.61,64.75 C666.32,65.2 672.05,64.68 677.77,64.86 C670.11,73.22 662.34,81.5 654.48,89.67 C663.04,100.95 671.48,112.33 679.99,123.65 C674.16,123.78 668.33,123.71 662.5,123.63 C657.47,116 651.8,108.82 646.72,101.22 C646.07,100.4 645.61,99.17 644.39,99.19 C643.2,100.5 641.69,101.95 641.9,103.9 C641.83,110.5 641.9,117.1 641.91,123.69 C637.22,123.72 632.52,123.69 627.83,123.66 C627.83,96.26 627.95,68.85 627.76,41.45 Z" id="path4154"></path>
            <path d="M302.73,55.63 C307.31,53.93 311.99,52.53 316.67,51.17 C316.65,55.69 316.66,60.21 316.63,64.73 C321.11,65.01 325.59,64.73 330.07,64.92 C330.34,65.14 330.88,65.58 331.15,65.8 C331.28,69.38 331.14,72.96 331.2,76.55 C326.34,76.67 321.47,76.58 316.61,76.62 C316.73,86.1 316.55,95.57 316.69,105.05 C316.92,107.47 317.08,110.5 319.23,112.06 C322.63,113.4 326.36,112.44 329.69,111.32 C330.3,115.25 330.41,119.23 330.53,123.2 C323.61,125.46 315.27,126.42 309.03,121.9 C304.06,118.29 303.07,111.69 302.8,105.98 C302.78,96.18 302.79,86.38 302.8,76.58 C299.97,76.61 297.15,76.61 294.34,76.61 C294.42,72.69 294.41,68.78 294.41,64.87 C297.2,64.86 299.99,64.86 302.78,64.82 C302.81,61.76 302.8,58.7 302.73,55.63 Z" id="path4164"></path>
            <path d="M0.4,62.93 C-0.12,59.95 3.29,57.5 6.03,58.66 C10.81,61.16 15.07,64.52 19.59,67.45 C33.83,76.65 47.6,86.58 62.08,95.4 C66.79,93.26 70.85,90.02 75.18,87.25 C87.73,78.76 100.41,70.47 112.97,62 C115.7,60.25 118.47,57.73 121.98,58.56 C122.73,59.59 123.5,60.61 124.27,61.64 C124.17,79.1 124.26,96.57 124.22,114.03 C124.88,118.79 120.95,123.83 116.03,123.72 C81.37,123.74 46.71,123.71 12.06,123.73 C9.97,123.68 7.83,123.88 5.78,123.37 C3.09,121.9 0.3,119.34 0.45,116.01 C0.37,98.32 0.44,80.62 0.4,62.93 Z M14.57,82.7 C14.41,91.67 14.6,100.65 14.49,109.62 C16.29,110.17 18.16,110.45 20.05,110.36 C49.91,110.2 79.78,110.54 109.63,110.18 C110.52,105.15 110.12,100.03 110.19,94.95 C110.14,90.59 110.56,86.18 109.57,81.89 C95.49,89.82 82.13,99 68.19,107.17 C63.45,109.83 57.63,108.47 53.4,105.47 C41.76,98.13 30.01,90.95 18.34,83.66 C17.16,83.05 15.93,81.73 14.57,82.7 Z" id="Combined-Shape"></path>
            <path d="M250.58,67.63 C259.45,62.05 272,61.99 280.39,68.53 C288.88,75.66 290.85,87.84 289.17,98.29 C276.48,98.3 263.79,98.3 251.1,98.3 C251.66,104.2 255.13,110.04 260.99,111.94 C268.69,114.01 277.01,112.69 284.28,109.62 C285.11,113.41 286.45,117.11 286.78,121.01 C277.84,124.48 268.01,125.92 258.52,124.14 C251.88,122.76 245.63,118.9 241.98,113.1 C237.14,105.9 236.58,96.77 237.65,88.4 C239.08,80.22 243.22,71.96 250.58,67.63 Z M257.11,77.18 C253.83,79.34 252.68,83.34 251.26,86.77 C259.5,86.91 267.75,86.88 275.99,86.78 C275.19,83.41 274.48,79.58 271.55,77.35 C267.53,73.94 261.25,74.06 257.11,77.18 Z" id="Combined-Shape"></path>
            <path d="M354.58,70.97 C358.97,65.38 366.38,62.22 373.39,64.32 C373.33,68.72 373.33,73.13 373.42,77.54 C370.31,77.5 367.12,76.92 364.08,77.82 C359,79.95 356.1,85.58 356.16,90.95 C356.12,101.87 356.18,112.79 356.15,123.72 C351.39,123.77 346.63,123.74 341.87,123.73 C341.68,104.1 342.61,84.47 341.56,64.86 C345.83,64.87 350.1,64.88 354.37,64.86 C354.45,66.89 354.51,68.93 354.58,70.97 Z" id="path4170"></path>
            <path d="M402.01,64 C409.3,62.95 417.09,64.46 423.11,68.81 C430.93,74.08 434.96,83.74 434.81,92.99 C435.19,101.24 432.85,109.92 427.05,116.01 C416.95,127.11 397.94,128.17 386.66,118.27 C380.2,112.46 376.97,103.59 377.17,95 C376.98,86.82 379.56,78.32 385.34,72.37 C389.68,67.71 395.7,64.74 402.01,64 Z M402.42,75.76 C395.46,77.67 391.9,85.15 391.44,91.86 C390.73,99.15 392.81,107.77 399.51,111.73 C404.69,115.17 411.96,113.37 415.7,108.65 C421.55,101.41 421.87,90.57 417.68,82.46 C414.94,77 408.31,74 402.42,75.76 Z" id="Combined-Shape"></path>
            <path d="M510.07,69.44 C518.73,64.42 529.34,62.14 539.15,64.73 C544.39,66.06 549.1,69.75 551.27,74.75 C553.78,80.12 553.94,86.18 553.8,92 C553.93,102.57 553.22,113.22 554.95,123.7 C550.53,123.77 546.11,123.72 541.7,123.77 C541.58,122.19 541.47,120.61 541.38,119.03 C536.25,123.71 529.01,126 522.14,124.78 C516.53,124.12 511.12,120.7 508.66,115.52 C504.7,107.97 506.71,97.73 513.41,92.38 C520.7,86.03 530.82,85.66 539.93,84.6 C539.25,81.07 537.97,77.07 534.15,75.87 C527.16,73.97 519.48,76.11 513.83,80.5 C512.62,76.8 511.26,73.15 510.07,69.44 Z M523.3,100.23 C519.12,103.8 520.23,111.96 525.84,113.41 C531.15,114.41 537.24,111.75 539.28,106.56 C540.46,103.19 540.02,99.55 539.84,96.06 C534.19,96.15 527.72,96.16 523.3,100.23 Z" id="Combined-Shape"></path>
            <path d="M578.36,70.32 C586.1,62.39 599.97,61.27 608.53,68.49 C613.66,72.76 615.88,79.54 616.29,86.02 C616.45,98.57 616.15,111.13 616.45,123.68 C611.71,123.76 606.98,123.73 602.25,123.73 C602.37,112.11 602.36,100.5 602.28,88.88 C602.15,83.68 600,77.15 594.11,76.26 C586.52,74.41 579.23,81.5 579.57,88.95 C579.57,100.52 579.52,112.09 579.6,123.66 C574.88,123.74 570.16,123.8 565.45,123.67 C565.55,108.43 565.48,93.2 565.49,77.96 C565.53,73.93 565.26,69.9 564.89,65.89 C565.14,65.66 565.63,65.19 565.88,64.96 C569.82,64.69 573.78,64.95 577.73,64.85 C577.94,66.67 578.15,68.5 578.36,70.32 Z" id="path4176"></path>
        </g>
    </g>
</svg>