<svg height="416" width="1311" xmlns="http://www.w3.org/2000/svg"><g fill="none"><g fill="#48baeb"><path d="m849.79 321.79c-.064953-5.14636 1.948697-10.101356 5.585188-13.743494 3.636492-3.642138 8.588358-5.663474 13.734812-5.606506 8.734578.047623 16.354323 5.941064 18.596259 14.383152 2.241935 8.442088-1.449856 17.339493-9.009949 21.714435s-17.113861 3.142595-23.31631-3.007587c-3.697269-3.60047-5.723552-8.580994-5.59-13.74m296.21 18.44v-340.23h25.66v175.61c7.9-12.46 17.59333-21.793333 29.08-28s24.70333-9.313333 39.65-9.32c22 0 39.28 6.14 51.54 18.44s18.48 29.43 18.48 51.38v132.12h-27.41v-120.08c0-19.46-4.05667-33.913333-12.17-43.36s-20.66-14.16-37.64-14.14c-20.66667 0-35.85 6.106667-45.55 18.32s-14.58 31.413333-14.64 57.6v101.66z"/><path d="m1146.04 0h26.96v340.23h-26.96zm-701.57 147.59h27.89v194.7h-27.89zm58.72 194.7v-194.69h25.68v30.05c7.93-12.43 17.6-21.75 29.13-28s24.64-9.34 39.6-9.34c22.08 0 39.273333 6.153333 51.58 18.46 12.28 12.31 18.4 29.39 18.4 51.36v132.16h-27.39v-120.08c0-19.46-4.063333-33.903333-12.19-43.33-8.16-9.43-20.69-14.17-37.68-14.17-20.62 0-35.8 6.113333-45.54 18.34s-14.6 31.426667-14.58 57.6v101.64zm188.02-34.69 25.68-14.69c4.24 10.81 10.39 19 18.44 24.45s17.92 8.25 29.64 8.25c11.426667 0 20.493333-2.89 27.2-8.67 6.76-5.77 10.14-13.52 10.14-23.16 0-14.92-13.256667-27.586667-39.77-38-2.78-1-5-1.91-6.56-2.67-20.506667-8-34.84-16.296667-43-24.89s-12.263333-19.166667-12.31-31.72c0-16.54 5.863333-30.11 17.59-40.71s26.87-15.9 45.43-15.9c15.83 0 29.26 3.4 40.37 10.3s19.27 16.68 24.42 29.41l-24.83 13.8c-3.1-9.166667-8.22-16.186667-15.36-21.06s-15.926667-7.286667-26.36-7.24c-9.38 0-17.08 2.76-23.17 8.23-5.91159 5.176518-9.243916 12.693455-9.11 20.55-.195664 7.688049 3.116187 15.047716 9 20 6 5.293333 18.43 11.073333 37.29 17.34 21.38 7.473333 35.76 15.593333 43.14 24.36s11.076667 20.906667 11.09 36.42c0 17.82-6.373333 32.09-19.12 42.81s-29.87 16.053333-51.37 16c-16.53 0-30.75-3.81-42.68-11.3-11.900174-7.519693-20.970331-18.773862-25.79-32m-523.91-14.1c-19.44 26.83-50 30.31-50.61 30.35-21.1266667 2.98-40.09-2.17-56.89-15.45-16.75-13.21-26.67-31-29.77-53.14-3.1066667-22.48 1.5966667-42.336667 14.11-59.57s29.3633333-27.333333 50.55-30.3c21.333333-2.966667 40.363333 2.15 57.09 15.35 5.802878 4.530877 10.928078 9.868224 15.22 15.85l20.7-18.5c-14.316796-17.435589-33.833927-29.83615-55.7-35.39-13.617884-3.441101-27.7784-4.178345-41.68-2.17-27.5988435 3.704317-52.5478634 18.353712-69.23 40.65-16.75577805 22.17631-23.95618856 50.128304-20 77.64 1.77091985 13.745129 6.25433167 27.001616 13.19 39 6.7471242 11.738462 15.8515441 21.952845 26.74 30 11.2515224 8.51262 24.007892 14.826344 37.6 18.61 13.2408877 3.666506 27.093593 4.575271 40.7 2.67 13.936423-1.918739 27.345179-6.618435 39.43-13.82 12.224881-7.239146 22.904687-16.814614 31.43-28.18.75-1 1.37-2.05 2.09-3.08l-21.27-16.12c-1.18 1.85-2.34 3.7-3.71 5.6m147.22 30.72c21.166667 0 39.11-7.646667 53.83-22.94s22.073333-34.023333 22.06-56.19c0-22.446667-7.316667-41.283333-21.95-56.51s-32.613333-22.85-53.94-22.87c-21.18 0-39.086667 7.623333-53.72 22.87s-21.966667 34.083333-22 56.51c0 22.193333 7.333333 40.94 22 56.24s32.573333 22.946667 53.72 22.94m-.89 25c-13.610818.010134-27.078817-2.774001-39.57-8.18-12.802275-5.58864-24.451087-13.513902-34.35-23.37-9.577742-9.396146-17.135517-20.649439-22.21-33.07-5.104878-12.713547-7.682939-26.300167-7.59-40-.052303-13.720095 2.612258-27.314793 7.84-40 16.046165-38.775366 53.915738-64.025698 95.88-63.93 13.910367-.057349 27.697038 2.613012 40.58 7.86 12.799428 5.1634 24.447532 12.814373 34.27 22.51 19.823645 19.308657 30.960454 45.83707 30.86 73.51.060452 13.619543-2.601684 27.11382-7.83 39.69-5.21588 12.538973-12.909576 23.895848-22.62 33.39-9.921771 9.991436-21.703246 17.944272-34.68 23.41-12.845498 5.402072-26.644854 8.170104-40.58 8.14m688.68-.47c-9.78945-.708057-19.423746-2.837035-28.6-6.32 9.041616 3.915732 18.750291 6.061145 28.6 6.32"/><path d="m1108.47 203.59c-10.83297-25.762719-31.39068-46.212625-57.21-56.91-12.8715-5.293077-26.66279-7.988121-40.58-7.93-26.723664-.102502-52.414462 10.314628-71.52 29v-20.16h-27v267.46h27v-95.24c9.345327 8.942357 20.172929 16.193467 32 21.43 12.481473 5.441143 25.954097 8.239853 39.57 8.22 13.94285.027254 27.74686-2.768925 40.58-8.22 12.9978-5.517124 24.78196-13.539737 34.68-23.61 9.73114-9.611983 17.42442-21.087287 22.62-33.74 10.47096-25.74874 10.43865-54.574796-.09-80.3zm-43.09 97.07c-14.89333 15.5-33.04667 23.236667-54.46 23.21-1.6 0-3.1 0-4.63-.13-19.42-1.04-35.996667-8.733333-49.73-23.08-5.529894-5.679652-10.169018-12.162963-13.76-19.23-5.767466-11.706736-8.686798-24.610728-8.52-37.66-.065401-9.229411 1.321553-18.411655 4.11-27.21 3.66457-11.266283 9.883001-21.533369 18.17-30 14-14.606667 31-22.273333 51-23h3.35c21.55333 0 39.74 7.696667 54.56 23.09 14.83 15.42 22.23 34.45 22.23 57.23.00667 22.353333-7.43333 41.28-22.32 56.78z"/></g><path d="m439.91 93.27c-.088298-4.9806092 1.917996-9.7695932 5.53-13.2 3.505751-3.5453842 8.304502-5.5096585 13.29-5.44 5.024094-.0716348 9.863889 1.8902492 13.42 5.44 3.684125 3.3921936 5.749719 8.1925159 5.68 13.2.102997 5.017263-1.881639 9.852096-5.48 13.35-7.596776 7.107466-19.403224 7.107466-27 0-3.586573-3.50129-5.550837-8.3394686-5.42-13.35" fill="#eb9b22"/></g></svg>