<?xml version="1.0" encoding="UTF-8"?>
<svg width="563px" height="96px" viewBox="0 0 563 96" version="1.1" xmlns="http://www.w3.org/2000/svg" xmlns:xlink="http://www.w3.org/1999/xlink">
    <!-- Generator: Sketch 55.2 (78181) - https://sketchapp.com -->
    <title>Group 55</title>
    <desc>Created with Sketch.</desc>
    <g id="Page-1" stroke="none" stroke-width="1" fill="none" fill-rule="evenodd">
        <g id="philippineairlines_logo" transform="translate(-84.000000, -224.000000)">
            <g id="Group-55" transform="translate(84.000000, 223.280000)">
                <path d="M152.7651,64.4104 L153.1251,64.4494 C155.5781,64.4494 158.0351,64.4734 160.4871,64.4394 C161.8001,64.4204 163.0601,64.0994 164.2091,63.4234 C164.9631,62.9804 165.5031,62.3674 165.7071,61.5054 C165.9261,60.5664 166.1111,59.6184 166.3111,58.6694 C166.5391,57.5944 166.3451,56.5864 165.8481,55.6184 C165.3711,54.6944 164.7201,53.9784 163.6691,53.6964 C163.0171,53.5214 162.3601,53.4244 161.6931,53.4194 C159.4071,53.4094 157.1191,53.4094 154.8331,53.4094 L154.4191,53.4534 C153.8691,57.1024 153.3201,60.7224 152.7651,64.4104 M163.8781,45.7074 L164.9581,45.9024 C168.8111,46.5244 171.7021,48.5544 173.6971,51.8964 C174.4271,53.1174 174.7091,54.4654 174.8651,55.8474 C175.0981,57.8954 175.0011,59.9194 174.4751,61.9144 C174.1931,62.9904 173.7261,63.9824 173.1471,64.9264 C172.2711,66.3424 171.2011,67.5974 169.9601,68.7064 C168.2911,70.2104 166.2961,70.9894 164.1121,71.3584 C162.6221,71.6114 161.1241,71.6754 159.6201,71.6754 C157.0611,71.6694 154.5071,71.6754 151.9531,71.6754 L151.3151,71.6754 C150.6191,76.3214 149.9291,80.9194 149.2381,85.5564 L140.5671,85.5564 C140.6351,85.0984 140.6941,84.6564 140.7621,84.2184 C141.3261,80.7444 141.8861,77.2654 142.4501,73.7864 C143.0001,70.3754 143.5591,66.9704 144.1091,63.5544 C144.6591,60.1434 145.2041,56.7334 145.7541,53.3224 C146.1381,50.9474 146.5221,48.5734 146.9071,46.2034 L146.9361,45.7074" id="Fill-3" fill="#262F57"></path>
                <path d="M409.2432,70.0305 C408.4842,65.3405 407.7342,60.7135 406.9752,56.0225 C406.6102,56.4755 400.4362,69.6365 400.3922,70.0305 L409.2432,70.0305 Z M412.7072,45.7075 C412.8962,46.7055 413.1012,47.7025 413.2812,48.7045 C413.9382,52.2805 414.5852,55.8625 415.2372,59.4435 C415.8892,63.0385 416.5462,66.6345 417.2032,70.2295 C418.0302,74.7455 418.8522,79.2595 419.6802,83.7755 C419.7812,84.3495 419.8792,84.9245 419.9812,85.4935 C419.6162,85.6095 412.4052,85.6535 411.5192,85.5425 C411.0432,82.8215 410.5612,80.0825 410.0702,77.3095 L409.5592,77.2805 C405.5202,77.2805 401.4772,77.2855 397.4342,77.2705 L396.7482,77.6985 C395.5472,80.1405 394.3202,82.5735 393.1032,85.0065 L392.8162,85.5605 L383.9572,85.5605 L384.1952,85.0505 C390.0002,73.6745 395.8092,62.2995 401.6132,50.9235 C402.4992,49.1815 403.3942,47.4445 404.2852,45.7075 L412.7072,45.7075 Z" id="Fill-5" fill="#262F57"></path>
                <path d="M187.6367,45.7073 C187.3837,47.1723 187.1307,48.6363 186.8727,50.0963 C186.3327,53.1713 185.7877,56.2463 185.2477,59.3213 L185.2427,59.8033 L186.1377,58.8883 C187.6567,57.1563 189.5827,56.2463 191.8597,56.0323 C193.3287,55.8963 194.7937,55.8623 196.2537,56.1343 C197.8207,56.4313 199.0557,57.2243 199.9907,58.5283 C201.4647,60.5913 202.0047,62.8733 201.5957,65.3643 C200.8417,70.0113 200.0537,74.6523 199.2797,79.2943 C198.9637,81.2063 198.6527,83.1183 198.3357,85.0253 L198.2337,85.5133 C197.8687,85.6093 191.2807,85.6343 190.6387,85.5373 L190.6727,85.0603 C191.1497,82.1113 191.6367,79.1633 192.1127,76.2143 C192.5557,73.4753 193.0177,70.7463 193.4117,68.0013 C193.5537,67.0143 193.5287,66.0063 193.5817,65.0043 L193.0957,63.9583 L191.9427,63.1743 L191.0277,62.9653 C190.0067,62.9803 188.9987,63.1263 188.0117,63.3793 C187.2277,63.5793 186.6197,64.0213 186.1237,64.6293 C184.8287,66.2063 183.9197,67.9533 183.6127,70.0013 C182.9607,74.3463 182.2697,78.6813 181.5937,83.0173 C181.4677,83.8573 181.3357,84.7003 181.2037,85.5613 L173.5797,85.5613 C173.6727,84.9193 173.7557,84.3113 173.8527,83.7023 C174.3727,80.3543 174.8987,77.0083 175.4237,73.6603 C175.9397,70.3423 176.4657,67.0283 176.9807,63.7153 C177.4287,60.8443 177.8767,57.9743 178.3237,55.1033 C178.8007,52.0333 179.2777,48.9673 179.7597,45.8973 L179.8177,45.7073" id="Fill-7" fill="#262F57"></path>
                <path d="M546.3447,86.4075 L546.0237,86.2965 C544.3297,85.9405 542.6857,85.4205 541.1817,84.5635 C538.4717,83.0265 537.0507,80.6665 536.9487,77.5375 C536.9347,77.0705 536.9487,76.6085 536.9487,76.1075 L544.1507,76.1075 L544.1937,76.4145 L544.2127,76.9645 C544.1787,79.0705 545.9157,80.3025 547.5117,80.3845 C548.5967,80.4375 549.6867,80.4525 550.7677,80.3935 C552.6117,80.2865 553.8317,78.4375 553.2397,76.6765 C553.0047,75.9805 552.4987,75.4745 551.8527,75.1585 C551.3457,74.9105 550.8057,74.7165 550.2657,74.5595 C548.3877,74.0245 546.4997,73.5185 544.6857,72.7795 C544.1457,72.5605 543.6107,72.3225 543.1037,72.0305 C540.6757,70.6235 539.3767,68.5125 539.2497,65.6995 C539.2067,64.6975 539.2217,63.6955 539.4357,62.7075 C539.5857,62.0115 539.8727,61.3795 540.3247,60.8245 C541.1287,59.8515 542.0037,58.9615 542.9967,58.1875 C544.0867,57.3455 545.3467,56.8545 546.6647,56.5135 C549.9107,55.6625 553.1367,55.7015 556.3377,56.7525 L557.4037,57.1905 C559.9627,58.3865 561.4077,60.4305 561.9337,63.1645 L562.0837,64.3525 L562.0837,65.5535 L561.5537,65.6415 C559.4667,65.6515 557.3797,65.6465 555.2917,65.6465 L554.8157,65.6175 L554.7717,64.9075 C554.6987,63.5495 554.0077,62.6545 552.7327,62.2305 C551.3557,61.7735 549.9637,61.7825 548.5967,62.2405 C547.3227,62.6685 546.9907,63.2525 547.1177,64.5955 C547.1617,65.0725 547.3657,65.4665 547.7457,65.7395 L548.8547,66.4155 C549.5267,66.7075 550.2177,66.9555 550.9127,67.1835 C551.9587,67.5295 553.0247,67.8115 554.0667,68.1765 C555.6137,68.7215 557.0737,69.4465 558.3717,70.4775 C559.6317,71.4805 560.4637,72.7745 560.8097,74.3365 C560.9747,75.0805 561.0087,75.8545 561.0477,76.6185 C561.1697,79.0415 560.3187,81.1045 558.6637,82.8365 C558.1577,83.3665 557.5837,83.8345 557.0297,84.3105 C555.7487,85.4155 554.2457,86.0045 552.5867,86.2185 L551.3557,86.4075" id="Fill-9" fill="#262F57"></path>
                <path d="M441.584,85.5608 L433.936,85.5608 C435.463,75.8838 436.986,66.2498 438.514,56.5818 L446.153,56.5818 C445.832,57.9398 445.521,59.2778 445.204,60.6158 L445.268,60.6548 L446.197,59.5158 C447.374,57.7928 449.077,56.8738 451.028,56.3438 C452.147,56.0418 453.291,55.9148 454.449,55.9298 C454.98,55.9398 455.515,55.9298 456.127,55.9298 C455.733,58.7668 455.314,61.5398 454.897,64.3768 L454.19,64.2408 C452.381,63.8078 450.576,63.9388 448.78,64.3378 C447.855,64.5418 447.106,65.0478 446.498,65.7878 C445.268,67.2758 444.519,68.9788 444.188,70.8768 C443.351,75.6448 442.514,80.4138 441.677,85.1818 L441.584,85.5608" id="Fill-11" fill="#262F57"></path>
                <path d="M228.8428,85.4544 C228.9458,84.9144 229.0568,84.3794 229.1498,83.8394 C229.6948,80.5884 230.2388,77.3384 230.7798,74.0834 C231.2418,71.3244 231.6988,68.5704 232.1558,65.8114 C232.6628,62.7804 233.1688,59.7544 233.6788,56.7034 L241.3428,56.7034 C239.8148,66.2984 238.2918,75.8894 236.7638,85.4934 L236.5598,85.5134 L229.0178,85.5134 L228.8428,85.5034" id="Fill-13" fill="#262F57"></path>
                <path d="M243.2788,45.9558 L243.0308,47.1478 C242.6858,49.1228 242.3498,51.1078 242.0088,53.1078 L234.1368,53.1078 C234.2338,52.5238 234.3308,51.9598 234.4238,51.3948 C234.7258,49.6338 235.0268,47.8728 235.3288,46.1168 L235.4118,45.8528 C237.9758,45.8528 240.5398,45.8528 243.1038,45.8588 L243.2788,45.9558" id="Fill-15" fill="#262F57"></path>
                <path d="M222.8291,45.6541 C225.3451,45.6541 227.8601,45.6541 230.3711,45.6591 L230.5511,45.7561 L230.3461,46.7001 C229.8841,49.5221 229.4271,52.3491 228.9691,55.1761 C228.4241,58.5131 227.8791,61.8461 227.3341,65.1841 C226.8921,67.9041 226.4541,70.6241 226.0111,73.3441 C225.4521,76.7791 224.8921,80.2141 224.3281,83.6491 C224.2301,84.2621 224.1281,84.8801 224.0261,85.5131 L223.7051,85.5131 C221.7201,85.5131 219.7301,85.5181 217.7401,85.5131 C217.2001,85.5131 216.6551,85.5081 216.1101,85.5031 L216.1101,85.4541 L216.1681,85.2931 C216.7861,81.6451 217.4041,77.9901 218.0221,74.3361 C218.4791,71.6071 218.9361,68.8721 219.3991,66.1431 C219.9391,62.9271 220.4841,59.7061 221.0241,56.4891 C221.5201,53.5701 222.0121,50.6461 222.4981,47.7271 C222.6151,47.0361 222.7171,46.3451 222.8291,45.6541" id="Fill-17" fill="#262F57"></path>
                <path d="M459.4209,45.6541 L467.0899,45.6541 L467.0899,45.8531 L467.0309,46.0681 C466.7249,47.9461 466.4179,49.8241 466.1109,51.7021 C465.5859,54.9331 465.0559,58.1581 464.5299,61.3891 C464.1549,63.6861 463.7859,65.9871 463.4109,68.2831 C462.8859,71.5141 462.3559,74.7451 461.8299,77.9761 C461.4359,80.3941 461.0359,82.8171 460.6519,85.2401 L460.3209,85.5181 C457.8839,85.5131 455.4419,85.5131 453.0039,85.5131 L452.7219,85.5131 L452.7409,85.3861 C453.2419,82.3941 453.7479,79.3971 454.2539,76.4001 C454.7209,73.6311 455.1839,70.8671 455.6459,68.1041 C456.1859,64.8971 456.7259,61.6961 457.2659,58.4941 C457.6459,56.2411 458.0289,53.9841 458.4039,51.7311 C458.7449,49.7021 459.0809,47.6781 459.4209,45.6541" id="Fill-19" fill="#262F57"></path>
                <path d="M203.5273,85.4055 C203.6253,84.8755 203.7323,84.3445 203.8243,83.8145 C204.4373,80.1405 205.0453,76.4715 205.6583,72.7995 C206.3053,68.9215 206.9473,65.0435 207.5953,61.1705 C207.8333,59.7545 208.0673,58.3385 208.3053,56.9225 L208.3543,56.6945 L216.0123,56.6945 C214.4803,66.2985 212.9573,75.8935 211.4243,85.4985 L211.2193,85.5125 C208.7043,85.5165 206.1893,85.5165 203.6783,85.5165 L203.5273,85.5085" id="Fill-21" fill="#262F57"></path>
                <path d="M217.915,45.8533 C217.511,48.2133 217.107,50.5733 216.704,52.9333 L216.509,53.1323 C213.969,53.1273 211.429,53.1273 208.889,53.1273 L208.797,53.0983 C209.215,50.6853 209.629,48.2673 210.047,45.8533" id="Fill-23" fill="#262F57"></path>
                <path d="M302.0742,85.4544 L302.3272,84.1594 C302.8912,80.8034 303.4512,77.4454 304.0112,74.0834 C304.4732,71.3244 304.9302,68.5664 305.3872,65.8074 C305.8932,62.7804 306.4002,59.7494 306.9102,56.6994 L314.5742,56.6994 C313.0462,66.2934 311.5232,75.8894 309.9912,85.4934 L309.7912,85.5134 L302.2492,85.5134 L302.0742,85.5034" id="Fill-25" fill="#262F57"></path>
                <path d="M316.5151,45.9558 L316.2721,47.0998 C315.9411,49.0118 315.6151,50.9288 315.2941,52.8458 L314.9491,53.1378 C312.5151,53.1278 310.0881,53.1328 307.6601,53.1328 L307.3681,53.1328 L307.5531,52.0138 C307.8891,50.0478 308.2291,48.0818 308.5651,46.1168 L308.6471,45.8528 C311.2121,45.8528 313.7761,45.8528 316.3401,45.8588 L316.5151,45.9558" id="Fill-27" fill="#262F57"></path>
                <path d="M435.5117,45.8533 C435.3957,46.5793 435.2827,47.3033 435.1577,48.0233 C434.8847,49.6533 434.5977,51.2783 434.3247,52.9083 L434.0767,53.1323 C431.5907,53.1273 429.1047,53.1273 426.6137,53.1273 L426.4277,53.1183 L426.5547,52.3053 C426.9057,50.2473 427.2547,48.1943 427.6107,46.1403 L427.6937,45.8533" id="Fill-29" fill="#262F57"></path>
                <path d="M425.9609,56.6936 L433.6289,56.6936 C432.0969,66.3036 430.5729,75.8976 429.0409,85.4986 L421.1529,85.4986 C422.7599,75.8936 424.3559,66.3036 425.9609,56.6936" id="Fill-31" fill="#262F57"></path>
                <path d="M465.5908,85.4055 C465.7078,84.7585 465.8288,84.1115 465.9368,83.4595 C466.5058,80.0775 467.0698,76.6965 467.6348,73.3095 C468.1948,69.9575 468.7478,66.6095 469.3078,63.2575 C469.6628,61.1265 470.0188,58.9905 470.3738,56.8595 L470.4128,56.6985 L478.0668,56.6985 C477.9788,57.2585 477.8908,57.8025 477.8038,58.3525 C477.2538,61.8175 476.7088,65.2815 476.1538,68.7405 C475.3948,73.5235 474.6308,78.3015 473.8668,83.0845 C473.7498,83.8195 473.6238,84.5495 473.5268,85.2835 L473.2348,85.5165 C471.9058,85.5125 470.5778,85.5165 469.2498,85.5165 C468.0288,85.5125 466.8128,85.5085 465.5908,85.5085" id="Fill-33" fill="#262F57"></path>
                <path d="M479.9736,46.0042 C479.8906,46.4422 479.7976,46.8802 479.7206,47.3232 C479.3996,49.1862 479.0776,51.0542 478.7566,52.9182 L478.7076,53.1172 L470.8506,53.1172 C470.9916,52.3002 471.1276,51.5072 471.2636,50.7092 C471.5316,49.1472 471.7986,47.5852 472.0676,46.0242 L472.1056,45.8532 L479.7976,45.8532 L479.9736,46.0042" id="Fill-35" fill="#262F57"></path>
                <path d="M342.8818,63.2473 L342.8818,64.2013 L342.7548,65.2623 C342.3218,67.9913 341.8838,70.7213 341.4458,73.4453 C340.8868,76.9353 340.3268,80.4183 339.7678,83.9013 C339.6798,84.4363 339.5928,84.9683 339.5098,85.4983 L331.6858,85.4983 L331.7248,85.1823 C332.0658,83.1333 332.4108,81.0803 332.7518,79.0313 C333.3698,75.3293 333.9918,71.6213 334.5858,67.9143 C334.7168,67.1013 334.8238,66.2743 334.8148,65.4513 C334.7948,64.1383 334.0018,63.2233 332.7078,63.0043 C332.0118,62.8873 331.2918,62.9123 330.5868,62.9023 C329.3208,62.8923 328.3048,63.4323 327.4728,64.3673 C326.4118,65.5543 325.7358,66.9353 325.3848,68.4783 C325.1368,69.5733 324.9618,70.6873 324.7618,71.7963 C323.9938,76.0103 323.2348,80.2243 322.4708,84.4323 L322.2708,85.4983 L314.6228,85.4983 L314.6228,85.4053 C315.1818,82.0533 315.7368,78.7053 316.2968,75.3533 C316.8558,71.9913 317.4158,68.6343 317.9748,65.2763 C318.4368,62.4933 318.9038,59.7103 319.3608,56.9273 L319.6578,56.6743 C321.8968,56.6793 324.1348,56.6793 326.3728,56.6793 L326.6548,56.6793 C326.4508,57.9103 326.2508,59.1123 326.0468,60.3283 L326.1248,60.3043 L326.8198,59.4483 C328.4748,57.4573 330.5668,56.2363 333.1458,55.8763 C333.6318,55.8133 334.1238,55.7793 334.6108,55.7303 L335.3108,55.7303 L336.3328,55.8283 C337.6898,55.9833 338.9598,56.3723 340.0548,57.2283 C341.5488,58.3963 342.3268,59.9873 342.6778,61.8173 C342.7648,62.2893 342.8138,62.7703 342.8818,63.2473" id="Fill-37" fill="#262F57"></path>
                <path d="M498.0195,55.7303 L498.7205,55.7303 L499.7665,55.8333 C501.1235,55.9883 502.3985,56.3823 503.4885,57.2393 C504.9435,58.3823 505.7215,59.9343 506.0775,61.7153 C506.1895,62.2503 506.2225,62.8053 506.2905,63.3503 L506.2905,64.1523 C506.2425,64.5903 506.2175,65.0333 506.1505,65.4663 C505.6925,68.3613 505.2255,71.2513 504.7585,74.1473 C504.2675,77.2273 503.7705,80.3113 503.2745,83.3913 C503.1635,84.0923 503.0455,84.7923 502.9335,85.4983 L495.1155,85.4983 L495.1345,85.2643 C495.4605,83.3133 495.7865,81.3623 496.1125,79.4113 C496.7455,75.6013 497.3825,71.7873 497.9995,67.9723 C498.1265,67.1743 498.2385,66.3663 498.2485,65.5593 C498.2625,64.2503 497.5425,63.3253 496.2835,63.0383 C495.1055,62.7663 493.9035,62.7903 492.7355,63.1063 C491.7825,63.3643 491.1205,64.0553 490.5265,64.8053 C489.4755,66.1433 488.9205,67.6893 488.6235,69.3543 C487.6705,74.6623 486.7025,79.9663 485.7445,85.2703 L485.4375,85.5173 C483.8075,85.5133 482.1775,85.5173 480.5525,85.5173 C479.7065,85.5133 478.8645,85.5083 478.0175,85.5083 L478.0175,85.4053 L478.0765,85.2213 C478.4405,83.0413 478.8055,80.8553 479.1705,78.6763 C479.8025,74.8813 480.4305,71.0863 481.0635,67.2913 C481.5745,64.2063 482.0845,61.1173 482.6005,58.0323 C482.6735,57.5843 482.7565,57.1363 482.8335,56.6943 L490.0745,56.6943 C489.8745,57.9053 489.6755,59.1023 489.4755,60.3133 L489.5535,60.2893 L490.2015,59.4963 C491.8655,57.4773 493.9765,56.2413 496.5795,55.8813 C497.0565,55.8133 497.5385,55.7793 498.0195,55.7303" id="Fill-39" fill="#262F57"></path>
                <path d="M353.7998,67.865 L365.6668,67.865 C365.6178,66.965 365.6568,66.074 365.3408,65.248 C364.7718,63.774 363.8668,62.659 362.3388,62.304 C361.4388,62.099 360.5288,62.071 359.6138,62.143 C358.1688,62.26 356.9288,62.859 355.9308,63.992 C355.0168,65.029 354.3348,66.211 353.8728,67.549 L353.7998,67.865 M373.0528,69.198 L372.9798,69.782 C372.9658,70.721 372.9658,71.656 372.9658,72.594 L372.9608,73.12 C369.6528,73.135 366.3768,73.13 363.0978,73.139 C359.8188,73.149 356.5338,73.159 353.2058,73.174 L353.1818,73.748 L353.1718,74.808 C353.1188,77.115 354.7148,79.163 356.6708,79.795 C357.7708,80.151 358.8898,80.219 360.0138,80.077 C361.0838,79.942 362.0078,79.426 362.7818,78.618 C363.3798,77.99 363.9048,77.299 364.3198,76.516 L364.4498,76.292 L371.9338,76.292 L371.8898,76.516 C371.3688,78.102 370.7418,79.635 369.8568,81.027 C369.5738,81.469 369.2628,81.898 368.9368,82.306 C368.3228,83.066 367.6128,83.693 366.7958,84.19 C365.3358,85.07 363.8188,85.79 362.1538,86.106 C361.0648,86.316 359.9698,86.364 358.8698,86.3602249 C357.2208,86.35 355.5908,86.208 353.9888,85.746 C349.9608,84.583 347.4988,81.728 346.2918,77.529 C346.0388,76.643 345.9518,75.723 345.8888,74.799 C345.8058,73.524 345.7768,72.249 345.8888,70.969 C346.0928,68.605 346.5938,66.323 347.5328,64.162 C347.9808,63.131 348.5498,62.178 349.2318,61.297 C350.1698,60.075 351.2448,59.005 352.4378,58.066 C354.0478,56.801 355.8678,56.105 357.8428,55.935 C358.9768,55.838 360.1198,55.78 361.2538,55.843 C364.1298,55.998 366.7468,56.947 369.0198,58.908 C369.8568,59.633 370.5518,60.469 371.1208,61.438 C371.6468,62.328 372.0708,63.272 372.4148,64.26 C372.7608,65.238 372.9068,66.26 372.9698,67.296 L373.0528,67.836" id="Fill-41" fill="#262F57"></path>
                <path d="M516.8496,67.8699 L528.7166,67.8699 C528.6676,66.9699 528.7066,66.0789 528.3906,65.2519 C527.8216,63.7779 526.9156,62.6639 525.3886,62.3089 C524.4886,62.1039 523.5786,62.0749 522.6636,62.1479 C521.2186,62.2649 519.9776,62.8629 518.9806,63.9969 C518.0656,65.0339 517.3846,66.2159 516.9226,67.5539 L516.8496,67.8699 M536.1026,69.2029 L536.0296,69.7869 C536.0146,70.7259 536.0146,71.6609 536.0146,72.5989 L536.0146,73.1249 C532.7016,73.1399 529.4266,73.1349 526.1476,73.1439 C522.8686,73.1539 519.5836,73.1639 516.2556,73.1779 L516.2316,73.7529 L516.2216,74.8129 C516.1676,77.1199 517.7636,79.1679 519.7196,79.7999 C520.8196,80.1559 521.9386,80.2239 523.0626,80.0819 C524.1326,79.9469 525.0576,79.4309 525.8306,78.6229 C526.4296,77.9949 526.9546,77.3039 527.3696,76.5209 L527.4996,76.2969 L534.9786,76.2969 L534.9396,76.5209 C534.4186,78.1019 533.7906,79.6399 532.9056,81.0319 C532.6226,81.4739 532.3126,81.9029 531.9866,82.3109 C531.3726,83.0699 530.6626,83.6979 529.8456,84.1939 C528.3856,85.0749 526.8676,85.7939 525.2036,86.1109 C524.1136,86.3209 523.0186,86.3689 521.9186,86.3639 C520.2696,86.3539 518.6396,86.2129 517.0386,85.7509 C513.0106,84.5879 510.5486,81.7319 509.3416,77.5339 C509.0886,76.6479 509.0006,75.7279 508.9386,74.8039 C508.8556,73.5289 508.8266,72.2539 508.9386,70.9739 C509.1426,68.6099 509.6436,66.3279 510.5826,64.1669 C511.0306,63.1359 511.5996,62.1829 512.2806,61.3019 C513.2196,60.0759 514.2946,59.0099 515.4876,58.0709 C517.0976,56.8059 518.9166,56.1099 520.8926,55.9399 C522.0266,55.8429 523.1696,55.7839 524.3036,55.8479 C527.1786,56.0029 529.7966,56.9519 532.0686,58.9129 C532.9056,59.6379 533.6016,60.4739 534.1706,61.4429 C534.6966,62.3329 535.1196,63.2769 535.4646,64.2649 C535.8106,65.2429 535.9556,66.2649 536.0196,67.3009 L536.1026,67.8409" id="Fill-43" fill="#262F57"></path>
                <path d="M250.3145,72.5799 C250.3245,74.3559 250.4555,75.7039 250.8885,76.9939 C251.3805,78.4569 252.3295,79.4309 253.7015,79.9269 C254.5435,80.2339 255.4135,80.2879 256.2945,80.2289 C257.6815,80.1459 258.8635,79.5769 259.8655,78.5499 C261.0385,77.3579 261.9095,75.9609 262.3815,74.3019 C263.0185,72.0549 263.2915,69.7629 263.0915,67.4129 C262.9405,65.5829 262.2015,64.1629 260.7945,63.0679 C258.6645,61.4089 255.8955,61.7979 254.2315,63.2479 C253.3455,64.0209 252.5865,64.9119 252.0465,65.9919 C250.9575,68.1819 250.3535,70.5069 250.3145,72.5799 M241.6445,95.8229 C241.1825,95.8029 240.7195,95.7789 240.2575,95.7689 L239.2605,95.7689 C241.2845,82.6859 243.2985,69.6699 245.3175,56.6449 L252.6405,56.6449 C252.4455,57.7299 252.2555,58.7869 252.0665,59.8419 L252.1685,59.9199 L252.2705,59.7059 C253.4625,57.7059 255.2095,56.5529 257.3255,56.0569 C259.7925,55.4819 262.2355,55.6719 264.6195,56.6009 C265.6945,57.0199 266.6145,57.7009 267.4365,58.5619 C268.9155,60.1099 269.9135,61.9389 270.3515,64.1039 C270.5305,64.9799 270.6475,65.8749 270.7255,66.7659 C270.9495,69.2319 270.6865,71.6609 270.1365,74.0589 C269.7625,75.6839 269.3095,77.2759 268.5855,78.7639 C267.1155,81.8049 264.9455,84.0819 262.0305,85.4939 C260.1385,86.4079 258.1195,86.6179 256.0655,86.4219 C254.6595,86.2909 253.3265,85.8869 252.0715,85.1919 C251.2145,84.7139 250.4315,84.1259 249.8285,83.3039 L249.1905,82.2719 L249.0155,82.0289 C248.2715,86.6799 247.5505,91.2539 246.8265,95.8229" id="Fill-45" fill="#262F57"></path>
                <path d="M280.6367,72.4724 C280.6467,74.2484 280.7777,75.5964 281.2107,76.8864 C281.7017,78.3494 282.6507,79.3234 284.0227,79.8194 C284.8647,80.1264 285.7357,80.1804 286.6157,80.1214 C288.0027,80.0384 289.1857,79.4704 290.1877,78.4424 C291.3607,77.2514 292.2317,75.8534 292.7027,74.1954 C293.3407,71.9474 293.6137,69.6554 293.4137,67.3054 C293.2627,65.4754 292.5237,64.0554 291.1167,62.9604 C288.9857,61.3014 286.2177,61.6904 284.5537,63.1404 C283.6677,63.9144 282.9087,64.8044 282.3687,65.8854 C281.2787,68.0744 280.6757,70.4004 280.6367,72.4724 M271.9667,95.7154 C271.5037,95.6954 271.0417,95.6714 270.5797,95.6624 L269.5817,95.6624 C271.6067,82.5784 273.6207,69.5634 275.6397,56.5384 L282.9627,56.5384 C282.7677,57.6234 282.5777,58.6794 282.3877,59.7344 L282.4907,59.8124 L282.5927,59.5984 C283.7847,57.5984 285.5317,56.4454 287.6477,55.9494 C290.1147,55.3754 292.5567,55.5644 294.9417,56.4944 C296.0167,56.9124 296.9367,57.5944 297.7587,58.4544 C299.2377,60.0024 300.2357,61.8314 300.6727,63.9974 C300.8527,64.8724 300.9697,65.7674 301.0477,66.6584 C301.2717,69.1254 301.0087,71.5534 300.4587,73.9514 C300.0847,75.5764 299.6317,77.1684 298.9067,78.6574 C297.4377,81.6974 295.2677,83.9744 292.3527,85.3864 C290.4607,86.3014 288.4407,86.5104 286.3877,86.3154 C284.9817,86.1834 283.6487,85.7804 282.3927,85.0844 C281.5367,84.6074 280.7537,84.0184 280.1497,83.1964 L279.5127,82.1654 L279.3377,81.9214 C278.5937,86.5734 277.8727,91.1464 277.1477,95.7154" id="Fill-47" fill="#262F57"></path>
                <polyline id="Fill-49" fill="#26355B" points="0.8823 84.4134 49.8593 84.6514 86.4183 53.3174 95.2833 0.7844"></polyline>
                <path d="M47.2754,84.6516 L124.2094,84.6516 C124.2094,84.6516 139.1274,5.6596 139.059632,5.1676 C138.0124,6.0586 47.2754,84.6516 47.2754,84.6516" id="Fill-51" fill="#DE4545"></path>
                <path d="M80.6577,13.7405 C80.5897,16.6455 80.0207,39.8885 79.8887,41.0855 C79.7427,42.3555 79.3877,44.0925 79.2467,45.0025 C79.1107,45.9115 77.9187,49.7995 77.4077,51.0505 C76.9017,51.0255 74.0797,44.4035 74.0797,44.4035 C74.0797,44.4035 73.2277,42.3355 72.6247,39.6305 C72.1087,37.3045 70.8007,25.9285 70.4447,22.7905 L68.4407,24.5615 C69.0287,28.3135 70.7217,39.1875 70.8677,40.8025 C71.0437,42.7635 70.6587,52.2955 70.3327,53.7015 C69.5007,52.7285 64.8157,45.5805 64.3387,44.5735 C63.9207,43.6885 60.8257,34.1365 60.1157,31.9385 L58.5537,33.3245 C58.9867,34.6435 62.0957,44.1315 62.4217,45.4005 C62.7667,46.7685 64.0467,55.1225 64.1537,56.4315 C63.4237,55.9155 57.5417,50.2565 56.8257,49.3375 C56.1747,48.4905 51.5907,41.4015 50.8077,40.1855 L49.2207,41.5915 C49.6887,42.2865 54.4127,49.3765 55.0847,50.6605 C55.7897,52.0085 58.3687,59.1505 58.3447,60.2705 C57.5907,59.9445 50.2967,55.2535 49.5917,54.7765 C48.9687,54.3585 43.7137,48.8505 42.4827,47.5615 L40.8817,48.9765 C41.9867,50.1355 46.9147,55.3075 47.7127,56.2125 C48.4427,57.1905 54.0187,64.7895 53.5467,65.2525 C53.0217,65.2865 46.2587,62.7125 45.3287,62.2165 C44.3947,61.7195 42.3707,60.7765 41.7677,60.3775 C41.2277,60.0175 35.1207,55.9495 33.9197,55.1465 L32.3187,56.5625 C33.3647,57.2235 39.2617,60.9905 41.7137,62.8635 C44.3457,65.3305 49.7227,69.9865 49.6297,70.9545 C48.7347,70.8625 46.7837,70.7365 42.4877,70.1915 C40.1087,69.8015 37.6897,69.1785 37.6897,69.1785 C35.3737,68.4925 25.4437,64.9605 23.5847,64.2985 L21.7697,65.9095 C23.7357,66.5805 35.0187,70.4245 37.5877,71.4905 C39.0137,72.0395 47.8247,76.8865 47.4987,77.5475 C47.1537,78.0785 37.2857,77.9125 35.4567,77.8635 C33.6227,77.8205 12.1657,74.7205 12.1657,74.7205 L11.8247,74.7205 L9.5427,76.7445 C12.0387,77.0315 30.8537,79.2205 34.1677,79.7225 C38.4397,80.7985 45.8987,83.7075 47.5327,84.4325 L84.0247,52.9085 C84.0247,52.9085 82.4727,46.0385 82.3807,45.3865 C82.2877,44.7345 82.0587,42.5065 81.9907,39.8445 C81.9277,37.3585 82.8277,14.6405 82.9447,11.7165" id="Fill-53" fill="#F9C846"></path>
            </g>
        </g>
    </g>
</svg>