<?xml version="1.0" encoding="UTF-8" ?>
<!DOCTYPE svg PUBLIC "-//W3C//DTD SVG 1.1//EN" "http://www.w3.org/Graphics/SVG/1.1/DTD/svg11.dtd">
<svg width="326pt" height="172pt" viewBox="0 0 2817 1485" version="1.1" xmlns="http://www.w3.org/2000/svg">
<g id="#ffffffff">
<path fill="#ffffff" opacity="1.00" d=" M 734.17 604.25 C 738.07 600.59 744.87 603.22 746.41 607.97 C 747.18 610.82 745.72 613.47 744.06 615.67 C 750.59 616.41 757.16 617.95 762.86 621.34 C 764.46 622.21 765.97 623.49 767.89 623.58 C 773.77 624.24 779.73 625.91 784.55 629.44 C 789.46 633.00 791.91 639.87 789.50 645.59 C 786.80 652.13 780.07 656.14 773.37 657.49 C 769.51 657.86 770.65 662.63 770.11 665.34 C 755.31 662.11 740.05 661.73 724.97 662.68 C 719.15 663.10 713.45 664.65 707.61 664.76 C 707.47 662.68 707.35 660.62 707.27 658.56 C 703.94 657.08 700.15 656.86 697.05 654.85 C 692.04 652.09 687.34 647.10 687.55 641.04 C 687.22 636.13 690.14 631.54 694.10 628.86 C 698.79 625.61 704.52 624.26 710.11 623.56 C 711.77 623.51 713.08 622.40 714.45 621.60 C 720.28 617.83 727.27 616.65 734.01 615.60 C 730.67 612.71 730.18 606.79 734.17 604.25 M 716.67 632.44 C 714.29 636.55 714.51 642.43 717.98 645.90 C 721.99 650.37 727.95 652.44 733.79 653.07 C 734.11 648.90 731.66 645.15 731.70 640.99 C 731.01 635.18 732.62 629.56 734.11 624.03 C 727.46 624.02 720.68 627.07 716.67 632.44 M 743.16 624.20 C 747.61 633.30 747.47 644.68 742.26 653.44 C 749.74 652.74 758.24 649.84 761.95 642.79 C 763.40 638.95 762.94 634.12 759.97 631.09 C 755.79 626.48 749.39 623.74 743.16 624.20 M 695.54 637.70 C 694.84 641.29 694.70 645.67 697.69 648.32 C 701.26 652.17 706.76 652.73 711.70 653.02 C 711.75 652.37 711.85 651.06 711.90 650.40 C 708.16 648.07 704.67 644.49 704.34 639.88 C 703.93 636.39 705.79 633.28 706.96 630.14 C 702.41 630.80 697.11 632.98 695.54 637.70 M 770.99 630.13 C 772.72 634.10 774.68 638.53 772.85 642.86 C 771.01 647.78 766.04 650.09 761.83 652.59 C 767.90 652.80 774.87 653.13 779.63 648.63 C 782.90 646.13 783.29 641.58 782.39 637.86 C 780.75 633.11 775.65 630.72 770.99 630.13 Z" />
<path fill="#ffffff" opacity="1.00" d=" M 797.17 668.25 C 812.95 670.93 826.93 682.44 832.80 697.33 C 834.84 702.52 836.64 707.96 836.72 713.60 C 836.87 713.58 837.17 713.54 837.32 713.52 C 835.78 697.63 850.79 681.42 867.00 684.09 C 856.60 690.85 850.53 702.37 847.27 714.04 C 840.09 740.56 835.14 767.66 831.74 794.92 C 829.27 814.40 826.78 834.88 833.69 853.77 C 838.84 844.06 846.34 835.42 856.18 830.27 C 857.28 829.68 858.55 829.59 859.77 829.36 C 852.00 840.78 846.62 853.65 843.19 867.00 C 849.48 859.41 856.32 851.16 866.09 848.16 C 862.22 855.12 857.86 861.89 855.11 869.42 C 853.14 874.83 850.66 880.28 850.29 886.09 C 855.71 876.81 863.72 868.30 874.03 864.66 C 867.39 876.03 861.12 887.98 858.39 900.95 C 862.58 908.55 867.69 915.69 871.28 923.63 C 873.91 929.27 876.18 935.64 874.63 941.91 C 874.38 947.95 871.83 953.63 868.56 958.62 C 862.74 967.10 852.03 971.39 841.93 970.36 C 824.54 968.83 808.33 956.68 802.29 940.26 C 798.75 939.62 796.11 942.75 794.14 945.24 C 784.43 958.39 782.63 975.65 784.76 991.44 C 786.23 999.33 792.30 1007.84 801.12 1007.47 C 804.05 1003.58 806.23 999.22 809.04 995.25 C 811.91 1002.38 811.73 1010.34 811.26 1017.89 C 810.07 1027.86 805.88 1037.18 800.47 1045.55 C 795.31 1054.19 788.89 1062.66 787.58 1072.92 C 786.46 1078.79 786.38 1084.90 784.10 1090.50 C 781.92 1088.28 779.53 1085.06 775.94 1086.36 C 771.60 1087.97 769.18 1092.41 767.46 1096.45 C 764.19 1103.62 763.12 1111.84 758.24 1118.24 C 757.10 1119.61 755.92 1121.37 753.95 1121.49 C 748.73 1122.41 743.47 1123.05 738.28 1124.12 C 737.59 1127.24 736.78 1130.33 735.95 1133.43 C 734.60 1132.52 733.24 1131.64 731.90 1130.75 C 729.23 1120.81 728.32 1109.98 731.43 1100.05 C 731.51 1099.51 731.67 1098.43 731.75 1097.89 C 730.43 1099.79 728.99 1101.72 728.45 1104.01 C 728.12 1107.11 728.37 1110.25 728.37 1113.38 L 727.40 1113.24 C 729.13 1114.97 727.51 1117.89 727.67 1120.09 C 725.27 1120.26 722.60 1119.82 720.54 1121.33 C 717.69 1122.64 717.38 1126.03 716.06 1128.53 C 715.05 1127.52 713.87 1126.55 713.70 1125.05 C 711.04 1115.01 712.47 1104.42 715.54 1094.67 C 715.77 1093.40 715.89 1092.14 715.92 1090.89 C 715.42 1091.15 714.40 1091.69 713.90 1091.96 C 711.84 1099.01 712.04 1106.62 709.17 1113.44 C 706.07 1112.12 705.64 1106.52 701.45 1108.38 C 700.19 1110.22 699.16 1112.21 698.00 1114.12 C 696.15 1113.50 696.64 1111.36 696.29 1109.90 C 695.98 1106.00 694.95 1101.62 697.34 1098.16 C 700.54 1092.83 703.40 1087.22 707.57 1082.57 C 708.49 1081.55 709.22 1080.37 709.77 1079.13 C 706.40 1079.71 704.94 1083.31 702.63 1085.46 C 701.09 1086.74 700.21 1089.45 698.15 1089.74 C 697.14 1087.38 696.84 1084.80 696.44 1082.31 C 694.27 1081.38 691.88 1081.41 689.58 1081.36 C 688.83 1078.51 690.63 1075.56 693.10 1074.22 C 695.94 1073.40 699.42 1073.89 701.62 1071.51 C 704.17 1069.37 706.16 1065.60 709.97 1065.82 C 716.63 1065.94 721.38 1071.15 726.97 1074.01 C 731.53 1076.61 737.44 1076.41 742.04 1074.00 C 747.40 1071.31 751.58 1066.84 755.27 1062.21 C 762.47 1053.34 767.92 1043.24 773.38 1033.25 C 774.09 1031.95 774.56 1030.55 774.98 1029.14 C 772.13 1028.64 769.24 1028.58 766.37 1028.44 C 765.01 1030.95 763.66 1033.55 761.50 1035.49 C 759.09 1037.83 755.63 1038.39 752.57 1039.46 C 752.19 1034.62 753.19 1029.75 752.33 1024.94 C 751.11 1014.61 743.88 1006.46 741.06 996.64 C 736.83 982.89 737.41 968.28 737.79 954.05 C 737.69 946.68 739.62 939.22 738.48 931.93 C 724.34 917.62 712.06 900.15 692.99 892.00 C 686.90 889.31 679.94 888.55 673.45 889.97 C 669.46 890.82 666.23 894.09 665.37 898.04 C 663.90 903.96 669.46 908.73 674.50 910.49 C 673.39 913.70 671.06 917.25 667.58 918.35 C 663.04 920.39 657.85 921.22 652.99 919.97 C 650.72 919.20 648.65 918.00 646.46 917.08 C 642.84 921.01 639.31 925.43 638.39 930.85 C 637.58 937.21 638.56 943.60 638.59 949.97 C 638.67 955.08 636.37 960.03 632.82 963.63 C 632.56 963.59 632.05 963.50 631.79 963.46 C 631.42 961.39 631.17 959.31 630.80 957.26 C 626.73 956.69 622.71 955.62 619.32 953.21 C 615.52 959.14 612.47 967.19 604.96 969.11 C 602.37 968.75 600.40 966.92 598.04 966.10 C 595.10 967.26 593.29 970.37 590.73 972.22 C 588.89 965.53 590.85 958.71 590.83 951.93 C 590.65 950.78 591.54 949.97 592.19 949.19 C 595.34 945.71 598.80 942.50 601.84 938.92 C 601.71 937.74 601.09 935.65 599.50 936.47 C 595.79 939.73 592.49 943.47 588.68 946.63 C 587.50 948.19 586.00 946.45 584.86 945.89 C 584.61 943.70 583.95 940.26 581.09 940.40 C 579.61 941.31 578.32 942.55 576.67 943.19 C 575.81 935.99 579.91 929.43 583.75 923.71 C 585.02 921.45 587.75 921.38 590.00 920.94 C 593.27 921.72 596.56 922.51 599.91 922.97 C 599.88 922.32 599.83 921.02 599.81 920.37 C 595.18 918.74 590.25 918.55 585.55 917.36 C 585.73 914.26 586.00 911.16 585.82 908.07 C 583.87 906.99 581.55 906.85 579.48 906.10 C 580.14 904.28 580.88 902.51 581.74 900.79 C 587.41 899.48 593.02 896.75 598.94 897.32 C 603.37 898.83 605.71 903.39 608.52 906.85 C 611.23 906.81 613.52 905.32 615.47 903.57 C 623.54 896.55 629.83 887.80 635.99 879.14 C 637.51 876.61 639.78 874.32 639.97 871.23 C 632.64 867.22 626.01 861.67 621.47 854.60 C 619.66 851.63 617.71 848.56 617.42 845.00 C 627.70 842.22 635.56 834.23 641.89 826.04 C 651.48 813.80 658.86 799.92 669.38 788.40 C 676.37 780.59 685.24 774.07 695.49 771.39 C 703.31 769.08 711.79 768.90 719.13 765.08 C 726.36 761.12 729.71 752.40 729.67 744.49 C 725.68 744.37 721.22 745.30 718.76 748.73 C 716.13 751.88 716.16 756.13 715.59 759.97 C 706.28 751.33 704.21 736.55 708.63 725.00 C 709.70 727.55 711.10 730.17 713.93 731.08 C 717.08 732.19 722.38 732.01 723.10 727.87 C 724.77 719.94 724.49 710.60 718.75 704.28 C 717.35 702.70 715.24 700.22 712.93 701.74 C 708.20 703.77 707.36 709.30 704.29 712.80 C 698.98 706.08 696.72 697.42 696.81 688.97 C 696.92 687.70 697.23 686.07 698.60 685.60 C 701.68 684.29 704.98 683.57 708.04 682.21 C 704.14 680.43 699.46 681.82 695.30 680.81 C 695.94 678.94 696.01 676.14 698.47 675.80 C 714.92 671.67 731.96 668.03 749.01 669.99 C 761.50 671.36 773.77 677.37 781.32 687.62 C 792.47 702.36 795.18 721.45 796.15 739.41 C 793.14 739.53 790.15 739.53 787.16 739.43 C 788.13 747.87 790.46 756.34 788.81 764.89 C 788.31 775.29 786.79 785.66 787.44 796.10 C 787.20 797.47 788.45 800.18 786.12 800.08 C 785.70 799.70 784.86 798.95 784.43 798.58 C 784.93 798.48 785.93 798.28 786.43 798.19 C 786.87 792.22 786.48 786.18 786.50 780.19 C 786.16 785.97 786.78 791.80 786.24 797.55 C 783.56 798.92 782.18 795.65 780.57 794.27 C 778.96 795.87 779.51 798.26 779.07 800.28 C 776.48 816.81 768.35 832.77 755.42 843.58 C 754.91 844.73 756.10 845.41 756.76 846.17 C 764.02 853.00 771.10 860.01 778.15 867.06 C 790.27 879.33 803.48 891.45 810.48 907.58 C 816.30 918.92 822.56 930.19 830.89 939.91 C 834.59 943.81 839.01 948.64 844.94 947.94 C 849.64 948.45 852.58 943.87 854.21 940.13 C 856.01 933.52 852.31 927.34 849.45 921.66 C 840.87 906.13 829.95 892.02 821.36 876.49 C 812.01 860.48 804.59 842.77 803.84 824.04 C 804.25 810.56 806.87 797.29 809.19 784.04 C 811.75 770.07 814.26 756.08 815.71 741.95 C 815.69 732.61 817.47 723.29 816.06 713.97 C 815.67 697.18 809.80 679.79 797.17 668.25 M 725.47 679.28 C 725.51 682.82 725.51 686.37 725.43 689.93 C 727.40 689.69 729.32 689.15 731.14 688.34 C 736.62 685.96 742.44 684.38 747.81 681.74 C 748.13 680.10 746.09 680.30 745.13 679.85 C 738.66 678.57 732.01 679.27 725.47 679.28 Z" />
<path fill="#ffffff" opacity="1.00" d=" M 673.48 717.53 C 674.77 714.10 676.59 710.29 680.27 708.95 C 678.86 712.94 677.21 717.24 678.62 721.49 C 680.51 724.14 684.07 723.82 686.92 723.52 C 693.89 722.25 700.33 719.22 706.90 716.68 C 710.75 715.14 715.29 715.46 719.02 717.20 C 715.20 717.86 711.39 718.86 708.14 721.05 C 701.51 725.29 696.50 732.00 688.92 734.73 C 684.47 736.37 678.75 736.51 675.22 732.88 C 671.49 728.73 671.64 722.49 673.48 717.53 Z" />
<path fill="#ffffff" opacity="1.00" d=" M 619.77 726.16 C 623.75 727.49 626.49 731.29 628.08 735.04 C 630.89 746.64 625.85 758.41 627.82 770.07 C 630.95 784.07 646.89 790.25 650.31 804.10 C 650.03 805.91 648.63 807.31 647.74 808.86 C 642.87 816.00 638.81 823.99 632.08 829.61 C 624.42 820.32 617.42 810.50 609.64 801.32 C 609.28 801.29 608.55 801.21 608.19 801.17 C 605.40 804.18 603.84 808.09 601.18 811.20 C 599.45 812.45 597.09 812.08 595.08 812.13 C 591.05 811.76 586.08 811.88 583.50 808.16 C 588.63 803.91 593.08 797.92 592.83 790.94 C 593.65 780.12 587.61 770.58 581.87 761.97 C 579.82 758.53 576.99 755.69 574.34 752.73 C 579.78 750.99 586.00 748.50 591.59 751.00 C 594.71 754.38 597.54 758.04 600.53 761.55 C 601.04 761.53 602.05 761.50 602.55 761.48 C 602.48 759.93 602.40 758.39 602.31 756.87 C 599.74 753.91 598.23 750.24 596.07 747.01 C 592.45 741.72 594.61 735.03 593.44 729.12 C 599.78 730.66 605.71 734.12 610.29 738.76 C 614.45 743.04 612.47 750.14 616.78 754.25 C 616.98 749.83 616.47 745.43 615.92 741.06 C 615.97 735.80 620.07 731.53 619.77 726.16 Z" />
<path fill="#ffffff" opacity="1.00" d=" M 700.56 910.93 C 708.23 909.26 715.29 914.15 720.97 918.71 C 720.38 922.08 720.19 925.50 720.47 928.92 C 720.73 925.86 720.63 922.78 720.96 919.74 C 721.90 923.11 720.31 926.80 721.81 930.13 C 724.52 936.07 731.26 938.79 734.37 944.38 C 734.50 949.79 733.89 955.20 733.29 960.58 C 729.29 958.07 724.16 955.02 719.45 957.54 C 715.34 959.14 714.24 963.89 712.95 967.64 C 711.37 976.58 714.87 985.40 718.72 993.30 C 724.34 1003.92 731.65 1013.71 740.40 1021.95 C 735.73 1028.14 729.06 1033.52 721.02 1033.95 C 712.36 1034.25 703.22 1034.24 695.36 1038.38 C 690.83 1041.45 688.01 1046.66 682.68 1048.65 C 682.05 1046.42 681.82 1044.13 681.44 1041.87 C 680.71 1039.68 679.07 1038.01 677.67 1036.27 C 672.63 1036.45 668.44 1039.73 665.82 1043.84 C 662.99 1048.12 658.02 1052.72 652.48 1050.93 C 650.23 1050.05 647.82 1049.96 645.46 1050.28 C 644.61 1052.87 643.82 1055.47 643.00 1058.08 C 638.14 1054.44 638.08 1047.60 639.40 1042.22 C 640.11 1036.80 642.31 1031.71 642.86 1026.28 C 642.26 1026.28 641.04 1026.28 640.44 1026.28 C 638.83 1031.10 638.53 1036.53 635.32 1040.66 C 633.22 1038.60 631.18 1036.48 629.28 1034.24 C 626.90 1035.55 624.81 1037.45 622.10 1038.07 C 621.53 1031.32 625.30 1025.35 629.10 1020.13 C 631.87 1016.28 634.56 1012.06 634.71 1007.17 C 630.38 1011.08 627.02 1015.89 622.91 1020.02 C 622.39 1016.29 621.12 1012.74 619.24 1009.49 C 617.01 1009.38 614.80 1009.29 612.58 1009.19 C 613.82 1005.40 616.08 1001.73 619.74 999.87 C 625.25 996.81 631.90 997.44 637.81 998.81 C 637.80 997.66 637.80 996.53 637.81 995.41 C 633.84 994.41 629.94 993.22 626.04 992.06 C 626.67 989.45 628.30 986.95 627.78 984.18 C 627.00 982.21 625.78 980.48 624.75 978.66 C 631.01 977.72 637.43 979.63 642.22 983.74 C 648.91 989.61 652.84 998.49 661.04 1002.63 C 665.60 1005.16 670.95 1004.90 675.99 1004.93 C 682.35 1004.88 688.77 1005.06 695.08 1004.13 C 696.62 1002.58 694.11 1000.86 693.29 999.62 C 683.73 989.48 678.25 975.79 677.54 961.93 C 677.41 959.98 677.15 958.06 676.79 956.16 C 673.35 955.47 669.92 954.11 667.57 951.42 C 664.28 947.60 662.78 942.54 662.26 937.62 C 671.06 938.04 678.67 932.37 683.95 925.85 C 688.82 920.28 693.23 913.43 700.56 910.93 Z" />
</g>
<g id="#dab42dff">
<path fill="#dab42d" opacity="1.00" d=" M 503.96 17.80 C 513.85 16.34 524.28 17.05 533.39 21.44 C 547.98 27.91 560.20 40.96 563.16 56.95 C 565.21 70.02 561.31 83.86 552.90 94.05 C 550.56 96.96 547.61 99.27 545.00 101.91 C 590.57 106.32 636.91 116.97 675.65 142.40 C 679.58 144.73 682.87 148.07 686.95 150.13 C 724.14 154.30 762.12 161.80 794.51 181.48 C 809.22 190.64 822.45 202.73 831.19 217.84 C 839.48 232.01 843.65 248.54 842.88 264.96 C 843.48 277.58 840.01 290.08 834.39 301.29 C 826.50 317.45 814.00 331.02 799.70 341.75 C 786.10 351.85 770.76 359.54 754.67 364.78 C 750.54 366.27 746.19 367.09 742.18 368.92 C 757.59 370.51 773.24 372.49 787.71 378.31 C 788.85 381.38 789.16 384.71 789.79 387.92 C 793.35 407.19 796.91 426.47 800.72 445.69 C 723.84 435.84 646.54 428.88 569.03 427.41 C 551.06 426.25 533.01 426.78 515.00 426.66 C 501.64 426.76 488.25 426.34 474.92 427.37 C 446.24 427.49 417.65 429.51 389.02 430.78 C 367.34 432.64 345.62 434.02 323.97 436.17 C 291.92 439.31 259.89 442.88 228.02 447.56 C 226.48 447.73 224.94 447.69 223.41 447.68 C 228.56 424.85 232.41 401.75 236.85 378.78 C 242.17 376.17 248.26 375.32 253.99 373.86 C 264.50 371.43 275.25 370.43 285.87 368.74 C 263.58 363.52 242.07 353.95 223.92 339.85 C 205.57 325.54 190.44 305.97 184.84 283.08 C 182.38 274.28 183.26 265.07 183.17 256.05 C 184.22 235.20 193.65 215.10 208.14 200.19 C 226.96 180.53 252.53 168.94 278.31 161.45 C 298.13 155.70 318.57 152.36 339.06 150.15 C 341.03 149.26 342.62 147.75 344.37 146.53 C 370.30 127.75 400.88 116.51 431.89 109.42 C 448.08 105.96 464.48 103.48 480.96 101.96 C 472.97 95.18 466.31 86.44 463.90 76.08 C 460.66 64.84 462.14 52.30 468.36 42.35 C 476.19 29.77 489.42 20.67 503.96 17.80 M 404.13 172.00 C 387.90 183.83 373.77 199.39 366.50 218.34 C 362.66 227.38 361.13 237.19 360.69 246.94 C 360.72 269.34 370.54 291.06 385.89 307.14 C 400.87 323.51 420.58 334.82 441.21 342.52 C 456.83 348.02 473.17 351.52 489.69 352.66 C 475.15 330.54 470.06 303.86 466.99 278.00 C 465.19 259.41 464.88 240.66 466.23 222.02 C 468.45 194.75 473.27 166.86 486.62 142.61 C 457.32 145.40 428.26 154.88 404.13 172.00 M 539.36 142.62 C 550.50 162.65 555.47 185.39 558.34 207.94 C 558.81 214.31 560.02 220.62 559.88 227.04 C 559.79 242.35 560.26 257.69 559.51 272.99 C 557.97 285.50 556.60 298.08 553.47 310.31 C 549.86 325.13 544.86 339.87 536.24 352.58 C 551.12 352.03 565.76 348.57 579.92 344.13 C 600.47 337.37 619.98 326.73 635.66 311.70 C 648.02 299.84 657.77 284.97 662.30 268.36 C 665.82 255.57 666.19 241.93 662.88 229.05 C 658.08 208.94 645.41 191.43 629.78 178.23 C 604.46 157.06 571.92 145.77 539.36 142.62 M 278.19 197.23 C 261.98 204.85 247.34 217.10 239.63 233.54 C 232.65 248.51 230.79 265.76 234.21 281.89 C 237.54 298.10 247.08 312.69 259.93 322.99 C 276.95 336.72 298.31 343.93 319.70 347.25 C 338.29 349.73 357.25 350.31 375.82 347.35 C 363.96 342.28 352.30 336.60 341.61 329.31 C 322.85 316.82 306.60 299.36 299.11 277.79 C 288.30 247.10 295.90 211.63 315.76 186.30 C 302.74 187.70 290.07 191.76 278.19 197.23 M 710.24 186.27 C 723.90 204.11 731.99 226.43 731.73 248.98 C 732.02 266.99 725.92 284.87 715.57 299.53 C 710.25 307.41 703.28 313.93 696.45 320.47 C 682.60 331.64 666.89 340.28 650.54 347.20 C 655.87 348.94 661.55 348.09 667.02 348.99 C 679.34 350.03 691.69 348.93 703.93 347.56 C 722.14 344.65 740.40 339.85 756.16 329.97 C 771.52 320.62 784.36 306.37 789.86 289.04 C 794.16 275.28 794.64 260.30 790.85 246.36 C 787.04 230.49 777.07 216.46 763.93 206.91 C 748.24 195.51 729.41 188.70 710.24 186.27 Z" />
<path fill="#dab42d" opacity="1.00" d=" M 516.81 478.27 C 522.47 478.21 528.96 478.06 534.98 478.13 C 554.98 478.57 575.03 477.89 595.00 479.24 C 638.39 479.95 681.68 482.82 724.92 486.18 C 786.40 491.24 847.75 498.43 908.68 508.26 C 929.03 616.26 947.13 724.66 965.73 832.98 C 976.08 894.62 986.53 956.24 996.79 1017.90 C 998.95 1030.53 1002.20 1043.13 1001.91 1056.05 C 1001.82 1062.70 1002.10 1069.38 1001.58 1076.03 C 999.08 1094.59 992.97 1112.89 982.40 1128.46 C 971.04 1145.12 956.17 1159.05 940.18 1171.20 C 911.31 1192.58 881.64 1212.83 852.19 1233.38 C 756.04 1299.92 659.40 1365.75 562.71 1431.51 C 549.54 1440.43 536.41 1449.41 523.15 1458.18 C 520.20 1460.18 517.32 1457.28 514.93 1455.80 C 446.28 1410.66 377.94 1365.05 309.65 1319.39 C 245.54 1276.25 181.29 1233.32 117.88 1189.18 C 103.56 1178.98 88.84 1169.19 75.94 1157.17 C 64.47 1146.79 54.10 1135.02 46.29 1121.62 C 35.73 1102.99 30.14 1081.42 31.11 1059.99 C 30.39 1044.37 34.27 1029.15 36.96 1013.90 C 67.77 846.47 98.52 679.05 129.79 511.70 C 133.38 510.56 137.14 510.31 140.84 509.71 C 161.67 505.96 182.62 502.95 203.56 499.90 L 203.97 499.80 C 203.86 500.64 203.64 502.31 203.52 503.14 C 187.26 590.99 172.01 679.03 156.81 767.07 C 140.61 861.04 124.77 955.07 108.72 1049.07 C 106.26 1065.38 109.13 1083.20 119.57 1096.37 C 131.78 1112.39 148.71 1123.77 165.05 1135.15 C 183.92 1148.26 203.06 1161.00 222.16 1173.77 C 287.26 1217.12 352.71 1259.94 418.07 1302.90 C 450.89 1324.29 483.49 1346.02 516.40 1367.28 C 516.69 1365.53 517.02 1363.79 517.13 1362.04 C 517.08 1083.04 517.12 804.03 517.11 525.02 C 516.92 509.59 517.49 494.13 516.80 478.72 L 516.81 478.27 M 734.17 604.25 C 730.18 606.79 730.67 612.71 734.01 615.60 C 727.27 616.65 720.28 617.83 714.45 621.60 C 713.08 622.40 711.77 623.51 710.11 623.56 C 704.52 624.26 698.79 625.61 694.10 628.86 C 690.14 631.54 687.22 636.13 687.55 641.04 C 687.34 647.10 692.04 652.09 697.05 654.85 C 700.15 656.86 703.94 657.08 707.27 658.56 C 707.35 660.62 707.47 662.68 707.61 664.76 C 713.45 664.65 719.15 663.10 724.97 662.68 C 740.05 661.73 755.31 662.11 770.11 665.34 C 770.65 662.63 769.51 657.86 773.37 657.49 C 780.07 656.14 786.80 652.13 789.50 645.59 C 791.91 639.87 789.46 633.00 784.55 629.44 C 779.73 625.91 773.77 624.24 767.89 623.58 C 765.97 623.49 764.46 622.21 762.86 621.34 C 757.16 617.95 750.59 616.41 744.06 615.67 C 745.72 613.47 747.18 610.82 746.41 607.97 C 744.87 603.22 738.07 600.59 734.17 604.25 M 797.17 668.25 C 809.80 679.79 815.67 697.18 816.06 713.97 C 817.47 723.29 815.69 732.61 815.71 741.95 C 814.26 756.08 811.75 770.07 809.19 784.04 C 806.87 797.29 804.25 810.56 803.84 824.04 C 804.59 842.77 812.01 860.48 821.36 876.49 C 829.95 892.02 840.87 906.13 849.45 921.66 C 852.31 927.34 856.01 933.52 854.21 940.13 C 852.58 943.87 849.64 948.45 844.94 947.94 C 839.01 948.64 834.59 943.81 830.89 939.91 C 822.56 930.19 816.30 918.92 810.48 907.58 C 803.48 891.45 790.27 879.33 778.15 867.06 C 771.10 860.01 764.02 853.00 756.76 846.17 C 756.10 845.41 754.91 844.73 755.42 843.58 C 768.35 832.77 776.48 816.81 779.07 800.28 C 779.51 798.26 778.96 795.87 780.57 794.27 C 782.18 795.65 783.56 798.92 786.24 797.55 C 786.78 791.80 786.16 785.97 786.50 780.19 C 786.48 786.18 786.87 792.22 786.43 798.19 C 785.93 798.28 784.93 798.48 784.43 798.58 C 784.86 798.95 785.70 799.70 786.12 800.08 C 788.45 800.18 787.20 797.47 787.44 796.10 C 786.79 785.66 788.31 775.29 788.81 764.89 C 790.46 756.34 788.13 747.87 787.16 739.43 C 790.15 739.53 793.14 739.53 796.15 739.41 C 795.18 721.45 792.47 702.36 781.32 687.62 C 773.77 677.37 761.50 671.36 749.01 669.99 C 731.96 668.03 714.92 671.67 698.47 675.80 C 696.01 676.14 695.94 678.94 695.30 680.81 C 699.46 681.82 704.14 680.43 708.04 682.21 C 704.98 683.57 701.68 684.29 698.60 685.60 C 697.23 686.07 696.92 687.70 696.81 688.97 C 696.72 697.42 698.98 706.08 704.29 712.80 C 707.36 709.30 708.20 703.77 712.93 701.74 C 715.24 700.22 717.35 702.70 718.75 704.28 C 724.49 710.60 724.77 719.94 723.10 727.87 C 722.38 732.01 717.08 732.19 713.93 731.08 C 711.10 730.17 709.70 727.55 708.63 725.00 C 704.21 736.55 706.28 751.33 715.59 759.97 C 716.16 756.13 716.13 751.88 718.76 748.73 C 721.22 745.30 725.68 744.37 729.67 744.49 C 729.71 752.40 726.36 761.12 719.13 765.08 C 711.79 768.90 703.31 769.08 695.49 771.39 C 685.24 774.07 676.37 780.59 669.38 788.40 C 658.86 799.92 651.48 813.80 641.89 826.04 C 635.56 834.23 627.70 842.22 617.42 845.00 C 617.71 848.56 619.66 851.63 621.47 854.60 C 626.01 861.67 632.64 867.22 639.97 871.23 C 639.78 874.32 637.51 876.61 635.99 879.14 C 629.83 887.80 623.54 896.55 615.47 903.57 C 613.52 905.32 611.23 906.81 608.52 906.85 C 605.71 903.39 603.37 898.83 598.94 897.32 C 593.02 896.75 587.41 899.48 581.74 900.79 C 580.88 902.51 580.14 904.28 579.48 906.10 C 581.55 906.85 583.87 906.99 585.82 908.07 C 586.00 911.16 585.73 914.26 585.55 917.36 C 590.25 918.55 595.18 918.74 599.81 920.37 C 599.83 921.02 599.88 922.32 599.91 922.97 C 596.56 922.51 593.27 921.72 590.00 920.94 C 587.75 921.38 585.02 921.45 583.75 923.71 C 579.91 929.43 575.81 935.99 576.67 943.19 C 578.32 942.55 579.61 941.31 581.09 940.40 C 583.95 940.26 584.61 943.70 584.86 945.89 C 586.00 946.45 587.50 948.19 588.68 946.63 C 592.49 943.47 595.79 939.73 599.50 936.47 C 601.09 935.65 601.71 937.74 601.84 938.92 C 598.80 942.50 595.34 945.71 592.19 949.19 C 591.54 949.97 590.65 950.78 590.83 951.93 C 590.85 958.71 588.89 965.53 590.73 972.22 C 593.29 970.37 595.10 967.26 598.04 966.10 C 600.40 966.92 602.37 968.75 604.96 969.11 C 612.47 967.19 615.52 959.14 619.32 953.21 C 622.71 955.62 626.73 956.69 630.80 957.26 C 631.17 959.31 631.42 961.39 631.79 963.46 C 632.05 963.50 632.56 963.59 632.82 963.63 C 636.37 960.03 638.67 955.08 638.59 949.97 C 638.56 943.60 637.58 937.21 638.39 930.85 C 639.31 925.43 642.84 921.01 646.46 917.08 C 648.65 918.00 650.72 919.20 652.99 919.97 C 657.85 921.22 663.04 920.39 667.58 918.35 C 671.06 917.25 673.39 913.70 674.50 910.49 C 669.46 908.73 663.90 903.96 665.37 898.04 C 666.23 894.09 669.46 890.82 673.45 889.97 C 679.94 888.55 686.90 889.31 692.99 892.00 C 712.06 900.15 724.34 917.62 738.48 931.93 C 739.62 939.22 737.69 946.68 737.79 954.05 C 737.41 968.28 736.83 982.89 741.06 996.64 C 743.88 1006.46 751.11 1014.61 752.33 1024.94 C 753.19 1029.75 752.19 1034.62 752.57 1039.46 C 755.63 1038.39 759.09 1037.83 761.50 1035.49 C 763.66 1033.55 765.01 1030.95 766.37 1028.44 C 769.24 1028.58 772.13 1028.64 774.98 1029.14 C 774.56 1030.55 774.09 1031.95 773.38 1033.25 C 767.92 1043.24 762.47 1053.34 755.27 1062.21 C 751.58 1066.84 747.40 1071.31 742.04 1074.00 C 737.44 1076.41 731.53 1076.61 726.97 1074.01 C 721.38 1071.15 716.63 1065.94 709.97 1065.82 C 706.16 1065.60 704.17 1069.37 701.62 1071.51 C 699.42 1073.89 695.94 1073.40 693.10 1074.22 C 690.63 1075.56 688.83 1078.51 689.58 1081.36 C 691.88 1081.41 694.27 1081.38 696.44 1082.31 C 696.84 1084.80 697.14 1087.38 698.15 1089.74 C 700.21 1089.45 701.09 1086.74 702.63 1085.46 C 704.94 1083.31 706.40 1079.71 709.77 1079.13 C 709.22 1080.37 708.49 1081.55 707.57 1082.57 C 703.40 1087.22 700.54 1092.83 697.34 1098.16 C 694.95 1101.62 695.98 1106.00 696.29 1109.90 C 696.64 1111.36 696.15 1113.50 698.00 1114.12 C 699.16 1112.21 700.19 1110.22 701.45 1108.38 C 705.64 1106.52 706.07 1112.12 709.17 1113.44 C 712.04 1106.62 711.84 1099.01 713.90 1091.96 C 714.40 1091.69 715.42 1091.15 715.92 1090.89 C 715.89 1092.14 715.77 1093.40 715.54 1094.67 C 712.47 1104.42 711.04 1115.01 713.70 1125.05 C 713.87 1126.55 715.05 1127.52 716.06 1128.53 C 717.38 1126.03 717.69 1122.64 720.54 1121.33 C 722.60 1119.82 725.27 1120.26 727.67 1120.09 C 727.51 1117.89 729.13 1114.97 727.40 1113.24 L 728.37 1113.38 C 728.37 1110.25 728.12 1107.11 728.45 1104.01 C 728.99 1101.72 730.43 1099.79 731.75 1097.89 C 731.67 1098.43 731.51 1099.51 731.43 1100.05 C 728.32 1109.98 729.23 1120.81 731.90 1130.75 C 733.24 1131.64 734.60 1132.52 735.95 1133.43 C 736.78 1130.33 737.59 1127.24 738.28 1124.12 C 743.47 1123.05 748.73 1122.41 753.95 1121.49 C 755.92 1121.37 757.10 1119.61 758.24 1118.24 C 763.12 1111.84 764.19 1103.62 767.46 1096.45 C 769.18 1092.41 771.60 1087.97 775.94 1086.36 C 779.53 1085.06 781.92 1088.28 784.10 1090.50 C 786.38 1084.90 786.46 1078.79 787.58 1072.92 C 788.89 1062.66 795.31 1054.19 800.47 1045.55 C 805.88 1037.18 810.07 1027.86 811.26 1017.89 C 811.73 1010.34 811.91 1002.38 809.04 995.25 C 806.23 999.22 804.05 1003.58 801.12 1007.47 C 792.30 1007.84 786.23 999.33 784.76 991.44 C 782.63 975.65 784.43 958.39 794.14 945.24 C 796.11 942.75 798.75 939.62 802.29 940.26 C 808.33 956.68 824.54 968.83 841.93 970.36 C 852.03 971.39 862.74 967.10 868.56 958.62 C 871.83 953.63 874.38 947.95 874.63 941.91 C 876.18 935.64 873.91 929.27 871.28 923.63 C 867.69 915.69 862.58 908.55 858.39 900.95 C 861.12 887.98 867.39 876.03 874.03 864.66 C 863.72 868.30 855.71 876.81 850.29 886.09 C 850.66 880.28 853.14 874.83 855.11 869.42 C 857.86 861.89 862.22 855.12 866.09 848.16 C 856.32 851.16 849.48 859.41 843.19 867.00 C 846.62 853.65 852.00 840.78 859.77 829.36 C 858.55 829.59 857.28 829.68 856.18 830.27 C 846.34 835.42 838.84 844.06 833.69 853.77 C 826.78 834.88 829.27 814.40 831.74 794.92 C 835.14 767.66 840.09 740.56 847.27 714.04 C 850.53 702.37 856.60 690.85 867.00 684.09 C 850.79 681.42 835.78 697.63 837.32 713.52 C 837.17 713.54 836.87 713.58 836.72 713.60 C 836.64 707.96 834.84 702.52 832.80 697.33 C 826.93 682.44 812.95 670.93 797.17 668.25 M 673.48 717.53 C 671.64 722.49 671.49 728.73 675.22 732.88 C 678.75 736.51 684.47 736.37 688.92 734.73 C 696.50 732.00 701.51 725.29 708.14 721.05 C 711.39 718.86 715.20 717.86 719.02 717.20 C 715.29 715.46 710.75 715.14 706.90 716.68 C 700.33 719.22 693.89 722.25 686.92 723.52 C 684.07 723.82 680.51 724.14 678.62 721.49 C 677.21 717.24 678.86 712.94 680.27 708.95 C 676.59 710.29 674.77 714.10 673.48 717.53 M 619.77 726.16 C 620.07 731.53 615.97 735.80 615.92 741.06 C 616.47 745.43 616.98 749.83 616.78 754.25 C 612.47 750.14 614.45 743.04 610.29 738.76 C 605.71 734.12 599.78 730.66 593.44 729.12 C 594.61 735.03 592.45 741.72 596.07 747.01 C 598.23 750.24 599.74 753.91 602.31 756.87 C 602.40 758.39 602.48 759.93 602.55 761.48 C 602.05 761.50 601.04 761.53 600.53 761.55 C 597.54 758.04 594.71 754.38 591.59 751.00 C 586.00 748.50 579.78 750.99 574.34 752.73 C 576.99 755.69 579.82 758.53 581.87 761.97 C 587.61 770.58 593.65 780.12 592.83 790.94 C 593.08 797.92 588.63 803.91 583.50 808.16 C 586.08 811.88 591.05 811.76 595.08 812.13 C 597.09 812.08 599.45 812.45 601.18 811.20 C 603.84 808.09 605.40 804.18 608.19 801.17 C 608.55 801.21 609.28 801.29 609.64 801.32 C 617.42 810.50 624.42 820.32 632.08 829.61 C 638.81 823.99 642.87 816.00 647.74 808.86 C 648.63 807.31 650.03 805.91 650.31 804.10 C 646.89 790.25 630.95 784.07 627.82 770.07 C 625.85 758.41 630.89 746.64 628.08 735.04 C 626.49 731.29 623.75 727.49 619.77 726.16 M 700.56 910.93 C 693.23 913.43 688.82 920.28 683.95 925.85 C 678.67 932.37 671.06 938.04 662.26 937.62 C 662.78 942.54 664.28 947.60 667.57 951.42 C 669.92 954.11 673.35 955.47 676.79 956.16 C 677.15 958.06 677.41 959.98 677.54 961.93 C 678.25 975.79 683.73 989.48 693.29 999.62 C 694.11 1000.86 696.62 1002.58 695.08 1004.13 C 688.77 1005.06 682.35 1004.88 675.99 1004.93 C 670.95 1004.90 665.60 1005.16 661.04 1002.63 C 652.84 998.49 648.91 989.61 642.22 983.74 C 637.43 979.63 631.01 977.72 624.75 978.66 C 625.78 980.48 627.00 982.21 627.78 984.18 C 628.30 986.95 626.67 989.45 626.04 992.06 C 629.94 993.22 633.84 994.41 637.81 995.41 C 637.80 996.53 637.80 997.66 637.81 998.81 C 631.90 997.44 625.25 996.81 619.74 999.87 C 616.08 1001.73 613.82 1005.40 612.58 1009.19 C 614.80 1009.29 617.01 1009.38 619.24 1009.49 C 621.12 1012.74 622.39 1016.29 622.91 1020.02 C 627.02 1015.89 630.38 1011.08 634.71 1007.17 C 634.56 1012.06 631.87 1016.28 629.10 1020.13 C 625.30 1025.35 621.53 1031.32 622.10 1038.07 C 624.81 1037.45 626.90 1035.55 629.28 1034.24 C 631.18 1036.48 633.22 1038.60 635.32 1040.66 C 638.53 1036.53 638.83 1031.10 640.44 1026.28 C 641.04 1026.28 642.26 1026.28 642.86 1026.28 C 642.31 1031.71 640.11 1036.80 639.40 1042.22 C 638.08 1047.60 638.14 1054.44 643.00 1058.08 C 643.82 1055.47 644.61 1052.87 645.46 1050.28 C 647.82 1049.96 650.23 1050.05 652.48 1050.93 C 658.02 1052.72 662.99 1048.12 665.82 1043.84 C 668.44 1039.73 672.63 1036.45 677.67 1036.27 C 679.07 1038.01 680.71 1039.68 681.44 1041.87 C 681.82 1044.13 682.05 1046.42 682.68 1048.65 C 688.01 1046.66 690.83 1041.45 695.36 1038.38 C 703.22 1034.24 712.36 1034.25 721.02 1033.95 C 729.06 1033.52 735.73 1028.14 740.40 1021.95 C 731.65 1013.71 724.34 1003.92 718.72 993.30 C 714.87 985.40 711.37 976.58 712.95 967.64 C 714.24 963.89 715.34 959.14 719.45 957.54 C 724.16 955.02 729.29 958.07 733.29 960.58 C 733.89 955.20 734.50 949.79 734.37 944.38 C 731.26 938.79 724.52 936.07 721.81 930.13 C 720.31 926.80 721.90 923.11 720.96 919.74 C 720.63 922.78 720.73 925.86 720.47 928.92 C 720.19 925.50 720.38 922.08 720.97 918.71 C 715.29 914.15 708.23 909.26 700.56 910.93 Z" />
<path fill="#dab42d" opacity="1.00" d=" M 716.67 632.44 C 720.68 627.07 727.46 624.02 734.11 624.03 C 732.62 629.56 731.01 635.18 731.70 640.99 C 731.66 645.15 734.11 648.90 733.79 653.07 C 727.95 652.44 721.99 650.37 717.98 645.90 C 714.51 642.43 714.29 636.55 716.67 632.44 Z" />
<path fill="#dab42d" opacity="1.00" d=" M 743.16 624.20 C 749.39 623.74 755.79 626.48 759.97 631.09 C 762.94 634.12 763.40 638.95 761.95 642.79 C 758.24 649.84 749.74 652.74 742.26 653.44 C 747.47 644.68 747.61 633.30 743.16 624.20 Z" />
<path fill="#dab42d" opacity="1.00" d=" M 695.54 637.70 C 697.11 632.98 702.41 630.80 706.96 630.14 C 705.79 633.28 703.93 636.39 704.34 639.88 C 704.67 644.49 708.16 648.07 711.90 650.40 C 711.85 651.06 711.75 652.37 711.70 653.02 C 706.76 652.73 701.26 652.17 697.69 648.32 C 694.70 645.67 694.84 641.29 695.54 637.70 Z" />
<path fill="#dab42d" opacity="1.00" d=" M 770.99 630.13 C 775.65 630.72 780.75 633.11 782.39 637.86 C 783.29 641.58 782.90 646.13 779.63 648.63 C 774.87 653.13 767.90 652.80 761.83 652.59 C 766.04 650.09 771.01 647.78 772.85 642.86 C 774.68 638.53 772.72 634.10 770.99 630.13 Z" />
<path fill="#dab42d" opacity="1.00" d=" M 325.29 636.55 C 336.03 636.66 346.77 636.58 357.51 636.59 C 357.70 646.16 357.42 655.74 357.66 665.32 C 365.91 665.45 374.17 665.16 382.42 665.45 C 382.96 664.36 383.22 663.22 383.20 662.02 C 383.19 654.16 383.10 646.29 383.26 638.43 C 393.44 638.40 403.61 638.48 413.79 638.38 C 413.99 661.51 413.94 684.64 413.82 707.77 C 364.93 707.68 316.05 707.74 267.17 707.74 C 267.15 684.63 267.05 661.51 267.22 638.40 C 277.40 638.43 287.58 638.48 297.76 638.37 C 297.96 644.22 297.84 650.08 297.86 655.94 C 297.93 659.12 297.50 662.40 298.55 665.48 C 307.13 665.16 315.73 665.43 324.32 665.32 C 326.02 655.83 324.54 646.13 325.29 636.55 Z" />
<path fill="#dab42d" opacity="1.00" d=" M 725.47 679.28 C 732.01 679.27 738.66 678.57 745.13 679.85 C 746.09 680.30 748.13 680.10 747.81 681.74 C 742.44 684.38 736.62 685.96 731.14 688.34 C 729.32 689.15 727.40 689.69 725.43 689.93 C 725.51 686.37 725.51 682.82 725.47 679.28 Z" />
<path fill="#dab42d" opacity="1.00" d=" M 291.31 719.45 C 324.11 719.50 356.91 719.55 389.70 719.42 C 391.56 727.48 391.74 735.84 393.12 744.00 C 402.62 820.76 412.17 897.52 421.74 974.28 C 422.24 980.75 423.81 987.12 423.81 993.64 C 368.30 993.47 312.78 993.63 257.27 993.56 C 258.11 980.82 260.56 968.23 261.69 955.52 C 271.50 877.33 281.12 799.10 290.91 720.91 C 291.01 720.54 291.21 719.81 291.31 719.45 M 317.10 799.17 C 316.82 804.52 316.28 810.11 317.73 815.36 C 332.95 815.36 348.17 815.25 363.38 815.41 C 364.68 810.06 364.03 804.48 364.01 799.04 C 363.72 798.78 363.12 798.25 362.82 797.99 C 347.91 797.83 332.97 797.81 318.06 798.01 C 317.82 798.30 317.34 798.88 317.10 799.17 M 317.64 852.69 C 317.80 858.18 317.66 863.69 317.78 869.19 C 333.15 869.18 348.53 869.20 363.90 869.17 C 364.39 863.70 363.93 858.21 364.23 852.74 C 362.91 852.06 361.45 851.77 359.99 851.87 C 347.33 851.90 334.68 851.91 322.02 851.87 C 320.50 851.75 319.03 852.11 317.64 852.69 M 316.83 906.78 C 317.22 912.29 316.10 917.97 317.71 923.34 C 332.92 923.37 348.12 923.29 363.33 923.39 C 364.89 918.00 363.71 912.34 364.17 906.83 C 362.86 906.13 361.43 905.76 359.95 905.89 C 347.28 905.89 334.62 905.90 321.95 905.89 C 320.19 905.85 318.51 906.35 316.83 906.78 Z" />
<path fill="#dab42d" opacity="1.00" d=" M 238.28 1006.28 C 306.40 1006.31 374.52 1006.20 442.64 1006.34 C 442.70 1029.45 442.64 1052.56 442.67 1075.67 C 424.51 1075.82 406.35 1075.66 388.19 1075.76 C 387.85 1069.73 388.68 1063.62 387.36 1057.68 C 356.12 1057.78 324.88 1057.65 293.64 1057.75 C 293.49 1063.72 293.57 1069.69 293.59 1075.67 C 275.15 1075.81 256.71 1075.69 238.27 1075.73 C 238.30 1052.58 238.28 1029.43 238.28 1006.28 Z" />
</g>
<g id="#a42a25ff">
<path fill="#a42a25" opacity="1.00" d=" M 1203.66 478.94 C 1290.45 478.93 1377.24 478.94 1464.03 478.94 C 1515.94 478.57 1568.10 480.65 1619.32 489.65 C 1657.60 496.59 1695.93 507.27 1729.42 527.60 C 1745.38 537.37 1760.01 549.54 1771.71 564.20 C 1782.27 577.24 1790.36 592.22 1795.82 608.07 C 1802.97 628.86 1805.53 651.01 1805.23 672.92 C 1804.83 691.24 1802.17 709.63 1795.90 726.91 C 1789.23 745.78 1778.20 763.02 1764.17 777.27 C 1739.44 802.10 1707.00 817.59 1673.89 827.90 C 1665.93 830.54 1657.71 832.23 1649.72 834.69 C 1687.02 841.73 1724.30 852.84 1756.38 873.66 C 1771.80 883.78 1785.78 896.30 1796.66 911.25 C 1806.66 924.70 1813.99 940.03 1818.84 956.05 C 1824.94 976.39 1827.04 997.76 1826.62 1018.94 C 1826.17 1042.32 1822.73 1065.82 1814.63 1087.83 C 1804.06 1117.37 1784.25 1143.34 1758.95 1161.83 C 1729.55 1183.45 1694.50 1195.93 1659.09 1203.57 C 1631.73 1209.38 1603.83 1212.48 1575.90 1213.80 C 1555.29 1215.04 1534.64 1214.48 1514.01 1214.60 C 1458.34 1214.60 1402.66 1214.60 1346.99 1214.60 C 1299.18 1214.48 1251.36 1214.85 1203.56 1214.42 C 1203.78 969.26 1203.57 724.10 1203.66 478.94 M 1401.09 612.62 C 1401.02 667.39 1401.10 722.16 1401.05 776.92 C 1416.01 776.95 1430.97 776.93 1445.94 776.94 C 1471.96 776.64 1498.14 778.16 1523.97 774.23 C 1543.15 771.33 1562.75 766.37 1578.64 754.73 C 1592.29 744.93 1601.30 729.42 1604.19 712.97 C 1607.60 694.23 1606.45 673.88 1597.14 656.92 C 1588.91 642.05 1574.57 631.46 1559.04 625.17 C 1536.91 616.05 1512.76 613.37 1489.02 612.62 C 1459.71 612.60 1430.40 612.58 1401.09 612.62 M 1401.05 904.05 C 1401.14 962.93 1400.94 1021.82 1401.15 1080.70 C 1425.42 1080.54 1449.69 1080.68 1473.96 1080.64 C 1500.80 1080.82 1527.92 1079.58 1554.04 1072.96 C 1571.68 1068.38 1589.45 1060.72 1601.51 1046.54 C 1613.61 1032.68 1618.59 1014.03 1619.29 995.96 C 1620.10 978.39 1616.91 960.01 1606.78 945.31 C 1596.81 930.64 1580.97 921.04 1564.43 915.44 C 1538.00 906.31 1509.77 904.58 1482.03 904.03 C 1455.03 904.06 1428.04 904.02 1401.05 904.05 Z" />
<path fill="#a42a25" opacity="1.00" d=" M 1896.03 478.98 C 2002.34 478.88 2108.66 478.97 2214.98 478.94 C 2249.36 478.57 2283.88 479.68 2317.91 485.02 C 2346.51 489.48 2374.84 496.74 2401.38 508.45 C 2425.26 518.98 2447.64 533.30 2466.22 551.71 C 2483.83 568.98 2497.72 589.93 2507.24 612.65 C 2515.96 633.43 2521.14 655.58 2523.62 677.94 C 2526.76 706.20 2526.25 734.88 2521.79 762.97 C 2518.38 783.80 2512.41 804.27 2503.43 823.40 C 2484.83 863.55 2452.05 896.28 2413.33 917.27 C 2392.23 928.83 2369.44 937.14 2346.07 942.75 C 2314.67 950.45 2282.27 953.18 2250.02 953.60 C 2200.37 953.63 2150.73 953.61 2101.09 953.61 C 2101.03 1037.74 2101.07 1121.87 2101.07 1205.99 C 2101.00 1208.86 2100.81 1211.74 2100.72 1214.63 C 2032.52 1214.63 1964.32 1214.51 1896.12 1214.68 C 1895.74 1172.45 1896.07 1130.20 1895.96 1087.97 C 1896.01 884.97 1895.87 681.98 1896.03 478.98 M 2101.09 616.61 C 2101.02 680.71 2101.10 744.82 2101.05 808.93 C 2129.37 808.95 2157.69 808.93 2186.01 808.94 C 2204.04 809.19 2222.17 808.29 2239.91 804.82 C 2254.65 801.89 2269.28 797.18 2282.02 789.03 C 2291.64 782.93 2299.94 774.65 2305.77 764.83 C 2313.44 752.25 2317.08 737.59 2318.29 723.01 C 2319.41 705.47 2318.53 687.39 2312.07 670.85 C 2306.51 656.03 2295.80 643.23 2282.19 635.17 C 2269.18 627.34 2254.40 623.01 2239.56 620.29 C 2220.23 616.75 2200.52 616.35 2180.93 616.60 C 2154.32 616.60 2127.70 616.60 2101.09 616.61 Z" />
<path fill="#a42a25" opacity="1.00" d=" M 2593.35 479.10 C 2661.34 478.74 2729.36 479.02 2797.36 478.96 C 2797.38 705.32 2797.36 931.68 2797.37 1158.05 C 2797.43 1176.84 2797.24 1195.63 2797.46 1214.42 C 2729.45 1214.83 2661.42 1214.51 2593.40 1214.58 C 2593.35 969.42 2593.46 724.26 2593.35 479.10 Z" />
</g>
</svg>
