<?xml version="1.0" encoding="UTF-8"?>
<svg width="1000px" height="1140px" viewBox="0 0 1000 1140" version="1.1" xmlns="http://www.w3.org/2000/svg" xmlns:xlink="http://www.w3.org/1999/xlink">
    <!-- Generator: Sketch 55.2 (78181) - https://sketchapp.com -->
    <title>abs_cbn</title>
    <desc>Created with Sketch.</desc>
    <g id="Page-1" stroke="none" stroke-width="1" fill="none" fill-rule="evenodd">
        <g id="abs_cbn" fill-rule="nonzero">
            <path d="M696.4071,471.6391 C696.4071,364.53553 609.8975,277.70248 503.1963,277.70248 C396.4743,277.70248 309.9459,364.53553 309.9459,471.6391 C309.9459,556.71078 364.5167,628.93285 440.4404,655.10723 L440.4404,562.81324 C411.6509,542.81828 392.7789,509.44342 392.7789,471.6391 C392.7789,410.43662 442.2142,360.80584 503.1776,360.80584 C564.1419,360.80584 613.6147,410.43662 613.6147,471.6391 C613.6147,509.79591 594.3725,543.40783 565.1495,563.36537 L565.1495,655.36405 C641.4402,629.4465 696.4071,557.00711 696.4071,471.6391" id="path2113" fill="#0066B2"></path>
            <path d="M834.4369,471.6391 C834.4369,288.02229 686.1154,139.16116 503.1776,139.16116 C320.2397,139.16116 171.939,288.02333 171.939,471.6391 C171.939,633.71583 287.4929,768.67615 440.4404,798.09464 L440.4404,712.88468 C333.6248,684.96139 254.7502,587.58704 254.7502,471.6391 C254.7502,333.92441 365.9776,222.28533 503.1776,222.28533 C640.4025,222.28533 751.6496,333.92545 751.6496,471.6391 C751.6496,587.88338 672.3602,685.45216 565.1672,713.08223 L565.1672,798.23397 C718.4671,769.12949 834.4369,634.01217 834.4369,471.6391" id="path2115" fill="#00A551"></path>
            <path d="M972.4458,471.6391 C972.4458,211.49969 762.349,0.639604 503.1776,0.639604 C244.0062,0.639604 33.9093,211.49969 33.9093,471.6391 C33.9093,710.4048 210.9443,907.66976 440.4414,938.42749 L440.4414,854.2989 C256.8558,824.19207 116.7226,664.39558 116.7226,471.6391 C116.7226,257.41117 289.7378,83.76377 503.1786,83.76377 C716.6205,83.76377 889.6409,257.41117 889.6409,471.6391 C889.6409,664.67008 749.0876,824.6631 565.1505,854.41744 L565.1505,938.54499 C795.022,908.10335 972.4458,710.68034 972.4458,471.6391" id="path2117" fill="#EC1C24"></path>
            <rect id="rect2119" fill="#000000" x="468.6829" y="471.62039" width="69.013313" height="498.70547"></rect>
            <rect id="rect2121" fill="#000000" x="480.7039" y="1057.0736" width="44.947605" height="44.82803"></rect>
            <path d="M749.7936,1116.8392 C749.7936,1127.761 750.247,1127.68201 770.1827,1127.68201 C791.1207,1127.68201 811.1136,1124.5138 811.1136,1108.3182 C811.1136,1086.3559 776.9527,1086.0804 761.566,1086.0804 L749.7936,1086.0804 L749.7936,1116.8392 Z M749.7936,1072.3844 L761.566,1072.3844 C775.0259,1072.3844 802.9128,1071.4382 802.9128,1053.0778 C802.9128,1037.6308 786.5956,1033.6349 767.3919,1033.6349 C750.7637,1033.6349 749.7936,1034.8359 749.7936,1044.8323 L749.7936,1072.3844 Z M705.0436,1023.3827 L772.7,1023.3827 C810.9992,1023.3827 850.6512,1025.0765 850.6512,1051.4048 C850.6512,1073.8786 822.729,1075.7481 813.2826,1076.7712 L813.2826,1076.9491 C835.3602,1076.7712 855.9031,1086.1979 855.9031,1107.294 C855.9031,1138.1307 807.4952,1137.87603 770.7764,1137.87603 L705.0436,1137.87603 L705.0436,1023.3827 Z" id="path2123" fill="#000000"></path>
            <path d="M537.6536,1080.6101 C537.6536,1111.8794 557.4562,1139.549 629.9111,1139.549 C657.9571,1139.549 671.8704,1138.111 695.8342,1134.059 L695.8342,1104.9337 C689.9522,1114.5371 673.4821,1129.354 638.5476,1129.354 C597.9909,1129.354 583.1148,1102.355 583.1148,1080.6101 C583.1148,1058.8434 597.9909,1031.884 638.5476,1031.884 C673.4821,1031.884 689.9522,1046.7216 695.8342,1056.2876 L695.8342,1027.1613 C671.8694,1023.1072 657.9561,1021.6889 629.9111,1021.6889 C557.4562,1021.6889 537.6536,1049.3377 537.6536,1080.6101" id="path2125" fill="#000000"></path>
            <polygon id="polygon2127" fill="#000000" points="999.73694 1023.34424 983.01312 1023.34424 983.01312 1100.09247 897.446513 1023.38271 862.97157 1023.34424 862.97157 1137.8552 879.913744 1137.8552 879.950136 1064.39371 959.926887 1137.8552 1000 1137.8552 1000 1023.38271 999.718224 1023.38271"></polygon>
            <path d="M44.8915,1093.2434 L96.7079,1093.2434 L71.2977,1045.7369 L44.8915,1093.2434 Z M66.8922,1023.3827 L105.8558,1023.3827 L169.5985,1137.876 L119.8263,1137.876 L102.827,1107.0392 L36.0117,1107.0392 L19.2858,1137.876 L0,1137.876 L66.8922,1023.3827 Z" id="path2129" fill="#000000"></path>
            <path d="M221.1362,1116.8392 C221.1362,1127.761 221.5885,1127.68201 241.5253,1127.68201 C262.4633,1127.68201 282.4562,1124.5138 282.4562,1108.3182 C282.4562,1086.3559 248.2942,1086.0804 232.9086,1086.0804 L221.1362,1086.0804 L221.1362,1116.8392 Z M221.1362,1072.3844 L232.9086,1072.3844 C246.3623,1072.3844 274.2721,1071.4382 274.2721,1053.0778 C274.2721,1037.6308 257.9372,1033.6349 238.7262,1033.6349 C222.0783,1033.6349 221.1352,1034.8359 221.1352,1044.8323 L221.1352,1072.3844 L221.1362,1072.3844 Z M176.3851,1023.3827 L244.0426,1023.3827 C282.3346,1023.3827 321.9741,1025.0765 321.9741,1051.4048 C321.9741,1073.8786 294.0685,1075.7481 284.6242,1076.7712 L284.6242,1076.9491 C306.7018,1076.7712 327.2447,1086.1979 327.2447,1107.294 C327.2447,1138.1307 278.817,1137.87603 242.1117,1137.87603 L176.3851,1137.87603 L176.3851,1023.3827 L176.3851,1023.3827 Z" id="path2131" fill="#000000"></path>
            <path d="M458.2674,1056.3261 C447.879,1039.5991 424.6981,1031.884 402.9709,1031.884 C380.6166,1031.884 371.9563,1037.9823 371.3241,1048.0983 C370.144,1069.8255 471.5308,1062.4275 468.6184,1105.6397 C466.8466,1132.0116 430.5604,1139.5292 390.4966,1139.5292 C368.7871,1139.5292 339.3644,1136.0647 334.0563,1135.4772 L334.0563,1103.5965 C346.1989,1115.3429 372.1913,1128.963 393.25,1129.5328 C414.1672,1130.0839 424.9518,1126.9729 424.9518,1112.7268 C424.9518,1089.1124 329.4304,1100.6446 332.3615,1054.0635 C333.5396,1035.4681 357.0968,1020.2343 404.779,1021.8085 C424.9508,1022.4188 442.3629,1024.2499 458.2653,1027.3578 L458.2653,1056.3261 L458.2674,1056.3261 Z" id="path2133" fill="#000000"></path>
        </g>
    </g>
</svg>